  0
SECTION
  2
HEADER
  9
$ACADVER
  1
AC1024
  9
$ACADMAINTVER
 70
6
  9
$DWGCODEPAGE
  3
ANSI_1252
  9
$LASTSAVEDBY
  1
ezdxf
  9
$INSBASE
 10
0.0
 20
0.0
 30
0.0
  9
$EXTMIN
 10
1e+20
 20
1e+20
 30
1e+20
  9
$EXTMAX
 10
-1e+20
 20
-1e+20
 30
-1e+20
  9
$LIMMIN
 10
0.0
 20
0.0
  9
$LIMMAX
 10
420.0
 20
297.0
  9
$ORTHOMODE
 70
0
  9
$REGENMODE
 70
1
  9
$FILLMODE
 70
1
  9
$QTEXTMODE
 70
0
  9
$MIRRTEXT
 70
1
  9
$LTSCALE
 40
1.0
  9
$ATTMODE
 70
1
  9
$TEXTSIZE
 40
2.5
  9
$TRACEWID
 40
1.0
  9
$TEXTSTYLE
  7
Standard
  9
$CLAYER
  8
0
  9
$CELTYPE
  6
ByLayer
  9
$CECOLOR
 62
256
  9
$CELTSCALE
 40
1.0
  9
$DISPSILH
 70
0
  9
$DIMSCALE
 40
1.0
  9
$DIMASZ
 40
2.5
  9
$DIMEXO
 40
0.625
  9
$DIMDLI
 40
3.75
  9
$DIMRND
 40
0.0
  9
$DIMDLE
 40
0.0
  9
$DIMEXE
 40
1.25
  9
$DIMTP
 40
0.0
  9
$DIMTM
 40
0.0
  9
$DIMTXT
 40
2.5
  9
$DIMCEN
 40
2.5
  9
$DIMTSZ
 40
0.0
  9
$DIMTOL
 70
0
  9
$DIMLIM
 70
0
  9
$DIMTIH
 70
0
  9
$DIMTOH
 70
0
  9
$DIMSE1
 70
0
  9
$DIMSE2
 70
0
  9
$DIMTAD
 70
1
  9
$DIMZIN
 70
8
  9
$DIMBLK
  1

  9
$DIMASO
 70
1
  9
$DIMSHO
 70
1
  9
$DIMPOST
  1

  9
$DIMAPOST
  1

  9
$DIMALT
 70
0
  9
$DIMALTD
 70
3
  9
$DIMALTF
 40
0.03937007874
  9
$DIMLFAC
 40
1.0
  9
$DIMTOFL
 70
1
  9
$DIMTVP
 40
0.0
  9
$DIMTIX
 70
0
  9
$DIMSOXD
 70
0
  9
$DIMSAH
 70
0
  9
$DIMBLK1
  1

  9
$DIMBLK2
  1

  9
$DIMSTYLE
  2
ISO-25
  9
$DIMCLRD
 70
0
  9
$DIMCLRE
 70
0
  9
$DIMCLRT
 70
0
  9
$DIMTFAC
 40
1.0
  9
$DIMGAP
 40
0.625
  9
$DIMJUST
 70
0
  9
$DIMSD1
 70
0
  9
$DIMSD2
 70
0
  9
$DIMTOLJ
 70
0
  9
$DIMTZIN
 70
8
  9
$DIMALTZ
 70
0
  9
$DIMALTTZ
 70
0
  9
$DIMUPT
 70
0
  9
$DIMDEC
 70
2
  9
$DIMTDEC
 70
2
  9
$DIMALTU
 70
2
  9
$DIMALTTD
 70
3
  9
$DIMTXSTY
  7
Standard
  9
$DIMAUNIT
 70
0
  9
$DIMADEC
 70
0
  9
$DIMALTRND
 40
0.0
  9
$DIMAZIN
 70
0
  9
$DIMDSEP
 70
44
  9
$DIMATFIT
 70
3
  9
$DIMFRAC
 70
0
  9
$DIMLDRBLK
  1

  9
$DIMLUNIT
 70
2
  9
$DIMLWD
 70
-2
  9
$DIMLWE
 70
-2
  9
$DIMTMOVE
 70
0
  9
$DIMFXL
 40
1.0
  9
$DIMFXLON
 70
0
  9
$DIMJOGANG
 40
0.785398163397
  9
$DIMTFILL
 70
0
  9
$DIMTFILLCLR
 70
0
  9
$DIMARCSYM
 70
0
  9
$DIMLTYPE
  6

  9
$DIMLTEX1
  6

  9
$DIMLTEX2
  6

  9
$DIMTXTDIRECTION
 70
0
  9
$LUNITS
 70
2
  9
$LUPREC
 70
4
  9
$SKETCHINC
 40
1.0
  9
$FILLETRAD
 40
10.0
  9
$AUNITS
 70
0
  9
$AUPREC
 70
2
  9
$MENU
  1
.
  9
$ELEVATION
 40
0.0
  9
$PELEVATION
 40
0.0
  9
$THICKNESS
 40
0.0
  9
$LIMCHECK
 70
0
  9
$CHAMFERA
 40
0.0
  9
$CHAMFERB
 40
0.0
  9
$CHAMFERC
 40
0.0
  9
$CHAMFERD
 40
0.0
  9
$SKPOLY
 70
0
  9
$TDCREATE
 40
2461086.928159722
  9
$TDUCREATE
 40
2458532.153996898
  9
$TDUPDATE
 40
2461086.928159722
  9
$TDUUPDATE
 40
2458532.1544311
  9
$TDINDWG
 40
0.0
  9
$TDUSRTIMER
 40
0.0
  9
$USRTIMER
 70
1
  9
$ANGBASE
 50
0.0
  9
$ANGDIR
 70
0
  9
$PDMODE
 70
0
  9
$PDSIZE
 40
0.0
  9
$PLINEWID
 40
0.0
  9
$SPLFRAME
 70
0
  9
$SPLINETYPE
 70
6
  9
$SPLINESEGS
 70
8
  9
$HANDSEED
  5
27A
  9
$SURFTAB1
 70
6
  9
$SURFTAB2
 70
6
  9
$SURFTYPE
 70
6
  9
$SURFU
 70
6
  9
$SURFV
 70
6
  9
$UCSBASE
  2

  9
$UCSNAME
  2

  9
$UCSORG
 10
0.0
 20
0.0
 30
0.0
  9
$UCSXDIR
 10
1.0
 20
0.0
 30
0.0
  9
$UCSYDIR
 10
0.0
 20
1.0
 30
0.0
  9
$UCSORTHOREF
  2

  9
$UCSORTHOVIEW
 70
0
  9
$UCSORGTOP
 10
0.0
 20
0.0
 30
0.0
  9
$UCSORGBOTTOM
 10
0.0
 20
0.0
 30
0.0
  9
$UCSORGLEFT
 10
0.0
 20
0.0
 30
0.0
  9
$UCSORGRIGHT
 10
0.0
 20
0.0
 30
0.0
  9
$UCSORGFRONT
 10
0.0
 20
0.0
 30
0.0
  9
$UCSORGBACK
 10
0.0
 20
0.0
 30
0.0
  9
$PUCSBASE
  2

  9
$PUCSNAME
  2

  9
$PUCSORG
 10
0.0
 20
0.0
 30
0.0
  9
$PUCSXDIR
 10
1.0
 20
0.0
 30
0.0
  9
$PUCSYDIR
 10
0.0
 20
1.0
 30
0.0
  9
$PUCSORTHOREF
  2

  9
$PUCSORTHOVIEW
 70
0
  9
$PUCSORGTOP
 10
0.0
 20
0.0
 30
0.0
  9
$PUCSORGBOTTOM
 10
0.0
 20
0.0
 30
0.0
  9
$PUCSORGLEFT
 10
0.0
 20
0.0
 30
0.0
  9
$PUCSORGRIGHT
 10
0.0
 20
0.0
 30
0.0
  9
$PUCSORGFRONT
 10
0.0
 20
0.0
 30
0.0
  9
$PUCSORGBACK
 10
0.0
 20
0.0
 30
0.0
  9
$USERI1
 70
0
  9
$USERI2
 70
0
  9
$USERI3
 70
0
  9
$USERI4
 70
0
  9
$USERI5
 70
0
  9
$USERR1
 40
0.0
  9
$USERR2
 40
0.0
  9
$USERR3
 40
0.0
  9
$USERR4
 40
0.0
  9
$USERR5
 40
0.0
  9
$WORLDVIEW
 70
1
  9
$SHADEDGE
 70
3
  9
$SHADEDIF
 70
70
  9
$TILEMODE
 70
1
  9
$MAXACTVP
 70
64
  9
$PINSBASE
 10
0.0
 20
0.0
 30
0.0
  9
$PLIMCHECK
 70
0
  9
$PEXTMIN
 10
1e+20
 20
1e+20
 30
1e+20
  9
$PEXTMAX
 10
-1e+20
 20
-1e+20
 30
-1e+20
  9
$PLIMMIN
 10
0.0
 20
0.0
  9
$PLIMMAX
 10
420.0
 20
297.0
  9
$UNITMODE
 70
0
  9
$VISRETAIN
 70
1
  9
$PLINEGEN
 70
0
  9
$PSLTSCALE
 70
1
  9
$TREEDEPTH
 70
3020
  9
$CMLSTYLE
  2
Standard
  9
$CMLJUST
 70
0
  9
$CMLSCALE
 40
20.0
  9
$PROXYGRAPHICS
 70
1
  9
$MEASUREMENT
 70
1
  9
$CELWEIGHT
370
-1
  9
$ENDCAPS
280
0
  9
$JOINSTYLE
280
0
  9
$LWDISPLAY
290
0
  9
$INSUNITS
 70
6
  9
$HYPERLINKBASE
  1

  9
$STYLESHEET
  1

  9
$XEDIT
290
1
  9
$CEPSNTYPE
380
0
  9
$PSTYLEMODE
290
1
  9
$FINGERPRINTGUID
  2
{95C6CF46-951C-4F46-94D5-85EE9E817415}
  9
$VERSIONGUID
  2
{63004BFD-0A96-4F68-9797-C9DE6DDCFB05}
  9
$EXTNAMES
290
1
  9
$PSVPSCALE
 40
0.0
  9
$OLESTARTUP
290
0
  9
$SORTENTS
280
127
  9
$INDEXCTL
280
0
  9
$HIDETEXT
280
1
  9
$XCLIPFRAME
280
1
  9
$HALOGAP
280
0
  9
$OBSCOLOR
 70
257
  9
$OBSLTYPE
280
0
  9
$INTERSECTIONDISPLAY
280
0
  9
$INTERSECTIONCOLOR
 70
257
  9
$DIMASSOC
280
2
  9
$PROJECTNAME
  1

  9
$CAMERADISPLAY
290
0
  9
$LENSLENGTH
 40
50.0
  9
$CAMERAHEIGHT
 40
0.0
  9
$STEPSPERSEC
 40
24.0
  9
$STEPSIZE
 40
100.0
  9
$3DDWFPREC
 40
2.0
  9
$PSOLWIDTH
 40
0.005
  9
$PSOLHEIGHT
 40
0.08
  9
$LOFTANG1
 40
1.570796326795
  9
$LOFTANG2
 40
1.570796326795
  9
$LOFTMAG1
 40
0.0
  9
$LOFTMAG2
 40
0.0
  9
$LOFTPARAM
 70
7
  9
$LOFTNORMALS
280
1
  9
$LATITUDE
 40
37.795
  9
$LONGITUDE
 40
-122.394
  9
$NORTHDIRECTION
 40
0.0
  9
$TIMEZONE
 70
-8000
  9
$LIGHTGLYPHDISPLAY
280
1
  9
$TILEMODELIGHTSYNCH
280
1
  9
$CMATERIAL
347
20
  9
$SOLIDHIST
280
0
  9
$SHOWHIST
280
1
  9
$DWFFRAME
280
2
  9
$DGNFRAME
280
2
  9
$REALWORLDSCALE
290
1
  9
$INTERFERECOLOR
 62
256
  9
$CSHADOW
280
0
  9
$SHADOWPLANELOCATION
 40
0.0
  0
ENDSEC
  0
SECTION
  2
CLASSES
  0
CLASS
  1
ACDBDICTIONARYWDFLT
  2
AcDbDictionaryWithDefault
  3
ObjectDBX Classes
 90
0
 91
0
280
0
281
0
  0
CLASS
  1
SUN
  2
AcDbSun
  3
SCENEOE
 90
1153
 91
0
280
0
281
0
  0
CLASS
  1
VISUALSTYLE
  2
AcDbVisualStyle
  3
ObjectDBX Classes
 90
4095
 91
0
280
0
281
0
  0
CLASS
  1
MATERIAL
  2
AcDbMaterial
  3
ObjectDBX Classes
 90
1153
 91
0
280
0
281
0
  0
CLASS
  1
SCALE
  2
AcDbScale
  3
ObjectDBX Classes
 90
1153
 91
0
280
0
281
0
  0
CLASS
  1
TABLESTYLE
  2
AcDbTableStyle
  3
ObjectDBX Classes
 90
4095
 91
0
280
0
281
0
  0
CLASS
  1
MLEADERSTYLE
  2
AcDbMLeaderStyle
  3
ACDB_MLEADERSTYLE_CLASS
 90
4095
 91
0
280
0
281
0
  0
CLASS
  1
DICTIONARYVAR
  2
AcDbDictionaryVar
  3
ObjectDBX Classes
 90
0
 91
0
280
0
281
0
  0
CLASS
  1
CELLSTYLEMAP
  2
AcDbCellStyleMap
  3
ObjectDBX Classes
 90
1152
 91
0
280
0
281
0
  0
CLASS
  1
MENTALRAYRENDERSETTINGS
  2
AcDbMentalRayRenderSettings
  3
SCENEOE
 90
1024
 91
0
280
0
281
0
  0
CLASS
  1
ACDBDETAILVIEWSTYLE
  2
AcDbDetailViewStyle
  3
ObjectDBX Classes
 90
1025
 91
0
280
0
281
0
  0
CLASS
  1
ACDBSECTIONVIEWSTYLE
  2
AcDbSectionViewStyle
  3
ObjectDBX Classes
 90
1025
 91
0
280
0
281
0
  0
CLASS
  1
RASTERVARIABLES
  2
AcDbRasterVariables
  3
ISM
 90
0
 91
0
280
0
281
0
  0
CLASS
  1
ACDBPLACEHOLDER
  2
AcDbPlaceHolder
  3
ObjectDBX Classes
 90
0
 91
0
280
0
281
0
  0
CLASS
  1
LAYOUT
  2
AcDbLayout
  3
ObjectDBX Classes
 90
0
 91
0
280
0
281
0
  0
ENDSEC
  0
SECTION
  2
TABLES
  0
TABLE
  2
VPORT
  5
8
330
0
100
AcDbSymbolTable
 70
1
  0
VPORT
  5
23
330
8
100
AcDbSymbolTableRecord
100
AcDbViewportTableRecord
  2
*Active
 70
0
 10
0.0
 20
0.0
 11
1.0
 21
1.0
 12
0.0
 22
0.0
 13
0.0
 23
0.0
 14
0.5
 24
0.5
 15
0.5
 25
0.5
 16
0.0
 26
0.0
 36
1.0
 17
0.0
 27
0.0
 37
0.0
 40
1000.0
 41
1.34
 42
50.0
 43
0.0
 44
0.0
 50
0.0
 51
0.0
 71
0
 72
1000
 73
1
 74
3
 75
0
 76
0
 77
0
 78
0
281
0
 65
0
146
0.0
  0
ENDTAB
  0
TABLE
  2
LTYPE
  5
2
330
0
100
AcDbSymbolTable
 70
3
  0
LTYPE
  5
24
330
2
100
AcDbSymbolTableRecord
100
AcDbLinetypeTableRecord
  2
ByBlock
 70
0
  3

 72
65
 73
0
 40
0.0
  0
LTYPE
  5
25
330
2
100
AcDbSymbolTableRecord
100
AcDbLinetypeTableRecord
  2
ByLayer
 70
0
  3

 72
65
 73
0
 40
0.0
  0
LTYPE
  5
26
330
2
100
AcDbSymbolTableRecord
100
AcDbLinetypeTableRecord
  2
Continuous
 70
0
  3

 72
65
 73
0
 40
0.0
  0
ENDTAB
  0
TABLE
  2
LAYER
  5
1
330
0
100
AcDbSymbolTable
 70
2
  0
LAYER
  5
27
330
1
100
AcDbSymbolTableRecord
100
AcDbLayerTableRecord
  2
0
 70
0
 62
7
  6
Continuous
370
-3
390
13
347
21
  0
LAYER
  5
28
330
1
100
AcDbSymbolTableRecord
100
AcDbLayerTableRecord
  2
Defpoints
 70
0
 62
7
  6
Continuous
290
0
370
-3
390
13
347
21
  0
ENDTAB
  0
TABLE
  2
STYLE
  5
5
330
0
100
AcDbSymbolTable
 70
1
  0
STYLE
  5
29
330
5
100
AcDbSymbolTableRecord
100
AcDbTextStyleTableRecord
  2
Standard
 70
0
 40
0.0
 41
0.7
 50
0.0
 71
0
 42
2.5
  3

  4

1001
ACAD
1000
仿宋
1071
0
  0
ENDTAB
  0
TABLE
  2
VIEW
  5
7
330
0
100
AcDbSymbolTable
 70
0
  0
ENDTAB
  0
TABLE
  2
UCS
  5
6
330
0
100
AcDbSymbolTable
 70
0
  0
ENDTAB
  0
TABLE
  2
APPID
  5
3
330
0
100
AcDbSymbolTable
 70
3
  0
APPID
  5
2A
330
3
100
AcDbSymbolTableRecord
100
AcDbRegAppTableRecord
  2
ACAD
 70
0
  0
APPID
  5
277
330
3
100
AcDbSymbolTableRecord
100
AcDbRegAppTableRecord
  2
HATCHBACKGROUNDCOLOR
 70
0
  0
APPID
  5
278
330
3
100
AcDbSymbolTableRecord
100
AcDbRegAppTableRecord
  2
EZDXF
 70
0
  0
ENDTAB
  0
TABLE
  2
DIMSTYLE
  5
4
330
0
100
AcDbSymbolTable
 70
1
100
AcDbDimStyleTable
  0
DIMSTYLE
105
2B
330
4
100
AcDbSymbolTableRecord
100
AcDbDimStyleTableRecord
  2
Standard
 70
0
 40
1.0
 41
2.5
 42
0.625
 43
3.75
 44
1.25
 45
0.0
 46
0.0
 47
0.0
 48
0.0
 49
2.5
140
2.5
141
2.5
142
0.0
143
0.03937007874
144
1.0
145
0.0
146
1.0
147
0.625
148
0.0
 69
0
 70
0
 71
0
 72
0
 73
0
 74
0
 75
0
 76
0
 77
1
 78
8
 79
3
170
0
171
3
172
1
173
0
174
0
175
0
176
0
177
0
178
0
179
2
271
2
272
2
273
2
274
3
275
0
276
0
277
2
278
44
279
0
280
0
281
0
282
0
283
0
284
8
285
0
286
0
288
0
289
3
290
0
371
-2
372
-2
  0
ENDTAB
  0
TABLE
  2
BLOCK_RECORD
  5
9
330
0
100
AcDbSymbolTable
 70
2
  0
BLOCK_RECORD
  5
17
330
9
100
AcDbSymbolTableRecord
100
AcDbBlockTableRecord
  2
*Model_Space
340
1A
 70
0
280
1
281
0
  0
BLOCK_RECORD
  5
1B
330
9
100
AcDbSymbolTableRecord
100
AcDbBlockTableRecord
  2
*Paper_Space
340
1E
 70
0
280
1
281
0
  0
ENDTAB
  0
ENDSEC
  0
SECTION
  2
BLOCKS
  0
BLOCK
  5
18
330
17
100
AcDbEntity
  8
0
100
AcDbBlockBegin
  2
*Model_Space
 70
0
 10
0.0
 20
0.0
 30
0.0
  3
*Model_Space
  1

  0
ENDBLK
  5
19
330
17
100
AcDbEntity
  8
0
100
AcDbBlockEnd
  0
BLOCK
  5
1C
330
1B
100
AcDbEntity
  8
0
100
AcDbBlockBegin
  2
*Paper_Space
 70
0
 10
0.0
 20
0.0
 30
0.0
  3
*Paper_Space
  1

  0
ENDBLK
  5
1D
330
1B
100
AcDbEntity
  8
0
100
AcDbBlockEnd
  0
ENDSEC
  0
SECTION
  2
ENTITIES
  0
LINE
  5
2F
330
17
100
AcDbEntity
  8
IP_TABLE
100
AcDbLine
 10
0.0
 20
0.0
 30
0.0
 11
174.31999999999996
 21
0.0
 31
0.0
  0
LINE
  5
30
330
17
100
AcDbEntity
  8
IP_TABLE
100
AcDbLine
 10
0.0
 20
-7.0
 30
0.0
 11
174.31999999999996
 21
-7.0
 31
0.0
  0
LINE
  5
31
330
17
100
AcDbEntity
  8
IP_TABLE
100
AcDbLine
 10
0.0
 20
0.0
 30
0.0
 11
0.0
 21
-7.0
 31
0.0
  0
LINE
  5
32
330
17
100
AcDbEntity
  8
IP_TABLE
100
AcDbLine
 10
174.31999999999996
 20
0.0
 30
0.0
 11
174.31999999999996
 21
-7.0
 31
0.0
  0
TEXT
  5
33
330
17
100
AcDbEntity
  8
IP_TABLE
100
AcDbText
 10
87.15999999999998
 20
-3.5
 30
0.0
 40
3.0
  1
IP坐标及弯道参数表
 41
0.7
 72
1
 11
87.15999999999998
 21
-3.5
 31
0.0
100
AcDbText
 73
2
  0
LINE
  5
34
330
17
100
AcDbEntity
  8
IP_TABLE
100
AcDbLine
 10
0.0
 20
-19.0
 30
0.0
 11
174.31999999999996
 21
-19.0
 31
0.0
  0
LINE
  5
35
330
17
100
AcDbEntity
  8
IP_TABLE
100
AcDbLine
 10
0.0
 20
-7.0
 30
0.0
 11
0.0
 21
-19.0
 31
0.0
  0
LINE
  5
36
330
17
100
AcDbEntity
  8
IP_TABLE
100
AcDbLine
 10
174.31999999999996
 20
-7.0
 30
0.0
 11
174.31999999999996
 21
-19.0
 31
0.0
  0
LINE
  5
37
330
17
100
AcDbEntity
  8
IP_TABLE
100
AcDbLine
 10
14.0
 20
-13.0
 30
0.0
 11
34.16
 21
-13.0
 31
0.0
  0
LINE
  5
38
330
17
100
AcDbEntity
  8
IP_TABLE
100
AcDbLine
 10
34.16
 20
-13.0
 30
0.0
 11
55.64
 21
-13.0
 31
0.0
  0
LINE
  5
39
330
17
100
AcDbEntity
  8
IP_TABLE
100
AcDbLine
 10
55.64
 20
-13.0
 30
0.0
 11
75.64
 21
-13.0
 31
0.0
  0
LINE
  5
3A
330
17
100
AcDbEntity
  8
IP_TABLE
100
AcDbLine
 10
75.64
 20
-13.0
 30
0.0
 11
95.64
 21
-13.0
 31
0.0
  0
LINE
  5
3B
330
17
100
AcDbEntity
  8
IP_TABLE
100
AcDbLine
 10
95.64
 20
-13.0
 30
0.0
 11
115.64
 21
-13.0
 31
0.0
  0
LINE
  5
3C
330
17
100
AcDbEntity
  8
IP_TABLE
100
AcDbLine
 10
115.64
 20
-13.0
 30
0.0
 11
126.56
 21
-13.0
 31
0.0
  0
LINE
  5
3D
330
17
100
AcDbEntity
  8
IP_TABLE
100
AcDbLine
 10
126.56
 20
-13.0
 30
0.0
 11
137.48
 21
-13.0
 31
0.0
  0
LINE
  5
3E
330
17
100
AcDbEntity
  8
IP_TABLE
100
AcDbLine
 10
137.48
 20
-13.0
 30
0.0
 11
148.39999999999998
 21
-13.0
 31
0.0
  0
LINE
  5
3F
330
17
100
AcDbEntity
  8
IP_TABLE
100
AcDbLine
 10
148.39999999999998
 20
-13.0
 30
0.0
 11
159.31999999999996
 21
-13.0
 31
0.0
  0
LINE
  5
40
330
17
100
AcDbEntity
  8
IP_TABLE
100
AcDbLine
 10
0.0
 20
-7.0
 30
0.0
 11
0.0
 21
-19.0
 31
0.0
  0
LINE
  5
41
330
17
100
AcDbEntity
  8
IP_TABLE
100
AcDbLine
 10
14.0
 20
-7.0
 30
0.0
 11
14.0
 21
-19.0
 31
0.0
  0
LINE
  5
42
330
17
100
AcDbEntity
  8
IP_TABLE
100
AcDbLine
 10
55.64
 20
-7.0
 30
0.0
 11
55.64
 21
-19.0
 31
0.0
  0
LINE
  5
43
330
17
100
AcDbEntity
  8
IP_TABLE
100
AcDbLine
 10
34.16
 20
-13.0
 30
0.0
 11
34.16
 21
-19.0
 31
0.0
  0
LINE
  5
44
330
17
100
AcDbEntity
  8
IP_TABLE
100
AcDbLine
 10
115.64
 20
-7.0
 30
0.0
 11
115.64
 21
-19.0
 31
0.0
  0
LINE
  5
45
330
17
100
AcDbEntity
  8
IP_TABLE
100
AcDbLine
 10
75.64
 20
-13.0
 30
0.0
 11
75.64
 21
-19.0
 31
0.0
  0
LINE
  5
46
330
17
100
AcDbEntity
  8
IP_TABLE
100
AcDbLine
 10
95.64
 20
-13.0
 30
0.0
 11
95.64
 21
-19.0
 31
0.0
  0
LINE
  5
47
330
17
100
AcDbEntity
  8
IP_TABLE
100
AcDbLine
 10
159.31999999999996
 20
-7.0
 30
0.0
 11
159.31999999999996
 21
-19.0
 31
0.0
  0
LINE
  5
48
330
17
100
AcDbEntity
  8
IP_TABLE
100
AcDbLine
 10
126.56
 20
-13.0
 30
0.0
 11
126.56
 21
-19.0
 31
0.0
  0
LINE
  5
49
330
17
100
AcDbEntity
  8
IP_TABLE
100
AcDbLine
 10
137.48
 20
-13.0
 30
0.0
 11
137.48
 21
-19.0
 31
0.0
  0
LINE
  5
4A
330
17
100
AcDbEntity
  8
IP_TABLE
100
AcDbLine
 10
148.39999999999998
 20
-13.0
 30
0.0
 11
148.39999999999998
 21
-19.0
 31
0.0
  0
LINE
  5
4B
330
17
100
AcDbEntity
  8
IP_TABLE
100
AcDbLine
 10
174.31999999999996
 20
-7.0
 30
0.0
 11
174.31999999999996
 21
-19.0
 31
0.0
  0
TEXT
  5
4C
330
17
100
AcDbEntity
  8
IP_TABLE
100
AcDbText
 10
7.0
 20
-13.0
 30
0.0
 40
2.5
  1
IP点
 41
0.7
 72
1
 11
7.0
 21
-13.0
 31
0.0
100
AcDbText
 73
2
  0
TEXT
  5
4D
330
17
100
AcDbEntity
  8
IP_TABLE
100
AcDbText
 10
34.82
 20
-10.0
 30
0.0
 40
2.5
  1
坐标值
 41
0.7
 72
1
 11
34.82
 21
-10.0
 31
0.0
100
AcDbText
 73
2
  0
TEXT
  5
4E
330
17
100
AcDbEntity
  8
IP_TABLE
100
AcDbText
 10
85.64
 20
-10.0
 30
0.0
 40
2.5
  1
桩号
 41
0.7
 72
1
 11
85.64
 21
-10.0
 31
0.0
100
AcDbText
 73
2
  0
TEXT
  5
4F
330
17
100
AcDbEntity
  8
IP_TABLE
100
AcDbText
 10
137.48
 20
-10.0
 30
0.0
 40
2.5
  1
弯道参数
 41
0.7
 72
1
 11
137.48
 21
-10.0
 31
0.0
100
AcDbText
 73
2
  0
TEXT
  5
50
330
17
100
AcDbEntity
  8
IP_TABLE
100
AcDbText
 10
166.81999999999996
 20
-13.0
 30
0.0
 40
2.5
  1
底高程(m)
 41
0.7
 72
1
 11
166.81999999999996
 21
-13.0
 31
0.0
100
AcDbText
 73
2
  0
TEXT
  5
51
330
17
100
AcDbEntity
  8
IP_TABLE
100
AcDbText
 10
24.08
 20
-16.0
 30
0.0
 40
2.5
  1
E（m）
 41
0.7
 72
1
 11
24.08
 21
-16.0
 31
0.0
100
AcDbText
 73
2
  0
TEXT
  5
52
330
17
100
AcDbEntity
  8
IP_TABLE
100
AcDbText
 10
44.9
 20
-16.0
 30
0.0
 40
2.5
  1
N（m）
 41
0.7
 72
1
 11
44.9
 21
-16.0
 31
0.0
100
AcDbText
 73
2
  0
TEXT
  5
53
330
17
100
AcDbEntity
  8
IP_TABLE
100
AcDbText
 10
65.64
 20
-16.0
 30
0.0
 40
2.5
  1
弯前(千米+米)
 41
0.7
 72
1
 11
65.64
 21
-16.0
 31
0.0
100
AcDbText
 73
2
  0
TEXT
  5
54
330
17
100
AcDbEntity
  8
IP_TABLE
100
AcDbText
 10
85.64
 20
-16.0
 30
0.0
 40
2.5
  1
弯中(千米+米)
 41
0.7
 72
1
 11
85.64
 21
-16.0
 31
0.0
100
AcDbText
 73
2
  0
TEXT
  5
55
330
17
100
AcDbEntity
  8
IP_TABLE
100
AcDbText
 10
105.64
 20
-16.0
 30
0.0
 40
2.5
  1
弯末(千米+米)
 41
0.7
 72
1
 11
105.64
 21
-16.0
 31
0.0
100
AcDbText
 73
2
  0
TEXT
  5
56
330
17
100
AcDbEntity
  8
IP_TABLE
100
AcDbText
 10
121.1
 20
-16.0
 30
0.0
 40
2.5
  1
转角
 41
0.7
 72
1
 11
121.1
 21
-16.0
 31
0.0
100
AcDbText
 73
2
  0
TEXT
  5
57
330
17
100
AcDbEntity
  8
IP_TABLE
100
AcDbText
 10
132.01999999999998
 20
-16.0
 30
0.0
 40
2.5
  1
半径
 41
0.7
 72
1
 11
132.01999999999998
 21
-16.0
 31
0.0
100
AcDbText
 73
2
  0
TEXT
  5
58
330
17
100
AcDbEntity
  8
IP_TABLE
100
AcDbText
 10
142.94
 20
-16.0
 30
0.0
 40
2.5
  1
切线长
 41
0.7
 72
1
 11
142.94
 21
-16.0
 31
0.0
100
AcDbText
 73
2
  0
TEXT
  5
59
330
17
100
AcDbEntity
  8
IP_TABLE
100
AcDbText
 10
153.85999999999996
 20
-16.0
 30
0.0
 40
2.5
  1
弧长
 41
0.7
 72
1
 11
153.85999999999996
 21
-16.0
 31
0.0
100
AcDbText
 73
2
  0
LINE
  5
5A
330
17
100
AcDbEntity
  8
IP_TABLE
100
AcDbLine
 10
0.0
 20
-19.0
 30
0.0
 11
174.31999999999996
 21
-19.0
 31
0.0
  0
LINE
  5
5B
330
17
100
AcDbEntity
  8
IP_TABLE
100
AcDbLine
 10
0.0
 20
-283.0
 30
0.0
 11
174.31999999999996
 21
-283.0
 31
0.0
  0
LINE
  5
5C
330
17
100
AcDbEntity
  8
IP_TABLE
100
AcDbLine
 10
0.0
 20
-25.0
 30
0.0
 11
174.31999999999996
 21
-25.0
 31
0.0
  0
LINE
  5
5D
330
17
100
AcDbEntity
  8
IP_TABLE
100
AcDbLine
 10
0.0
 20
-31.0
 30
0.0
 11
174.31999999999996
 21
-31.0
 31
0.0
  0
LINE
  5
5E
330
17
100
AcDbEntity
  8
IP_TABLE
100
AcDbLine
 10
0.0
 20
-37.0
 30
0.0
 11
174.31999999999996
 21
-37.0
 31
0.0
  0
LINE
  5
5F
330
17
100
AcDbEntity
  8
IP_TABLE
100
AcDbLine
 10
0.0
 20
-43.0
 30
0.0
 11
174.31999999999996
 21
-43.0
 31
0.0
  0
LINE
  5
60
330
17
100
AcDbEntity
  8
IP_TABLE
100
AcDbLine
 10
0.0
 20
-49.0
 30
0.0
 11
174.31999999999996
 21
-49.0
 31
0.0
  0
LINE
  5
61
330
17
100
AcDbEntity
  8
IP_TABLE
100
AcDbLine
 10
0.0
 20
-55.0
 30
0.0
 11
174.31999999999996
 21
-55.0
 31
0.0
  0
LINE
  5
62
330
17
100
AcDbEntity
  8
IP_TABLE
100
AcDbLine
 10
0.0
 20
-61.0
 30
0.0
 11
174.31999999999996
 21
-61.0
 31
0.0
  0
LINE
  5
63
330
17
100
AcDbEntity
  8
IP_TABLE
100
AcDbLine
 10
0.0
 20
-67.0
 30
0.0
 11
174.31999999999996
 21
-67.0
 31
0.0
  0
LINE
  5
64
330
17
100
AcDbEntity
  8
IP_TABLE
100
AcDbLine
 10
0.0
 20
-73.0
 30
0.0
 11
174.31999999999996
 21
-73.0
 31
0.0
  0
LINE
  5
65
330
17
100
AcDbEntity
  8
IP_TABLE
100
AcDbLine
 10
0.0
 20
-79.0
 30
0.0
 11
174.31999999999996
 21
-79.0
 31
0.0
  0
LINE
  5
66
330
17
100
AcDbEntity
  8
IP_TABLE
100
AcDbLine
 10
0.0
 20
-85.0
 30
0.0
 11
174.31999999999996
 21
-85.0
 31
0.0
  0
LINE
  5
67
330
17
100
AcDbEntity
  8
IP_TABLE
100
AcDbLine
 10
0.0
 20
-91.0
 30
0.0
 11
174.31999999999996
 21
-91.0
 31
0.0
  0
LINE
  5
68
330
17
100
AcDbEntity
  8
IP_TABLE
100
AcDbLine
 10
0.0
 20
-97.0
 30
0.0
 11
174.31999999999996
 21
-97.0
 31
0.0
  0
LINE
  5
69
330
17
100
AcDbEntity
  8
IP_TABLE
100
AcDbLine
 10
0.0
 20
-103.0
 30
0.0
 11
174.31999999999996
 21
-103.0
 31
0.0
  0
LINE
  5
6A
330
17
100
AcDbEntity
  8
IP_TABLE
100
AcDbLine
 10
0.0
 20
-109.0
 30
0.0
 11
174.31999999999996
 21
-109.0
 31
0.0
  0
LINE
  5
6B
330
17
100
AcDbEntity
  8
IP_TABLE
100
AcDbLine
 10
0.0
 20
-115.0
 30
0.0
 11
174.31999999999996
 21
-115.0
 31
0.0
  0
LINE
  5
6C
330
17
100
AcDbEntity
  8
IP_TABLE
100
AcDbLine
 10
0.0
 20
-121.0
 30
0.0
 11
174.31999999999996
 21
-121.0
 31
0.0
  0
LINE
  5
6D
330
17
100
AcDbEntity
  8
IP_TABLE
100
AcDbLine
 10
0.0
 20
-127.0
 30
0.0
 11
174.31999999999996
 21
-127.0
 31
0.0
  0
LINE
  5
6E
330
17
100
AcDbEntity
  8
IP_TABLE
100
AcDbLine
 10
0.0
 20
-133.0
 30
0.0
 11
174.31999999999996
 21
-133.0
 31
0.0
  0
LINE
  5
6F
330
17
100
AcDbEntity
  8
IP_TABLE
100
AcDbLine
 10
0.0
 20
-139.0
 30
0.0
 11
174.31999999999996
 21
-139.0
 31
0.0
  0
LINE
  5
70
330
17
100
AcDbEntity
  8
IP_TABLE
100
AcDbLine
 10
0.0
 20
-145.0
 30
0.0
 11
174.31999999999996
 21
-145.0
 31
0.0
  0
LINE
  5
71
330
17
100
AcDbEntity
  8
IP_TABLE
100
AcDbLine
 10
0.0
 20
-151.0
 30
0.0
 11
174.31999999999996
 21
-151.0
 31
0.0
  0
LINE
  5
72
330
17
100
AcDbEntity
  8
IP_TABLE
100
AcDbLine
 10
0.0
 20
-157.0
 30
0.0
 11
174.31999999999996
 21
-157.0
 31
0.0
  0
LINE
  5
73
330
17
100
AcDbEntity
  8
IP_TABLE
100
AcDbLine
 10
0.0
 20
-163.0
 30
0.0
 11
174.31999999999996
 21
-163.0
 31
0.0
  0
LINE
  5
74
330
17
100
AcDbEntity
  8
IP_TABLE
100
AcDbLine
 10
0.0
 20
-169.0
 30
0.0
 11
174.31999999999996
 21
-169.0
 31
0.0
  0
LINE
  5
75
330
17
100
AcDbEntity
  8
IP_TABLE
100
AcDbLine
 10
0.0
 20
-175.0
 30
0.0
 11
174.31999999999996
 21
-175.0
 31
0.0
  0
LINE
  5
76
330
17
100
AcDbEntity
  8
IP_TABLE
100
AcDbLine
 10
0.0
 20
-181.0
 30
0.0
 11
174.31999999999996
 21
-181.0
 31
0.0
  0
LINE
  5
77
330
17
100
AcDbEntity
  8
IP_TABLE
100
AcDbLine
 10
0.0
 20
-187.0
 30
0.0
 11
174.31999999999996
 21
-187.0
 31
0.0
  0
LINE
  5
78
330
17
100
AcDbEntity
  8
IP_TABLE
100
AcDbLine
 10
0.0
 20
-193.0
 30
0.0
 11
174.31999999999996
 21
-193.0
 31
0.0
  0
LINE
  5
79
330
17
100
AcDbEntity
  8
IP_TABLE
100
AcDbLine
 10
0.0
 20
-199.0
 30
0.0
 11
174.31999999999996
 21
-199.0
 31
0.0
  0
LINE
  5
7A
330
17
100
AcDbEntity
  8
IP_TABLE
100
AcDbLine
 10
0.0
 20
-205.0
 30
0.0
 11
174.31999999999996
 21
-205.0
 31
0.0
  0
LINE
  5
7B
330
17
100
AcDbEntity
  8
IP_TABLE
100
AcDbLine
 10
0.0
 20
-211.0
 30
0.0
 11
174.31999999999996
 21
-211.0
 31
0.0
  0
LINE
  5
7C
330
17
100
AcDbEntity
  8
IP_TABLE
100
AcDbLine
 10
0.0
 20
-217.0
 30
0.0
 11
174.31999999999996
 21
-217.0
 31
0.0
  0
LINE
  5
7D
330
17
100
AcDbEntity
  8
IP_TABLE
100
AcDbLine
 10
0.0
 20
-223.0
 30
0.0
 11
174.31999999999996
 21
-223.0
 31
0.0
  0
LINE
  5
7E
330
17
100
AcDbEntity
  8
IP_TABLE
100
AcDbLine
 10
0.0
 20
-229.0
 30
0.0
 11
174.31999999999996
 21
-229.0
 31
0.0
  0
LINE
  5
7F
330
17
100
AcDbEntity
  8
IP_TABLE
100
AcDbLine
 10
0.0
 20
-235.0
 30
0.0
 11
174.31999999999996
 21
-235.0
 31
0.0
  0
LINE
  5
80
330
17
100
AcDbEntity
  8
IP_TABLE
100
AcDbLine
 10
0.0
 20
-241.0
 30
0.0
 11
174.31999999999996
 21
-241.0
 31
0.0
  0
LINE
  5
81
330
17
100
AcDbEntity
  8
IP_TABLE
100
AcDbLine
 10
0.0
 20
-247.0
 30
0.0
 11
174.31999999999996
 21
-247.0
 31
0.0
  0
LINE
  5
82
330
17
100
AcDbEntity
  8
IP_TABLE
100
AcDbLine
 10
0.0
 20
-253.0
 30
0.0
 11
174.31999999999996
 21
-253.0
 31
0.0
  0
LINE
  5
83
330
17
100
AcDbEntity
  8
IP_TABLE
100
AcDbLine
 10
0.0
 20
-259.0
 30
0.0
 11
174.31999999999996
 21
-259.0
 31
0.0
  0
LINE
  5
84
330
17
100
AcDbEntity
  8
IP_TABLE
100
AcDbLine
 10
0.0
 20
-265.0
 30
0.0
 11
174.31999999999996
 21
-265.0
 31
0.0
  0
LINE
  5
85
330
17
100
AcDbEntity
  8
IP_TABLE
100
AcDbLine
 10
0.0
 20
-271.0
 30
0.0
 11
174.31999999999996
 21
-271.0
 31
0.0
  0
LINE
  5
86
330
17
100
AcDbEntity
  8
IP_TABLE
100
AcDbLine
 10
0.0
 20
-277.0
 30
0.0
 11
174.31999999999996
 21
-277.0
 31
0.0
  0
LINE
  5
87
330
17
100
AcDbEntity
  8
IP_TABLE
100
AcDbLine
 10
0.0
 20
-19.0
 30
0.0
 11
0.0
 21
-283.0
 31
0.0
  0
LINE
  5
88
330
17
100
AcDbEntity
  8
IP_TABLE
100
AcDbLine
 10
14.0
 20
-19.0
 30
0.0
 11
14.0
 21
-283.0
 31
0.0
  0
LINE
  5
89
330
17
100
AcDbEntity
  8
IP_TABLE
100
AcDbLine
 10
34.16
 20
-19.0
 30
0.0
 11
34.16
 21
-283.0
 31
0.0
  0
LINE
  5
8A
330
17
100
AcDbEntity
  8
IP_TABLE
100
AcDbLine
 10
55.64
 20
-19.0
 30
0.0
 11
55.64
 21
-283.0
 31
0.0
  0
LINE
  5
8B
330
17
100
AcDbEntity
  8
IP_TABLE
100
AcDbLine
 10
75.64
 20
-19.0
 30
0.0
 11
75.64
 21
-283.0
 31
0.0
  0
LINE
  5
8C
330
17
100
AcDbEntity
  8
IP_TABLE
100
AcDbLine
 10
95.64
 20
-19.0
 30
0.0
 11
95.64
 21
-283.0
 31
0.0
  0
LINE
  5
8D
330
17
100
AcDbEntity
  8
IP_TABLE
100
AcDbLine
 10
115.64
 20
-19.0
 30
0.0
 11
115.64
 21
-283.0
 31
0.0
  0
LINE
  5
8E
330
17
100
AcDbEntity
  8
IP_TABLE
100
AcDbLine
 10
126.56
 20
-19.0
 30
0.0
 11
126.56
 21
-283.0
 31
0.0
  0
LINE
  5
8F
330
17
100
AcDbEntity
  8
IP_TABLE
100
AcDbLine
 10
137.48
 20
-19.0
 30
0.0
 11
137.48
 21
-283.0
 31
0.0
  0
LINE
  5
90
330
17
100
AcDbEntity
  8
IP_TABLE
100
AcDbLine
 10
148.39999999999998
 20
-19.0
 30
0.0
 11
148.39999999999998
 21
-283.0
 31
0.0
  0
LINE
  5
91
330
17
100
AcDbEntity
  8
IP_TABLE
100
AcDbLine
 10
159.31999999999996
 20
-19.0
 30
0.0
 11
159.31999999999996
 21
-283.0
 31
0.0
  0
LINE
  5
92
330
17
100
AcDbEntity
  8
IP_TABLE
100
AcDbLine
 10
174.31999999999996
 20
-19.0
 30
0.0
 11
174.31999999999996
 21
-283.0
 31
0.0
  0
TEXT
  5
93
330
17
100
AcDbEntity
  8
IP_TABLE
100
AcDbText
 10
7.0
 20
-22.0
 30
0.0
 40
2.2
  1
南支IP0
 41
0.7
 72
1
 11
7.0
 21
-22.0
 31
0.0
100
AcDbText
 73
2
  0
TEXT
  5
94
330
17
100
AcDbEntity
  8
IP_TABLE
100
AcDbText
 10
24.08
 20
-22.0
 30
0.0
 40
2.2
  1
649606.177000
 41
0.7
 72
1
 11
24.08
 21
-22.0
 31
0.0
100
AcDbText
 73
2
  0
TEXT
  5
95
330
17
100
AcDbEntity
  8
IP_TABLE
100
AcDbText
 10
44.9
 20
-22.0
 30
0.0
 40
2.2
  1
3377745.983000
 41
0.7
 72
1
 11
44.9
 21
-22.0
 31
0.0
100
AcDbText
 73
2
  0
TEXT
  5
96
330
17
100
AcDbEntity
  8
IP_TABLE
100
AcDbText
 10
65.64
 20
-22.0
 30
0.0
 40
2.2
  1
南支0+000.000
 41
0.7
 72
1
 11
65.64
 21
-22.0
 31
0.0
100
AcDbText
 73
2
  0
TEXT
  5
97
330
17
100
AcDbEntity
  8
IP_TABLE
100
AcDbText
 10
85.64
 20
-22.0
 30
0.0
 40
2.2
  1
南支0+000.000
 41
0.7
 72
1
 11
85.64
 21
-22.0
 31
0.0
100
AcDbText
 73
2
  0
TEXT
  5
98
330
17
100
AcDbEntity
  8
IP_TABLE
100
AcDbText
 10
105.64
 20
-22.0
 30
0.0
 40
2.2
  1
南支0+000.000
 41
0.7
 72
1
 11
105.64
 21
-22.0
 31
0.0
100
AcDbText
 73
2
  0
TEXT
  5
99
330
17
100
AcDbEntity
  8
IP_TABLE
100
AcDbText
 10
121.1
 20
-22.0
 30
0.0
 40
2.2
  1
0.000
 41
0.7
 72
1
 11
121.1
 21
-22.0
 31
0.0
100
AcDbText
 73
2
  0
TEXT
  5
9A
330
17
100
AcDbEntity
  8
IP_TABLE
100
AcDbText
 10
132.01999999999998
 20
-22.0
 30
0.0
 40
2.2
  1
16.000
 41
0.7
 72
1
 11
132.01999999999998
 21
-22.0
 31
0.0
100
AcDbText
 73
2
  0
TEXT
  5
9B
330
17
100
AcDbEntity
  8
IP_TABLE
100
AcDbText
 10
142.94
 20
-22.0
 30
0.0
 40
2.2
  1
0.000
 41
0.7
 72
1
 11
142.94
 21
-22.0
 31
0.0
100
AcDbText
 73
2
  0
TEXT
  5
9C
330
17
100
AcDbEntity
  8
IP_TABLE
100
AcDbText
 10
153.85999999999996
 20
-22.0
 30
0.0
 40
2.2
  1
0.000
 41
0.7
 72
1
 11
153.85999999999996
 21
-22.0
 31
0.0
100
AcDbText
 73
2
  0
TEXT
  5
9D
330
17
100
AcDbEntity
  8
IP_TABLE
100
AcDbText
 10
166.81999999999996
 20
-22.0
 30
0.0
 40
2.2
  1
397.585
 41
0.7
 72
1
 11
166.81999999999996
 21
-22.0
 31
0.0
100
AcDbText
 73
2
  0
TEXT
  5
9E
330
17
100
AcDbEntity
  8
IP_TABLE
100
AcDbText
 10
7.0
 20
-28.0
 30
0.0
 40
2.2
  1
南支IP1
 41
0.7
 72
1
 11
7.0
 21
-28.0
 31
0.0
100
AcDbText
 73
2
  0
TEXT
  5
9F
330
17
100
AcDbEntity
  8
IP_TABLE
100
AcDbText
 10
24.08
 20
-28.0
 30
0.0
 40
2.2
  1
649534.180000
 41
0.7
 72
1
 11
24.08
 21
-28.0
 31
0.0
100
AcDbText
 73
2
  0
TEXT
  5
A0
330
17
100
AcDbEntity
  8
IP_TABLE
100
AcDbText
 10
44.9
 20
-28.0
 30
0.0
 40
2.2
  1
3377664.855000
 41
0.7
 72
1
 11
44.9
 21
-28.0
 31
0.0
100
AcDbText
 73
2
  0
TEXT
  5
A1
330
17
100
AcDbEntity
  8
IP_TABLE
100
AcDbText
 10
65.64
 20
-28.0
 30
0.0
 40
2.2
  1
南支0+105.826
 41
0.7
 72
1
 11
65.64
 21
-28.0
 31
0.0
100
AcDbText
 73
2
  0
TEXT
  5
A2
330
17
100
AcDbEntity
  8
IP_TABLE
100
AcDbText
 10
85.64
 20
-28.0
 30
0.0
 40
2.2
  1
南支0+108.444
 41
0.7
 72
1
 11
85.64
 21
-28.0
 31
0.0
100
AcDbText
 73
2
  0
TEXT
  5
A3
330
17
100
AcDbEntity
  8
IP_TABLE
100
AcDbText
 10
105.64
 20
-28.0
 30
0.0
 40
2.2
  1
南支0+111.063
 41
0.7
 72
1
 11
105.64
 21
-28.0
 31
0.0
100
AcDbText
 73
2
  0
TEXT
  5
A4
330
17
100
AcDbEntity
  8
IP_TABLE
100
AcDbText
 10
121.1
 20
-28.0
 30
0.0
 40
2.2
  1
18.753
 41
0.7
 72
1
 11
121.1
 21
-28.0
 31
0.0
100
AcDbText
 73
2
  0
TEXT
  5
A5
330
17
100
AcDbEntity
  8
IP_TABLE
100
AcDbText
 10
132.01999999999998
 20
-28.0
 30
0.0
 40
2.2
  1
16.000
 41
0.7
 72
1
 11
132.01999999999998
 21
-28.0
 31
0.0
100
AcDbText
 73
2
  0
TEXT
  5
A6
330
17
100
AcDbEntity
  8
IP_TABLE
100
AcDbText
 10
142.94
 20
-28.0
 30
0.0
 40
2.2
  1
2.642
 41
0.7
 72
1
 11
142.94
 21
-28.0
 31
0.0
100
AcDbText
 73
2
  0
TEXT
  5
A7
330
17
100
AcDbEntity
  8
IP_TABLE
100
AcDbText
 10
153.85999999999996
 20
-28.0
 30
0.0
 40
2.2
  1
5.237
 41
0.7
 72
1
 11
153.85999999999996
 21
-28.0
 31
0.0
100
AcDbText
 73
2
  0
TEXT
  5
A8
330
17
100
AcDbEntity
  8
IP_TABLE
100
AcDbText
 10
166.81999999999996
 20
-28.0
 30
0.0
 40
2.2
  1
397.550
 41
0.7
 72
1
 11
166.81999999999996
 21
-28.0
 31
0.0
100
AcDbText
 73
2
  0
TEXT
  5
A9
330
17
100
AcDbEntity
  8
IP_TABLE
100
AcDbText
 10
7.0
 20
-34.0
 30
0.0
 40
2.2
  1
南支IP2
 41
0.7
 72
1
 11
7.0
 21
-34.0
 31
0.0
100
AcDbText
 73
2
  0
TEXT
  5
AA
330
17
100
AcDbEntity
  8
IP_TABLE
100
AcDbText
 10
24.08
 20
-34.0
 30
0.0
 40
2.2
  1
649480.483000
 41
0.7
 72
1
 11
24.08
 21
-34.0
 31
0.0
100
AcDbText
 73
2
  0
TEXT
  5
AB
330
17
100
AcDbEntity
  8
IP_TABLE
100
AcDbText
 10
44.9
 20
-34.0
 30
0.0
 40
2.2
  1
3377634.277000
 41
0.7
 72
1
 11
44.9
 21
-34.0
 31
0.0
100
AcDbText
 73
2
  0
TEXT
  5
AC
330
17
100
AcDbEntity
  8
IP_TABLE
100
AcDbText
 10
65.64
 20
-34.0
 30
0.0
 40
2.2
  1
南支0+161.870
 41
0.7
 72
1
 11
65.64
 21
-34.0
 31
0.0
100
AcDbText
 73
2
  0
TEXT
  5
AD
330
17
100
AcDbEntity
  8
IP_TABLE
100
AcDbText
 10
85.64
 20
-34.0
 30
0.0
 40
2.2
  1
南支0+169.561
 41
0.7
 72
1
 11
85.64
 21
-34.0
 31
0.0
100
AcDbText
 73
2
  0
TEXT
  5
AE
330
17
100
AcDbEntity
  8
IP_TABLE
100
AcDbText
 10
105.64
 20
-34.0
 30
0.0
 40
2.2
  1
南支0+177.252
 41
0.7
 72
1
 11
105.64
 21
-34.0
 31
0.0
100
AcDbText
 73
2
  0
TEXT
  5
AF
330
17
100
AcDbEntity
  8
IP_TABLE
100
AcDbText
 10
121.1
 20
-34.0
 30
0.0
 40
2.2
  1
55.082
 41
0.7
 72
1
 11
121.1
 21
-34.0
 31
0.0
100
AcDbText
 73
2
  0
TEXT
  5
B0
330
17
100
AcDbEntity
  8
IP_TABLE
100
AcDbText
 10
132.01999999999998
 20
-34.0
 30
0.0
 40
2.2
  1
16.000
 41
0.7
 72
1
 11
132.01999999999998
 21
-34.0
 31
0.0
100
AcDbText
 73
2
  0
TEXT
  5
B1
330
17
100
AcDbEntity
  8
IP_TABLE
100
AcDbText
 10
142.94
 20
-34.0
 30
0.0
 40
2.2
  1
8.344
 41
0.7
 72
1
 11
142.94
 21
-34.0
 31
0.0
100
AcDbText
 73
2
  0
TEXT
  5
B2
330
17
100
AcDbEntity
  8
IP_TABLE
100
AcDbText
 10
153.85999999999996
 20
-34.0
 30
0.0
 40
2.2
  1
15.382
 41
0.7
 72
1
 11
153.85999999999996
 21
-34.0
 31
0.0
100
AcDbText
 73
2
  0
TEXT
  5
B3
330
17
100
AcDbEntity
  8
IP_TABLE
100
AcDbText
 10
166.81999999999996
 20
-34.0
 30
0.0
 40
2.2
  1
397.532
 41
0.7
 72
1
 11
166.81999999999996
 21
-34.0
 31
0.0
100
AcDbText
 73
2
  0
TEXT
  5
B4
330
17
100
AcDbEntity
  8
IP_TABLE
100
AcDbText
 10
7.0
 20
-40.0
 30
0.0
 40
2.2
  1
土地垭隧进
 41
0.7
 72
1
 11
7.0
 21
-40.0
 31
0.0
100
AcDbText
 73
2
  0
TEXT
  5
B5
330
17
100
AcDbEntity
  8
IP_TABLE
100
AcDbText
 10
24.08
 20
-40.0
 30
0.0
 40
2.2
  1
649478.323000
 41
0.7
 72
1
 11
24.08
 21
-40.0
 31
0.0
100
AcDbText
 73
2
  0
TEXT
  5
B6
330
17
100
AcDbEntity
  8
IP_TABLE
100
AcDbText
 10
44.9
 20
-40.0
 30
0.0
 40
2.2
  1
3377610.808000
 41
0.7
 72
1
 11
44.9
 21
-40.0
 31
0.0
100
AcDbText
 73
2
  0
TEXT
  5
B7
330
17
100
AcDbEntity
  8
IP_TABLE
100
AcDbText
 10
65.64
 20
-40.0
 30
0.0
 40
2.2
  1
南支0+193.129
 41
0.7
 72
1
 11
65.64
 21
-40.0
 31
0.0
100
AcDbText
 73
2
  0
TEXT
  5
B8
330
17
100
AcDbEntity
  8
IP_TABLE
100
AcDbText
 10
85.64
 20
-40.0
 30
0.0
 40
2.2
  1
南支0+193.129
 41
0.7
 72
1
 11
85.64
 21
-40.0
 31
0.0
100
AcDbText
 73
2
  0
TEXT
  5
B9
330
17
100
AcDbEntity
  8
IP_TABLE
100
AcDbText
 10
105.64
 20
-40.0
 30
0.0
 40
2.2
  1
南支0+193.129
 41
0.7
 72
1
 11
105.64
 21
-40.0
 31
0.0
100
AcDbText
 73
2
  0
TEXT
  5
BA
330
17
100
AcDbEntity
  8
IP_TABLE
100
AcDbText
 10
121.1
 20
-40.0
 30
0.0
 40
2.2
  1
0.000
 41
0.7
 72
1
 11
121.1
 21
-40.0
 31
0.0
100
AcDbText
 73
2
  0
TEXT
  5
BB
330
17
100
AcDbEntity
  8
IP_TABLE
100
AcDbText
 10
132.01999999999998
 20
-40.0
 30
0.0
 40
2.2
  1
16.000
 41
0.7
 72
1
 11
132.01999999999998
 21
-40.0
 31
0.0
100
AcDbText
 73
2
  0
TEXT
  5
BC
330
17
100
AcDbEntity
  8
IP_TABLE
100
AcDbText
 10
142.94
 20
-40.0
 30
0.0
 40
2.2
  1
0.000
 41
0.7
 72
1
 11
142.94
 21
-40.0
 31
0.0
100
AcDbText
 73
2
  0
TEXT
  5
BD
330
17
100
AcDbEntity
  8
IP_TABLE
100
AcDbText
 10
153.85999999999996
 20
-40.0
 30
0.0
 40
2.2
  1
0.000
 41
0.7
 72
1
 11
153.85999999999996
 21
-40.0
 31
0.0
100
AcDbText
 73
2
  0
TEXT
  5
BE
330
17
100
AcDbEntity
  8
IP_TABLE
100
AcDbText
 10
166.81999999999996
 20
-40.0
 30
0.0
 40
2.2
  1
398.525
 41
0.7
 72
1
 11
166.81999999999996
 21
-40.0
 31
0.0
100
AcDbText
 73
2
  0
TEXT
  5
BF
330
17
100
AcDbEntity
  8
IP_TABLE
100
AcDbText
 10
7.0
 20
-46.0
 30
0.0
 40
2.2
  1
土地垭隧出
 41
0.7
 72
1
 11
7.0
 21
-46.0
 31
0.0
100
AcDbText
 73
2
  0
TEXT
  5
C0
330
17
100
AcDbEntity
  8
IP_TABLE
100
AcDbText
 10
24.08
 20
-46.0
 30
0.0
 40
2.2
  1
649441.885000
 41
0.7
 72
1
 11
24.08
 21
-46.0
 31
0.0
100
AcDbText
 73
2
  0
TEXT
  5
C1
330
17
100
AcDbEntity
  8
IP_TABLE
100
AcDbText
 10
44.9
 20
-46.0
 30
0.0
 40
2.2
  1
3377556.331000
 41
0.7
 72
1
 11
44.9
 21
-46.0
 31
0.0
100
AcDbText
 73
2
  0
TEXT
  5
C2
330
17
100
AcDbEntity
  8
IP_TABLE
100
AcDbText
 10
65.64
 20
-46.0
 30
0.0
 40
2.2
  1
南支0+258.669
 41
0.7
 72
1
 11
65.64
 21
-46.0
 31
0.0
100
AcDbText
 73
2
  0
TEXT
  5
C3
330
17
100
AcDbEntity
  8
IP_TABLE
100
AcDbText
 10
85.64
 20
-46.0
 30
0.0
 40
2.2
  1
南支0+258.669
 41
0.7
 72
1
 11
85.64
 21
-46.0
 31
0.0
100
AcDbText
 73
2
  0
TEXT
  5
C4
330
17
100
AcDbEntity
  8
IP_TABLE
100
AcDbText
 10
105.64
 20
-46.0
 30
0.0
 40
2.2
  1
南支0+258.669
 41
0.7
 72
1
 11
105.64
 21
-46.0
 31
0.0
100
AcDbText
 73
2
  0
TEXT
  5
C5
330
17
100
AcDbEntity
  8
IP_TABLE
100
AcDbText
 10
121.1
 20
-46.0
 30
0.0
 40
2.2
  1
0.000
 41
0.7
 72
1
 11
121.1
 21
-46.0
 31
0.0
100
AcDbText
 73
2
  0
TEXT
  5
C6
330
17
100
AcDbEntity
  8
IP_TABLE
100
AcDbText
 10
132.01999999999998
 20
-46.0
 30
0.0
 40
2.2
  1
16.000
 41
0.7
 72
1
 11
132.01999999999998
 21
-46.0
 31
0.0
100
AcDbText
 73
2
  0
TEXT
  5
C7
330
17
100
AcDbEntity
  8
IP_TABLE
100
AcDbText
 10
142.94
 20
-46.0
 30
0.0
 40
2.2
  1
0.000
 41
0.7
 72
1
 11
142.94
 21
-46.0
 31
0.0
100
AcDbText
 73
2
  0
TEXT
  5
C8
330
17
100
AcDbEntity
  8
IP_TABLE
100
AcDbText
 10
153.85999999999996
 20
-46.0
 30
0.0
 40
2.2
  1
0.000
 41
0.7
 72
1
 11
153.85999999999996
 21
-46.0
 31
0.0
100
AcDbText
 73
2
  0
TEXT
  5
C9
330
17
100
AcDbEntity
  8
IP_TABLE
100
AcDbText
 10
166.81999999999996
 20
-46.0
 30
0.0
 40
2.2
  1
398.492
 41
0.7
 72
1
 11
166.81999999999996
 21
-46.0
 31
0.0
100
AcDbText
 73
2
  0
TEXT
  5
CA
330
17
100
AcDbEntity
  8
IP_TABLE
100
AcDbText
 10
7.0
 20
-52.0
 30
0.0
 40
2.2
  1
南支IP5
 41
0.7
 72
1
 11
7.0
 21
-52.0
 31
0.0
100
AcDbText
 73
2
  0
TEXT
  5
CB
330
17
100
AcDbEntity
  8
IP_TABLE
100
AcDbText
 10
24.08
 20
-52.0
 30
0.0
 40
2.2
  1
649440.214000
 41
0.7
 72
1
 11
24.08
 21
-52.0
 31
0.0
100
AcDbText
 73
2
  0
TEXT
  5
CC
330
17
100
AcDbEntity
  8
IP_TABLE
100
AcDbText
 10
44.9
 20
-52.0
 30
0.0
 40
2.2
  1
3377528.977000
 41
0.7
 72
1
 11
44.9
 21
-52.0
 31
0.0
100
AcDbText
 73
2
  0
TEXT
  5
CD
330
17
100
AcDbEntity
  8
IP_TABLE
100
AcDbText
 10
65.64
 20
-52.0
 30
0.0
 40
2.2
  1
南支0+274.974
 41
0.7
 72
1
 11
65.64
 21
-52.0
 31
0.0
100
AcDbText
 73
2
  0
TEXT
  5
CE
330
17
100
AcDbEntity
  8
IP_TABLE
100
AcDbText
 10
85.64
 20
-52.0
 30
0.0
 40
2.2
  1
南支0+284.679
 41
0.7
 72
1
 11
85.64
 21
-52.0
 31
0.0
100
AcDbText
 73
2
  0
TEXT
  5
CF
330
17
100
AcDbEntity
  8
IP_TABLE
100
AcDbText
 10
105.64
 20
-52.0
 30
0.0
 40
2.2
  1
南支0+294.383
 41
0.7
 72
1
 11
105.64
 21
-52.0
 31
0.0
100
AcDbText
 73
2
  0
TEXT
  5
D0
330
17
100
AcDbEntity
  8
IP_TABLE
100
AcDbText
 10
121.1
 20
-52.0
 30
0.0
 40
2.2
  1
69.501
 41
0.7
 72
1
 11
121.1
 21
-52.0
 31
0.0
100
AcDbText
 73
2
  0
TEXT
  5
D1
330
17
100
AcDbEntity
  8
IP_TABLE
100
AcDbText
 10
132.01999999999998
 20
-52.0
 30
0.0
 40
2.2
  1
16.000
 41
0.7
 72
1
 11
132.01999999999998
 21
-52.0
 31
0.0
100
AcDbText
 73
2
  0
TEXT
  5
D2
330
17
100
AcDbEntity
  8
IP_TABLE
100
AcDbText
 10
142.94
 20
-52.0
 30
0.0
 40
2.2
  1
11.100
 41
0.7
 72
1
 11
142.94
 21
-52.0
 31
0.0
100
AcDbText
 73
2
  0
TEXT
  5
D3
330
17
100
AcDbEntity
  8
IP_TABLE
100
AcDbText
 10
153.85999999999996
 20
-52.0
 30
0.0
 40
2.2
  1
19.408
 41
0.7
 72
1
 11
153.85999999999996
 21
-52.0
 31
0.0
100
AcDbText
 73
2
  0
TEXT
  5
D4
330
17
100
AcDbEntity
  8
IP_TABLE
100
AcDbText
 10
166.81999999999996
 20
-52.0
 30
0.0
 40
2.2
  1
398.471
 41
0.7
 72
1
 11
166.81999999999996
 21
-52.0
 31
0.0
100
AcDbText
 73
2
  0
TEXT
  5
D5
330
17
100
AcDbEntity
  8
IP_TABLE
100
AcDbText
 10
7.0
 20
-58.0
 30
0.0
 40
2.2
  1
南支IP6
 41
0.7
 72
1
 11
7.0
 21
-58.0
 31
0.0
100
AcDbText
 73
2
  0
TEXT
  5
D6
330
17
100
AcDbEntity
  8
IP_TABLE
100
AcDbText
 10
24.08
 20
-58.0
 30
0.0
 40
2.2
  1
649419.569000
 41
0.7
 72
1
 11
24.08
 21
-58.0
 31
0.0
100
AcDbText
 73
2
  0
TEXT
  5
D7
330
17
100
AcDbEntity
  8
IP_TABLE
100
AcDbText
 10
44.9
 20
-58.0
 30
0.0
 40
2.2
  1
3377522.664000
 41
0.7
 72
1
 11
44.9
 21
-58.0
 31
0.0
100
AcDbText
 73
2
  0
TEXT
  5
D8
330
17
100
AcDbEntity
  8
IP_TABLE
100
AcDbText
 10
65.64
 20
-58.0
 30
0.0
 40
2.2
  1
南支0+295.370
 41
0.7
 72
1
 11
65.64
 21
-58.0
 31
0.0
100
AcDbText
 73
2
  0
TEXT
  5
D9
330
17
100
AcDbEntity
  8
IP_TABLE
100
AcDbText
 10
85.64
 20
-58.0
 30
0.0
 40
2.2
  1
南支0+303.944
 41
0.7
 72
1
 11
85.64
 21
-58.0
 31
0.0
100
AcDbText
 73
2
  0
TEXT
  5
DA
330
17
100
AcDbEntity
  8
IP_TABLE
100
AcDbText
 10
105.64
 20
-58.0
 30
0.0
 40
2.2
  1
南支0+312.518
 41
0.7
 72
1
 11
105.64
 21
-58.0
 31
0.0
100
AcDbText
 73
2
  0
TEXT
  5
DB
330
17
100
AcDbEntity
  8
IP_TABLE
100
AcDbText
 10
121.1
 20
-58.0
 30
0.0
 40
2.2
  1
61.405
 41
0.7
 72
1
 11
121.1
 21
-58.0
 31
0.0
100
AcDbText
 73
2
  0
TEXT
  5
DC
330
17
100
AcDbEntity
  8
IP_TABLE
100
AcDbText
 10
132.01999999999998
 20
-58.0
 30
0.0
 40
2.2
  1
16.000
 41
0.7
 72
1
 11
132.01999999999998
 21
-58.0
 31
0.0
100
AcDbText
 73
2
  0
TEXT
  5
DD
330
17
100
AcDbEntity
  8
IP_TABLE
100
AcDbText
 10
142.94
 20
-58.0
 30
0.0
 40
2.2
  1
9.501
 41
0.7
 72
1
 11
142.94
 21
-58.0
 31
0.0
100
AcDbText
 73
2
  0
TEXT
  5
DE
330
17
100
AcDbEntity
  8
IP_TABLE
100
AcDbText
 10
153.85999999999996
 20
-58.0
 30
0.0
 40
2.2
  1
17.148
 41
0.7
 72
1
 11
153.85999999999996
 21
-58.0
 31
0.0
100
AcDbText
 73
2
  0
TEXT
  5
DF
330
17
100
AcDbEntity
  8
IP_TABLE
100
AcDbText
 10
166.81999999999996
 20
-58.0
 30
0.0
 40
2.2
  1
398.469
 41
0.7
 72
1
 11
166.81999999999996
 21
-58.0
 31
0.0
100
AcDbText
 73
2
  0
TEXT
  5
E0
330
17
100
AcDbEntity
  8
IP_TABLE
100
AcDbText
 10
7.0
 20
-64.0
 30
0.0
 40
2.2
  1
南支IP7
 41
0.7
 72
1
 11
7.0
 21
-64.0
 31
0.0
100
AcDbText
 73
2
  0
TEXT
  5
E1
330
17
100
AcDbEntity
  8
IP_TABLE
100
AcDbText
 10
24.08
 20
-64.0
 30
0.0
 40
2.2
  1
649402.139000
 41
0.7
 72
1
 11
24.08
 21
-64.0
 31
0.0
100
AcDbText
 73
2
  0
TEXT
  5
E2
330
17
100
AcDbEntity
  8
IP_TABLE
100
AcDbText
 10
44.9
 20
-64.0
 30
0.0
 40
2.2
  1
3377539.734000
 41
0.7
 72
1
 11
44.9
 21
-64.0
 31
0.0
100
AcDbText
 73
2
  0
TEXT
  5
E3
330
17
100
AcDbEntity
  8
IP_TABLE
100
AcDbText
 10
65.64
 20
-64.0
 30
0.0
 40
2.2
  1
南支0+321.497
 41
0.7
 72
1
 11
65.64
 21
-64.0
 31
0.0
100
AcDbText
 73
2
  0
TEXT
  5
E4
330
17
100
AcDbEntity
  8
IP_TABLE
100
AcDbText
 10
85.64
 20
-64.0
 30
0.0
 40
2.2
  1
南支0+327.164
 41
0.7
 72
1
 11
85.64
 21
-64.0
 31
0.0
100
AcDbText
 73
2
  0
TEXT
  5
E5
330
17
100
AcDbEntity
  8
IP_TABLE
100
AcDbText
 10
105.64
 20
-64.0
 30
0.0
 40
2.2
  1
南支0+332.831
 41
0.7
 72
1
 11
105.64
 21
-64.0
 31
0.0
100
AcDbText
 73
2
  0
TEXT
  5
E6
330
17
100
AcDbEntity
  8
IP_TABLE
100
AcDbText
 10
121.1
 20
-64.0
 30
0.0
 40
2.2
  1
40.585
 41
0.7
 72
1
 11
121.1
 21
-64.0
 31
0.0
100
AcDbText
 73
2
  0
TEXT
  5
E7
330
17
100
AcDbEntity
  8
IP_TABLE
100
AcDbText
 10
132.01999999999998
 20
-64.0
 30
0.0
 40
2.2
  1
16.000
 41
0.7
 72
1
 11
132.01999999999998
 21
-64.0
 31
0.0
100
AcDbText
 73
2
  0
TEXT
  5
E8
330
17
100
AcDbEntity
  8
IP_TABLE
100
AcDbText
 10
142.94
 20
-64.0
 30
0.0
 40
2.2
  1
5.916
 41
0.7
 72
1
 11
142.94
 21
-64.0
 31
0.0
100
AcDbText
 73
2
  0
TEXT
  5
E9
330
17
100
AcDbEntity
  8
IP_TABLE
100
AcDbText
 10
153.85999999999996
 20
-64.0
 30
0.0
 40
2.2
  1
11.334
 41
0.7
 72
1
 11
153.85999999999996
 21
-64.0
 31
0.0
100
AcDbText
 73
2
  0
TEXT
  5
EA
330
17
100
AcDbEntity
  8
IP_TABLE
100
AcDbText
 10
166.81999999999996
 20
-64.0
 30
0.0
 40
2.2
  1
0.000
 41
0.7
 72
1
 11
166.81999999999996
 21
-64.0
 31
0.0
100
AcDbText
 73
2
  0
TEXT
  5
EB
330
17
100
AcDbEntity
  8
IP_TABLE
100
AcDbText
 10
7.0
 20
-70.0
 30
0.0
 40
2.2
  1
南支IP8
 41
0.7
 72
1
 11
7.0
 21
-70.0
 31
0.0
100
AcDbText
 73
2
  0
TEXT
  5
EC
330
17
100
AcDbEntity
  8
IP_TABLE
100
AcDbText
 10
24.08
 20
-70.0
 30
0.0
 40
2.2
  1
649310.706000
 41
0.7
 72
1
 11
24.08
 21
-70.0
 31
0.0
100
AcDbText
 73
2
  0
TEXT
  5
ED
330
17
100
AcDbEntity
  8
IP_TABLE
100
AcDbText
 10
44.9
 20
-70.0
 30
0.0
 40
2.2
  1
3377545.834000
 41
0.7
 72
1
 11
44.9
 21
-70.0
 31
0.0
100
AcDbText
 73
2
  0
TEXT
  5
EE
330
17
100
AcDbEntity
  8
IP_TABLE
100
AcDbText
 10
65.64
 20
-70.0
 30
0.0
 40
2.2
  1
南支0+418.551
 41
0.7
 72
1
 11
65.64
 21
-70.0
 31
0.0
100
AcDbText
 73
2
  0
TEXT
  5
EF
330
17
100
AcDbEntity
  8
IP_TABLE
100
AcDbText
 10
85.64
 20
-70.0
 30
0.0
 40
2.2
  1
南支0+418.551
 41
0.7
 72
1
 11
85.64
 21
-70.0
 31
0.0
100
AcDbText
 73
2
  0
TEXT
  5
F0
330
17
100
AcDbEntity
  8
IP_TABLE
100
AcDbText
 10
105.64
 20
-70.0
 30
0.0
 40
2.2
  1
南支0+418.551
 41
0.7
 72
1
 11
105.64
 21
-70.0
 31
0.0
100
AcDbText
 73
2
  0
TEXT
  5
F1
330
17
100
AcDbEntity
  8
IP_TABLE
100
AcDbText
 10
121.1
 20
-70.0
 30
0.0
 40
2.2
  1
0.001
 41
0.7
 72
1
 11
121.1
 21
-70.0
 31
0.0
100
AcDbText
 73
2
  0
TEXT
  5
F2
330
17
100
AcDbEntity
  8
IP_TABLE
100
AcDbText
 10
132.01999999999998
 20
-70.0
 30
0.0
 40
2.2
  1
16.000
 41
0.7
 72
1
 11
132.01999999999998
 21
-70.0
 31
0.0
100
AcDbText
 73
2
  0
TEXT
  5
F3
330
17
100
AcDbEntity
  8
IP_TABLE
100
AcDbText
 10
142.94
 20
-70.0
 30
0.0
 40
2.2
  1
0.000
 41
0.7
 72
1
 11
142.94
 21
-70.0
 31
0.0
100
AcDbText
 73
2
  0
TEXT
  5
F4
330
17
100
AcDbEntity
  8
IP_TABLE
100
AcDbText
 10
153.85999999999996
 20
-70.0
 30
0.0
 40
2.2
  1
0.000
 41
0.7
 72
1
 11
153.85999999999996
 21
-70.0
 31
0.0
100
AcDbText
 73
2
  0
TEXT
  5
F5
330
17
100
AcDbEntity
  8
IP_TABLE
100
AcDbText
 10
166.81999999999996
 20
-70.0
 30
0.0
 40
2.2
  1
398.495
 41
0.7
 72
1
 11
166.81999999999996
 21
-70.0
 31
0.0
100
AcDbText
 73
2
  0
TEXT
  5
F6
330
17
100
AcDbEntity
  8
IP_TABLE
100
AcDbText
 10
7.0
 20
-76.0
 30
0.0
 40
2.2
  1
沪蓉倒进
 41
0.7
 72
1
 11
7.0
 21
-76.0
 31
0.0
100
AcDbText
 73
2
  0
TEXT
  5
F7
330
17
100
AcDbEntity
  8
IP_TABLE
100
AcDbText
 10
24.08
 20
-76.0
 30
0.0
 40
2.2
  1
649264.563000
 41
0.7
 72
1
 11
24.08
 21
-76.0
 31
0.0
100
AcDbText
 73
2
  0
TEXT
  5
F8
330
17
100
AcDbEntity
  8
IP_TABLE
100
AcDbText
 10
44.9
 20
-76.0
 30
0.0
 40
2.2
  1
3377548.913000
 41
0.7
 72
1
 11
44.9
 21
-76.0
 31
0.0
100
AcDbText
 73
2
  0
TEXT
  5
F9
330
17
100
AcDbEntity
  8
IP_TABLE
100
AcDbText
 10
65.64
 20
-76.0
 30
0.0
 40
2.2
  1
南支0+464.796
 41
0.7
 72
1
 11
65.64
 21
-76.0
 31
0.0
100
AcDbText
 73
2
  0
TEXT
  5
FA
330
17
100
AcDbEntity
  8
IP_TABLE
100
AcDbText
 10
85.64
 20
-76.0
 30
0.0
 40
2.2
  1
南支0+464.796
 41
0.7
 72
1
 11
85.64
 21
-76.0
 31
0.0
100
AcDbText
 73
2
  0
TEXT
  5
FB
330
17
100
AcDbEntity
  8
IP_TABLE
100
AcDbText
 10
105.64
 20
-76.0
 30
0.0
 40
2.2
  1
南支0+464.796
 41
0.7
 72
1
 11
105.64
 21
-76.0
 31
0.0
100
AcDbText
 73
2
  0
TEXT
  5
FC
330
17
100
AcDbEntity
  8
IP_TABLE
100
AcDbText
 10
121.1
 20
-76.0
 30
0.0
 40
2.2
  1
0.000
 41
0.7
 72
1
 11
121.1
 21
-76.0
 31
0.0
100
AcDbText
 73
2
  0
TEXT
  5
FD
330
17
100
AcDbEntity
  8
IP_TABLE
100
AcDbText
 10
132.01999999999998
 20
-76.0
 30
0.0
 40
2.2
  1
16.000
 41
0.7
 72
1
 11
132.01999999999998
 21
-76.0
 31
0.0
100
AcDbText
 73
2
  0
TEXT
  5
FE
330
17
100
AcDbEntity
  8
IP_TABLE
100
AcDbText
 10
142.94
 20
-76.0
 30
0.0
 40
2.2
  1
0.000
 41
0.7
 72
1
 11
142.94
 21
-76.0
 31
0.0
100
AcDbText
 73
2
  0
TEXT
  5
FF
330
17
100
AcDbEntity
  8
IP_TABLE
100
AcDbText
 10
153.85999999999996
 20
-76.0
 30
0.0
 40
2.2
  1
0.000
 41
0.7
 72
1
 11
153.85999999999996
 21
-76.0
 31
0.0
100
AcDbText
 73
2
  0
TEXT
  5
100
330
17
100
AcDbEntity
  8
IP_TABLE
100
AcDbText
 10
166.81999999999996
 20
-76.0
 30
0.0
 40
2.2
  1
398.495
 41
0.7
 72
1
 11
166.81999999999996
 21
-76.0
 31
0.0
100
AcDbText
 73
2
  0
TEXT
  5
101
330
17
100
AcDbEntity
  8
IP_TABLE
100
AcDbText
 10
7.0
 20
-82.0
 30
0.0
 40
2.2
  1
南支IP10
 41
0.7
 72
1
 11
7.0
 21
-82.0
 31
0.0
100
AcDbText
 73
2
  0
TEXT
  5
102
330
17
100
AcDbEntity
  8
IP_TABLE
100
AcDbText
 10
24.08
 20
-82.0
 30
0.0
 40
2.2
  1
649244.413000
 41
0.7
 72
1
 11
24.08
 21
-82.0
 31
0.0
100
AcDbText
 73
2
  0
TEXT
  5
103
330
17
100
AcDbEntity
  8
IP_TABLE
100
AcDbText
 10
44.9
 20
-82.0
 30
0.0
 40
2.2
  1
3377550.257000
 41
0.7
 72
1
 11
44.9
 21
-82.0
 31
0.0
100
AcDbText
 73
2
  0
TEXT
  5
104
330
17
100
AcDbEntity
  8
IP_TABLE
100
AcDbText
 10
65.64
 20
-82.0
 30
0.0
 40
2.2
  1
南支0+481.240
 41
0.7
 72
1
 11
65.64
 21
-82.0
 31
0.0
100
AcDbText
 73
2
  0
TEXT
  5
105
330
17
100
AcDbEntity
  8
IP_TABLE
100
AcDbText
 10
85.64
 20
-82.0
 30
0.0
 40
2.2
  1
南支0+484.925
 41
0.7
 72
1
 11
85.64
 21
-82.0
 31
0.0
100
AcDbText
 73
2
  0
TEXT
  5
106
330
17
100
AcDbEntity
  8
IP_TABLE
100
AcDbText
 10
105.64
 20
-82.0
 30
0.0
 40
2.2
  1
南支0+488.610
 41
0.7
 72
1
 11
105.64
 21
-82.0
 31
0.0
100
AcDbText
 73
2
  0
TEXT
  5
107
330
17
100
AcDbEntity
  8
IP_TABLE
100
AcDbText
 10
121.1
 20
-82.0
 30
0.0
 40
2.2
  1
26.392
 41
0.7
 72
1
 11
121.1
 21
-82.0
 31
0.0
100
AcDbText
 73
2
  0
TEXT
  5
108
330
17
100
AcDbEntity
  8
IP_TABLE
100
AcDbText
 10
132.01999999999998
 20
-82.0
 30
0.0
 40
2.2
  1
16.000
 41
0.7
 72
1
 11
132.01999999999998
 21
-82.0
 31
0.0
100
AcDbText
 73
2
  0
TEXT
  5
109
330
17
100
AcDbEntity
  8
IP_TABLE
100
AcDbText
 10
142.94
 20
-82.0
 30
0.0
 40
2.2
  1
3.752
 41
0.7
 72
1
 11
142.94
 21
-82.0
 31
0.0
100
AcDbText
 73
2
  0
TEXT
  5
10A
330
17
100
AcDbEntity
  8
IP_TABLE
100
AcDbText
 10
153.85999999999996
 20
-82.0
 30
0.0
 40
2.2
  1
7.370
 41
0.7
 72
1
 11
153.85999999999996
 21
-82.0
 31
0.0
100
AcDbText
 73
2
  0
TEXT
  5
10B
330
17
100
AcDbEntity
  8
IP_TABLE
100
AcDbText
 10
166.81999999999996
 20
-82.0
 30
0.0
 40
2.2
  1
0.000
 41
0.7
 72
1
 11
166.81999999999996
 21
-82.0
 31
0.0
100
AcDbText
 73
2
  0
TEXT
  5
10C
330
17
100
AcDbEntity
  8
IP_TABLE
100
AcDbText
 10
7.0
 20
-88.0
 30
0.0
 40
2.2
  1
南支IP11
 41
0.7
 72
1
 11
7.0
 21
-88.0
 31
0.0
100
AcDbText
 73
2
  0
TEXT
  5
10D
330
17
100
AcDbEntity
  8
IP_TABLE
100
AcDbText
 10
24.08
 20
-88.0
 30
0.0
 40
2.2
  1
649220.868000
 41
0.7
 72
1
 11
24.08
 21
-88.0
 31
0.0
100
AcDbText
 73
2
  0
TEXT
  5
10E
330
17
100
AcDbEntity
  8
IP_TABLE
100
AcDbText
 10
44.9
 20
-88.0
 30
0.0
 40
2.2
  1
3377563.965000
 41
0.7
 72
1
 11
44.9
 21
-88.0
 31
0.0
100
AcDbText
 73
2
  0
TEXT
  5
10F
330
17
100
AcDbEntity
  8
IP_TABLE
100
AcDbText
 10
65.64
 20
-88.0
 30
0.0
 40
2.2
  1
南支0+505.985
 41
0.7
 72
1
 11
65.64
 21
-88.0
 31
0.0
100
AcDbText
 73
2
  0
TEXT
  5
110
330
17
100
AcDbEntity
  8
IP_TABLE
100
AcDbText
 10
85.64
 20
-88.0
 30
0.0
 40
2.2
  1
南支0+511.828
 41
0.7
 72
1
 11
85.64
 21
-88.0
 31
0.0
100
AcDbText
 73
2
  0
TEXT
  5
111
330
17
100
AcDbEntity
  8
IP_TABLE
100
AcDbText
 10
105.64
 20
-88.0
 30
0.0
 40
2.2
  1
南支0+517.672
 41
0.7
 72
1
 11
105.64
 21
-88.0
 31
0.0
100
AcDbText
 73
2
  0
TEXT
  5
112
330
17
100
AcDbEntity
  8
IP_TABLE
100
AcDbText
 10
121.1
 20
-88.0
 30
0.0
 40
2.2
  1
41.851
 41
0.7
 72
1
 11
121.1
 21
-88.0
 31
0.0
100
AcDbText
 73
2
  0
TEXT
  5
113
330
17
100
AcDbEntity
  8
IP_TABLE
100
AcDbText
 10
132.01999999999998
 20
-88.0
 30
0.0
 40
2.2
  1
16.000
 41
0.7
 72
1
 11
132.01999999999998
 21
-88.0
 31
0.0
100
AcDbText
 73
2
  0
TEXT
  5
114
330
17
100
AcDbEntity
  8
IP_TABLE
100
AcDbText
 10
142.94
 20
-88.0
 30
0.0
 40
2.2
  1
6.118
 41
0.7
 72
1
 11
142.94
 21
-88.0
 31
0.0
100
AcDbText
 73
2
  0
TEXT
  5
115
330
17
100
AcDbEntity
  8
IP_TABLE
100
AcDbText
 10
153.85999999999996
 20
-88.0
 30
0.0
 40
2.2
  1
11.687
 41
0.7
 72
1
 11
153.85999999999996
 21
-88.0
 31
0.0
100
AcDbText
 73
2
  0
TEXT
  5
116
330
17
100
AcDbEntity
  8
IP_TABLE
100
AcDbText
 10
166.81999999999996
 20
-88.0
 30
0.0
 40
2.2
  1
0.000
 41
0.7
 72
1
 11
166.81999999999996
 21
-88.0
 31
0.0
100
AcDbText
 73
2
  0
TEXT
  5
117
330
17
100
AcDbEntity
  8
IP_TABLE
100
AcDbText
 10
7.0
 20
-94.0
 30
0.0
 40
2.2
  1
南支IP12
 41
0.7
 72
1
 11
7.0
 21
-94.0
 31
0.0
100
AcDbText
 73
2
  0
TEXT
  5
118
330
17
100
AcDbEntity
  8
IP_TABLE
100
AcDbText
 10
24.08
 20
-94.0
 30
0.0
 40
2.2
  1
649184.732000
 41
0.7
 72
1
 11
24.08
 21
-94.0
 31
0.0
100
AcDbText
 73
2
  0
TEXT
  5
119
330
17
100
AcDbEntity
  8
IP_TABLE
100
AcDbText
 10
44.9
 20
-94.0
 30
0.0
 40
2.2
  1
3377556.519000
 41
0.7
 72
1
 11
44.9
 21
-94.0
 31
0.0
100
AcDbText
 73
2
  0
TEXT
  5
11A
330
17
100
AcDbEntity
  8
IP_TABLE
100
AcDbText
 10
65.64
 20
-94.0
 30
0.0
 40
2.2
  1
南支0+540.798
 41
0.7
 72
1
 11
65.64
 21
-94.0
 31
0.0
100
AcDbText
 73
2
  0
TEXT
  5
11B
330
17
100
AcDbEntity
  8
IP_TABLE
100
AcDbText
 10
85.64
 20
-94.0
 30
0.0
 40
2.2
  1
南支0+547.935
 41
0.7
 72
1
 11
85.64
 21
-94.0
 31
0.0
100
AcDbText
 73
2
  0
TEXT
  5
11C
330
17
100
AcDbEntity
  8
IP_TABLE
100
AcDbText
 10
105.64
 20
-94.0
 30
0.0
 40
2.2
  1
南支0+555.072
 41
0.7
 72
1
 11
105.64
 21
-94.0
 31
0.0
100
AcDbText
 73
2
  0
TEXT
  5
11D
330
17
100
AcDbEntity
  8
IP_TABLE
100
AcDbText
 10
121.1
 20
-94.0
 30
0.0
 40
2.2
  1
51.114
 41
0.7
 72
1
 11
121.1
 21
-94.0
 31
0.0
100
AcDbText
 73
2
  0
TEXT
  5
11E
330
17
100
AcDbEntity
  8
IP_TABLE
100
AcDbText
 10
132.01999999999998
 20
-94.0
 30
0.0
 40
2.2
  1
16.000
 41
0.7
 72
1
 11
132.01999999999998
 21
-94.0
 31
0.0
100
AcDbText
 73
2
  0
TEXT
  5
11F
330
17
100
AcDbEntity
  8
IP_TABLE
100
AcDbText
 10
142.94
 20
-94.0
 30
0.0
 40
2.2
  1
7.651
 41
0.7
 72
1
 11
142.94
 21
-94.0
 31
0.0
100
AcDbText
 73
2
  0
TEXT
  5
120
330
17
100
AcDbEntity
  8
IP_TABLE
100
AcDbText
 10
153.85999999999996
 20
-94.0
 30
0.0
 40
2.2
  1
14.274
 41
0.7
 72
1
 11
153.85999999999996
 21
-94.0
 31
0.0
100
AcDbText
 73
2
  0
TEXT
  5
121
330
17
100
AcDbEntity
  8
IP_TABLE
100
AcDbText
 10
166.81999999999996
 20
-94.0
 30
0.0
 40
2.2
  1
0.000
 41
0.7
 72
1
 11
166.81999999999996
 21
-94.0
 31
0.0
100
AcDbText
 73
2
  0
TEXT
  5
122
330
17
100
AcDbEntity
  8
IP_TABLE
100
AcDbText
 10
7.0
 20
-100.0
 30
0.0
 40
2.2
  1
沪蓉倒出
 41
0.7
 72
1
 11
7.0
 21
-100.0
 31
0.0
100
AcDbText
 73
2
  0
TEXT
  5
123
330
17
100
AcDbEntity
  8
IP_TABLE
100
AcDbText
 10
24.08
 20
-100.0
 30
0.0
 40
2.2
  1
649146.287000
 41
0.7
 72
1
 11
24.08
 21
-100.0
 31
0.0
100
AcDbText
 73
2
  0
TEXT
  5
124
330
17
100
AcDbEntity
  8
IP_TABLE
100
AcDbText
 10
44.9
 20
-100.0
 30
0.0
 40
2.2
  1
3377588.178000
 41
0.7
 72
1
 11
44.9
 21
-100.0
 31
0.0
100
AcDbText
 73
2
  0
TEXT
  5
125
330
17
100
AcDbEntity
  8
IP_TABLE
100
AcDbText
 10
65.64
 20
-100.0
 30
0.0
 40
2.2
  1
南支0+597.223
 41
0.7
 72
1
 11
65.64
 21
-100.0
 31
0.0
100
AcDbText
 73
2
  0
TEXT
  5
126
330
17
100
AcDbEntity
  8
IP_TABLE
100
AcDbText
 10
85.64
 20
-100.0
 30
0.0
 40
2.2
  1
南支0+597.223
 41
0.7
 72
1
 11
85.64
 21
-100.0
 31
0.0
100
AcDbText
 73
2
  0
TEXT
  5
127
330
17
100
AcDbEntity
  8
IP_TABLE
100
AcDbText
 10
105.64
 20
-100.0
 30
0.0
 40
2.2
  1
南支0+597.223
 41
0.7
 72
1
 11
105.64
 21
-100.0
 31
0.0
100
AcDbText
 73
2
  0
TEXT
  5
128
330
17
100
AcDbEntity
  8
IP_TABLE
100
AcDbText
 10
121.1
 20
-100.0
 30
0.0
 40
2.2
  1
0.000
 41
0.7
 72
1
 11
121.1
 21
-100.0
 31
0.0
100
AcDbText
 73
2
  0
TEXT
  5
129
330
17
100
AcDbEntity
  8
IP_TABLE
100
AcDbText
 10
132.01999999999998
 20
-100.0
 30
0.0
 40
2.2
  1
16.000
 41
0.7
 72
1
 11
132.01999999999998
 21
-100.0
 31
0.0
100
AcDbText
 73
2
  0
TEXT
  5
12A
330
17
100
AcDbEntity
  8
IP_TABLE
100
AcDbText
 10
142.94
 20
-100.0
 30
0.0
 40
2.2
  1
0.000
 41
0.7
 72
1
 11
142.94
 21
-100.0
 31
0.0
100
AcDbText
 73
2
  0
TEXT
  5
12B
330
17
100
AcDbEntity
  8
IP_TABLE
100
AcDbText
 10
153.85999999999996
 20
-100.0
 30
0.0
 40
2.2
  1
0.000
 41
0.7
 72
1
 11
153.85999999999996
 21
-100.0
 31
0.0
100
AcDbText
 73
2
  0
TEXT
  5
12C
330
17
100
AcDbEntity
  8
IP_TABLE
100
AcDbText
 10
166.81999999999996
 20
-100.0
 30
0.0
 40
2.2
  1
396.849
 41
0.7
 72
1
 11
166.81999999999996
 21
-100.0
 31
0.0
100
AcDbText
 73
2
  0
TEXT
  5
12D
330
17
100
AcDbEntity
  8
IP_TABLE
100
AcDbText
 10
7.0
 20
-106.0
 30
0.0
 40
2.2
  1
宋家沟隧进
 41
0.7
 72
1
 11
7.0
 21
-106.0
 31
0.0
100
AcDbText
 73
2
  0
TEXT
  5
12E
330
17
100
AcDbEntity
  8
IP_TABLE
100
AcDbText
 10
24.08
 20
-106.0
 30
0.0
 40
2.2
  1
649104.399000
 41
0.7
 72
1
 11
24.08
 21
-106.0
 31
0.0
100
AcDbText
 73
2
  0
TEXT
  5
12F
330
17
100
AcDbEntity
  8
IP_TABLE
100
AcDbText
 10
44.9
 20
-106.0
 30
0.0
 40
2.2
  1
3377613.996000
 41
0.7
 72
1
 11
44.9
 21
-106.0
 31
0.0
100
AcDbText
 73
2
  0
TEXT
  5
130
330
17
100
AcDbEntity
  8
IP_TABLE
100
AcDbText
 10
65.64
 20
-106.0
 30
0.0
 40
2.2
  1
南支0+646.428
 41
0.7
 72
1
 11
65.64
 21
-106.0
 31
0.0
100
AcDbText
 73
2
  0
TEXT
  5
131
330
17
100
AcDbEntity
  8
IP_TABLE
100
AcDbText
 10
85.64
 20
-106.0
 30
0.0
 40
2.2
  1
南支0+646.428
 41
0.7
 72
1
 11
85.64
 21
-106.0
 31
0.0
100
AcDbText
 73
2
  0
TEXT
  5
132
330
17
100
AcDbEntity
  8
IP_TABLE
100
AcDbText
 10
105.64
 20
-106.0
 30
0.0
 40
2.2
  1
南支0+646.428
 41
0.7
 72
1
 11
105.64
 21
-106.0
 31
0.0
100
AcDbText
 73
2
  0
TEXT
  5
133
330
17
100
AcDbEntity
  8
IP_TABLE
100
AcDbText
 10
121.1
 20
-106.0
 30
0.0
 40
2.2
  1
0.000
 41
0.7
 72
1
 11
121.1
 21
-106.0
 31
0.0
100
AcDbText
 73
2
  0
TEXT
  5
134
330
17
100
AcDbEntity
  8
IP_TABLE
100
AcDbText
 10
132.01999999999998
 20
-106.0
 30
0.0
 40
2.2
  1
16.000
 41
0.7
 72
1
 11
132.01999999999998
 21
-106.0
 31
0.0
100
AcDbText
 73
2
  0
TEXT
  5
135
330
17
100
AcDbEntity
  8
IP_TABLE
100
AcDbText
 10
142.94
 20
-106.0
 30
0.0
 40
2.2
  1
0.000
 41
0.7
 72
1
 11
142.94
 21
-106.0
 31
0.0
100
AcDbText
 73
2
  0
TEXT
  5
136
330
17
100
AcDbEntity
  8
IP_TABLE
100
AcDbText
 10
153.85999999999996
 20
-106.0
 30
0.0
 40
2.2
  1
0.000
 41
0.7
 72
1
 11
153.85999999999996
 21
-106.0
 31
0.0
100
AcDbText
 73
2
  0
TEXT
  5
137
330
17
100
AcDbEntity
  8
IP_TABLE
100
AcDbText
 10
166.81999999999996
 20
-106.0
 30
0.0
 40
2.2
  1
397.772
 41
0.7
 72
1
 11
166.81999999999996
 21
-106.0
 31
0.0
100
AcDbText
 73
2
  0
TEXT
  5
138
330
17
100
AcDbEntity
  8
IP_TABLE
100
AcDbText
 10
7.0
 20
-112.0
 30
0.0
 40
2.2
  1
宋家沟隧出
 41
0.7
 72
1
 11
7.0
 21
-112.0
 31
0.0
100
AcDbText
 73
2
  0
TEXT
  5
139
330
17
100
AcDbEntity
  8
IP_TABLE
100
AcDbText
 10
24.08
 20
-112.0
 30
0.0
 40
2.2
  1
649098.599000
 41
0.7
 72
1
 11
24.08
 21
-112.0
 31
0.0
100
AcDbText
 73
2
  0
TEXT
  5
13A
330
17
100
AcDbEntity
  8
IP_TABLE
100
AcDbText
 10
44.9
 20
-112.0
 30
0.0
 40
2.2
  1
3377595.290000
 41
0.7
 72
1
 11
44.9
 21
-112.0
 31
0.0
100
AcDbText
 73
2
  0
TEXT
  5
13B
330
17
100
AcDbEntity
  8
IP_TABLE
100
AcDbText
 10
65.64
 20
-112.0
 30
0.0
 40
2.2
  1
南支0+666.013
 41
0.7
 72
1
 11
65.64
 21
-112.0
 31
0.0
100
AcDbText
 73
2
  0
TEXT
  5
13C
330
17
100
AcDbEntity
  8
IP_TABLE
100
AcDbText
 10
85.64
 20
-112.0
 30
0.0
 40
2.2
  1
南支0+666.013
 41
0.7
 72
1
 11
85.64
 21
-112.0
 31
0.0
100
AcDbText
 73
2
  0
TEXT
  5
13D
330
17
100
AcDbEntity
  8
IP_TABLE
100
AcDbText
 10
105.64
 20
-112.0
 30
0.0
 40
2.2
  1
南支0+666.013
 41
0.7
 72
1
 11
105.64
 21
-112.0
 31
0.0
100
AcDbText
 73
2
  0
TEXT
  5
13E
330
17
100
AcDbEntity
  8
IP_TABLE
100
AcDbText
 10
121.1
 20
-112.0
 30
0.0
 40
2.2
  1
0.000
 41
0.7
 72
1
 11
121.1
 21
-112.0
 31
0.0
100
AcDbText
 73
2
  0
TEXT
  5
13F
330
17
100
AcDbEntity
  8
IP_TABLE
100
AcDbText
 10
132.01999999999998
 20
-112.0
 30
0.0
 40
2.2
  1
16.000
 41
0.7
 72
1
 11
132.01999999999998
 21
-112.0
 31
0.0
100
AcDbText
 73
2
  0
TEXT
  5
140
330
17
100
AcDbEntity
  8
IP_TABLE
100
AcDbText
 10
142.94
 20
-112.0
 30
0.0
 40
2.2
  1
0.000
 41
0.7
 72
1
 11
142.94
 21
-112.0
 31
0.0
100
AcDbText
 73
2
  0
TEXT
  5
141
330
17
100
AcDbEntity
  8
IP_TABLE
100
AcDbText
 10
153.85999999999996
 20
-112.0
 30
0.0
 40
2.2
  1
0.000
 41
0.7
 72
1
 11
153.85999999999996
 21
-112.0
 31
0.0
100
AcDbText
 73
2
  0
TEXT
  5
142
330
17
100
AcDbEntity
  8
IP_TABLE
100
AcDbText
 10
166.81999999999996
 20
-112.0
 30
0.0
 40
2.2
  1
397.762
 41
0.7
 72
1
 11
166.81999999999996
 21
-112.0
 31
0.0
100
AcDbText
 73
2
  0
TEXT
  5
143
330
17
100
AcDbEntity
  8
IP_TABLE
100
AcDbText
 10
7.0
 20
-118.0
 30
0.0
 40
2.2
  1
广岳倒进
 41
0.7
 72
1
 11
7.0
 21
-118.0
 31
0.0
100
AcDbText
 73
2
  0
TEXT
  5
144
330
17
100
AcDbEntity
  8
IP_TABLE
100
AcDbText
 10
24.08
 20
-118.0
 30
0.0
 40
2.2
  1
649086.007000
 41
0.7
 72
1
 11
24.08
 21
-118.0
 31
0.0
100
AcDbText
 73
2
  0
TEXT
  5
145
330
17
100
AcDbEntity
  8
IP_TABLE
100
AcDbText
 10
44.9
 20
-118.0
 30
0.0
 40
2.2
  1
3377582.009000
 41
0.7
 72
1
 11
44.9
 21
-118.0
 31
0.0
100
AcDbText
 73
2
  0
TEXT
  5
146
330
17
100
AcDbEntity
  8
IP_TABLE
100
AcDbText
 10
65.64
 20
-118.0
 30
0.0
 40
2.2
  1
南支0+684.315
 41
0.7
 72
1
 11
65.64
 21
-118.0
 31
0.0
100
AcDbText
 73
2
  0
TEXT
  5
147
330
17
100
AcDbEntity
  8
IP_TABLE
100
AcDbText
 10
85.64
 20
-118.0
 30
0.0
 40
2.2
  1
南支0+684.315
 41
0.7
 72
1
 11
85.64
 21
-118.0
 31
0.0
100
AcDbText
 73
2
  0
TEXT
  5
148
330
17
100
AcDbEntity
  8
IP_TABLE
100
AcDbText
 10
105.64
 20
-118.0
 30
0.0
 40
2.2
  1
南支0+684.315
 41
0.7
 72
1
 11
105.64
 21
-118.0
 31
0.0
100
AcDbText
 73
2
  0
TEXT
  5
149
330
17
100
AcDbEntity
  8
IP_TABLE
100
AcDbText
 10
121.1
 20
-118.0
 30
0.0
 40
2.2
  1
0.000
 41
0.7
 72
1
 11
121.1
 21
-118.0
 31
0.0
100
AcDbText
 73
2
  0
TEXT
  5
14A
330
17
100
AcDbEntity
  8
IP_TABLE
100
AcDbText
 10
132.01999999999998
 20
-118.0
 30
0.0
 40
2.2
  1
16.000
 41
0.7
 72
1
 11
132.01999999999998
 21
-118.0
 31
0.0
100
AcDbText
 73
2
  0
TEXT
  5
14B
330
17
100
AcDbEntity
  8
IP_TABLE
100
AcDbText
 10
142.94
 20
-118.0
 30
0.0
 40
2.2
  1
0.000
 41
0.7
 72
1
 11
142.94
 21
-118.0
 31
0.0
100
AcDbText
 73
2
  0
TEXT
  5
14C
330
17
100
AcDbEntity
  8
IP_TABLE
100
AcDbText
 10
153.85999999999996
 20
-118.0
 30
0.0
 40
2.2
  1
0.000
 41
0.7
 72
1
 11
153.85999999999996
 21
-118.0
 31
0.0
100
AcDbText
 73
2
  0
TEXT
  5
14D
330
17
100
AcDbEntity
  8
IP_TABLE
100
AcDbText
 10
166.81999999999996
 20
-118.0
 30
0.0
 40
2.2
  1
396.807
 41
0.7
 72
1
 11
166.81999999999996
 21
-118.0
 31
0.0
100
AcDbText
 73
2
  0
TEXT
  5
14E
330
17
100
AcDbEntity
  8
IP_TABLE
100
AcDbText
 10
7.0
 20
-124.0
 30
0.0
 40
2.2
  1
南支IP17
 41
0.7
 72
1
 11
7.0
 21
-124.0
 31
0.0
100
AcDbText
 73
2
  0
TEXT
  5
14F
330
17
100
AcDbEntity
  8
IP_TABLE
100
AcDbText
 10
24.08
 20
-124.0
 30
0.0
 40
2.2
  1
649066.369000
 41
0.7
 72
1
 11
24.08
 21
-124.0
 31
0.0
100
AcDbText
 73
2
  0
TEXT
  5
150
330
17
100
AcDbEntity
  8
IP_TABLE
100
AcDbText
 10
44.9
 20
-124.0
 30
0.0
 40
2.2
  1
3377577.838000
 41
0.7
 72
1
 11
44.9
 21
-124.0
 31
0.0
100
AcDbText
 73
2
  0
TEXT
  5
151
330
17
100
AcDbEntity
  8
IP_TABLE
100
AcDbText
 10
65.64
 20
-124.0
 30
0.0
 40
2.2
  1
南支0+698.263
 41
0.7
 72
1
 11
65.64
 21
-124.0
 31
0.0
100
AcDbText
 73
2
  0
TEXT
  5
152
330
17
100
AcDbEntity
  8
IP_TABLE
100
AcDbText
 10
85.64
 20
-124.0
 30
0.0
 40
2.2
  1
南支0+704.115
 41
0.7
 72
1
 11
85.64
 21
-124.0
 31
0.0
100
AcDbText
 73
2
  0
TEXT
  5
153
330
17
100
AcDbEntity
  8
IP_TABLE
100
AcDbText
 10
105.64
 20
-124.0
 30
0.0
 40
2.2
  1
南支0+709.967
 41
0.7
 72
1
 11
105.64
 21
-124.0
 31
0.0
100
AcDbText
 73
2
  0
TEXT
  5
154
330
17
100
AcDbEntity
  8
IP_TABLE
100
AcDbText
 10
121.1
 20
-124.0
 30
0.0
 40
2.2
  1
41.911
 41
0.7
 72
1
 11
121.1
 21
-124.0
 31
0.0
100
AcDbText
 73
2
  0
TEXT
  5
155
330
17
100
AcDbEntity
  8
IP_TABLE
100
AcDbText
 10
132.01999999999998
 20
-124.0
 30
0.0
 40
2.2
  1
16.000
 41
0.7
 72
1
 11
132.01999999999998
 21
-124.0
 31
0.0
100
AcDbText
 73
2
  0
TEXT
  5
156
330
17
100
AcDbEntity
  8
IP_TABLE
100
AcDbText
 10
142.94
 20
-124.0
 30
0.0
 40
2.2
  1
6.128
 41
0.7
 72
1
 11
142.94
 21
-124.0
 31
0.0
100
AcDbText
 73
2
  0
TEXT
  5
157
330
17
100
AcDbEntity
  8
IP_TABLE
100
AcDbText
 10
153.85999999999996
 20
-124.0
 30
0.0
 40
2.2
  1
11.704
 41
0.7
 72
1
 11
153.85999999999996
 21
-124.0
 31
0.0
100
AcDbText
 73
2
  0
TEXT
  5
158
330
17
100
AcDbEntity
  8
IP_TABLE
100
AcDbText
 10
166.81999999999996
 20
-124.0
 30
0.0
 40
2.2
  1
0.000
 41
0.7
 72
1
 11
166.81999999999996
 21
-124.0
 31
0.0
100
AcDbText
 73
2
  0
TEXT
  5
159
330
17
100
AcDbEntity
  8
IP_TABLE
100
AcDbText
 10
7.0
 20
-130.0
 30
0.0
 40
2.2
  1
南支IP18
 41
0.7
 72
1
 11
7.0
 21
-130.0
 31
0.0
100
AcDbText
 73
2
  0
TEXT
  5
15A
330
17
100
AcDbEntity
  8
IP_TABLE
100
AcDbText
 10
24.08
 20
-130.0
 30
0.0
 40
2.2
  1
649033.673000
 41
0.7
 72
1
 11
24.08
 21
-130.0
 31
0.0
100
AcDbText
 73
2
  0
TEXT
  5
15B
330
17
100
AcDbEntity
  8
IP_TABLE
100
AcDbText
 10
44.9
 20
-130.0
 30
0.0
 40
2.2
  1
3377532.997000
 41
0.7
 72
1
 11
44.9
 21
-130.0
 31
0.0
100
AcDbText
 73
2
  0
TEXT
  5
15C
330
17
100
AcDbEntity
  8
IP_TABLE
100
AcDbText
 10
65.64
 20
-130.0
 30
0.0
 40
2.2
  1
南支0+756.524
 41
0.7
 72
1
 11
65.64
 21
-130.0
 31
0.0
100
AcDbText
 73
2
  0
TEXT
  5
15D
330
17
100
AcDbEntity
  8
IP_TABLE
100
AcDbText
 10
85.64
 20
-130.0
 30
0.0
 40
2.2
  1
南支0+759.306
 41
0.7
 72
1
 11
85.64
 21
-130.0
 31
0.0
100
AcDbText
 73
2
  0
TEXT
  5
15E
330
17
100
AcDbEntity
  8
IP_TABLE
100
AcDbText
 10
105.64
 20
-130.0
 30
0.0
 40
2.2
  1
南支0+762.088
 41
0.7
 72
1
 11
105.64
 21
-130.0
 31
0.0
100
AcDbText
 73
2
  0
TEXT
  5
15F
330
17
100
AcDbEntity
  8
IP_TABLE
100
AcDbText
 10
121.1
 20
-130.0
 30
0.0
 40
2.2
  1
19.925
 41
0.7
 72
1
 11
121.1
 21
-130.0
 31
0.0
100
AcDbText
 73
2
  0
TEXT
  5
160
330
17
100
AcDbEntity
  8
IP_TABLE
100
AcDbText
 10
132.01999999999998
 20
-130.0
 30
0.0
 40
2.2
  1
16.000
 41
0.7
 72
1
 11
132.01999999999998
 21
-130.0
 31
0.0
100
AcDbText
 73
2
  0
TEXT
  5
161
330
17
100
AcDbEntity
  8
IP_TABLE
100
AcDbText
 10
142.94
 20
-130.0
 30
0.0
 40
2.2
  1
2.810
 41
0.7
 72
1
 11
142.94
 21
-130.0
 31
0.0
100
AcDbText
 73
2
  0
TEXT
  5
162
330
17
100
AcDbEntity
  8
IP_TABLE
100
AcDbText
 10
153.85999999999996
 20
-130.0
 30
0.0
 40
2.2
  1
5.564
 41
0.7
 72
1
 11
153.85999999999996
 21
-130.0
 31
0.0
100
AcDbText
 73
2
  0
TEXT
  5
163
330
17
100
AcDbEntity
  8
IP_TABLE
100
AcDbText
 10
166.81999999999996
 20
-130.0
 30
0.0
 40
2.2
  1
0.000
 41
0.7
 72
1
 11
166.81999999999996
 21
-130.0
 31
0.0
100
AcDbText
 73
2
  0
TEXT
  5
164
330
17
100
AcDbEntity
  8
IP_TABLE
100
AcDbText
 10
7.0
 20
-136.0
 30
0.0
 40
2.2
  1
广岳倒出
 41
0.7
 72
1
 11
7.0
 21
-136.0
 31
0.0
100
AcDbText
 73
2
  0
TEXT
  5
165
330
17
100
AcDbEntity
  8
IP_TABLE
100
AcDbText
 10
24.08
 20
-136.0
 30
0.0
 40
2.2
  1
649018.984000
 41
0.7
 72
1
 11
24.08
 21
-136.0
 31
0.0
100
AcDbText
 73
2
  0
TEXT
  5
166
330
17
100
AcDbEntity
  8
IP_TABLE
100
AcDbText
 10
44.9
 20
-136.0
 30
0.0
 40
2.2
  1
3377482.347000
 41
0.7
 72
1
 11
44.9
 21
-136.0
 31
0.0
100
AcDbText
 73
2
  0
TEXT
  5
167
330
17
100
AcDbEntity
  8
IP_TABLE
100
AcDbText
 10
65.64
 20
-136.0
 30
0.0
 40
2.2
  1
南支0+812.015
 41
0.7
 72
1
 11
65.64
 21
-136.0
 31
0.0
100
AcDbText
 73
2
  0
TEXT
  5
168
330
17
100
AcDbEntity
  8
IP_TABLE
100
AcDbText
 10
85.64
 20
-136.0
 30
0.0
 40
2.2
  1
南支0+812.015
 41
0.7
 72
1
 11
85.64
 21
-136.0
 31
0.0
100
AcDbText
 73
2
  0
TEXT
  5
169
330
17
100
AcDbEntity
  8
IP_TABLE
100
AcDbText
 10
105.64
 20
-136.0
 30
0.0
 40
2.2
  1
南支0+812.015
 41
0.7
 72
1
 11
105.64
 21
-136.0
 31
0.0
100
AcDbText
 73
2
  0
TEXT
  5
16A
330
17
100
AcDbEntity
  8
IP_TABLE
100
AcDbText
 10
121.1
 20
-136.0
 30
0.0
 40
2.2
  1
0.000
 41
0.7
 72
1
 11
121.1
 21
-136.0
 31
0.0
100
AcDbText
 73
2
  0
TEXT
  5
16B
330
17
100
AcDbEntity
  8
IP_TABLE
100
AcDbText
 10
132.01999999999998
 20
-136.0
 30
0.0
 40
2.2
  1
16.000
 41
0.7
 72
1
 11
132.01999999999998
 21
-136.0
 31
0.0
100
AcDbText
 73
2
  0
TEXT
  5
16C
330
17
100
AcDbEntity
  8
IP_TABLE
100
AcDbText
 10
142.94
 20
-136.0
 30
0.0
 40
2.2
  1
0.000
 41
0.7
 72
1
 11
142.94
 21
-136.0
 31
0.0
100
AcDbText
 73
2
  0
TEXT
  5
16D
330
17
100
AcDbEntity
  8
IP_TABLE
100
AcDbText
 10
153.85999999999996
 20
-136.0
 30
0.0
 40
2.2
  1
0.000
 41
0.7
 72
1
 11
153.85999999999996
 21
-136.0
 31
0.0
100
AcDbText
 73
2
  0
TEXT
  5
16E
330
17
100
AcDbEntity
  8
IP_TABLE
100
AcDbText
 10
166.81999999999996
 20
-136.0
 30
0.0
 40
2.2
  1
396.271
 41
0.7
 72
1
 11
166.81999999999996
 21
-136.0
 31
0.0
100
AcDbText
 73
2
  0
TEXT
  5
16F
330
17
100
AcDbEntity
  8
IP_TABLE
100
AcDbText
 10
7.0
 20
-142.0
 30
0.0
 40
2.2
  1
伍家沟隧进
 41
0.7
 72
1
 11
7.0
 21
-142.0
 31
0.0
100
AcDbText
 73
2
  0
TEXT
  5
170
330
17
100
AcDbEntity
  8
IP_TABLE
100
AcDbText
 10
24.08
 20
-142.0
 30
0.0
 40
2.2
  1
648991.829000
 41
0.7
 72
1
 11
24.08
 21
-142.0
 31
0.0
100
AcDbText
 73
2
  0
TEXT
  5
171
330
17
100
AcDbEntity
  8
IP_TABLE
100
AcDbText
 10
44.9
 20
-142.0
 30
0.0
 40
2.2
  1
3377453.363000
 41
0.7
 72
1
 11
44.9
 21
-142.0
 31
0.0
100
AcDbText
 73
2
  0
TEXT
  5
172
330
17
100
AcDbEntity
  8
IP_TABLE
100
AcDbText
 10
65.64
 20
-142.0
 30
0.0
 40
2.2
  1
南支0+851.732
 41
0.7
 72
1
 11
65.64
 21
-142.0
 31
0.0
100
AcDbText
 73
2
  0
TEXT
  5
173
330
17
100
AcDbEntity
  8
IP_TABLE
100
AcDbText
 10
85.64
 20
-142.0
 30
0.0
 40
2.2
  1
南支0+851.732
 41
0.7
 72
1
 11
85.64
 21
-142.0
 31
0.0
100
AcDbText
 73
2
  0
TEXT
  5
174
330
17
100
AcDbEntity
  8
IP_TABLE
100
AcDbText
 10
105.64
 20
-142.0
 30
0.0
 40
2.2
  1
南支0+851.732
 41
0.7
 72
1
 11
105.64
 21
-142.0
 31
0.0
100
AcDbText
 73
2
  0
TEXT
  5
175
330
17
100
AcDbEntity
  8
IP_TABLE
100
AcDbText
 10
121.1
 20
-142.0
 30
0.0
 40
2.2
  1
0.000
 41
0.7
 72
1
 11
121.1
 21
-142.0
 31
0.0
100
AcDbText
 73
2
  0
TEXT
  5
176
330
17
100
AcDbEntity
  8
IP_TABLE
100
AcDbText
 10
132.01999999999998
 20
-142.0
 30
0.0
 40
2.2
  1
16.000
 41
0.7
 72
1
 11
132.01999999999998
 21
-142.0
 31
0.0
100
AcDbText
 73
2
  0
TEXT
  5
177
330
17
100
AcDbEntity
  8
IP_TABLE
100
AcDbText
 10
142.94
 20
-142.0
 30
0.0
 40
2.2
  1
0.000
 41
0.7
 72
1
 11
142.94
 21
-142.0
 31
0.0
100
AcDbText
 73
2
  0
TEXT
  5
178
330
17
100
AcDbEntity
  8
IP_TABLE
100
AcDbText
 10
153.85999999999996
 20
-142.0
 30
0.0
 40
2.2
  1
0.000
 41
0.7
 72
1
 11
153.85999999999996
 21
-142.0
 31
0.0
100
AcDbText
 73
2
  0
TEXT
  5
179
330
17
100
AcDbEntity
  8
IP_TABLE
100
AcDbText
 10
166.81999999999996
 20
-142.0
 30
0.0
 40
2.2
  1
397.196
 41
0.7
 72
1
 11
166.81999999999996
 21
-142.0
 31
0.0
100
AcDbText
 73
2
  0
TEXT
  5
17A
330
17
100
AcDbEntity
  8
IP_TABLE
100
AcDbText
 10
7.0
 20
-148.0
 30
0.0
 40
2.2
  1
南支IP21
 41
0.7
 72
1
 11
7.0
 21
-148.0
 31
0.0
100
AcDbText
 73
2
  0
TEXT
  5
17B
330
17
100
AcDbEntity
  8
IP_TABLE
100
AcDbText
 10
24.08
 20
-148.0
 30
0.0
 40
2.2
  1
648969.028000
 41
0.7
 72
1
 11
24.08
 21
-148.0
 31
0.0
100
AcDbText
 73
2
  0
TEXT
  5
17C
330
17
100
AcDbEntity
  8
IP_TABLE
100
AcDbText
 10
44.9
 20
-148.0
 30
0.0
 40
2.2
  1
3377444.446000
 41
0.7
 72
1
 11
44.9
 21
-148.0
 31
0.0
100
AcDbText
 73
2
  0
TEXT
  5
17D
330
17
100
AcDbEntity
  8
IP_TABLE
100
AcDbText
 10
65.64
 20
-148.0
 30
0.0
 40
2.2
  1
南支0+872.643
 41
0.7
 72
1
 11
65.64
 21
-148.0
 31
0.0
100
AcDbText
 73
2
  0
TEXT
  5
17E
330
17
100
AcDbEntity
  8
IP_TABLE
100
AcDbText
 10
85.64
 20
-148.0
 30
0.0
 40
2.2
  1
南支0+876.157
 41
0.7
 72
1
 11
85.64
 21
-148.0
 31
0.0
100
AcDbText
 73
2
  0
TEXT
  5
17F
330
17
100
AcDbEntity
  8
IP_TABLE
100
AcDbText
 10
105.64
 20
-148.0
 30
0.0
 40
2.2
  1
南支0+879.671
 41
0.7
 72
1
 11
105.64
 21
-148.0
 31
0.0
100
AcDbText
 73
2
  0
TEXT
  5
180
330
17
100
AcDbEntity
  8
IP_TABLE
100
AcDbText
 10
121.1
 20
-148.0
 30
0.0
 40
2.2
  1
25.169
 41
0.7
 72
1
 11
121.1
 21
-148.0
 31
0.0
100
AcDbText
 73
2
  0
TEXT
  5
181
330
17
100
AcDbEntity
  8
IP_TABLE
100
AcDbText
 10
132.01999999999998
 20
-148.0
 30
0.0
 40
2.2
  1
16.000
 41
0.7
 72
1
 11
132.01999999999998
 21
-148.0
 31
0.0
100
AcDbText
 73
2
  0
TEXT
  5
182
330
17
100
AcDbEntity
  8
IP_TABLE
100
AcDbText
 10
142.94
 20
-148.0
 30
0.0
 40
2.2
  1
3.572
 41
0.7
 72
1
 11
142.94
 21
-148.0
 31
0.0
100
AcDbText
 73
2
  0
TEXT
  5
183
330
17
100
AcDbEntity
  8
IP_TABLE
100
AcDbText
 10
153.85999999999996
 20
-148.0
 30
0.0
 40
2.2
  1
7.028
 41
0.7
 72
1
 11
153.85999999999996
 21
-148.0
 31
0.0
100
AcDbText
 73
2
  0
TEXT
  5
184
330
17
100
AcDbEntity
  8
IP_TABLE
100
AcDbText
 10
166.81999999999996
 20
-148.0
 30
0.0
 40
2.2
  1
397.185
 41
0.7
 72
1
 11
166.81999999999996
 21
-148.0
 31
0.0
100
AcDbText
 73
2
  0
TEXT
  5
185
330
17
100
AcDbEntity
  8
IP_TABLE
100
AcDbText
 10
7.0
 20
-154.0
 30
0.0
 40
2.2
  1
伍家沟隧出
 41
0.7
 72
1
 11
7.0
 21
-154.0
 31
0.0
100
AcDbText
 73
2
  0
TEXT
  5
186
330
17
100
AcDbEntity
  8
IP_TABLE
100
AcDbText
 10
24.08
 20
-154.0
 30
0.0
 40
2.2
  1
648918.162000
 41
0.7
 72
1
 11
24.08
 21
-154.0
 31
0.0
100
AcDbText
 73
2
  0
TEXT
  5
187
330
17
100
AcDbEntity
  8
IP_TABLE
100
AcDbText
 10
44.9
 20
-154.0
 30
0.0
 40
2.2
  1
3377447.833000
 41
0.7
 72
1
 11
44.9
 21
-154.0
 31
0.0
100
AcDbText
 73
2
  0
TEXT
  5
188
330
17
100
AcDbEntity
  8
IP_TABLE
100
AcDbText
 10
65.64
 20
-154.0
 30
0.0
 40
2.2
  1
南支0+927.078
 41
0.7
 72
1
 11
65.64
 21
-154.0
 31
0.0
100
AcDbText
 73
2
  0
TEXT
  5
189
330
17
100
AcDbEntity
  8
IP_TABLE
100
AcDbText
 10
85.64
 20
-154.0
 30
0.0
 40
2.2
  1
南支0+927.078
 41
0.7
 72
1
 11
85.64
 21
-154.0
 31
0.0
100
AcDbText
 73
2
  0
TEXT
  5
18A
330
17
100
AcDbEntity
  8
IP_TABLE
100
AcDbText
 10
105.64
 20
-154.0
 30
0.0
 40
2.2
  1
南支0+927.078
 41
0.7
 72
1
 11
105.64
 21
-154.0
 31
0.0
100
AcDbText
 73
2
  0
TEXT
  5
18B
330
17
100
AcDbEntity
  8
IP_TABLE
100
AcDbText
 10
121.1
 20
-154.0
 30
0.0
 40
2.2
  1
0.000
 41
0.7
 72
1
 11
121.1
 21
-154.0
 31
0.0
100
AcDbText
 73
2
  0
TEXT
  5
18C
330
17
100
AcDbEntity
  8
IP_TABLE
100
AcDbText
 10
132.01999999999998
 20
-154.0
 30
0.0
 40
2.2
  1
16.000
 41
0.7
 72
1
 11
132.01999999999998
 21
-154.0
 31
0.0
100
AcDbText
 73
2
  0
TEXT
  5
18D
330
17
100
AcDbEntity
  8
IP_TABLE
100
AcDbText
 10
142.94
 20
-154.0
 30
0.0
 40
2.2
  1
0.000
 41
0.7
 72
1
 11
142.94
 21
-154.0
 31
0.0
100
AcDbText
 73
2
  0
TEXT
  5
18E
330
17
100
AcDbEntity
  8
IP_TABLE
100
AcDbText
 10
153.85999999999996
 20
-154.0
 30
0.0
 40
2.2
  1
0.000
 41
0.7
 72
1
 11
153.85999999999996
 21
-154.0
 31
0.0
100
AcDbText
 73
2
  0
TEXT
  5
18F
330
17
100
AcDbEntity
  8
IP_TABLE
100
AcDbText
 10
166.81999999999996
 20
-154.0
 30
0.0
 40
2.2
  1
397.161
 41
0.7
 72
1
 11
166.81999999999996
 21
-154.0
 31
0.0
100
AcDbText
 73
2
  0
TEXT
  5
190
330
17
100
AcDbEntity
  8
IP_TABLE
100
AcDbText
 10
7.0
 20
-160.0
 30
0.0
 40
2.2
  1
刘家沟渡进
 41
0.7
 72
1
 11
7.0
 21
-160.0
 31
0.0
100
AcDbText
 73
2
  0
TEXT
  5
191
330
17
100
AcDbEntity
  8
IP_TABLE
100
AcDbText
 10
24.08
 20
-160.0
 30
0.0
 40
2.2
  1
648879.874000
 41
0.7
 72
1
 11
24.08
 21
-160.0
 31
0.0
100
AcDbText
 73
2
  0
TEXT
  5
192
330
17
100
AcDbEntity
  8
IP_TABLE
100
AcDbText
 10
44.9
 20
-160.0
 30
0.0
 40
2.2
  1
3377424.401000
 41
0.7
 72
1
 11
44.9
 21
-160.0
 31
0.0
100
AcDbText
 73
2
  0
TEXT
  5
193
330
17
100
AcDbEntity
  8
IP_TABLE
100
AcDbText
 10
65.64
 20
-160.0
 30
0.0
 40
2.2
  1
南支0+971.967
 41
0.7
 72
1
 11
65.64
 21
-160.0
 31
0.0
100
AcDbText
 73
2
  0
TEXT
  5
194
330
17
100
AcDbEntity
  8
IP_TABLE
100
AcDbText
 10
85.64
 20
-160.0
 30
0.0
 40
2.2
  1
南支0+971.967
 41
0.7
 72
1
 11
85.64
 21
-160.0
 31
0.0
100
AcDbText
 73
2
  0
TEXT
  5
195
330
17
100
AcDbEntity
  8
IP_TABLE
100
AcDbText
 10
105.64
 20
-160.0
 30
0.0
 40
2.2
  1
南支0+971.967
 41
0.7
 72
1
 11
105.64
 21
-160.0
 31
0.0
100
AcDbText
 73
2
  0
TEXT
  5
196
330
17
100
AcDbEntity
  8
IP_TABLE
100
AcDbText
 10
121.1
 20
-160.0
 30
0.0
 40
2.2
  1
0.000
 41
0.7
 72
1
 11
121.1
 21
-160.0
 31
0.0
100
AcDbText
 73
2
  0
TEXT
  5
197
330
17
100
AcDbEntity
  8
IP_TABLE
100
AcDbText
 10
132.01999999999998
 20
-160.0
 30
0.0
 40
2.2
  1
16.000
 41
0.7
 72
1
 11
132.01999999999998
 21
-160.0
 31
0.0
100
AcDbText
 73
2
  0
TEXT
  5
198
330
17
100
AcDbEntity
  8
IP_TABLE
100
AcDbText
 10
142.94
 20
-160.0
 30
0.0
 40
2.2
  1
0.000
 41
0.7
 72
1
 11
142.94
 21
-160.0
 31
0.0
100
AcDbText
 73
2
  0
TEXT
  5
199
330
17
100
AcDbEntity
  8
IP_TABLE
100
AcDbText
 10
153.85999999999996
 20
-160.0
 30
0.0
 40
2.2
  1
0.000
 41
0.7
 72
1
 11
153.85999999999996
 21
-160.0
 31
0.0
100
AcDbText
 73
2
  0
TEXT
  5
19A
330
17
100
AcDbEntity
  8
IP_TABLE
100
AcDbText
 10
166.81999999999996
 20
-160.0
 30
0.0
 40
2.2
  1
397.011
 41
0.7
 72
1
 11
166.81999999999996
 21
-160.0
 31
0.0
100
AcDbText
 73
2
  0
TEXT
  5
19B
330
17
100
AcDbEntity
  8
IP_TABLE
100
AcDbText
 10
7.0
 20
-166.0
 30
0.0
 40
2.2
  1
刘家沟渡出
 41
0.7
 72
1
 11
7.0
 21
-166.0
 31
0.0
100
AcDbText
 73
2
  0
TEXT
  5
19C
330
17
100
AcDbEntity
  8
IP_TABLE
100
AcDbText
 10
24.08
 20
-166.0
 30
0.0
 40
2.2
  1
648873.319000
 41
0.7
 72
1
 11
24.08
 21
-166.0
 31
0.0
100
AcDbText
 73
2
  0
TEXT
  5
19D
330
17
100
AcDbEntity
  8
IP_TABLE
100
AcDbText
 10
44.9
 20
-166.0
 30
0.0
 40
2.2
  1
3377389.201000
 41
0.7
 72
1
 11
44.9
 21
-166.0
 31
0.0
100
AcDbText
 73
2
  0
TEXT
  5
19E
330
17
100
AcDbEntity
  8
IP_TABLE
100
AcDbText
 10
65.64
 20
-166.0
 30
0.0
 40
2.2
  1
南支1+007.772
 41
0.7
 72
1
 11
65.64
 21
-166.0
 31
0.0
100
AcDbText
 73
2
  0
TEXT
  5
19F
330
17
100
AcDbEntity
  8
IP_TABLE
100
AcDbText
 10
85.64
 20
-166.0
 30
0.0
 40
2.2
  1
南支1+007.772
 41
0.7
 72
1
 11
85.64
 21
-166.0
 31
0.0
100
AcDbText
 73
2
  0
TEXT
  5
1A0
330
17
100
AcDbEntity
  8
IP_TABLE
100
AcDbText
 10
105.64
 20
-166.0
 30
0.0
 40
2.2
  1
南支1+007.772
 41
0.7
 72
1
 11
105.64
 21
-166.0
 31
0.0
100
AcDbText
 73
2
  0
TEXT
  5
1A1
330
17
100
AcDbEntity
  8
IP_TABLE
100
AcDbText
 10
121.1
 20
-166.0
 30
0.0
 40
2.2
  1
0.000
 41
0.7
 72
1
 11
121.1
 21
-166.0
 31
0.0
100
AcDbText
 73
2
  0
TEXT
  5
1A2
330
17
100
AcDbEntity
  8
IP_TABLE
100
AcDbText
 10
132.01999999999998
 20
-166.0
 30
0.0
 40
2.2
  1
16.000
 41
0.7
 72
1
 11
132.01999999999998
 21
-166.0
 31
0.0
100
AcDbText
 73
2
  0
TEXT
  5
1A3
330
17
100
AcDbEntity
  8
IP_TABLE
100
AcDbText
 10
142.94
 20
-166.0
 30
0.0
 40
2.2
  1
0.000
 41
0.7
 72
1
 11
142.94
 21
-166.0
 31
0.0
100
AcDbText
 73
2
  0
TEXT
  5
1A4
330
17
100
AcDbEntity
  8
IP_TABLE
100
AcDbText
 10
153.85999999999996
 20
-166.0
 30
0.0
 40
2.2
  1
0.000
 41
0.7
 72
1
 11
153.85999999999996
 21
-166.0
 31
0.0
100
AcDbText
 73
2
  0
TEXT
  5
1A5
330
17
100
AcDbEntity
  8
IP_TABLE
100
AcDbText
 10
166.81999999999996
 20
-166.0
 30
0.0
 40
2.2
  1
396.993
 41
0.7
 72
1
 11
166.81999999999996
 21
-166.0
 31
0.0
100
AcDbText
 73
2
  0
TEXT
  5
1A6
330
17
100
AcDbEntity
  8
IP_TABLE
100
AcDbText
 10
7.0
 20
-172.0
 30
0.0
 40
2.2
  1
广高路倒进
 41
0.7
 72
1
 11
7.0
 21
-172.0
 31
0.0
100
AcDbText
 73
2
  0
TEXT
  5
1A7
330
17
100
AcDbEntity
  8
IP_TABLE
100
AcDbText
 10
24.08
 20
-172.0
 30
0.0
 40
2.2
  1
648875.832000
 41
0.7
 72
1
 11
24.08
 21
-172.0
 31
0.0
100
AcDbText
 73
2
  0
TEXT
  5
1A8
330
17
100
AcDbEntity
  8
IP_TABLE
100
AcDbText
 10
44.9
 20
-172.0
 30
0.0
 40
2.2
  1
3377349.479000
 41
0.7
 72
1
 11
44.9
 21
-172.0
 31
0.0
100
AcDbText
 73
2
  0
TEXT
  5
1A9
330
17
100
AcDbEntity
  8
IP_TABLE
100
AcDbText
 10
65.64
 20
-172.0
 30
0.0
 40
2.2
  1
南支1+047.574
 41
0.7
 72
1
 11
65.64
 21
-172.0
 31
0.0
100
AcDbText
 73
2
  0
TEXT
  5
1AA
330
17
100
AcDbEntity
  8
IP_TABLE
100
AcDbText
 10
85.64
 20
-172.0
 30
0.0
 40
2.2
  1
南支1+047.574
 41
0.7
 72
1
 11
85.64
 21
-172.0
 31
0.0
100
AcDbText
 73
2
  0
TEXT
  5
1AB
330
17
100
AcDbEntity
  8
IP_TABLE
100
AcDbText
 10
105.64
 20
-172.0
 30
0.0
 40
2.2
  1
南支1+047.574
 41
0.7
 72
1
 11
105.64
 21
-172.0
 31
0.0
100
AcDbText
 73
2
  0
TEXT
  5
1AC
330
17
100
AcDbEntity
  8
IP_TABLE
100
AcDbText
 10
121.1
 20
-172.0
 30
0.0
 40
2.2
  1
0.000
 41
0.7
 72
1
 11
121.1
 21
-172.0
 31
0.0
100
AcDbText
 73
2
  0
TEXT
  5
1AD
330
17
100
AcDbEntity
  8
IP_TABLE
100
AcDbText
 10
132.01999999999998
 20
-172.0
 30
0.0
 40
2.2
  1
16.000
 41
0.7
 72
1
 11
132.01999999999998
 21
-172.0
 31
0.0
100
AcDbText
 73
2
  0
TEXT
  5
1AE
330
17
100
AcDbEntity
  8
IP_TABLE
100
AcDbText
 10
142.94
 20
-172.0
 30
0.0
 40
2.2
  1
0.000
 41
0.7
 72
1
 11
142.94
 21
-172.0
 31
0.0
100
AcDbText
 73
2
  0
TEXT
  5
1AF
330
17
100
AcDbEntity
  8
IP_TABLE
100
AcDbText
 10
153.85999999999996
 20
-172.0
 30
0.0
 40
2.2
  1
0.000
 41
0.7
 72
1
 11
153.85999999999996
 21
-172.0
 31
0.0
100
AcDbText
 73
2
  0
TEXT
  5
1B0
330
17
100
AcDbEntity
  8
IP_TABLE
100
AcDbText
 10
166.81999999999996
 20
-172.0
 30
0.0
 40
2.2
  1
396.144
 41
0.7
 72
1
 11
166.81999999999996
 21
-172.0
 31
0.0
100
AcDbText
 73
2
  0
TEXT
  5
1B1
330
17
100
AcDbEntity
  8
IP_TABLE
100
AcDbText
 10
7.0
 20
-178.0
 30
0.0
 40
2.2
  1
南支IP26
 41
0.7
 72
1
 11
7.0
 21
-178.0
 31
0.0
100
AcDbText
 73
2
  0
TEXT
  5
1B2
330
17
100
AcDbEntity
  8
IP_TABLE
100
AcDbText
 10
24.08
 20
-178.0
 30
0.0
 40
2.2
  1
648859.515000
 41
0.7
 72
1
 11
24.08
 21
-178.0
 31
0.0
100
AcDbText
 73
2
  0
TEXT
  5
1B3
330
17
100
AcDbEntity
  8
IP_TABLE
100
AcDbText
 10
44.9
 20
-178.0
 30
0.0
 40
2.2
  1
3377325.868000
 41
0.7
 72
1
 11
44.9
 21
-178.0
 31
0.0
100
AcDbText
 73
2
  0
TEXT
  5
1B4
330
17
100
AcDbEntity
  8
IP_TABLE
100
AcDbText
 10
65.64
 20
-178.0
 30
0.0
 40
2.2
  1
南支1+067.051
 41
0.7
 72
1
 11
65.64
 21
-178.0
 31
0.0
100
AcDbText
 73
2
  0
TEXT
  5
1B5
330
17
100
AcDbEntity
  8
IP_TABLE
100
AcDbText
 10
85.64
 20
-178.0
 30
0.0
 40
2.2
  1
南支1+075.418
 41
0.7
 72
1
 11
85.64
 21
-178.0
 31
0.0
100
AcDbText
 73
2
  0
TEXT
  5
1B6
330
17
100
AcDbEntity
  8
IP_TABLE
100
AcDbText
 10
105.64
 20
-178.0
 30
0.0
 40
2.2
  1
南支1+083.785
 41
0.7
 72
1
 11
105.64
 21
-178.0
 31
0.0
100
AcDbText
 73
2
  0
TEXT
  5
1B7
330
17
100
AcDbEntity
  8
IP_TABLE
100
AcDbText
 10
121.1
 20
-178.0
 30
0.0
 40
2.2
  1
59.922
 41
0.7
 72
1
 11
121.1
 21
-178.0
 31
0.0
100
AcDbText
 73
2
  0
TEXT
  5
1B8
330
17
100
AcDbEntity
  8
IP_TABLE
100
AcDbText
 10
132.01999999999998
 20
-178.0
 30
0.0
 40
2.2
  1
16.000
 41
0.7
 72
1
 11
132.01999999999998
 21
-178.0
 31
0.0
100
AcDbText
 73
2
  0
TEXT
  5
1B9
330
17
100
AcDbEntity
  8
IP_TABLE
100
AcDbText
 10
142.94
 20
-178.0
 30
0.0
 40
2.2
  1
9.223
 41
0.7
 72
1
 11
142.94
 21
-178.0
 31
0.0
100
AcDbText
 73
2
  0
TEXT
  5
1BA
330
17
100
AcDbEntity
  8
IP_TABLE
100
AcDbText
 10
153.85999999999996
 20
-178.0
 30
0.0
 40
2.2
  1
16.733
 41
0.7
 72
1
 11
153.85999999999996
 21
-178.0
 31
0.0
100
AcDbText
 73
2
  0
TEXT
  5
1BB
330
17
100
AcDbEntity
  8
IP_TABLE
100
AcDbText
 10
166.81999999999996
 20
-178.0
 30
0.0
 40
2.2
  1
0.000
 41
0.7
 72
1
 11
166.81999999999996
 21
-178.0
 31
0.0
100
AcDbText
 73
2
  0
TEXT
  5
1BC
330
17
100
AcDbEntity
  8
IP_TABLE
100
AcDbText
 10
7.0
 20
-184.0
 30
0.0
 40
2.2
  1
南支IP27
 41
0.7
 72
1
 11
7.0
 21
-184.0
 31
0.0
100
AcDbText
 73
2
  0
TEXT
  5
1BD
330
17
100
AcDbEntity
  8
IP_TABLE
100
AcDbText
 10
24.08
 20
-184.0
 30
0.0
 40
2.2
  1
648823.413000
 41
0.7
 72
1
 11
24.08
 21
-184.0
 31
0.0
100
AcDbText
 73
2
  0
TEXT
  5
1BE
330
17
100
AcDbEntity
  8
IP_TABLE
100
AcDbText
 10
44.9
 20
-184.0
 30
0.0
 40
2.2
  1
3377328.753000
 41
0.7
 72
1
 11
44.9
 21
-184.0
 31
0.0
100
AcDbText
 73
2
  0
TEXT
  5
1BF
330
17
100
AcDbEntity
  8
IP_TABLE
100
AcDbText
 10
65.64
 20
-184.0
 30
0.0
 40
2.2
  1
南支1+106.265
 41
0.7
 72
1
 11
65.64
 21
-184.0
 31
0.0
100
AcDbText
 73
2
  0
TEXT
  5
1C0
330
17
100
AcDbEntity
  8
IP_TABLE
100
AcDbText
 10
85.64
 20
-184.0
 30
0.0
 40
2.2
  1
南支1+110.664
 41
0.7
 72
1
 11
85.64
 21
-184.0
 31
0.0
100
AcDbText
 73
2
  0
TEXT
  5
1C1
330
17
100
AcDbEntity
  8
IP_TABLE
100
AcDbText
 10
105.64
 20
-184.0
 30
0.0
 40
2.2
  1
南支1+115.063
 41
0.7
 72
1
 11
105.64
 21
-184.0
 31
0.0
100
AcDbText
 73
2
  0
TEXT
  5
1C2
330
17
100
AcDbEntity
  8
IP_TABLE
100
AcDbText
 10
121.1
 20
-184.0
 30
0.0
 40
2.2
  1
31.506
 41
0.7
 72
1
 11
121.1
 21
-184.0
 31
0.0
100
AcDbText
 73
2
  0
TEXT
  5
1C3
330
17
100
AcDbEntity
  8
IP_TABLE
100
AcDbText
 10
132.01999999999998
 20
-184.0
 30
0.0
 40
2.2
  1
16.000
 41
0.7
 72
1
 11
132.01999999999998
 21
-184.0
 31
0.0
100
AcDbText
 73
2
  0
TEXT
  5
1C4
330
17
100
AcDbEntity
  8
IP_TABLE
100
AcDbText
 10
142.94
 20
-184.0
 30
0.0
 40
2.2
  1
4.513
 41
0.7
 72
1
 11
142.94
 21
-184.0
 31
0.0
100
AcDbText
 73
2
  0
TEXT
  5
1C5
330
17
100
AcDbEntity
  8
IP_TABLE
100
AcDbText
 10
153.85999999999996
 20
-184.0
 30
0.0
 40
2.2
  1
8.798
 41
0.7
 72
1
 11
153.85999999999996
 21
-184.0
 31
0.0
100
AcDbText
 73
2
  0
TEXT
  5
1C6
330
17
100
AcDbEntity
  8
IP_TABLE
100
AcDbText
 10
166.81999999999996
 20
-184.0
 30
0.0
 40
2.2
  1
0.000
 41
0.7
 72
1
 11
166.81999999999996
 21
-184.0
 31
0.0
100
AcDbText
 73
2
  0
TEXT
  5
1C7
330
17
100
AcDbEntity
  8
IP_TABLE
100
AcDbText
 10
7.0
 20
-190.0
 30
0.0
 40
2.2
  1
南支IP28
 41
0.7
 72
1
 11
7.0
 21
-190.0
 31
0.0
100
AcDbText
 73
2
  0
TEXT
  5
1C8
330
17
100
AcDbEntity
  8
IP_TABLE
100
AcDbText
 10
24.08
 20
-190.0
 30
0.0
 40
2.2
  1
648778.748000
 41
0.7
 72
1
 11
24.08
 21
-190.0
 31
0.0
100
AcDbText
 73
2
  0
TEXT
  5
1C9
330
17
100
AcDbEntity
  8
IP_TABLE
100
AcDbText
 10
44.9
 20
-190.0
 30
0.0
 40
2.2
  1
3377306.057000
 41
0.7
 72
1
 11
44.9
 21
-190.0
 31
0.0
100
AcDbText
 73
2
  0
TEXT
  5
1CA
330
17
100
AcDbEntity
  8
IP_TABLE
100
AcDbText
 10
65.64
 20
-190.0
 30
0.0
 40
2.2
  1
南支1+159.269
 41
0.7
 72
1
 11
65.64
 21
-190.0
 31
0.0
100
AcDbText
 73
2
  0
TEXT
  5
1CB
330
17
100
AcDbEntity
  8
IP_TABLE
100
AcDbText
 10
85.64
 20
-190.0
 30
0.0
 40
2.2
  1
南支1+160.647
 41
0.7
 72
1
 11
85.64
 21
-190.0
 31
0.0
100
AcDbText
 73
2
  0
TEXT
  5
1CC
330
17
100
AcDbEntity
  8
IP_TABLE
100
AcDbText
 10
105.64
 20
-190.0
 30
0.0
 40
2.2
  1
南支1+162.026
 41
0.7
 72
1
 11
105.64
 21
-190.0
 31
0.0
100
AcDbText
 73
2
  0
TEXT
  5
1CD
330
17
100
AcDbEntity
  8
IP_TABLE
100
AcDbText
 10
121.1
 20
-190.0
 30
0.0
 40
2.2
  1
9.874
 41
0.7
 72
1
 11
121.1
 21
-190.0
 31
0.0
100
AcDbText
 73
2
  0
TEXT
  5
1CE
330
17
100
AcDbEntity
  8
IP_TABLE
100
AcDbText
 10
132.01999999999998
 20
-190.0
 30
0.0
 40
2.2
  1
16.000
 41
0.7
 72
1
 11
132.01999999999998
 21
-190.0
 31
0.0
100
AcDbText
 73
2
  0
TEXT
  5
1CF
330
17
100
AcDbEntity
  8
IP_TABLE
100
AcDbText
 10
142.94
 20
-190.0
 30
0.0
 40
2.2
  1
1.382
 41
0.7
 72
1
 11
142.94
 21
-190.0
 31
0.0
100
AcDbText
 73
2
  0
TEXT
  5
1D0
330
17
100
AcDbEntity
  8
IP_TABLE
100
AcDbText
 10
153.85999999999996
 20
-190.0
 30
0.0
 40
2.2
  1
2.757
 41
0.7
 72
1
 11
153.85999999999996
 21
-190.0
 31
0.0
100
AcDbText
 73
2
  0
TEXT
  5
1D1
330
17
100
AcDbEntity
  8
IP_TABLE
100
AcDbText
 10
166.81999999999996
 20
-190.0
 30
0.0
 40
2.2
  1
0.000
 41
0.7
 72
1
 11
166.81999999999996
 21
-190.0
 31
0.0
100
AcDbText
 73
2
  0
TEXT
  5
1D2
330
17
100
AcDbEntity
  8
IP_TABLE
100
AcDbText
 10
7.0
 20
-196.0
 30
0.0
 40
2.2
  1
南支IP29
 41
0.7
 72
1
 11
7.0
 21
-196.0
 31
0.0
100
AcDbText
 73
2
  0
TEXT
  5
1D3
330
17
100
AcDbEntity
  8
IP_TABLE
100
AcDbText
 10
24.08
 20
-196.0
 30
0.0
 40
2.2
  1
648742.968000
 41
0.7
 72
1
 11
24.08
 21
-196.0
 31
0.0
100
AcDbText
 73
2
  0
TEXT
  5
1D4
330
17
100
AcDbEntity
  8
IP_TABLE
100
AcDbText
 10
44.9
 20
-196.0
 30
0.0
 40
2.2
  1
3377279.280000
 41
0.7
 72
1
 11
44.9
 21
-196.0
 31
0.0
100
AcDbText
 73
2
  0
TEXT
  5
1D5
330
17
100
AcDbEntity
  8
IP_TABLE
100
AcDbText
 10
65.64
 20
-196.0
 30
0.0
 40
2.2
  1
南支1+198.554
 41
0.7
 72
1
 11
65.64
 21
-196.0
 31
0.0
100
AcDbText
 73
2
  0
TEXT
  5
1D6
330
17
100
AcDbEntity
  8
IP_TABLE
100
AcDbText
 10
85.64
 20
-196.0
 30
0.0
 40
2.2
  1
南支1+204.967
 41
0.7
 72
1
 11
85.64
 21
-196.0
 31
0.0
100
AcDbText
 73
2
  0
TEXT
  5
1D7
330
17
100
AcDbEntity
  8
IP_TABLE
100
AcDbText
 10
105.64
 20
-196.0
 30
0.0
 40
2.2
  1
南支1+211.380
 41
0.7
 72
1
 11
105.64
 21
-196.0
 31
0.0
100
AcDbText
 73
2
  0
TEXT
  5
1D8
330
17
100
AcDbEntity
  8
IP_TABLE
100
AcDbText
 10
121.1
 20
-196.0
 30
0.0
 40
2.2
  1
45.932
 41
0.7
 72
1
 11
121.1
 21
-196.0
 31
0.0
100
AcDbText
 73
2
  0
TEXT
  5
1D9
330
17
100
AcDbEntity
  8
IP_TABLE
100
AcDbText
 10
132.01999999999998
 20
-196.0
 30
0.0
 40
2.2
  1
16.000
 41
0.7
 72
1
 11
132.01999999999998
 21
-196.0
 31
0.0
100
AcDbText
 73
2
  0
TEXT
  5
1DA
330
17
100
AcDbEntity
  8
IP_TABLE
100
AcDbText
 10
142.94
 20
-196.0
 30
0.0
 40
2.2
  1
6.780
 41
0.7
 72
1
 11
142.94
 21
-196.0
 31
0.0
100
AcDbText
 73
2
  0
TEXT
  5
1DB
330
17
100
AcDbEntity
  8
IP_TABLE
100
AcDbText
 10
153.85999999999996
 20
-196.0
 30
0.0
 40
2.2
  1
12.827
 41
0.7
 72
1
 11
153.85999999999996
 21
-196.0
 31
0.0
100
AcDbText
 73
2
  0
TEXT
  5
1DC
330
17
100
AcDbEntity
  8
IP_TABLE
100
AcDbText
 10
166.81999999999996
 20
-196.0
 30
0.0
 40
2.2
  1
0.000
 41
0.7
 72
1
 11
166.81999999999996
 21
-196.0
 31
0.0
100
AcDbText
 73
2
  0
TEXT
  5
1DD
330
17
100
AcDbEntity
  8
IP_TABLE
100
AcDbText
 10
7.0
 20
-202.0
 30
0.0
 40
2.2
  1
南支IP30
 41
0.7
 72
1
 11
7.0
 21
-202.0
 31
0.0
100
AcDbText
 73
2
  0
TEXT
  5
1DE
330
17
100
AcDbEntity
  8
IP_TABLE
100
AcDbText
 10
24.08
 20
-202.0
 30
0.0
 40
2.2
  1
648740.771000
 41
0.7
 72
1
 11
24.08
 21
-202.0
 31
0.0
100
AcDbText
 73
2
  0
TEXT
  5
1DF
330
17
100
AcDbEntity
  8
IP_TABLE
100
AcDbText
 10
44.9
 20
-202.0
 30
0.0
 40
2.2
  1
3377262.029000
 41
0.7
 72
1
 11
44.9
 21
-202.0
 31
0.0
100
AcDbText
 73
2
  0
TEXT
  5
1E0
330
17
100
AcDbEntity
  8
IP_TABLE
100
AcDbText
 10
65.64
 20
-202.0
 30
0.0
 40
2.2
  1
南支1+209.942
 41
0.7
 72
1
 11
65.64
 21
-202.0
 31
0.0
100
AcDbText
 73
2
  0
TEXT
  5
1E1
330
17
100
AcDbEntity
  8
IP_TABLE
100
AcDbText
 10
85.64
 20
-202.0
 30
0.0
 40
2.2
  1
南支1+220.269
 41
0.7
 72
1
 11
85.64
 21
-202.0
 31
0.0
100
AcDbText
 73
2
  0
TEXT
  5
1E2
330
17
100
AcDbEntity
  8
IP_TABLE
100
AcDbText
 10
105.64
 20
-202.0
 30
0.0
 40
2.2
  1
南支1+230.596
 41
0.7
 72
1
 11
105.64
 21
-202.0
 31
0.0
100
AcDbText
 73
2
  0
TEXT
  5
1E3
330
17
100
AcDbEntity
  8
IP_TABLE
100
AcDbText
 10
121.1
 20
-202.0
 30
0.0
 40
2.2
  1
73.962
 41
0.7
 72
1
 11
121.1
 21
-202.0
 31
0.0
100
AcDbText
 73
2
  0
TEXT
  5
1E4
330
17
100
AcDbEntity
  8
IP_TABLE
100
AcDbText
 10
132.01999999999998
 20
-202.0
 30
0.0
 40
2.2
  1
16.000
 41
0.7
 72
1
 11
132.01999999999998
 21
-202.0
 31
0.0
100
AcDbText
 73
2
  0
TEXT
  5
1E5
330
17
100
AcDbEntity
  8
IP_TABLE
100
AcDbText
 10
142.94
 20
-202.0
 30
0.0
 40
2.2
  1
12.049
 41
0.7
 72
1
 11
142.94
 21
-202.0
 31
0.0
100
AcDbText
 73
2
  0
TEXT
  5
1E6
330
17
100
AcDbEntity
  8
IP_TABLE
100
AcDbText
 10
153.85999999999996
 20
-202.0
 30
0.0
 40
2.2
  1
20.654
 41
0.7
 72
1
 11
153.85999999999996
 21
-202.0
 31
0.0
100
AcDbText
 73
2
  0
TEXT
  5
1E7
330
17
100
AcDbEntity
  8
IP_TABLE
100
AcDbText
 10
166.81999999999996
 20
-202.0
 30
0.0
 40
2.2
  1
0.000
 41
0.7
 72
1
 11
166.81999999999996
 21
-202.0
 31
0.0
100
AcDbText
 73
2
  0
TEXT
  5
1E8
330
17
100
AcDbEntity
  8
IP_TABLE
100
AcDbText
 10
7.0
 20
-208.0
 30
0.0
 40
2.2
  1
广高路倒出
 41
0.7
 72
1
 11
7.0
 21
-208.0
 31
0.0
100
AcDbText
 73
2
  0
TEXT
  5
1E9
330
17
100
AcDbEntity
  8
IP_TABLE
100
AcDbText
 10
24.08
 20
-208.0
 30
0.0
 40
2.2
  1
648704.059000
 41
0.7
 72
1
 11
24.08
 21
-208.0
 31
0.0
100
AcDbText
 73
2
  0
TEXT
  5
1EA
330
17
100
AcDbEntity
  8
IP_TABLE
100
AcDbText
 10
44.9
 20
-208.0
 30
0.0
 40
2.2
  1
3377256.359000
 41
0.7
 72
1
 11
44.9
 21
-208.0
 31
0.0
100
AcDbText
 73
2
  0
TEXT
  5
1EB
330
17
100
AcDbEntity
  8
IP_TABLE
100
AcDbText
 10
65.64
 20
-208.0
 30
0.0
 40
2.2
  1
南支1+255.694
 41
0.7
 72
1
 11
65.64
 21
-208.0
 31
0.0
100
AcDbText
 73
2
  0
TEXT
  5
1EC
330
17
100
AcDbEntity
  8
IP_TABLE
100
AcDbText
 10
85.64
 20
-208.0
 30
0.0
 40
2.2
  1
南支1+255.694
 41
0.7
 72
1
 11
85.64
 21
-208.0
 31
0.0
100
AcDbText
 73
2
  0
TEXT
  5
1ED
330
17
100
AcDbEntity
  8
IP_TABLE
100
AcDbText
 10
105.64
 20
-208.0
 30
0.0
 40
2.2
  1
南支1+255.694
 41
0.7
 72
1
 11
105.64
 21
-208.0
 31
0.0
100
AcDbText
 73
2
  0
TEXT
  5
1EE
330
17
100
AcDbEntity
  8
IP_TABLE
100
AcDbText
 10
121.1
 20
-208.0
 30
0.0
 40
2.2
  1
0.000
 41
0.7
 72
1
 11
121.1
 21
-208.0
 31
0.0
100
AcDbText
 73
2
  0
TEXT
  5
1EF
330
17
100
AcDbEntity
  8
IP_TABLE
100
AcDbText
 10
132.01999999999998
 20
-208.0
 30
0.0
 40
2.2
  1
16.000
 41
0.7
 72
1
 11
132.01999999999998
 21
-208.0
 31
0.0
100
AcDbText
 73
2
  0
TEXT
  5
1F0
330
17
100
AcDbEntity
  8
IP_TABLE
100
AcDbText
 10
142.94
 20
-208.0
 30
0.0
 40
2.2
  1
0.000
 41
0.7
 72
1
 11
142.94
 21
-208.0
 31
0.0
100
AcDbText
 73
2
  0
TEXT
  5
1F1
330
17
100
AcDbEntity
  8
IP_TABLE
100
AcDbText
 10
153.85999999999996
 20
-208.0
 30
0.0
 40
2.2
  1
0.000
 41
0.7
 72
1
 11
153.85999999999996
 21
-208.0
 31
0.0
100
AcDbText
 73
2
  0
TEXT
  5
1F2
330
17
100
AcDbEntity
  8
IP_TABLE
100
AcDbText
 10
166.81999999999996
 20
-208.0
 30
0.0
 40
2.2
  1
395.876
 41
0.7
 72
1
 11
166.81999999999996
 21
-208.0
 31
0.0
100
AcDbText
 73
2
  0
TEXT
  5
1F3
330
17
100
AcDbEntity
  8
IP_TABLE
100
AcDbText
 10
7.0
 20
-214.0
 30
0.0
 40
2.2
  1
南支IP32
 41
0.7
 72
1
 11
7.0
 21
-214.0
 31
0.0
100
AcDbText
 73
2
  0
TEXT
  5
1F4
330
17
100
AcDbEntity
  8
IP_TABLE
100
AcDbText
 10
24.08
 20
-214.0
 30
0.0
 40
2.2
  1
648687.241000
 41
0.7
 72
1
 11
24.08
 21
-214.0
 31
0.0
100
AcDbText
 73
2
  0
TEXT
  5
1F5
330
17
100
AcDbEntity
  8
IP_TABLE
100
AcDbText
 10
44.9
 20
-214.0
 30
0.0
 40
2.2
  1
3377234.039000
 41
0.7
 72
1
 11
44.9
 21
-214.0
 31
0.0
100
AcDbText
 73
2
  0
TEXT
  5
1F6
330
17
100
AcDbEntity
  8
IP_TABLE
100
AcDbText
 10
65.64
 20
-214.0
 30
0.0
 40
2.2
  1
南支1+278.997
 41
0.7
 72
1
 11
65.64
 21
-214.0
 31
0.0
100
AcDbText
 73
2
  0
TEXT
  5
1F7
330
17
100
AcDbEntity
  8
IP_TABLE
100
AcDbText
 10
85.64
 20
-214.0
 30
0.0
 40
2.2
  1
南支1+283.517
 41
0.7
 72
1
 11
85.64
 21
-214.0
 31
0.0
100
AcDbText
 73
2
  0
TEXT
  5
1F8
330
17
100
AcDbEntity
  8
IP_TABLE
100
AcDbText
 10
105.64
 20
-214.0
 30
0.0
 40
2.2
  1
南支1+288.037
 41
0.7
 72
1
 11
105.64
 21
-214.0
 31
0.0
100
AcDbText
 73
2
  0
TEXT
  5
1F9
330
17
100
AcDbEntity
  8
IP_TABLE
100
AcDbText
 10
121.1
 20
-214.0
 30
0.0
 40
2.2
  1
32.374
 41
0.7
 72
1
 11
121.1
 21
-214.0
 31
0.0
100
AcDbText
 73
2
  0
TEXT
  5
1FA
330
17
100
AcDbEntity
  8
IP_TABLE
100
AcDbText
 10
132.01999999999998
 20
-214.0
 30
0.0
 40
2.2
  1
16.000
 41
0.7
 72
1
 11
132.01999999999998
 21
-214.0
 31
0.0
100
AcDbText
 73
2
  0
TEXT
  5
1FB
330
17
100
AcDbEntity
  8
IP_TABLE
100
AcDbText
 10
142.94
 20
-214.0
 30
0.0
 40
2.2
  1
4.644
 41
0.7
 72
1
 11
142.94
 21
-214.0
 31
0.0
100
AcDbText
 73
2
  0
TEXT
  5
1FC
330
17
100
AcDbEntity
  8
IP_TABLE
100
AcDbText
 10
153.85999999999996
 20
-214.0
 30
0.0
 40
2.2
  1
9.040
 41
0.7
 72
1
 11
153.85999999999996
 21
-214.0
 31
0.0
100
AcDbText
 73
2
  0
TEXT
  5
1FD
330
17
100
AcDbEntity
  8
IP_TABLE
100
AcDbText
 10
166.81999999999996
 20
-214.0
 30
0.0
 40
2.2
  1
395.876
 41
0.7
 72
1
 11
166.81999999999996
 21
-214.0
 31
0.0
100
AcDbText
 73
2
  0
TEXT
  5
1FE
330
17
100
AcDbEntity
  8
IP_TABLE
100
AcDbText
 10
7.0
 20
-220.0
 30
0.0
 40
2.2
  1
南支IP33
 41
0.7
 72
1
 11
7.0
 21
-220.0
 31
0.0
100
AcDbText
 73
2
  0
TEXT
  5
1FF
330
17
100
AcDbEntity
  8
IP_TABLE
100
AcDbText
 10
24.08
 20
-220.0
 30
0.0
 40
2.2
  1
648677.298000
 41
0.7
 72
1
 11
24.08
 21
-220.0
 31
0.0
100
AcDbText
 73
2
  0
TEXT
  5
200
330
17
100
AcDbEntity
  8
IP_TABLE
100
AcDbText
 10
44.9
 20
-220.0
 30
0.0
 40
2.2
  1
3377230.296000
 41
0.7
 72
1
 11
44.9
 21
-220.0
 31
0.0
100
AcDbText
 73
2
  0
TEXT
  5
201
330
17
100
AcDbEntity
  8
IP_TABLE
100
AcDbText
 10
65.64
 20
-220.0
 30
0.0
 40
2.2
  1
南支1+294.017
 41
0.7
 72
1
 11
65.64
 21
-220.0
 31
0.0
100
AcDbText
 73
2
  0
TEXT
  5
202
330
17
100
AcDbEntity
  8
IP_TABLE
100
AcDbText
 10
85.64
 20
-220.0
 30
0.0
 40
2.2
  1
南支1+294.017
 41
0.7
 72
1
 11
85.64
 21
-220.0
 31
0.0
100
AcDbText
 73
2
  0
TEXT
  5
203
330
17
100
AcDbEntity
  8
IP_TABLE
100
AcDbText
 10
105.64
 20
-220.0
 30
0.0
 40
2.2
  1
南支1+294.017
 41
0.7
 72
1
 11
105.64
 21
-220.0
 31
0.0
100
AcDbText
 73
2
  0
TEXT
  5
204
330
17
100
AcDbEntity
  8
IP_TABLE
100
AcDbText
 10
121.1
 20
-220.0
 30
0.0
 40
2.2
  1
0.001
 41
0.7
 72
1
 11
121.1
 21
-220.0
 31
0.0
100
AcDbText
 73
2
  0
TEXT
  5
205
330
17
100
AcDbEntity
  8
IP_TABLE
100
AcDbText
 10
132.01999999999998
 20
-220.0
 30
0.0
 40
2.2
  1
16.000
 41
0.7
 72
1
 11
132.01999999999998
 21
-220.0
 31
0.0
100
AcDbText
 73
2
  0
TEXT
  5
206
330
17
100
AcDbEntity
  8
IP_TABLE
100
AcDbText
 10
142.94
 20
-220.0
 30
0.0
 40
2.2
  1
0.000
 41
0.7
 72
1
 11
142.94
 21
-220.0
 31
0.0
100
AcDbText
 73
2
  0
TEXT
  5
207
330
17
100
AcDbEntity
  8
IP_TABLE
100
AcDbText
 10
153.85999999999996
 20
-220.0
 30
0.0
 40
2.2
  1
0.000
 41
0.7
 72
1
 11
153.85999999999996
 21
-220.0
 31
0.0
100
AcDbText
 73
2
  0
TEXT
  5
208
330
17
100
AcDbEntity
  8
IP_TABLE
100
AcDbText
 10
166.81999999999996
 20
-220.0
 30
0.0
 40
2.2
  1
395.874
 41
0.7
 72
1
 11
166.81999999999996
 21
-220.0
 31
0.0
100
AcDbText
 73
2
  0
TEXT
  5
209
330
17
100
AcDbEntity
  8
IP_TABLE
100
AcDbText
 10
7.0
 20
-226.0
 30
0.0
 40
2.2
  1
台儿沟隧进
 41
0.7
 72
1
 11
7.0
 21
-226.0
 31
0.0
100
AcDbText
 73
2
  0
TEXT
  5
20A
330
17
100
AcDbEntity
  8
IP_TABLE
100
AcDbText
 10
24.08
 20
-226.0
 30
0.0
 40
2.2
  1
648610.458000
 41
0.7
 72
1
 11
24.08
 21
-226.0
 31
0.0
100
AcDbText
 73
2
  0
TEXT
  5
20B
330
17
100
AcDbEntity
  8
IP_TABLE
100
AcDbText
 10
44.9
 20
-226.0
 30
0.0
 40
2.2
  1
3377205.133000
 41
0.7
 72
1
 11
44.9
 21
-226.0
 31
0.0
100
AcDbText
 73
2
  0
TEXT
  5
20C
330
17
100
AcDbEntity
  8
IP_TABLE
100
AcDbText
 10
65.64
 20
-226.0
 30
0.0
 40
2.2
  1
南支1+365.437
 41
0.7
 72
1
 11
65.64
 21
-226.0
 31
0.0
100
AcDbText
 73
2
  0
TEXT
  5
20D
330
17
100
AcDbEntity
  8
IP_TABLE
100
AcDbText
 10
85.64
 20
-226.0
 30
0.0
 40
2.2
  1
南支1+365.437
 41
0.7
 72
1
 11
85.64
 21
-226.0
 31
0.0
100
AcDbText
 73
2
  0
TEXT
  5
20E
330
17
100
AcDbEntity
  8
IP_TABLE
100
AcDbText
 10
105.64
 20
-226.0
 30
0.0
 40
2.2
  1
南支1+365.437
 41
0.7
 72
1
 11
105.64
 21
-226.0
 31
0.0
100
AcDbText
 73
2
  0
TEXT
  5
20F
330
17
100
AcDbEntity
  8
IP_TABLE
100
AcDbText
 10
121.1
 20
-226.0
 30
0.0
 40
2.2
  1
0.000
 41
0.7
 72
1
 11
121.1
 21
-226.0
 31
0.0
100
AcDbText
 73
2
  0
TEXT
  5
210
330
17
100
AcDbEntity
  8
IP_TABLE
100
AcDbText
 10
132.01999999999998
 20
-226.0
 30
0.0
 40
2.2
  1
16.000
 41
0.7
 72
1
 11
132.01999999999998
 21
-226.0
 31
0.0
100
AcDbText
 73
2
  0
TEXT
  5
211
330
17
100
AcDbEntity
  8
IP_TABLE
100
AcDbText
 10
142.94
 20
-226.0
 30
0.0
 40
2.2
  1
0.000
 41
0.7
 72
1
 11
142.94
 21
-226.0
 31
0.0
100
AcDbText
 73
2
  0
TEXT
  5
212
330
17
100
AcDbEntity
  8
IP_TABLE
100
AcDbText
 10
153.85999999999996
 20
-226.0
 30
0.0
 40
2.2
  1
0.000
 41
0.7
 72
1
 11
153.85999999999996
 21
-226.0
 31
0.0
100
AcDbText
 73
2
  0
TEXT
  5
213
330
17
100
AcDbEntity
  8
IP_TABLE
100
AcDbText
 10
166.81999999999996
 20
-226.0
 30
0.0
 40
2.2
  1
395.953
 41
0.7
 72
1
 11
166.81999999999996
 21
-226.0
 31
0.0
100
AcDbText
 73
2
  0
TEXT
  5
214
330
17
100
AcDbEntity
  8
IP_TABLE
100
AcDbText
 10
7.0
 20
-232.0
 30
0.0
 40
2.2
  1
南支IP35
 41
0.7
 72
1
 11
7.0
 21
-232.0
 31
0.0
100
AcDbText
 73
2
  0
TEXT
  5
215
330
17
100
AcDbEntity
  8
IP_TABLE
100
AcDbText
 10
24.08
 20
-232.0
 30
0.0
 40
2.2
  1
648588.193000
 41
0.7
 72
1
 11
24.08
 21
-232.0
 31
0.0
100
AcDbText
 73
2
  0
TEXT
  5
216
330
17
100
AcDbEntity
  8
IP_TABLE
100
AcDbText
 10
44.9
 20
-232.0
 30
0.0
 40
2.2
  1
3377182.718000
 41
0.7
 72
1
 11
44.9
 21
-232.0
 31
0.0
100
AcDbText
 73
2
  0
TEXT
  5
217
330
17
100
AcDbEntity
  8
IP_TABLE
100
AcDbText
 10
65.64
 20
-232.0
 30
0.0
 40
2.2
  1
南支1+393.254
 41
0.7
 72
1
 11
65.64
 21
-232.0
 31
0.0
100
AcDbText
 73
2
  0
TEXT
  5
218
330
17
100
AcDbEntity
  8
IP_TABLE
100
AcDbText
 10
85.64
 20
-232.0
 30
0.0
 40
2.2
  1
南支1+396.963
 41
0.7
 72
1
 11
85.64
 21
-232.0
 31
0.0
100
AcDbText
 73
2
  0
TEXT
  5
219
330
17
100
AcDbEntity
  8
IP_TABLE
100
AcDbText
 10
105.64
 20
-232.0
 30
0.0
 40
2.2
  1
南支1+400.671
 41
0.7
 72
1
 11
105.64
 21
-232.0
 31
0.0
100
AcDbText
 73
2
  0
TEXT
  5
21A
330
17
100
AcDbEntity
  8
IP_TABLE
100
AcDbText
 10
121.1
 20
-232.0
 30
0.0
 40
2.2
  1
26.558
 41
0.7
 72
1
 11
121.1
 21
-232.0
 31
0.0
100
AcDbText
 73
2
  0
TEXT
  5
21B
330
17
100
AcDbEntity
  8
IP_TABLE
100
AcDbText
 10
132.01999999999998
 20
-232.0
 30
0.0
 40
2.2
  1
16.000
 41
0.7
 72
1
 11
132.01999999999998
 21
-232.0
 31
0.0
100
AcDbText
 73
2
  0
TEXT
  5
21C
330
17
100
AcDbEntity
  8
IP_TABLE
100
AcDbText
 10
142.94
 20
-232.0
 30
0.0
 40
2.2
  1
3.776
 41
0.7
 72
1
 11
142.94
 21
-232.0
 31
0.0
100
AcDbText
 73
2
  0
TEXT
  5
21D
330
17
100
AcDbEntity
  8
IP_TABLE
100
AcDbText
 10
153.85999999999996
 20
-232.0
 30
0.0
 40
2.2
  1
7.416
 41
0.7
 72
1
 11
153.85999999999996
 21
-232.0
 31
0.0
100
AcDbText
 73
2
  0
TEXT
  5
21E
330
17
100
AcDbEntity
  8
IP_TABLE
100
AcDbText
 10
166.81999999999996
 20
-232.0
 30
0.0
 40
2.2
  1
0.000
 41
0.7
 72
1
 11
166.81999999999996
 21
-232.0
 31
0.0
100
AcDbText
 73
2
  0
TEXT
  5
21F
330
17
100
AcDbEntity
  8
IP_TABLE
100
AcDbText
 10
7.0
 20
-238.0
 30
0.0
 40
2.2
  1
南支IP36
 41
0.7
 72
1
 11
7.0
 21
-238.0
 31
0.0
100
AcDbText
 73
2
  0
TEXT
  5
220
330
17
100
AcDbEntity
  8
IP_TABLE
100
AcDbText
 10
24.08
 20
-238.0
 30
0.0
 40
2.2
  1
648359.767000
 41
0.7
 72
1
 11
24.08
 21
-238.0
 31
0.0
100
AcDbText
 73
2
  0
TEXT
  5
221
330
17
100
AcDbEntity
  8
IP_TABLE
100
AcDbText
 10
44.9
 20
-238.0
 30
0.0
 40
2.2
  1
3377105.691000
 41
0.7
 72
1
 11
44.9
 21
-238.0
 31
0.0
100
AcDbText
 73
2
  0
TEXT
  5
222
330
17
100
AcDbEntity
  8
IP_TABLE
100
AcDbText
 10
65.64
 20
-238.0
 30
0.0
 40
2.2
  1
南支1+632.793
 41
0.7
 72
1
 11
65.64
 21
-238.0
 31
0.0
100
AcDbText
 73
2
  0
TEXT
  5
223
330
17
100
AcDbEntity
  8
IP_TABLE
100
AcDbText
 10
85.64
 20
-238.0
 30
0.0
 40
2.2
  1
南支1+637.789
 41
0.7
 72
1
 11
85.64
 21
-238.0
 31
0.0
100
AcDbText
 73
2
  0
TEXT
  5
224
330
17
100
AcDbEntity
  8
IP_TABLE
100
AcDbText
 10
105.64
 20
-238.0
 30
0.0
 40
2.2
  1
南支1+642.785
 41
0.7
 72
1
 11
105.64
 21
-238.0
 31
0.0
100
AcDbText
 73
2
  0
TEXT
  5
225
330
17
100
AcDbEntity
  8
IP_TABLE
100
AcDbText
 10
121.1
 20
-238.0
 30
0.0
 40
2.2
  1
35.781
 41
0.7
 72
1
 11
121.1
 21
-238.0
 31
0.0
100
AcDbText
 73
2
  0
TEXT
  5
226
330
17
100
AcDbEntity
  8
IP_TABLE
100
AcDbText
 10
132.01999999999998
 20
-238.0
 30
0.0
 40
2.2
  1
16.000
 41
0.7
 72
1
 11
132.01999999999998
 21
-238.0
 31
0.0
100
AcDbText
 73
2
  0
TEXT
  5
227
330
17
100
AcDbEntity
  8
IP_TABLE
100
AcDbText
 10
142.94
 20
-238.0
 30
0.0
 40
2.2
  1
5.165
 41
0.7
 72
1
 11
142.94
 21
-238.0
 31
0.0
100
AcDbText
 73
2
  0
TEXT
  5
228
330
17
100
AcDbEntity
  8
IP_TABLE
100
AcDbText
 10
153.85999999999996
 20
-238.0
 30
0.0
 40
2.2
  1
9.992
 41
0.7
 72
1
 11
153.85999999999996
 21
-238.0
 31
0.0
100
AcDbText
 73
2
  0
TEXT
  5
229
330
17
100
AcDbEntity
  8
IP_TABLE
100
AcDbText
 10
166.81999999999996
 20
-238.0
 30
0.0
 40
2.2
  1
395.974
 41
0.7
 72
1
 11
166.81999999999996
 21
-238.0
 31
0.0
100
AcDbText
 73
2
  0
TEXT
  5
22A
330
17
100
AcDbEntity
  8
IP_TABLE
100
AcDbText
 10
7.0
 20
-244.0
 30
0.0
 40
2.2
  1
台儿沟隧出
 41
0.7
 72
1
 11
7.0
 21
-244.0
 31
0.0
100
AcDbText
 73
2
  0
TEXT
  5
22B
330
17
100
AcDbEntity
  8
IP_TABLE
100
AcDbText
 10
24.08
 20
-244.0
 30
0.0
 40
2.2
  1
648259.932000
 41
0.7
 72
1
 11
24.08
 21
-244.0
 31
0.0
100
AcDbText
 73
2
  0
TEXT
  5
22C
330
17
100
AcDbEntity
  8
IP_TABLE
100
AcDbText
 10
44.9
 20
-244.0
 30
0.0
 40
2.2
  1
3376966.162000
 41
0.7
 72
1
 11
44.9
 21
-244.0
 31
0.0
100
AcDbText
 73
2
  0
TEXT
  5
22D
330
17
100
AcDbEntity
  8
IP_TABLE
100
AcDbText
 10
65.64
 20
-244.0
 30
0.0
 40
2.2
  1
南支1+809.188
 41
0.7
 72
1
 11
65.64
 21
-244.0
 31
0.0
100
AcDbText
 73
2
  0
TEXT
  5
22E
330
17
100
AcDbEntity
  8
IP_TABLE
100
AcDbText
 10
85.64
 20
-244.0
 30
0.0
 40
2.2
  1
南支1+809.188
 41
0.7
 72
1
 11
85.64
 21
-244.0
 31
0.0
100
AcDbText
 73
2
  0
TEXT
  5
22F
330
17
100
AcDbEntity
  8
IP_TABLE
100
AcDbText
 10
105.64
 20
-244.0
 30
0.0
 40
2.2
  1
南支1+809.188
 41
0.7
 72
1
 11
105.64
 21
-244.0
 31
0.0
100
AcDbText
 73
2
  0
TEXT
  5
230
330
17
100
AcDbEntity
  8
IP_TABLE
100
AcDbText
 10
121.1
 20
-244.0
 30
0.0
 40
2.2
  1
0.000
 41
0.7
 72
1
 11
121.1
 21
-244.0
 31
0.0
100
AcDbText
 73
2
  0
TEXT
  5
231
330
17
100
AcDbEntity
  8
IP_TABLE
100
AcDbText
 10
132.01999999999998
 20
-244.0
 30
0.0
 40
2.2
  1
16.000
 41
0.7
 72
1
 11
132.01999999999998
 21
-244.0
 31
0.0
100
AcDbText
 73
2
  0
TEXT
  5
232
330
17
100
AcDbEntity
  8
IP_TABLE
100
AcDbText
 10
142.94
 20
-244.0
 30
0.0
 40
2.2
  1
0.000
 41
0.7
 72
1
 11
142.94
 21
-244.0
 31
0.0
100
AcDbText
 73
2
  0
TEXT
  5
233
330
17
100
AcDbEntity
  8
IP_TABLE
100
AcDbText
 10
153.85999999999996
 20
-244.0
 30
0.0
 40
2.2
  1
0.000
 41
0.7
 72
1
 11
153.85999999999996
 21
-244.0
 31
0.0
100
AcDbText
 73
2
  0
TEXT
  5
234
330
17
100
AcDbEntity
  8
IP_TABLE
100
AcDbText
 10
166.81999999999996
 20
-244.0
 30
0.0
 40
2.2
  1
395.891
 41
0.7
 72
1
 11
166.81999999999996
 21
-244.0
 31
0.0
100
AcDbText
 73
2
  0
TEXT
  5
235
330
17
100
AcDbEntity
  8
IP_TABLE
100
AcDbText
 10
7.0
 20
-250.0
 30
0.0
 40
2.2
  1
梨子园渡进
 41
0.7
 72
1
 11
7.0
 21
-250.0
 31
0.0
100
AcDbText
 73
2
  0
TEXT
  5
236
330
17
100
AcDbEntity
  8
IP_TABLE
100
AcDbText
 10
24.08
 20
-250.0
 30
0.0
 40
2.2
  1
647962.330000
 41
0.7
 72
1
 11
24.08
 21
-250.0
 31
0.0
100
AcDbText
 73
2
  0
TEXT
  5
237
330
17
100
AcDbEntity
  8
IP_TABLE
100
AcDbText
 10
44.9
 20
-250.0
 30
0.0
 40
2.2
  1
3376909.651000
 41
0.7
 72
1
 11
44.9
 21
-250.0
 31
0.0
100
AcDbText
 73
2
  0
TEXT
  5
238
330
17
100
AcDbEntity
  8
IP_TABLE
100
AcDbText
 10
65.64
 20
-250.0
 30
0.0
 40
2.2
  1
南支2+112.108
 41
0.7
 72
1
 11
65.64
 21
-250.0
 31
0.0
100
AcDbText
 73
2
  0
TEXT
  5
239
330
17
100
AcDbEntity
  8
IP_TABLE
100
AcDbText
 10
85.64
 20
-250.0
 30
0.0
 40
2.2
  1
南支2+112.108
 41
0.7
 72
1
 11
85.64
 21
-250.0
 31
0.0
100
AcDbText
 73
2
  0
TEXT
  5
23A
330
17
100
AcDbEntity
  8
IP_TABLE
100
AcDbText
 10
105.64
 20
-250.0
 30
0.0
 40
2.2
  1
南支2+112.108
 41
0.7
 72
1
 11
105.64
 21
-250.0
 31
0.0
100
AcDbText
 73
2
  0
TEXT
  5
23B
330
17
100
AcDbEntity
  8
IP_TABLE
100
AcDbText
 10
121.1
 20
-250.0
 30
0.0
 40
2.2
  1
0.000
 41
0.7
 72
1
 11
121.1
 21
-250.0
 31
0.0
100
AcDbText
 73
2
  0
TEXT
  5
23C
330
17
100
AcDbEntity
  8
IP_TABLE
100
AcDbText
 10
132.01999999999998
 20
-250.0
 30
0.0
 40
2.2
  1
16.000
 41
0.7
 72
1
 11
132.01999999999998
 21
-250.0
 31
0.0
100
AcDbText
 73
2
  0
TEXT
  5
23D
330
17
100
AcDbEntity
  8
IP_TABLE
100
AcDbText
 10
142.94
 20
-250.0
 30
0.0
 40
2.2
  1
0.000
 41
0.7
 72
1
 11
142.94
 21
-250.0
 31
0.0
100
AcDbText
 73
2
  0
TEXT
  5
23E
330
17
100
AcDbEntity
  8
IP_TABLE
100
AcDbText
 10
153.85999999999996
 20
-250.0
 30
0.0
 40
2.2
  1
0.000
 41
0.7
 72
1
 11
153.85999999999996
 21
-250.0
 31
0.0
100
AcDbText
 73
2
  0
TEXT
  5
23F
330
17
100
AcDbEntity
  8
IP_TABLE
100
AcDbText
 10
166.81999999999996
 20
-250.0
 30
0.0
 40
2.2
  1
395.927
 41
0.7
 72
1
 11
166.81999999999996
 21
-250.0
 31
0.0
100
AcDbText
 73
2
  0
TEXT
  5
240
330
17
100
AcDbEntity
  8
IP_TABLE
100
AcDbText
 10
7.0
 20
-256.0
 30
0.0
 40
2.2
  1
梨子园渡出
 41
0.7
 72
1
 11
7.0
 21
-256.0
 31
0.0
100
AcDbText
 73
2
  0
TEXT
  5
241
330
17
100
AcDbEntity
  8
IP_TABLE
100
AcDbText
 10
24.08
 20
-256.0
 30
0.0
 40
2.2
  1
647644.539000
 41
0.7
 72
1
 11
24.08
 21
-256.0
 31
0.0
100
AcDbText
 73
2
  0
TEXT
  5
242
330
17
100
AcDbEntity
  8
IP_TABLE
100
AcDbText
 10
44.9
 20
-256.0
 30
0.0
 40
2.2
  1
3376595.606000
 41
0.7
 72
1
 11
44.9
 21
-256.0
 31
0.0
100
AcDbText
 73
2
  0
TEXT
  5
243
330
17
100
AcDbEntity
  8
IP_TABLE
100
AcDbText
 10
65.64
 20
-256.0
 30
0.0
 40
2.2
  1
南支2+558.891
 41
0.7
 72
1
 11
65.64
 21
-256.0
 31
0.0
100
AcDbText
 73
2
  0
TEXT
  5
244
330
17
100
AcDbEntity
  8
IP_TABLE
100
AcDbText
 10
85.64
 20
-256.0
 30
0.0
 40
2.2
  1
南支2+558.891
 41
0.7
 72
1
 11
85.64
 21
-256.0
 31
0.0
100
AcDbText
 73
2
  0
TEXT
  5
245
330
17
100
AcDbEntity
  8
IP_TABLE
100
AcDbText
 10
105.64
 20
-256.0
 30
0.0
 40
2.2
  1
南支2+558.891
 41
0.7
 72
1
 11
105.64
 21
-256.0
 31
0.0
100
AcDbText
 73
2
  0
TEXT
  5
246
330
17
100
AcDbEntity
  8
IP_TABLE
100
AcDbText
 10
121.1
 20
-256.0
 30
0.0
 40
2.2
  1
0.000
 41
0.7
 72
1
 11
121.1
 21
-256.0
 31
0.0
100
AcDbText
 73
2
  0
TEXT
  5
247
330
17
100
AcDbEntity
  8
IP_TABLE
100
AcDbText
 10
132.01999999999998
 20
-256.0
 30
0.0
 40
2.2
  1
16.000
 41
0.7
 72
1
 11
132.01999999999998
 21
-256.0
 31
0.0
100
AcDbText
 73
2
  0
TEXT
  5
248
330
17
100
AcDbEntity
  8
IP_TABLE
100
AcDbText
 10
142.94
 20
-256.0
 30
0.0
 40
2.2
  1
0.000
 41
0.7
 72
1
 11
142.94
 21
-256.0
 31
0.0
100
AcDbText
 73
2
  0
TEXT
  5
249
330
17
100
AcDbEntity
  8
IP_TABLE
100
AcDbText
 10
153.85999999999996
 20
-256.0
 30
0.0
 40
2.2
  1
0.000
 41
0.7
 72
1
 11
153.85999999999996
 21
-256.0
 31
0.0
100
AcDbText
 73
2
  0
TEXT
  5
24A
330
17
100
AcDbEntity
  8
IP_TABLE
100
AcDbText
 10
166.81999999999996
 20
-256.0
 30
0.0
 40
2.2
  1
395.629
 41
0.7
 72
1
 11
166.81999999999996
 21
-256.0
 31
0.0
100
AcDbText
 73
2
  0
TEXT
  5
24B
330
17
100
AcDbEntity
  8
IP_TABLE
100
AcDbText
 10
7.0
 20
-262.0
 30
0.0
 40
2.2
  1
油房垭隧进
 41
0.7
 72
1
 11
7.0
 21
-262.0
 31
0.0
100
AcDbText
 73
2
  0
TEXT
  5
24C
330
17
100
AcDbEntity
  8
IP_TABLE
100
AcDbText
 10
24.08
 20
-262.0
 30
0.0
 40
2.2
  1
647641.216000
 41
0.7
 72
1
 11
24.08
 21
-262.0
 31
0.0
100
AcDbText
 73
2
  0
TEXT
  5
24D
330
17
100
AcDbEntity
  8
IP_TABLE
100
AcDbText
 10
44.9
 20
-262.0
 30
0.0
 40
2.2
  1
3376559.423000
 41
0.7
 72
1
 11
44.9
 21
-262.0
 31
0.0
100
AcDbText
 73
2
  0
TEXT
  5
24E
330
17
100
AcDbEntity
  8
IP_TABLE
100
AcDbText
 10
65.64
 20
-262.0
 30
0.0
 40
2.2
  1
南支2+595.226
 41
0.7
 72
1
 11
65.64
 21
-262.0
 31
0.0
100
AcDbText
 73
2
  0
TEXT
  5
24F
330
17
100
AcDbEntity
  8
IP_TABLE
100
AcDbText
 10
85.64
 20
-262.0
 30
0.0
 40
2.2
  1
南支2+595.226
 41
0.7
 72
1
 11
85.64
 21
-262.0
 31
0.0
100
AcDbText
 73
2
  0
TEXT
  5
250
330
17
100
AcDbEntity
  8
IP_TABLE
100
AcDbText
 10
105.64
 20
-262.0
 30
0.0
 40
2.2
  1
南支2+595.226
 41
0.7
 72
1
 11
105.64
 21
-262.0
 31
0.0
100
AcDbText
 73
2
  0
TEXT
  5
251
330
17
100
AcDbEntity
  8
IP_TABLE
100
AcDbText
 10
121.1
 20
-262.0
 30
0.0
 40
2.2
  1
0.000
 41
0.7
 72
1
 11
121.1
 21
-262.0
 31
0.0
100
AcDbText
 73
2
  0
TEXT
  5
252
330
17
100
AcDbEntity
  8
IP_TABLE
100
AcDbText
 10
132.01999999999998
 20
-262.0
 30
0.0
 40
2.2
  1
16.000
 41
0.7
 72
1
 11
132.01999999999998
 21
-262.0
 31
0.0
100
AcDbText
 73
2
  0
TEXT
  5
253
330
17
100
AcDbEntity
  8
IP_TABLE
100
AcDbText
 10
142.94
 20
-262.0
 30
0.0
 40
2.2
  1
0.000
 41
0.7
 72
1
 11
142.94
 21
-262.0
 31
0.0
100
AcDbText
 73
2
  0
TEXT
  5
254
330
17
100
AcDbEntity
  8
IP_TABLE
100
AcDbText
 10
153.85999999999996
 20
-262.0
 30
0.0
 40
2.2
  1
0.000
 41
0.7
 72
1
 11
153.85999999999996
 21
-262.0
 31
0.0
100
AcDbText
 73
2
  0
TEXT
  5
255
330
17
100
AcDbEntity
  8
IP_TABLE
100
AcDbText
 10
166.81999999999996
 20
-262.0
 30
0.0
 40
2.2
  1
395.572
 41
0.7
 72
1
 11
166.81999999999996
 21
-262.0
 31
0.0
100
AcDbText
 73
2
  0
TEXT
  5
256
330
17
100
AcDbEntity
  8
IP_TABLE
100
AcDbText
 10
7.0
 20
-268.0
 30
0.0
 40
2.2
  1
油房垭隧出
 41
0.7
 72
1
 11
7.0
 21
-268.0
 31
0.0
100
AcDbText
 73
2
  0
TEXT
  5
257
330
17
100
AcDbEntity
  8
IP_TABLE
100
AcDbText
 10
24.08
 20
-268.0
 30
0.0
 40
2.2
  1
647597.709000
 41
0.7
 72
1
 11
24.08
 21
-268.0
 31
0.0
100
AcDbText
 73
2
  0
TEXT
  5
258
330
17
100
AcDbEntity
  8
IP_TABLE
100
AcDbText
 10
44.9
 20
-268.0
 30
0.0
 40
2.2
  1
3376537.188000
 41
0.7
 72
1
 11
44.9
 21
-268.0
 31
0.0
100
AcDbText
 73
2
  0
TEXT
  5
259
330
17
100
AcDbEntity
  8
IP_TABLE
100
AcDbText
 10
65.64
 20
-268.0
 30
0.0
 40
2.2
  1
南支2+644.086
 41
0.7
 72
1
 11
65.64
 21
-268.0
 31
0.0
100
AcDbText
 73
2
  0
TEXT
  5
25A
330
17
100
AcDbEntity
  8
IP_TABLE
100
AcDbText
 10
85.64
 20
-268.0
 30
0.0
 40
2.2
  1
南支2+644.086
 41
0.7
 72
1
 11
85.64
 21
-268.0
 31
0.0
100
AcDbText
 73
2
  0
TEXT
  5
25B
330
17
100
AcDbEntity
  8
IP_TABLE
100
AcDbText
 10
105.64
 20
-268.0
 30
0.0
 40
2.2
  1
南支2+644.086
 41
0.7
 72
1
 11
105.64
 21
-268.0
 31
0.0
100
AcDbText
 73
2
  0
TEXT
  5
25C
330
17
100
AcDbEntity
  8
IP_TABLE
100
AcDbText
 10
121.1
 20
-268.0
 30
0.0
 40
2.2
  1
0.000
 41
0.7
 72
1
 11
121.1
 21
-268.0
 31
0.0
100
AcDbText
 73
2
  0
TEXT
  5
25D
330
17
100
AcDbEntity
  8
IP_TABLE
100
AcDbText
 10
132.01999999999998
 20
-268.0
 30
0.0
 40
2.2
  1
16.000
 41
0.7
 72
1
 11
132.01999999999998
 21
-268.0
 31
0.0
100
AcDbText
 73
2
  0
TEXT
  5
25E
330
17
100
AcDbEntity
  8
IP_TABLE
100
AcDbText
 10
142.94
 20
-268.0
 30
0.0
 40
2.2
  1
0.000
 41
0.7
 72
1
 11
142.94
 21
-268.0
 31
0.0
100
AcDbText
 73
2
  0
TEXT
  5
25F
330
17
100
AcDbEntity
  8
IP_TABLE
100
AcDbText
 10
153.85999999999996
 20
-268.0
 30
0.0
 40
2.2
  1
0.000
 41
0.7
 72
1
 11
153.85999999999996
 21
-268.0
 31
0.0
100
AcDbText
 73
2
  0
TEXT
  5
260
330
17
100
AcDbEntity
  8
IP_TABLE
100
AcDbText
 10
166.81999999999996
 20
-268.0
 30
0.0
 40
2.2
  1
395.548
 41
0.7
 72
1
 11
166.81999999999996
 21
-268.0
 31
0.0
100
AcDbText
 73
2
  0
TEXT
  5
261
330
17
100
AcDbEntity
  8
IP_TABLE
100
AcDbText
 10
7.0
 20
-274.0
 30
0.0
 40
2.2
  1
南支IP42
 41
0.7
 72
1
 11
7.0
 21
-274.0
 31
0.0
100
AcDbText
 73
2
  0
TEXT
  5
262
330
17
100
AcDbEntity
  8
IP_TABLE
100
AcDbText
 10
24.08
 20
-274.0
 30
0.0
 40
2.2
  1
647506.778000
 41
0.7
 72
1
 11
24.08
 21
-274.0
 31
0.0
100
AcDbText
 73
2
  0
TEXT
  5
263
330
17
100
AcDbEntity
  8
IP_TABLE
100
AcDbText
 10
44.9
 20
-274.0
 30
0.0
 40
2.2
  1
3376513.531000
 41
0.7
 72
1
 11
44.9
 21
-274.0
 31
0.0
100
AcDbText
 73
2
  0
TEXT
  5
264
330
17
100
AcDbEntity
  8
IP_TABLE
100
AcDbText
 10
65.64
 20
-274.0
 30
0.0
 40
2.2
  1
南支2+734.037
 41
0.7
 72
1
 11
65.64
 21
-274.0
 31
0.0
100
AcDbText
 73
2
  0
TEXT
  5
265
330
17
100
AcDbEntity
  8
IP_TABLE
100
AcDbText
 10
85.64
 20
-274.0
 30
0.0
 40
2.2
  1
南支2+737.963
 41
0.7
 72
1
 11
85.64
 21
-274.0
 31
0.0
100
AcDbText
 73
2
  0
TEXT
  5
266
330
17
100
AcDbEntity
  8
IP_TABLE
100
AcDbText
 10
105.64
 20
-274.0
 30
0.0
 40
2.2
  1
南支2+741.889
 41
0.7
 72
1
 11
105.64
 21
-274.0
 31
0.0
100
AcDbText
 73
2
  0
TEXT
  5
267
330
17
100
AcDbEntity
  8
IP_TABLE
100
AcDbText
 10
121.1
 20
-274.0
 30
0.0
 40
2.2
  1
28.120
 41
0.7
 72
1
 11
121.1
 21
-274.0
 31
0.0
100
AcDbText
 73
2
  0
TEXT
  5
268
330
17
100
AcDbEntity
  8
IP_TABLE
100
AcDbText
 10
132.01999999999998
 20
-274.0
 30
0.0
 40
2.2
  1
16.000
 41
0.7
 72
1
 11
132.01999999999998
 21
-274.0
 31
0.0
100
AcDbText
 73
2
  0
TEXT
  5
269
330
17
100
AcDbEntity
  8
IP_TABLE
100
AcDbText
 10
142.94
 20
-274.0
 30
0.0
 40
2.2
  1
4.007
 41
0.7
 72
1
 11
142.94
 21
-274.0
 31
0.0
100
AcDbText
 73
2
  0
TEXT
  5
26A
330
17
100
AcDbEntity
  8
IP_TABLE
100
AcDbText
 10
153.85999999999996
 20
-274.0
 30
0.0
 40
2.2
  1
7.853
 41
0.7
 72
1
 11
153.85999999999996
 21
-274.0
 31
0.0
100
AcDbText
 73
2
  0
TEXT
  5
26B
330
17
100
AcDbEntity
  8
IP_TABLE
100
AcDbText
 10
166.81999999999996
 20
-274.0
 30
0.0
 40
2.2
  1
395.282
 41
0.7
 72
1
 11
166.81999999999996
 21
-274.0
 31
0.0
100
AcDbText
 73
2
  0
TEXT
  5
26C
330
17
100
AcDbEntity
  8
IP_TABLE
100
AcDbText
 10
7.0
 20
-280.0
 30
0.0
 40
2.2
  1
南支IP43
 41
0.7
 72
1
 11
7.0
 21
-280.0
 31
0.0
100
AcDbText
 73
2
  0
TEXT
  5
26D
330
17
100
AcDbEntity
  8
IP_TABLE
100
AcDbText
 10
24.08
 20
-280.0
 30
0.0
 40
2.2
  1
647387.981000
 41
0.7
 72
1
 11
24.08
 21
-280.0
 31
0.0
100
AcDbText
 73
2
  0
TEXT
  5
26E
330
17
100
AcDbEntity
  8
IP_TABLE
100
AcDbText
 10
44.9
 20
-280.0
 30
0.0
 40
2.2
  1
3376403.897000
 41
0.7
 72
1
 11
44.9
 21
-280.0
 31
0.0
100
AcDbText
 73
2
  0
TEXT
  5
26F
330
17
100
AcDbEntity
  8
IP_TABLE
100
AcDbText
 10
65.64
 20
-280.0
 30
0.0
 40
2.2
  1
南支2+899.537
 41
0.7
 72
1
 11
65.64
 21
-280.0
 31
0.0
100
AcDbText
 73
2
  0
TEXT
  5
270
330
17
100
AcDbEntity
  8
IP_TABLE
100
AcDbText
 10
85.64
 20
-280.0
 30
0.0
 40
2.2
  1
南支2+899.537
 41
0.7
 72
1
 11
85.64
 21
-280.0
 31
0.0
100
AcDbText
 73
2
  0
TEXT
  5
271
330
17
100
AcDbEntity
  8
IP_TABLE
100
AcDbText
 10
105.64
 20
-280.0
 30
0.0
 40
2.2
  1
南支2+899.537
 41
0.7
 72
1
 11
105.64
 21
-280.0
 31
0.0
100
AcDbText
 73
2
  0
TEXT
  5
272
330
17
100
AcDbEntity
  8
IP_TABLE
100
AcDbText
 10
121.1
 20
-280.0
 30
0.0
 40
2.2
  1
0.000
 41
0.7
 72
1
 11
121.1
 21
-280.0
 31
0.0
100
AcDbText
 73
2
  0
TEXT
  5
273
330
17
100
AcDbEntity
  8
IP_TABLE
100
AcDbText
 10
132.01999999999998
 20
-280.0
 30
0.0
 40
2.2
  1
16.000
 41
0.7
 72
1
 11
132.01999999999998
 21
-280.0
 31
0.0
100
AcDbText
 73
2
  0
TEXT
  5
274
330
17
100
AcDbEntity
  8
IP_TABLE
100
AcDbText
 10
142.94
 20
-280.0
 30
0.0
 40
2.2
  1
0.000
 41
0.7
 72
1
 11
142.94
 21
-280.0
 31
0.0
100
AcDbText
 73
2
  0
TEXT
  5
275
330
17
100
AcDbEntity
  8
IP_TABLE
100
AcDbText
 10
153.85999999999996
 20
-280.0
 30
0.0
 40
2.2
  1
0.000
 41
0.7
 72
1
 11
153.85999999999996
 21
-280.0
 31
0.0
100
AcDbText
 73
2
  0
TEXT
  5
276
330
17
100
AcDbEntity
  8
IP_TABLE
100
AcDbText
 10
166.81999999999996
 20
-280.0
 30
0.0
 40
2.2
  1
395.229
 41
0.7
 72
1
 11
166.81999999999996
 21
-280.0
 31
0.0
100
AcDbText
 73
2
  0
ENDSEC
  0
SECTION
  2
OBJECTS
  0
DICTIONARY
  5
A
330
0
100
AcDbDictionary
281
1
  3
ACAD_COLOR
350
B
  3
ACAD_GROUP
350
C
  3
ACAD_LAYOUT
350
D
  3
ACAD_MATERIAL
350
E
  3
ACAD_MLEADERSTYLE
350
F
  3
ACAD_MLINESTYLE
350
10
  3
ACAD_PLOTSETTINGS
350
11
  3
ACAD_PLOTSTYLENAME
350
12
  3
ACAD_SCALELIST
350
14
  3
ACAD_TABLESTYLE
350
15
  3
ACAD_VISUALSTYLE
350
16
  3
EZDXF_META
350
2D
  0
DICTIONARY
  5
B
330
A
100
AcDbDictionary
281
1
  0
DICTIONARY
  5
C
330
A
100
AcDbDictionary
281
1
  0
DICTIONARY
  5
D
330
A
100
AcDbDictionary
281
1
  3
Model
350
1A
  3
Layout1
350
1E
  0
DICTIONARY
  5
E
330
A
100
AcDbDictionary
281
1
  3
ByBlock
350
1F
  3
ByLayer
350
20
  3
Global
350
21
  0
DICTIONARY
  5
F
330
A
100
AcDbDictionary
281
1
  3
Standard
350
2C
  0
DICTIONARY
  5
10
330
A
100
AcDbDictionary
281
1
  3
Standard
350
22
  0
DICTIONARY
  5
11
330
A
100
AcDbDictionary
281
1
  0
ACDBDICTIONARYWDFLT
  5
12
330
A
100
AcDbDictionary
281
1
  3
Normal
350
13
100
AcDbDictionaryWithDefault
340
13
  0
ACDBPLACEHOLDER
  5
13
330
12
  0
DICTIONARY
  5
14
330
A
100
AcDbDictionary
281
1
  0
DICTIONARY
  5
15
330
A
100
AcDbDictionary
281
1
  0
DICTIONARY
  5
16
330
A
100
AcDbDictionary
281
1
  0
LAYOUT
  5
1A
330
D
100
AcDbPlotSettings
  1

  4
A3
  6

 40
7.5
 41
20.0
 42
7.5
 43
20.0
 44
420.0
 45
297.0
 46
0.0
 47
0.0
 48
0.0
 49
0.0
140
0.0
141
0.0
142
1.0
143
1.0
 70
1024
 72
1
 73
0
 74
5
  7

 75
16
 76
0
 77
2
 78
300
147
1.0
148
0.0
149
0.0
100
AcDbLayout
  1
Model
 70
1
 71
0
 10
0.0
 20
0.0
 11
420.0
 21
297.0
 12
0.0
 22
0.0
 32
0.0
 14
1e+20
 24
1e+20
 34
1e+20
 15
-1e+20
 25
-1e+20
 35
-1e+20
146
0.0
 13
0.0
 23
0.0
 33
0.0
 16
1.0
 26
0.0
 36
0.0
 17
0.0
 27
1.0
 37
0.0
 76
1
330
17
  0
LAYOUT
  5
1E
330
D
100
AcDbPlotSettings
  1

  4
A3
  6

 40
7.5
 41
20.0
 42
7.5
 43
20.0
 44
420.0
 45
297.0
 46
0.0
 47
0.0
 48
0.0
 49
0.0
140
0.0
141
0.0
142
1.0
143
1.0
 70
0
 72
1
 73
0
 74
5
  7

 75
16
 76
0
 77
2
 78
300
147
1.0
148
0.0
149
0.0
100
AcDbLayout
  1
Layout1
 70
1
 71
1
 10
0.0
 20
0.0
 11
420.0
 21
297.0
 12
0.0
 22
0.0
 32
0.0
 14
1e+20
 24
1e+20
 34
1e+20
 15
-1e+20
 25
-1e+20
 35
-1e+20
146
0.0
 13
0.0
 23
0.0
 33
0.0
 16
1.0
 26
0.0
 36
0.0
 17
0.0
 27
1.0
 37
0.0
 76
1
330
1B
  0
MATERIAL
  5
1F
102
{ACAD_REACTORS
330
E
102
}
330
E
100
AcDbMaterial
  1
ByBlock
  2

 70
0
 40
1.0
 71
1
 41
1.0
 91
-1023410177
 42
1.0
 72
1
  3

 73
1
 74
1
 75
1
 44
0.5
 73
0
 45
1.0
 46
1.0
 77
1
  4

 78
1
 79
1
170
1
 48
1.0
171
1
  6

172
1
173
1
174
1
140
1.0
141
1.0
175
1
  7

176
1
177
1
178
1
143
1.0
179
1
  8

270
1
271
1
272
1
145
1.0
146
1.0
273
1
  9

274
1
275
1
276
1
 42
1.0
 72
1
  3

 73
1
 74
1
 75
1
 94
63
  0
MATERIAL
  5
20
102
{ACAD_REACTORS
330
E
102
}
330
E
100
AcDbMaterial
  1
ByLayer
  2

 70
0
 40
1.0
 71
1
 41
1.0
 91
-1023410177
 42
1.0
 72
1
  3

 73
1
 74
1
 75
1
 44
0.5
 73
0
 45
1.0
 46
1.0
 77
1
  4

 78
1
 79
1
170
1
 48
1.0
171
1
  6

172
1
173
1
174
1
140
1.0
141
1.0
175
1
  7

176
1
177
1
178
1
143
1.0
179
1
  8

270
1
271
1
272
1
145
1.0
146
1.0
273
1
  9

274
1
275
1
276
1
 42
1.0
 72
1
  3

 73
1
 74
1
 75
1
 94
63
  0
MATERIAL
  5
21
102
{ACAD_REACTORS
330
E
102
}
330
E
100
AcDbMaterial
  1
Global
  2

 70
0
 40
1.0
 71
1
 41
1.0
 91
-1023410177
 42
1.0
 72
1
  3

 73
1
 74
1
 75
1
 44
0.5
 73
0
 45
1.0
 46
1.0
 77
1
  4

 78
1
 79
1
170
1
 48
1.0
171
1
  6

172
1
173
1
174
1
140
1.0
141
1.0
175
1
  7

176
1
177
1
178
1
143
1.0
179
1
  8

270
1
271
1
272
1
145
1.0
146
1.0
273
1
  9

274
1
275
1
276
1
 42
1.0
 72
1
  3

 73
1
 74
1
 75
1
 94
63
  0
MLINESTYLE
  5
22
102
{ACAD_REACTORS
330
10
102
}
330
10
100
AcDbMlineStyle
  2
Standard
 70
0
  3

 62
256
 51
90.0
 52
90.0
 71
2
 49
0.5
 62
256
  6
BYLAYER
 49
-0.5
 62
256
  6
BYLAYER
  0
MLEADERSTYLE
  5
2C
102
{ACAD_REACTORS
330
F
102
}
330
F
100
AcDbMLeaderStyle
179
2
170
2
171
1
172
0
 90
2
 40
0.0
 41
0.0
173
1
 91
-1056964608
 92
-2
290
1
 42
2.0
291
1
 43
8.0
  3
Standard
 44
4.0
300

342
29
174
1
175
1
176
0
178
1
 93
-1056964608
 45
4.0
292
0
297
0
 46
4.0
 94
-1056964608
 47
1.0
 49
1.0
140
1.0
294
1
141
0.0
177
0
142
1.0
295
0
296
0
143
3.75
271
0
272
9
273
9
  0
DICTIONARY
  5
2D
330
A
100
AcDbDictionary
280
1
281
1
  3
CREATED_BY_EZDXF
350
2E
  3
WRITTEN_BY_EZDXF
350
279
  0
DICTIONARYVAR
  5
2E
330
2D
100
DictionaryVariables
280
0
  1
1.4.3 @ 2026-02-14T14:16:33.974190+00:00
  0
DICTIONARYVAR
  5
279
330
2D
100
DictionaryVariables
280
0
  1
1.4.3 @ 2026-02-14T14:16:33.983667+00:00
  0
ENDSEC
  0
EOF
