  0
SECTION
  2
HEADER
  9
$ACADVER
  1
AC1024
  9
$ACADMAINTVER
 70
6
  9
$DWGCODEPAGE
  3
ANSI_1252
  9
$LASTSAVEDBY
  1
ezdxf
  9
$INSBASE
 10
0.0
 20
0.0
 30
0.0
  9
$EXTMIN
 10
1e+20
 20
1e+20
 30
1e+20
  9
$EXTMAX
 10
-1e+20
 20
-1e+20
 30
-1e+20
  9
$LIMMIN
 10
0.0
 20
0.0
  9
$LIMMAX
 10
420.0
 20
297.0
  9
$ORTHOMODE
 70
0
  9
$REGENMODE
 70
1
  9
$FILLMODE
 70
1
  9
$QTEXTMODE
 70
0
  9
$MIRRTEXT
 70
1
  9
$LTSCALE
 40
1.0
  9
$ATTMODE
 70
1
  9
$TEXTSIZE
 40
2.5
  9
$TRACEWID
 40
1.0
  9
$TEXTSTYLE
  7
Standard
  9
$CLAYER
  8
0
  9
$CELTYPE
  6
ByLayer
  9
$CECOLOR
 62
256
  9
$CELTSCALE
 40
1.0
  9
$DISPSILH
 70
0
  9
$DIMSCALE
 40
1.0
  9
$DIMASZ
 40
2.5
  9
$DIMEXO
 40
0.625
  9
$DIMDLI
 40
3.75
  9
$DIMRND
 40
0.0
  9
$DIMDLE
 40
0.0
  9
$DIMEXE
 40
1.25
  9
$DIMTP
 40
0.0
  9
$DIMTM
 40
0.0
  9
$DIMTXT
 40
2.5
  9
$DIMCEN
 40
2.5
  9
$DIMTSZ
 40
0.0
  9
$DIMTOL
 70
0
  9
$DIMLIM
 70
0
  9
$DIMTIH
 70
0
  9
$DIMTOH
 70
0
  9
$DIMSE1
 70
0
  9
$DIMSE2
 70
0
  9
$DIMTAD
 70
1
  9
$DIMZIN
 70
8
  9
$DIMBLK
  1

  9
$DIMASO
 70
1
  9
$DIMSHO
 70
1
  9
$DIMPOST
  1

  9
$DIMAPOST
  1

  9
$DIMALT
 70
0
  9
$DIMALTD
 70
3
  9
$DIMALTF
 40
0.03937007874
  9
$DIMLFAC
 40
1.0
  9
$DIMTOFL
 70
1
  9
$DIMTVP
 40
0.0
  9
$DIMTIX
 70
0
  9
$DIMSOXD
 70
0
  9
$DIMSAH
 70
0
  9
$DIMBLK1
  1

  9
$DIMBLK2
  1

  9
$DIMSTYLE
  2
ISO-25
  9
$DIMCLRD
 70
0
  9
$DIMCLRE
 70
0
  9
$DIMCLRT
 70
0
  9
$DIMTFAC
 40
1.0
  9
$DIMGAP
 40
0.625
  9
$DIMJUST
 70
0
  9
$DIMSD1
 70
0
  9
$DIMSD2
 70
0
  9
$DIMTOLJ
 70
0
  9
$DIMTZIN
 70
8
  9
$DIMALTZ
 70
0
  9
$DIMALTTZ
 70
0
  9
$DIMUPT
 70
0
  9
$DIMDEC
 70
2
  9
$DIMTDEC
 70
2
  9
$DIMALTU
 70
2
  9
$DIMALTTD
 70
3
  9
$DIMTXSTY
  7
Standard
  9
$DIMAUNIT
 70
0
  9
$DIMADEC
 70
0
  9
$DIMALTRND
 40
0.0
  9
$DIMAZIN
 70
0
  9
$DIMDSEP
 70
44
  9
$DIMATFIT
 70
3
  9
$DIMFRAC
 70
0
  9
$DIMLDRBLK
  1

  9
$DIMLUNIT
 70
2
  9
$DIMLWD
 70
-2
  9
$DIMLWE
 70
-2
  9
$DIMTMOVE
 70
0
  9
$DIMFXL
 40
1.0
  9
$DIMFXLON
 70
0
  9
$DIMJOGANG
 40
0.785398163397
  9
$DIMTFILL
 70
0
  9
$DIMTFILLCLR
 70
0
  9
$DIMARCSYM
 70
0
  9
$DIMLTYPE
  6

  9
$DIMLTEX1
  6

  9
$DIMLTEX2
  6

  9
$DIMTXTDIRECTION
 70
0
  9
$LUNITS
 70
2
  9
$LUPREC
 70
4
  9
$SKETCHINC
 40
1.0
  9
$FILLETRAD
 40
10.0
  9
$AUNITS
 70
0
  9
$AUPREC
 70
2
  9
$MENU
  1
.
  9
$ELEVATION
 40
0.0
  9
$PELEVATION
 40
0.0
  9
$THICKNESS
 40
0.0
  9
$LIMCHECK
 70
0
  9
$CHAMFERA
 40
0.0
  9
$CHAMFERB
 40
0.0
  9
$CHAMFERC
 40
0.0
  9
$CHAMFERD
 40
0.0
  9
$SKPOLY
 70
0
  9
$TDCREATE
 40
2461086.927025463
  9
$TDUCREATE
 40
2458532.153996898
  9
$TDUPDATE
 40
2461086.927025463
  9
$TDUUPDATE
 40
2458532.1544311
  9
$TDINDWG
 40
0.0
  9
$TDUSRTIMER
 40
0.0
  9
$USRTIMER
 70
1
  9
$ANGBASE
 50
0.0
  9
$ANGDIR
 70
0
  9
$PDMODE
 70
0
  9
$PDSIZE
 40
0.0
  9
$PLINEWID
 40
0.0
  9
$SPLFRAME
 70
0
  9
$SPLINETYPE
 70
6
  9
$SPLINESEGS
 70
8
  9
$HANDSEED
  5
3AA
  9
$SURFTAB1
 70
6
  9
$SURFTAB2
 70
6
  9
$SURFTYPE
 70
6
  9
$SURFU
 70
6
  9
$SURFV
 70
6
  9
$UCSBASE
  2

  9
$UCSNAME
  2

  9
$UCSORG
 10
0.0
 20
0.0
 30
0.0
  9
$UCSXDIR
 10
1.0
 20
0.0
 30
0.0
  9
$UCSYDIR
 10
0.0
 20
1.0
 30
0.0
  9
$UCSORTHOREF
  2

  9
$UCSORTHOVIEW
 70
0
  9
$UCSORGTOP
 10
0.0
 20
0.0
 30
0.0
  9
$UCSORGBOTTOM
 10
0.0
 20
0.0
 30
0.0
  9
$UCSORGLEFT
 10
0.0
 20
0.0
 30
0.0
  9
$UCSORGRIGHT
 10
0.0
 20
0.0
 30
0.0
  9
$UCSORGFRONT
 10
0.0
 20
0.0
 30
0.0
  9
$UCSORGBACK
 10
0.0
 20
0.0
 30
0.0
  9
$PUCSBASE
  2

  9
$PUCSNAME
  2

  9
$PUCSORG
 10
0.0
 20
0.0
 30
0.0
  9
$PUCSXDIR
 10
1.0
 20
0.0
 30
0.0
  9
$PUCSYDIR
 10
0.0
 20
1.0
 30
0.0
  9
$PUCSORTHOREF
  2

  9
$PUCSORTHOVIEW
 70
0
  9
$PUCSORGTOP
 10
0.0
 20
0.0
 30
0.0
  9
$PUCSORGBOTTOM
 10
0.0
 20
0.0
 30
0.0
  9
$PUCSORGLEFT
 10
0.0
 20
0.0
 30
0.0
  9
$PUCSORGRIGHT
 10
0.0
 20
0.0
 30
0.0
  9
$PUCSORGFRONT
 10
0.0
 20
0.0
 30
0.0
  9
$PUCSORGBACK
 10
0.0
 20
0.0
 30
0.0
  9
$USERI1
 70
0
  9
$USERI2
 70
0
  9
$USERI3
 70
0
  9
$USERI4
 70
0
  9
$USERI5
 70
0
  9
$USERR1
 40
0.0
  9
$USERR2
 40
0.0
  9
$USERR3
 40
0.0
  9
$USERR4
 40
0.0
  9
$USERR5
 40
0.0
  9
$WORLDVIEW
 70
1
  9
$SHADEDGE
 70
3
  9
$SHADEDIF
 70
70
  9
$TILEMODE
 70
1
  9
$MAXACTVP
 70
64
  9
$PINSBASE
 10
0.0
 20
0.0
 30
0.0
  9
$PLIMCHECK
 70
0
  9
$PEXTMIN
 10
1e+20
 20
1e+20
 30
1e+20
  9
$PEXTMAX
 10
-1e+20
 20
-1e+20
 30
-1e+20
  9
$PLIMMIN
 10
0.0
 20
0.0
  9
$PLIMMAX
 10
420.0
 20
297.0
  9
$UNITMODE
 70
0
  9
$VISRETAIN
 70
1
  9
$PLINEGEN
 70
0
  9
$PSLTSCALE
 70
1
  9
$TREEDEPTH
 70
3020
  9
$CMLSTYLE
  2
Standard
  9
$CMLJUST
 70
0
  9
$CMLSCALE
 40
20.0
  9
$PROXYGRAPHICS
 70
1
  9
$MEASUREMENT
 70
1
  9
$CELWEIGHT
370
-1
  9
$ENDCAPS
280
0
  9
$JOINSTYLE
280
0
  9
$LWDISPLAY
290
0
  9
$INSUNITS
 70
6
  9
$HYPERLINKBASE
  1

  9
$STYLESHEET
  1

  9
$XEDIT
290
1
  9
$CEPSNTYPE
380
0
  9
$PSTYLEMODE
290
1
  9
$FINGERPRINTGUID
  2
{96E27E75-30E3-489C-811C-943692774488}
  9
$VERSIONGUID
  2
{7EA20033-6AFE-43A7-B129-0AE65A98DF36}
  9
$EXTNAMES
290
1
  9
$PSVPSCALE
 40
0.0
  9
$OLESTARTUP
290
0
  9
$SORTENTS
280
127
  9
$INDEXCTL
280
0
  9
$HIDETEXT
280
1
  9
$XCLIPFRAME
280
1
  9
$HALOGAP
280
0
  9
$OBSCOLOR
 70
257
  9
$OBSLTYPE
280
0
  9
$INTERSECTIONDISPLAY
280
0
  9
$INTERSECTIONCOLOR
 70
257
  9
$DIMASSOC
280
2
  9
$PROJECTNAME
  1

  9
$CAMERADISPLAY
290
0
  9
$LENSLENGTH
 40
50.0
  9
$CAMERAHEIGHT
 40
0.0
  9
$STEPSPERSEC
 40
24.0
  9
$STEPSIZE
 40
100.0
  9
$3DDWFPREC
 40
2.0
  9
$PSOLWIDTH
 40
0.005
  9
$PSOLHEIGHT
 40
0.08
  9
$LOFTANG1
 40
1.570796326795
  9
$LOFTANG2
 40
1.570796326795
  9
$LOFTMAG1
 40
0.0
  9
$LOFTMAG2
 40
0.0
  9
$LOFTPARAM
 70
7
  9
$LOFTNORMALS
280
1
  9
$LATITUDE
 40
37.795
  9
$LONGITUDE
 40
-122.394
  9
$NORTHDIRECTION
 40
0.0
  9
$TIMEZONE
 70
-8000
  9
$LIGHTGLYPHDISPLAY
280
1
  9
$TILEMODELIGHTSYNCH
280
1
  9
$CMATERIAL
347
20
  9
$SOLIDHIST
280
0
  9
$SHOWHIST
280
1
  9
$DWFFRAME
280
2
  9
$DGNFRAME
280
2
  9
$REALWORLDSCALE
290
1
  9
$INTERFERECOLOR
 62
256
  9
$CSHADOW
280
0
  9
$SHADOWPLANELOCATION
 40
0.0
  0
ENDSEC
  0
SECTION
  2
CLASSES
  0
CLASS
  1
ACDBDICTIONARYWDFLT
  2
AcDbDictionaryWithDefault
  3
ObjectDBX Classes
 90
0
 91
0
280
0
281
0
  0
CLASS
  1
SUN
  2
AcDbSun
  3
SCENEOE
 90
1153
 91
0
280
0
281
0
  0
CLASS
  1
VISUALSTYLE
  2
AcDbVisualStyle
  3
ObjectDBX Classes
 90
4095
 91
0
280
0
281
0
  0
CLASS
  1
MATERIAL
  2
AcDbMaterial
  3
ObjectDBX Classes
 90
1153
 91
0
280
0
281
0
  0
CLASS
  1
SCALE
  2
AcDbScale
  3
ObjectDBX Classes
 90
1153
 91
0
280
0
281
0
  0
CLASS
  1
TABLESTYLE
  2
AcDbTableStyle
  3
ObjectDBX Classes
 90
4095
 91
0
280
0
281
0
  0
CLASS
  1
MLEADERSTYLE
  2
AcDbMLeaderStyle
  3
ACDB_MLEADERSTYLE_CLASS
 90
4095
 91
0
280
0
281
0
  0
CLASS
  1
DICTIONARYVAR
  2
AcDbDictionaryVar
  3
ObjectDBX Classes
 90
0
 91
0
280
0
281
0
  0
CLASS
  1
CELLSTYLEMAP
  2
AcDbCellStyleMap
  3
ObjectDBX Classes
 90
1152
 91
0
280
0
281
0
  0
CLASS
  1
MENTALRAYRENDERSETTINGS
  2
AcDbMentalRayRenderSettings
  3
SCENEOE
 90
1024
 91
0
280
0
281
0
  0
CLASS
  1
ACDBDETAILVIEWSTYLE
  2
AcDbDetailViewStyle
  3
ObjectDBX Classes
 90
1025
 91
0
280
0
281
0
  0
CLASS
  1
ACDBSECTIONVIEWSTYLE
  2
AcDbSectionViewStyle
  3
ObjectDBX Classes
 90
1025
 91
0
280
0
281
0
  0
CLASS
  1
RASTERVARIABLES
  2
AcDbRasterVariables
  3
ISM
 90
0
 91
0
280
0
281
0
  0
CLASS
  1
ACDBPLACEHOLDER
  2
AcDbPlaceHolder
  3
ObjectDBX Classes
 90
0
 91
0
280
0
281
0
  0
CLASS
  1
LAYOUT
  2
AcDbLayout
  3
ObjectDBX Classes
 90
0
 91
0
280
0
281
0
  0
ENDSEC
  0
SECTION
  2
TABLES
  0
TABLE
  2
VPORT
  5
8
330
0
100
AcDbSymbolTable
 70
1
  0
VPORT
  5
23
330
8
100
AcDbSymbolTableRecord
100
AcDbViewportTableRecord
  2
*Active
 70
0
 10
0.0
 20
0.0
 11
1.0
 21
1.0
 12
0.0
 22
0.0
 13
0.0
 23
0.0
 14
0.5
 24
0.5
 15
0.5
 25
0.5
 16
0.0
 26
0.0
 36
1.0
 17
0.0
 27
0.0
 37
0.0
 40
1000.0
 41
1.34
 42
50.0
 43
0.0
 44
0.0
 50
0.0
 51
0.0
 71
0
 72
1000
 73
1
 74
3
 75
0
 76
0
 77
0
 78
0
281
0
 65
0
146
0.0
  0
ENDTAB
  0
TABLE
  2
LTYPE
  5
2
330
0
100
AcDbSymbolTable
 70
3
  0
LTYPE
  5
24
330
2
100
AcDbSymbolTableRecord
100
AcDbLinetypeTableRecord
  2
ByBlock
 70
0
  3

 72
65
 73
0
 40
0.0
  0
LTYPE
  5
25
330
2
100
AcDbSymbolTableRecord
100
AcDbLinetypeTableRecord
  2
ByLayer
 70
0
  3

 72
65
 73
0
 40
0.0
  0
LTYPE
  5
26
330
2
100
AcDbSymbolTableRecord
100
AcDbLinetypeTableRecord
  2
Continuous
 70
0
  3

 72
65
 73
0
 40
0.0
  0
ENDTAB
  0
TABLE
  2
LAYER
  5
1
330
0
100
AcDbSymbolTable
 70
2
  0
LAYER
  5
27
330
1
100
AcDbSymbolTableRecord
100
AcDbLayerTableRecord
  2
0
 70
0
 62
7
  6
Continuous
370
-3
390
13
347
21
  0
LAYER
  5
28
330
1
100
AcDbSymbolTableRecord
100
AcDbLayerTableRecord
  2
Defpoints
 70
0
 62
7
  6
Continuous
290
0
370
-3
390
13
347
21
  0
ENDTAB
  0
TABLE
  2
STYLE
  5
5
330
0
100
AcDbSymbolTable
 70
1
  0
STYLE
  5
29
330
5
100
AcDbSymbolTableRecord
100
AcDbTextStyleTableRecord
  2
Standard
 70
0
 40
0.0
 41
0.7
 50
0.0
 71
0
 42
2.5
  3

  4

1001
ACAD
1000
仿宋
1071
0
  0
ENDTAB
  0
TABLE
  2
VIEW
  5
7
330
0
100
AcDbSymbolTable
 70
0
  0
ENDTAB
  0
TABLE
  2
UCS
  5
6
330
0
100
AcDbSymbolTable
 70
0
  0
ENDTAB
  0
TABLE
  2
APPID
  5
3
330
0
100
AcDbSymbolTable
 70
3
  0
APPID
  5
2A
330
3
100
AcDbSymbolTableRecord
100
AcDbRegAppTableRecord
  2
ACAD
 70
0
  0
APPID
  5
3A7
330
3
100
AcDbSymbolTableRecord
100
AcDbRegAppTableRecord
  2
HATCHBACKGROUNDCOLOR
 70
0
  0
APPID
  5
3A8
330
3
100
AcDbSymbolTableRecord
100
AcDbRegAppTableRecord
  2
EZDXF
 70
0
  0
ENDTAB
  0
TABLE
  2
DIMSTYLE
  5
4
330
0
100
AcDbSymbolTable
 70
1
100
AcDbDimStyleTable
  0
DIMSTYLE
105
2B
330
4
100
AcDbSymbolTableRecord
100
AcDbDimStyleTableRecord
  2
Standard
 70
0
 40
1.0
 41
2.5
 42
0.625
 43
3.75
 44
1.25
 45
0.0
 46
0.0
 47
0.0
 48
0.0
 49
2.5
140
2.5
141
2.5
142
0.0
143
0.03937007874
144
1.0
145
0.0
146
1.0
147
0.625
148
0.0
 69
0
 70
0
 71
0
 72
0
 73
0
 74
0
 75
0
 76
0
 77
1
 78
8
 79
3
170
0
171
3
172
1
173
0
174
0
175
0
176
0
177
0
178
0
179
2
271
2
272
2
273
2
274
3
275
0
276
0
277
2
278
44
279
0
280
0
281
0
282
0
283
0
284
8
285
0
286
0
288
0
289
3
290
0
371
-2
372
-2
  0
ENDTAB
  0
TABLE
  2
BLOCK_RECORD
  5
9
330
0
100
AcDbSymbolTable
 70
2
  0
BLOCK_RECORD
  5
17
330
9
100
AcDbSymbolTableRecord
100
AcDbBlockTableRecord
  2
*Model_Space
340
1A
 70
0
280
1
281
0
  0
BLOCK_RECORD
  5
1B
330
9
100
AcDbSymbolTableRecord
100
AcDbBlockTableRecord
  2
*Paper_Space
340
1E
 70
0
280
1
281
0
  0
ENDTAB
  0
ENDSEC
  0
SECTION
  2
BLOCKS
  0
BLOCK
  5
18
330
17
100
AcDbEntity
  8
0
100
AcDbBlockBegin
  2
*Model_Space
 70
0
 10
0.0
 20
0.0
 30
0.0
  3
*Model_Space
  1

  0
ENDBLK
  5
19
330
17
100
AcDbEntity
  8
0
100
AcDbBlockEnd
  0
BLOCK
  5
1C
330
1B
100
AcDbEntity
  8
0
100
AcDbBlockBegin
  2
*Paper_Space
 70
0
 10
0.0
 20
0.0
 30
0.0
  3
*Paper_Space
  1

  0
ENDBLK
  5
1D
330
1B
100
AcDbEntity
  8
0
100
AcDbBlockEnd
  0
ENDSEC
  0
SECTION
  2
ENTITIES
  0
LINE
  5
2F
330
17
100
AcDbEntity
  8
TABLE
100
AcDbLine
 10
0.0
 20
0.0
 30
0.0
 11
208.59999999999997
 21
0.0
 31
0.0
  0
LINE
  5
30
330
17
100
AcDbEntity
  8
TABLE
100
AcDbLine
 10
0.0
 20
-10.0
 30
0.0
 11
208.59999999999997
 21
-10.0
 31
0.0
  0
LINE
  5
31
330
17
100
AcDbEntity
  8
TABLE
100
AcDbLine
 10
0.0
 20
0.0
 30
0.0
 11
0.0
 21
-10.0
 31
0.0
  0
LINE
  5
32
330
17
100
AcDbEntity
  8
TABLE
100
AcDbLine
 10
208.59999999999997
 20
0.0
 30
0.0
 11
208.59999999999997
 21
-10.0
 31
0.0
  0
LINE
  5
33
330
17
100
AcDbEntity
  8
TABLE
100
AcDbLine
 10
21.0
 20
-20.0
 30
0.0
 11
38.5
 21
-20.0
 31
0.0
  0
LINE
  5
34
330
17
100
AcDbEntity
  8
TABLE
100
AcDbLine
 10
38.5
 20
-20.0
 30
0.0
 11
56.0
 21
-20.0
 31
0.0
  0
LINE
  5
35
330
17
100
AcDbEntity
  8
TABLE
100
AcDbLine
 10
90.3
 20
-20.0
 30
0.0
 11
102.89999999999999
 21
-20.0
 31
0.0
  0
LINE
  5
36
330
17
100
AcDbEntity
  8
TABLE
100
AcDbLine
 10
102.89999999999999
 20
-20.0
 30
0.0
 11
115.49999999999999
 21
-20.0
 31
0.0
  0
LINE
  5
37
330
17
100
AcDbEntity
  8
TABLE
100
AcDbLine
 10
115.49999999999999
 20
-20.0
 30
0.0
 11
128.1
 21
-20.0
 31
0.0
  0
LINE
  5
38
330
17
100
AcDbEntity
  8
TABLE
100
AcDbLine
 10
128.1
 20
-20.0
 30
0.0
 11
147.7
 21
-20.0
 31
0.0
  0
LINE
  5
39
330
17
100
AcDbEntity
  8
TABLE
100
AcDbLine
 10
147.7
 20
-20.0
 30
0.0
 11
169.39999999999998
 21
-20.0
 31
0.0
  0
LINE
  5
3A
330
17
100
AcDbEntity
  8
TABLE
100
AcDbLine
 10
169.39999999999998
 20
-20.0
 30
0.0
 11
191.09999999999997
 21
-20.0
 31
0.0
  0
LINE
  5
3B
330
17
100
AcDbEntity
  8
TABLE
100
AcDbLine
 10
191.09999999999997
 20
-20.0
 30
0.0
 11
208.59999999999997
 21
-20.0
 31
0.0
  0
LINE
  5
3C
330
17
100
AcDbEntity
  8
TABLE
100
AcDbLine
 10
0.0
 20
-30.0
 30
0.0
 11
208.59999999999997
 21
-30.0
 31
0.0
  0
LINE
  5
3D
330
17
100
AcDbEntity
  8
TABLE
100
AcDbLine
 10
0.0
 20
-10.0
 30
0.0
 11
0.0
 21
-30.0
 31
0.0
  0
LINE
  5
3E
330
17
100
AcDbEntity
  8
TABLE
100
AcDbLine
 10
21.0
 20
-10.0
 30
0.0
 11
21.0
 21
-30.0
 31
0.0
  0
LINE
  5
3F
330
17
100
AcDbEntity
  8
TABLE
100
AcDbLine
 10
38.5
 20
-10.0
 30
0.0
 11
38.5
 21
-30.0
 31
0.0
  0
LINE
  5
40
330
17
100
AcDbEntity
  8
TABLE
100
AcDbLine
 10
56.0
 20
-10.0
 30
0.0
 11
56.0
 21
-30.0
 31
0.0
  0
LINE
  5
41
330
17
100
AcDbEntity
  8
TABLE
100
AcDbLine
 10
76.3
 20
-10.0
 30
0.0
 11
76.3
 21
-30.0
 31
0.0
  0
LINE
  5
42
330
17
100
AcDbEntity
  8
TABLE
100
AcDbLine
 10
90.3
 20
-10.0
 30
0.0
 11
90.3
 21
-30.0
 31
0.0
  0
LINE
  5
43
330
17
100
AcDbEntity
  8
TABLE
100
AcDbLine
 10
102.89999999999999
 20
-10.0
 30
0.0
 11
102.89999999999999
 21
-30.0
 31
0.0
  0
LINE
  5
44
330
17
100
AcDbEntity
  8
TABLE
100
AcDbLine
 10
115.49999999999999
 20
-10.0
 30
0.0
 11
115.49999999999999
 21
-30.0
 31
0.0
  0
LINE
  5
45
330
17
100
AcDbEntity
  8
TABLE
100
AcDbLine
 10
128.1
 20
-10.0
 30
0.0
 11
128.1
 21
-30.0
 31
0.0
  0
LINE
  5
46
330
17
100
AcDbEntity
  8
TABLE
100
AcDbLine
 10
147.7
 20
-10.0
 30
0.0
 11
147.7
 21
-30.0
 31
0.0
  0
LINE
  5
47
330
17
100
AcDbEntity
  8
TABLE
100
AcDbLine
 10
169.39999999999998
 20
-10.0
 30
0.0
 11
169.39999999999998
 21
-30.0
 31
0.0
  0
LINE
  5
48
330
17
100
AcDbEntity
  8
TABLE
100
AcDbLine
 10
191.09999999999997
 20
-10.0
 30
0.0
 11
191.09999999999997
 21
-30.0
 31
0.0
  0
LINE
  5
49
330
17
100
AcDbEntity
  8
TABLE
100
AcDbLine
 10
208.59999999999997
 20
-10.0
 30
0.0
 11
208.59999999999997
 21
-30.0
 31
0.0
  0
LINE
  5
4A
330
17
100
AcDbEntity
  8
TABLE
100
AcDbLine
 10
0.0
 20
-30.0
 30
0.0
 11
208.59999999999997
 21
-30.0
 31
0.0
  0
LINE
  5
4B
330
17
100
AcDbEntity
  8
TABLE
100
AcDbLine
 10
0.0
 20
-37.0
 30
0.0
 11
208.59999999999997
 21
-37.0
 31
0.0
  0
LINE
  5
4C
330
17
100
AcDbEntity
  8
TABLE
100
AcDbLine
 10
0.0
 20
-30.0
 30
0.0
 11
0.0
 21
-37.0
 31
0.0
  0
LINE
  5
4D
330
17
100
AcDbEntity
  8
TABLE
100
AcDbLine
 10
21.0
 20
-30.0
 30
0.0
 11
21.0
 21
-37.0
 31
0.0
  0
LINE
  5
4E
330
17
100
AcDbEntity
  8
TABLE
100
AcDbLine
 10
38.5
 20
-30.0
 30
0.0
 11
38.5
 21
-37.0
 31
0.0
  0
LINE
  5
4F
330
17
100
AcDbEntity
  8
TABLE
100
AcDbLine
 10
56.0
 20
-30.0
 30
0.0
 11
56.0
 21
-37.0
 31
0.0
  0
LINE
  5
50
330
17
100
AcDbEntity
  8
TABLE
100
AcDbLine
 10
76.3
 20
-30.0
 30
0.0
 11
76.3
 21
-37.0
 31
0.0
  0
LINE
  5
51
330
17
100
AcDbEntity
  8
TABLE
100
AcDbLine
 10
90.3
 20
-30.0
 30
0.0
 11
90.3
 21
-37.0
 31
0.0
  0
LINE
  5
52
330
17
100
AcDbEntity
  8
TABLE
100
AcDbLine
 10
102.89999999999999
 20
-30.0
 30
0.0
 11
102.89999999999999
 21
-37.0
 31
0.0
  0
LINE
  5
53
330
17
100
AcDbEntity
  8
TABLE
100
AcDbLine
 10
115.49999999999999
 20
-30.0
 30
0.0
 11
115.49999999999999
 21
-37.0
 31
0.0
  0
LINE
  5
54
330
17
100
AcDbEntity
  8
TABLE
100
AcDbLine
 10
128.1
 20
-30.0
 30
0.0
 11
128.1
 21
-37.0
 31
0.0
  0
LINE
  5
55
330
17
100
AcDbEntity
  8
TABLE
100
AcDbLine
 10
147.7
 20
-30.0
 30
0.0
 11
147.7
 21
-37.0
 31
0.0
  0
LINE
  5
56
330
17
100
AcDbEntity
  8
TABLE
100
AcDbLine
 10
169.39999999999998
 20
-30.0
 30
0.0
 11
169.39999999999998
 21
-37.0
 31
0.0
  0
LINE
  5
57
330
17
100
AcDbEntity
  8
TABLE
100
AcDbLine
 10
191.09999999999997
 20
-30.0
 30
0.0
 11
191.09999999999997
 21
-37.0
 31
0.0
  0
LINE
  5
58
330
17
100
AcDbEntity
  8
TABLE
100
AcDbLine
 10
208.59999999999997
 20
-30.0
 30
0.0
 11
208.59999999999997
 21
-37.0
 31
0.0
  0
TEXT
  5
59
330
17
100
AcDbEntity
  8
TABLE
100
AcDbText
 10
104.29999999999998
 20
-5.0
 30
0.0
 40
5.0
  1
矩形明渠断面尺寸及水力要素表
 41
0.7
 72
1
 11
104.29999999999998
 21
-5.0
 31
0.0
100
AcDbText
 73
2
  0
TEXT
  5
5A
330
17
100
AcDbEntity
  8
TABLE
100
AcDbText
 10
10.5
 20
-20.0
 30
0.0
 40
3.5
  1
流量段
 41
0.7
 72
1
 11
10.5
 21
-20.0
 31
0.0
100
AcDbText
 73
2
  0
TEXT
  5
5B
330
17
100
AcDbEntity
  8
TABLE
100
AcDbText
 10
29.75
 20
-15.0
 30
0.0
 40
3.5
  1
设计流量
 41
0.7
 72
1
 11
29.75
 21
-15.0
 31
0.0
100
AcDbText
 73
2
  0
MTEXT
  5
5C
330
17
100
AcDbEntity
  8
TABLE
100
AcDbMText
 10
29.75
 20
-25.0
 30
0.0
 40
3.5
 71
5
  1
m{\H0.7x;\S3^ ;}/s
  0
TEXT
  5
5D
330
17
100
AcDbEntity
  8
TABLE
100
AcDbText
 10
47.25
 20
-15.0
 30
0.0
 40
3.5
  1
加大流量
 41
0.7
 72
1
 11
47.25
 21
-15.0
 31
0.0
100
AcDbText
 73
2
  0
MTEXT
  5
5E
330
17
100
AcDbEntity
  8
TABLE
100
AcDbMText
 10
47.25
 20
-25.0
 30
0.0
 40
3.5
 71
5
  1
m{\H0.7x;\S3^ ;}/s
  0
TEXT
  5
5F
330
17
100
AcDbEntity
  8
TABLE
100
AcDbText
 10
66.15
 20
-20.0
 30
0.0
 40
3.5
  1
1/底坡
 41
0.7
 72
1
 11
66.15
 21
-20.0
 31
0.0
100
AcDbText
 73
2
  0
TEXT
  5
60
330
17
100
AcDbEntity
  8
TABLE
100
AcDbText
 10
83.3
 20
-20.0
 30
0.0
 40
3.5
  1
糙率
 41
0.7
 72
1
 11
83.3
 21
-20.0
 31
0.0
100
AcDbText
 73
2
  0
TEXT
  5
61
330
17
100
AcDbEntity
  8
TABLE
100
AcDbText
 10
96.6
 20
-15.0
 30
0.0
 40
3.5
  1
底宽B
 41
0.7
 72
1
 11
96.6
 21
-15.0
 31
0.0
100
AcDbText
 73
2
  0
TEXT
  5
62
330
17
100
AcDbEntity
  8
TABLE
100
AcDbText
 10
96.6
 20
-25.0
 30
0.0
 40
3.5
  1
m
 41
0.7
 72
1
 11
96.6
 21
-25.0
 31
0.0
100
AcDbText
 73
2
  0
TEXT
  5
63
330
17
100
AcDbEntity
  8
TABLE
100
AcDbText
 10
109.19999999999999
 20
-15.0
 30
0.0
 40
3.5
  1
高度H
 41
0.7
 72
1
 11
109.19999999999999
 21
-15.0
 31
0.0
100
AcDbText
 73
2
  0
TEXT
  5
64
330
17
100
AcDbEntity
  8
TABLE
100
AcDbText
 10
109.19999999999999
 20
-25.0
 30
0.0
 40
3.5
  1
m
 41
0.7
 72
1
 11
109.19999999999999
 21
-25.0
 31
0.0
100
AcDbText
 73
2
  0
TEXT
  5
65
330
17
100
AcDbEntity
  8
TABLE
100
AcDbText
 10
121.79999999999998
 20
-15.0
 30
0.0
 40
3.5
  1
壁厚t
 41
0.7
 72
1
 11
121.79999999999998
 21
-15.0
 31
0.0
100
AcDbText
 73
2
  0
TEXT
  5
66
330
17
100
AcDbEntity
  8
TABLE
100
AcDbText
 10
121.79999999999998
 20
-25.0
 30
0.0
 40
3.5
  1
m
 41
0.7
 72
1
 11
121.79999999999998
 21
-25.0
 31
0.0
100
AcDbText
 73
2
  0
TEXT
  5
67
330
17
100
AcDbEntity
  8
TABLE
100
AcDbText
 10
137.89999999999998
 20
-15.0
 30
0.0
 40
3.5
  1
拉杆尺寸
 41
0.7
 72
1
 11
137.89999999999998
 21
-15.0
 31
0.0
100
AcDbText
 73
2
  0
TEXT
  5
68
330
17
100
AcDbEntity
  8
TABLE
100
AcDbText
 10
137.89999999999998
 20
-25.0
 30
0.0
 40
3.5
  1
m
 41
0.7
 72
1
 11
137.89999999999998
 21
-25.0
 31
0.0
100
AcDbText
 73
2
  0
MTEXT
  5
69
330
17
100
AcDbEntity
  8
TABLE
100
AcDbMText
 10
158.54999999999998
 20
-15.0
 30
0.0
 40
3.5
 71
5
  1
设计水深H{\H0.7x;\S^ 1;}
  0
TEXT
  5
6A
330
17
100
AcDbEntity
  8
TABLE
100
AcDbText
 10
158.54999999999998
 20
-25.0
 30
0.0
 40
3.5
  1
m
 41
0.7
 72
1
 11
158.54999999999998
 21
-25.0
 31
0.0
100
AcDbText
 73
2
  0
MTEXT
  5
6B
330
17
100
AcDbEntity
  8
TABLE
100
AcDbMText
 10
180.24999999999997
 20
-15.0
 30
0.0
 40
3.5
 71
5
  1
加大水深H{\H0.7x;\S^ 2;}
  0
TEXT
  5
6C
330
17
100
AcDbEntity
  8
TABLE
100
AcDbText
 10
180.24999999999997
 20
-25.0
 30
0.0
 40
3.5
  1
m
 41
0.7
 72
1
 11
180.24999999999997
 21
-25.0
 31
0.0
100
AcDbText
 73
2
  0
TEXT
  5
6D
330
17
100
AcDbEntity
  8
TABLE
100
AcDbText
 10
199.84999999999997
 20
-15.0
 30
0.0
 40
3.5
  1
设计流速
 41
0.7
 72
1
 11
199.84999999999997
 21
-15.0
 31
0.0
100
AcDbText
 73
2
  0
TEXT
  5
6E
330
17
100
AcDbEntity
  8
TABLE
100
AcDbText
 10
199.84999999999997
 20
-25.0
 30
0.0
 40
3.5
  1
m/s
 41
0.7
 72
1
 11
199.84999999999997
 21
-25.0
 31
0.0
100
AcDbText
 73
2
  0
TEXT
  5
6F
330
17
100
AcDbEntity
  8
TABLE
100
AcDbText
 10
10.5
 20
-33.5
 30
0.0
 40
3.5
  1
第一流量段
 41
0.7
 72
1
 11
10.5
 21
-33.5
 31
0.0
100
AcDbText
 73
2
  0
TEXT
  5
70
330
17
100
AcDbEntity
  8
TABLE
100
AcDbText
 10
29.75
 20
-33.5
 30
0.0
 40
3.5
  1
5.0
 41
0.7
 72
1
 11
29.75
 21
-33.5
 31
0.0
100
AcDbText
 73
2
  0
TEXT
  5
71
330
17
100
AcDbEntity
  8
TABLE
100
AcDbText
 10
47.25
 20
-33.5
 30
0.0
 40
3.5
  1
6.0
 41
0.7
 72
1
 11
47.25
 21
-33.5
 31
0.0
100
AcDbText
 73
2
  0
TEXT
  5
72
330
17
100
AcDbEntity
  8
TABLE
100
AcDbText
 10
66.15
 20
-33.5
 30
0.0
 40
3.5
  1
1/3000.0
 41
0.7
 72
1
 11
66.15
 21
-33.5
 31
0.0
100
AcDbText
 73
2
  0
TEXT
  5
73
330
17
100
AcDbEntity
  8
TABLE
100
AcDbText
 10
83.3
 20
-33.5
 30
0.0
 40
3.5
  1
0.014
 41
0.7
 72
1
 11
83.3
 21
-33.5
 31
0.0
100
AcDbText
 73
2
  0
TEXT
  5
74
330
17
100
AcDbEntity
  8
TABLE
100
AcDbText
 10
96.6
 20
-33.5
 30
0.0
 40
3.5
  1
2.0
 41
0.7
 72
1
 11
96.6
 21
-33.5
 31
0.0
100
AcDbText
 73
2
  0
TEXT
  5
75
330
17
100
AcDbEntity
  8
TABLE
100
AcDbText
 10
109.19999999999999
 20
-33.5
 30
0.0
 40
3.5
  1
3.72
 41
0.7
 72
1
 11
109.19999999999999
 21
-33.5
 31
0.0
100
AcDbText
 73
2
  0
TEXT
  5
76
330
17
100
AcDbEntity
  8
TABLE
100
AcDbText
 10
121.79999999999998
 20
-33.5
 30
0.0
 40
3.5
  1
0.3
 41
0.7
 72
1
 11
121.79999999999998
 21
-33.5
 31
0.0
100
AcDbText
 73
2
  0
TEXT
  5
77
330
17
100
AcDbEntity
  8
TABLE
100
AcDbText
 10
137.89999999999998
 20
-33.5
 30
0.0
 40
3.5
  1
0.2×0.2
 41
0.7
 72
1
 11
137.89999999999998
 21
-33.5
 31
0.0
100
AcDbText
 73
2
  0
TEXT
  5
78
330
17
100
AcDbEntity
  8
TABLE
100
AcDbText
 10
158.54999999999998
 20
-33.5
 30
0.0
 40
3.5
  1
2.415
 41
0.7
 72
1
 11
158.54999999999998
 21
-33.5
 31
0.0
100
AcDbText
 73
2
  0
TEXT
  5
79
330
17
100
AcDbEntity
  8
TABLE
100
AcDbText
 10
180.24999999999997
 20
-33.5
 30
0.0
 40
3.5
  1
2.816
 41
0.7
 72
1
 11
180.24999999999997
 21
-33.5
 31
0.0
100
AcDbText
 73
2
  0
TEXT
  5
7A
330
17
100
AcDbEntity
  8
TABLE
100
AcDbText
 10
199.84999999999997
 20
-33.5
 30
0.0
 40
3.5
  1
1.035
 41
0.7
 72
1
 11
199.84999999999997
 21
-33.5
 31
0.0
100
AcDbText
 73
2
  0
LINE
  5
7B
330
17
100
AcDbEntity
  8
TABLE
100
AcDbLine
 10
0.0
 20
-45.0
 30
0.0
 11
228.2
 21
-45.0
 31
0.0
  0
LINE
  5
7C
330
17
100
AcDbEntity
  8
TABLE
100
AcDbLine
 10
0.0
 20
-55.0
 30
0.0
 11
228.2
 21
-55.0
 31
0.0
  0
LINE
  5
7D
330
17
100
AcDbEntity
  8
TABLE
100
AcDbLine
 10
0.0
 20
-45.0
 30
0.0
 11
0.0
 21
-55.0
 31
0.0
  0
LINE
  5
7E
330
17
100
AcDbEntity
  8
TABLE
100
AcDbLine
 10
228.2
 20
-45.0
 30
0.0
 11
228.2
 21
-55.0
 31
0.0
  0
LINE
  5
7F
330
17
100
AcDbEntity
  8
TABLE
100
AcDbLine
 10
21.0
 20
-65.0
 30
0.0
 11
38.5
 21
-65.0
 31
0.0
  0
LINE
  5
80
330
17
100
AcDbEntity
  8
TABLE
100
AcDbLine
 10
38.5
 20
-65.0
 30
0.0
 11
56.0
 21
-65.0
 31
0.0
  0
LINE
  5
81
330
17
100
AcDbEntity
  8
TABLE
100
AcDbLine
 10
109.9
 20
-65.0
 30
0.0
 11
122.5
 21
-65.0
 31
0.0
  0
LINE
  5
82
330
17
100
AcDbEntity
  8
TABLE
100
AcDbLine
 10
122.5
 20
-65.0
 30
0.0
 11
135.1
 21
-65.0
 31
0.0
  0
LINE
  5
83
330
17
100
AcDbEntity
  8
TABLE
100
AcDbLine
 10
135.1
 20
-65.0
 30
0.0
 11
147.7
 21
-65.0
 31
0.0
  0
LINE
  5
84
330
17
100
AcDbEntity
  8
TABLE
100
AcDbLine
 10
147.7
 20
-65.0
 30
0.0
 11
167.29999999999998
 21
-65.0
 31
0.0
  0
LINE
  5
85
330
17
100
AcDbEntity
  8
TABLE
100
AcDbLine
 10
167.29999999999998
 20
-65.0
 30
0.0
 11
189.0
 21
-65.0
 31
0.0
  0
LINE
  5
86
330
17
100
AcDbEntity
  8
TABLE
100
AcDbLine
 10
189.0
 20
-65.0
 30
0.0
 11
210.7
 21
-65.0
 31
0.0
  0
LINE
  5
87
330
17
100
AcDbEntity
  8
TABLE
100
AcDbLine
 10
210.7
 20
-65.0
 30
0.0
 11
228.2
 21
-65.0
 31
0.0
  0
LINE
  5
88
330
17
100
AcDbEntity
  8
TABLE
100
AcDbLine
 10
0.0
 20
-75.0
 30
0.0
 11
228.2
 21
-75.0
 31
0.0
  0
LINE
  5
89
330
17
100
AcDbEntity
  8
TABLE
100
AcDbLine
 10
0.0
 20
-55.0
 30
0.0
 11
0.0
 21
-75.0
 31
0.0
  0
LINE
  5
8A
330
17
100
AcDbEntity
  8
TABLE
100
AcDbLine
 10
21.0
 20
-55.0
 30
0.0
 11
21.0
 21
-75.0
 31
0.0
  0
LINE
  5
8B
330
17
100
AcDbEntity
  8
TABLE
100
AcDbLine
 10
38.5
 20
-55.0
 30
0.0
 11
38.5
 21
-75.0
 31
0.0
  0
LINE
  5
8C
330
17
100
AcDbEntity
  8
TABLE
100
AcDbLine
 10
56.0
 20
-55.0
 30
0.0
 11
56.0
 21
-75.0
 31
0.0
  0
LINE
  5
8D
330
17
100
AcDbEntity
  8
TABLE
100
AcDbLine
 10
76.3
 20
-55.0
 30
0.0
 11
76.3
 21
-75.0
 31
0.0
  0
LINE
  5
8E
330
17
100
AcDbEntity
  8
TABLE
100
AcDbLine
 10
90.3
 20
-55.0
 30
0.0
 11
90.3
 21
-75.0
 31
0.0
  0
LINE
  5
8F
330
17
100
AcDbEntity
  8
TABLE
100
AcDbLine
 10
109.9
 20
-55.0
 30
0.0
 11
109.9
 21
-75.0
 31
0.0
  0
LINE
  5
90
330
17
100
AcDbEntity
  8
TABLE
100
AcDbLine
 10
122.5
 20
-55.0
 30
0.0
 11
122.5
 21
-75.0
 31
0.0
  0
LINE
  5
91
330
17
100
AcDbEntity
  8
TABLE
100
AcDbLine
 10
135.1
 20
-55.0
 30
0.0
 11
135.1
 21
-75.0
 31
0.0
  0
LINE
  5
92
330
17
100
AcDbEntity
  8
TABLE
100
AcDbLine
 10
147.7
 20
-55.0
 30
0.0
 11
147.7
 21
-75.0
 31
0.0
  0
LINE
  5
93
330
17
100
AcDbEntity
  8
TABLE
100
AcDbLine
 10
167.29999999999998
 20
-55.0
 30
0.0
 11
167.29999999999998
 21
-75.0
 31
0.0
  0
LINE
  5
94
330
17
100
AcDbEntity
  8
TABLE
100
AcDbLine
 10
189.0
 20
-55.0
 30
0.0
 11
189.0
 21
-75.0
 31
0.0
  0
LINE
  5
95
330
17
100
AcDbEntity
  8
TABLE
100
AcDbLine
 10
210.7
 20
-55.0
 30
0.0
 11
210.7
 21
-75.0
 31
0.0
  0
LINE
  5
96
330
17
100
AcDbEntity
  8
TABLE
100
AcDbLine
 10
228.2
 20
-55.0
 30
0.0
 11
228.2
 21
-75.0
 31
0.0
  0
LINE
  5
97
330
17
100
AcDbEntity
  8
TABLE
100
AcDbLine
 10
0.0
 20
-75.0
 30
0.0
 11
228.2
 21
-75.0
 31
0.0
  0
LINE
  5
98
330
17
100
AcDbEntity
  8
TABLE
100
AcDbLine
 10
0.0
 20
-89.0
 30
0.0
 11
228.2
 21
-89.0
 31
0.0
  0
LINE
  5
99
330
17
100
AcDbEntity
  8
TABLE
100
AcDbLine
 10
0.0
 20
-82.0
 30
0.0
 11
228.2
 21
-82.0
 31
0.0
  0
LINE
  5
9A
330
17
100
AcDbEntity
  8
TABLE
100
AcDbLine
 10
0.0
 20
-75.0
 30
0.0
 11
0.0
 21
-89.0
 31
0.0
  0
LINE
  5
9B
330
17
100
AcDbEntity
  8
TABLE
100
AcDbLine
 10
21.0
 20
-75.0
 30
0.0
 11
21.0
 21
-89.0
 31
0.0
  0
LINE
  5
9C
330
17
100
AcDbEntity
  8
TABLE
100
AcDbLine
 10
38.5
 20
-75.0
 30
0.0
 11
38.5
 21
-89.0
 31
0.0
  0
LINE
  5
9D
330
17
100
AcDbEntity
  8
TABLE
100
AcDbLine
 10
56.0
 20
-75.0
 30
0.0
 11
56.0
 21
-89.0
 31
0.0
  0
LINE
  5
9E
330
17
100
AcDbEntity
  8
TABLE
100
AcDbLine
 10
76.3
 20
-75.0
 30
0.0
 11
76.3
 21
-89.0
 31
0.0
  0
LINE
  5
9F
330
17
100
AcDbEntity
  8
TABLE
100
AcDbLine
 10
90.3
 20
-75.0
 30
0.0
 11
90.3
 21
-89.0
 31
0.0
  0
LINE
  5
A0
330
17
100
AcDbEntity
  8
TABLE
100
AcDbLine
 10
109.9
 20
-75.0
 30
0.0
 11
109.9
 21
-89.0
 31
0.0
  0
LINE
  5
A1
330
17
100
AcDbEntity
  8
TABLE
100
AcDbLine
 10
122.5
 20
-75.0
 30
0.0
 11
122.5
 21
-89.0
 31
0.0
  0
LINE
  5
A2
330
17
100
AcDbEntity
  8
TABLE
100
AcDbLine
 10
135.1
 20
-75.0
 30
0.0
 11
135.1
 21
-89.0
 31
0.0
  0
LINE
  5
A3
330
17
100
AcDbEntity
  8
TABLE
100
AcDbLine
 10
147.7
 20
-75.0
 30
0.0
 11
147.7
 21
-89.0
 31
0.0
  0
LINE
  5
A4
330
17
100
AcDbEntity
  8
TABLE
100
AcDbLine
 10
167.29999999999998
 20
-75.0
 30
0.0
 11
167.29999999999998
 21
-89.0
 31
0.0
  0
LINE
  5
A5
330
17
100
AcDbEntity
  8
TABLE
100
AcDbLine
 10
189.0
 20
-75.0
 30
0.0
 11
189.0
 21
-89.0
 31
0.0
  0
LINE
  5
A6
330
17
100
AcDbEntity
  8
TABLE
100
AcDbLine
 10
210.7
 20
-75.0
 30
0.0
 11
210.7
 21
-89.0
 31
0.0
  0
LINE
  5
A7
330
17
100
AcDbEntity
  8
TABLE
100
AcDbLine
 10
228.2
 20
-75.0
 30
0.0
 11
228.2
 21
-89.0
 31
0.0
  0
TEXT
  5
A8
330
17
100
AcDbEntity
  8
TABLE
100
AcDbText
 10
114.1
 20
-50.0
 30
0.0
 40
5.0
  1
梯形明渠断面尺寸及水力要素表
 41
0.7
 72
1
 11
114.1
 21
-50.0
 31
0.0
100
AcDbText
 73
2
  0
TEXT
  5
A9
330
17
100
AcDbEntity
  8
TABLE
100
AcDbText
 10
10.5
 20
-65.0
 30
0.0
 40
3.5
  1
流量段
 41
0.7
 72
1
 11
10.5
 21
-65.0
 31
0.0
100
AcDbText
 73
2
  0
TEXT
  5
AA
330
17
100
AcDbEntity
  8
TABLE
100
AcDbText
 10
29.75
 20
-60.0
 30
0.0
 40
3.5
  1
设计流量
 41
0.7
 72
1
 11
29.75
 21
-60.0
 31
0.0
100
AcDbText
 73
2
  0
MTEXT
  5
AB
330
17
100
AcDbEntity
  8
TABLE
100
AcDbMText
 10
29.75
 20
-70.0
 30
0.0
 40
3.5
 71
5
  1
m{\H0.7x;\S3^ ;}/s
  0
TEXT
  5
AC
330
17
100
AcDbEntity
  8
TABLE
100
AcDbText
 10
47.25
 20
-60.0
 30
0.0
 40
3.5
  1
加大流量
 41
0.7
 72
1
 11
47.25
 21
-60.0
 31
0.0
100
AcDbText
 73
2
  0
MTEXT
  5
AD
330
17
100
AcDbEntity
  8
TABLE
100
AcDbMText
 10
47.25
 20
-70.0
 30
0.0
 40
3.5
 71
5
  1
m{\H0.7x;\S3^ ;}/s
  0
TEXT
  5
AE
330
17
100
AcDbEntity
  8
TABLE
100
AcDbText
 10
66.15
 20
-65.0
 30
0.0
 40
3.5
  1
1/坡降
 41
0.7
 72
1
 11
66.15
 21
-65.0
 31
0.0
100
AcDbText
 73
2
  0
TEXT
  5
AF
330
17
100
AcDbEntity
  8
TABLE
100
AcDbText
 10
83.3
 20
-65.0
 30
0.0
 40
3.5
  1
糙率
 41
0.7
 72
1
 11
83.3
 21
-65.0
 31
0.0
100
AcDbText
 73
2
  0
TEXT
  5
B0
330
17
100
AcDbEntity
  8
TABLE
100
AcDbText
 10
100.1
 20
-65.0
 30
0.0
 40
3.5
  1
边坡系数m
 41
0.7
 72
1
 11
100.1
 21
-65.0
 31
0.0
100
AcDbText
 73
2
  0
TEXT
  5
B1
330
17
100
AcDbEntity
  8
TABLE
100
AcDbText
 10
116.2
 20
-60.0
 30
0.0
 40
3.5
  1
底宽B
 41
0.7
 72
1
 11
116.2
 21
-60.0
 31
0.0
100
AcDbText
 73
2
  0
TEXT
  5
B2
330
17
100
AcDbEntity
  8
TABLE
100
AcDbText
 10
116.2
 20
-70.0
 30
0.0
 40
3.5
  1
m
 41
0.7
 72
1
 11
116.2
 21
-70.0
 31
0.0
100
AcDbText
 73
2
  0
TEXT
  5
B3
330
17
100
AcDbEntity
  8
TABLE
100
AcDbText
 10
128.8
 20
-60.0
 30
0.0
 40
3.5
  1
高度H
 41
0.7
 72
1
 11
128.8
 21
-60.0
 31
0.0
100
AcDbText
 73
2
  0
TEXT
  5
B4
330
17
100
AcDbEntity
  8
TABLE
100
AcDbText
 10
128.8
 20
-70.0
 30
0.0
 40
3.5
  1
m
 41
0.7
 72
1
 11
128.8
 21
-70.0
 31
0.0
100
AcDbText
 73
2
  0
TEXT
  5
B5
330
17
100
AcDbEntity
  8
TABLE
100
AcDbText
 10
141.39999999999998
 20
-60.0
 30
0.0
 40
3.5
  1
壁厚t
 41
0.7
 72
1
 11
141.39999999999998
 21
-60.0
 31
0.0
100
AcDbText
 73
2
  0
TEXT
  5
B6
330
17
100
AcDbEntity
  8
TABLE
100
AcDbText
 10
141.39999999999998
 20
-70.0
 30
0.0
 40
3.5
  1
m
 41
0.7
 72
1
 11
141.39999999999998
 21
-70.0
 31
0.0
100
AcDbText
 73
2
  0
TEXT
  5
B7
330
17
100
AcDbEntity
  8
TABLE
100
AcDbText
 10
157.5
 20
-60.0
 30
0.0
 40
3.5
  1
拉杆尺寸
 41
0.7
 72
1
 11
157.5
 21
-60.0
 31
0.0
100
AcDbText
 73
2
  0
TEXT
  5
B8
330
17
100
AcDbEntity
  8
TABLE
100
AcDbText
 10
157.5
 20
-70.0
 30
0.0
 40
3.5
  1
m
 41
0.7
 72
1
 11
157.5
 21
-70.0
 31
0.0
100
AcDbText
 73
2
  0
MTEXT
  5
B9
330
17
100
AcDbEntity
  8
TABLE
100
AcDbMText
 10
178.14999999999998
 20
-60.0
 30
0.0
 40
3.5
 71
5
  1
设计水深H{\H0.7x;\S^ 1;}
  0
TEXT
  5
BA
330
17
100
AcDbEntity
  8
TABLE
100
AcDbText
 10
178.14999999999998
 20
-70.0
 30
0.0
 40
3.5
  1
m
 41
0.7
 72
1
 11
178.14999999999998
 21
-70.0
 31
0.0
100
AcDbText
 73
2
  0
MTEXT
  5
BB
330
17
100
AcDbEntity
  8
TABLE
100
AcDbMText
 10
199.85
 20
-60.0
 30
0.0
 40
3.5
 71
5
  1
加大水深H{\H0.7x;\S^ 2;}
  0
TEXT
  5
BC
330
17
100
AcDbEntity
  8
TABLE
100
AcDbText
 10
199.85
 20
-70.0
 30
0.0
 40
3.5
  1
m
 41
0.7
 72
1
 11
199.85
 21
-70.0
 31
0.0
100
AcDbText
 73
2
  0
TEXT
  5
BD
330
17
100
AcDbEntity
  8
TABLE
100
AcDbText
 10
219.45
 20
-60.0
 30
0.0
 40
3.5
  1
设计流速
 41
0.7
 72
1
 11
219.45
 21
-60.0
 31
0.0
100
AcDbText
 73
2
  0
TEXT
  5
BE
330
17
100
AcDbEntity
  8
TABLE
100
AcDbText
 10
219.45
 20
-70.0
 30
0.0
 40
3.5
  1
m/s
 41
0.7
 72
1
 11
219.45
 21
-70.0
 31
0.0
100
AcDbText
 73
2
  0
TEXT
  5
BF
330
17
100
AcDbEntity
  8
TABLE
100
AcDbText
 10
10.5
 20
-78.5
 30
0.0
 40
3.5
  1
第一流量段
 41
0.7
 72
1
 11
10.5
 21
-78.5
 31
0.0
100
AcDbText
 73
2
  0
TEXT
  5
C0
330
17
100
AcDbEntity
  8
TABLE
100
AcDbText
 10
29.75
 20
-78.5
 30
0.0
 40
3.5
  1
5.0
 41
0.7
 72
1
 11
29.75
 21
-78.5
 31
0.0
100
AcDbText
 73
2
  0
TEXT
  5
C1
330
17
100
AcDbEntity
  8
TABLE
100
AcDbText
 10
47.25
 20
-78.5
 30
0.0
 40
3.5
  1
6.0
 41
0.7
 72
1
 11
47.25
 21
-78.5
 31
0.0
100
AcDbText
 73
2
  0
TEXT
  5
C2
330
17
100
AcDbEntity
  8
TABLE
100
AcDbText
 10
66.15
 20
-78.5
 30
0.0
 40
3.5
  1
1/3000.0
 41
0.7
 72
1
 11
66.15
 21
-78.5
 31
0.0
100
AcDbText
 73
2
  0
TEXT
  5
C3
330
17
100
AcDbEntity
  8
TABLE
100
AcDbText
 10
83.3
 20
-78.5
 30
0.0
 40
3.5
  1
0.014
 41
0.7
 72
1
 11
83.3
 21
-78.5
 31
0.0
100
AcDbText
 73
2
  0
TEXT
  5
C4
330
17
100
AcDbEntity
  8
TABLE
100
AcDbText
 10
100.1
 20
-78.5
 30
0.0
 40
3.5
  1
1.0
 41
0.7
 72
1
 11
100.1
 21
-78.5
 31
0.0
100
AcDbText
 73
2
  0
TEXT
  5
C5
330
17
100
AcDbEntity
  8
TABLE
100
AcDbText
 10
116.2
 20
-78.5
 30
0.0
 40
3.5
  1
1.8
 41
0.7
 72
1
 11
116.2
 21
-78.5
 31
0.0
100
AcDbText
 73
2
  0
TEXT
  5
C6
330
17
100
AcDbEntity
  8
TABLE
100
AcDbText
 10
128.8
 20
-78.5
 30
0.0
 40
3.5
  1
2.14
 41
0.7
 72
1
 11
128.8
 21
-78.5
 31
0.0
100
AcDbText
 73
2
  0
TEXT
  5
C7
330
17
100
AcDbEntity
  8
TABLE
100
AcDbText
 10
141.39999999999998
 20
-78.5
 30
0.0
 40
3.5
  1
0.3
 41
0.7
 72
1
 11
141.39999999999998
 21
-78.5
 31
0.0
100
AcDbText
 73
2
  0
TEXT
  5
C8
330
17
100
AcDbEntity
  8
TABLE
100
AcDbText
 10
157.5
 20
-78.5
 30
0.0
 40
3.5
  1
0.2×0.2
 41
0.7
 72
1
 11
157.5
 21
-78.5
 31
0.0
100
AcDbText
 73
2
  0
TEXT
  5
C9
330
17
100
AcDbEntity
  8
TABLE
100
AcDbText
 10
178.14999999999998
 20
-78.5
 30
0.0
 40
3.5
  1
1.409
 41
0.7
 72
1
 11
178.14999999999998
 21
-78.5
 31
0.0
100
AcDbText
 73
2
  0
TEXT
  5
CA
330
17
100
AcDbEntity
  8
TABLE
100
AcDbText
 10
199.85
 20
-78.5
 30
0.0
 40
3.5
  1
1.546
 41
0.7
 72
1
 11
199.85
 21
-78.5
 31
0.0
100
AcDbText
 73
2
  0
TEXT
  5
CB
330
17
100
AcDbEntity
  8
TABLE
100
AcDbText
 10
219.45
 20
-78.5
 30
0.0
 40
3.5
  1
1.106
 41
0.7
 72
1
 11
219.45
 21
-78.5
 31
0.0
100
AcDbText
 73
2
  0
TEXT
  5
CC
330
17
100
AcDbEntity
  8
TABLE
100
AcDbText
 10
10.5
 20
-85.5
 30
0.0
 40
3.5
  1
第二流量段
 41
0.7
 72
1
 11
10.5
 21
-85.5
 31
0.0
100
AcDbText
 73
2
  0
TEXT
  5
CD
330
17
100
AcDbEntity
  8
TABLE
100
AcDbText
 10
29.75
 20
-85.5
 30
0.0
 40
3.5
  1
4.0
 41
0.7
 72
1
 11
29.75
 21
-85.5
 31
0.0
100
AcDbText
 73
2
  0
TEXT
  5
CE
330
17
100
AcDbEntity
  8
TABLE
100
AcDbText
 10
47.25
 20
-85.5
 30
0.0
 40
3.5
  1
5.0
 41
0.7
 72
1
 11
47.25
 21
-85.5
 31
0.0
100
AcDbText
 73
2
  0
TEXT
  5
CF
330
17
100
AcDbEntity
  8
TABLE
100
AcDbText
 10
66.15
 20
-85.5
 30
0.0
 40
3.5
  1
1/3000.0
 41
0.7
 72
1
 11
66.15
 21
-85.5
 31
0.0
100
AcDbText
 73
2
  0
TEXT
  5
D0
330
17
100
AcDbEntity
  8
TABLE
100
AcDbText
 10
83.3
 20
-85.5
 30
0.0
 40
3.5
  1
0.014
 41
0.7
 72
1
 11
83.3
 21
-85.5
 31
0.0
100
AcDbText
 73
2
  0
TEXT
  5
D1
330
17
100
AcDbEntity
  8
TABLE
100
AcDbText
 10
100.1
 20
-85.5
 30
0.0
 40
3.5
  1
1.0
 41
0.7
 72
1
 11
100.1
 21
-85.5
 31
0.0
100
AcDbText
 73
2
  0
TEXT
  5
D2
330
17
100
AcDbEntity
  8
TABLE
100
AcDbText
 10
116.2
 20
-85.5
 30
0.0
 40
3.5
  1
1.8
 41
0.7
 72
1
 11
116.2
 21
-85.5
 31
0.0
100
AcDbText
 73
2
  0
TEXT
  5
D3
330
17
100
AcDbEntity
  8
TABLE
100
AcDbText
 10
128.8
 20
-85.5
 30
0.0
 40
3.5
  1
1.96
 41
0.7
 72
1
 11
128.8
 21
-85.5
 31
0.0
100
AcDbText
 73
2
  0
TEXT
  5
D4
330
17
100
AcDbEntity
  8
TABLE
100
AcDbText
 10
141.39999999999998
 20
-85.5
 30
0.0
 40
3.5
  1
0.3
 41
0.7
 72
1
 11
141.39999999999998
 21
-85.5
 31
0.0
100
AcDbText
 73
2
  0
TEXT
  5
D5
330
17
100
AcDbEntity
  8
TABLE
100
AcDbText
 10
157.5
 20
-85.5
 30
0.0
 40
3.5
  1
0.2×0.2
 41
0.7
 72
1
 11
157.5
 21
-85.5
 31
0.0
100
AcDbText
 73
2
  0
TEXT
  5
D6
330
17
100
AcDbEntity
  8
TABLE
100
AcDbText
 10
178.14999999999998
 20
-85.5
 30
0.0
 40
3.5
  1
1.254
 41
0.7
 72
1
 11
178.14999999999998
 21
-85.5
 31
0.0
100
AcDbText
 73
2
  0
TEXT
  5
D7
330
17
100
AcDbEntity
  8
TABLE
100
AcDbText
 10
199.85
 20
-85.5
 30
0.0
 40
3.5
  1
1.408
 41
0.7
 72
1
 11
199.85
 21
-85.5
 31
0.0
100
AcDbText
 73
2
  0
TEXT
  5
D8
330
17
100
AcDbEntity
  8
TABLE
100
AcDbText
 10
219.45
 20
-85.5
 30
0.0
 40
3.5
  1
1.044
 41
0.7
 72
1
 11
219.45
 21
-85.5
 31
0.0
100
AcDbText
 73
2
  0
LINE
  5
D9
330
17
100
AcDbEntity
  8
TABLE
100
AcDbLine
 10
0.0
 20
-97.0
 30
0.0
 11
258.29999999999995
 21
-97.0
 31
0.0
  0
LINE
  5
DA
330
17
100
AcDbEntity
  8
TABLE
100
AcDbLine
 10
0.0
 20
-107.0
 30
0.0
 11
258.29999999999995
 21
-107.0
 31
0.0
  0
LINE
  5
DB
330
17
100
AcDbEntity
  8
TABLE
100
AcDbLine
 10
0.0
 20
-97.0
 30
0.0
 11
0.0
 21
-107.0
 31
0.0
  0
LINE
  5
DC
330
17
100
AcDbEntity
  8
TABLE
100
AcDbLine
 10
258.29999999999995
 20
-97.0
 30
0.0
 11
258.29999999999995
 21
-107.0
 31
0.0
  0
LINE
  5
DD
330
17
100
AcDbEntity
  8
TABLE
100
AcDbLine
 10
21.0
 20
-117.0
 30
0.0
 11
38.5
 21
-117.0
 31
0.0
  0
LINE
  5
DE
330
17
100
AcDbEntity
  8
TABLE
100
AcDbLine
 10
38.5
 20
-117.0
 30
0.0
 11
56.0
 21
-117.0
 31
0.0
  0
LINE
  5
DF
330
17
100
AcDbEntity
  8
TABLE
100
AcDbLine
 10
107.8
 20
-117.0
 30
0.0
 11
120.39999999999999
 21
-117.0
 31
0.0
  0
LINE
  5
E0
330
17
100
AcDbEntity
  8
TABLE
100
AcDbLine
 10
120.39999999999999
 20
-117.0
 30
0.0
 11
136.5
 21
-117.0
 31
0.0
  0
LINE
  5
E1
330
17
100
AcDbEntity
  8
TABLE
100
AcDbLine
 10
136.5
 20
-117.0
 30
0.0
 11
156.1
 21
-117.0
 31
0.0
  0
LINE
  5
E2
330
17
100
AcDbEntity
  8
TABLE
100
AcDbLine
 10
156.1
 20
-117.0
 30
0.0
 11
174.29999999999998
 21
-117.0
 31
0.0
  0
LINE
  5
E3
330
17
100
AcDbEntity
  8
TABLE
100
AcDbLine
 10
174.29999999999998
 20
-117.0
 30
0.0
 11
197.39999999999998
 21
-117.0
 31
0.0
  0
LINE
  5
E4
330
17
100
AcDbEntity
  8
TABLE
100
AcDbLine
 10
197.39999999999998
 20
-117.0
 30
0.0
 11
219.09999999999997
 21
-117.0
 31
0.0
  0
LINE
  5
E5
330
17
100
AcDbEntity
  8
TABLE
100
AcDbLine
 10
219.09999999999997
 20
-117.0
 30
0.0
 11
240.79999999999995
 21
-117.0
 31
0.0
  0
LINE
  5
E6
330
17
100
AcDbEntity
  8
TABLE
100
AcDbLine
 10
240.79999999999995
 20
-117.0
 30
0.0
 11
258.29999999999995
 21
-117.0
 31
0.0
  0
LINE
  5
E7
330
17
100
AcDbEntity
  8
TABLE
100
AcDbLine
 10
0.0
 20
-127.0
 30
0.0
 11
258.29999999999995
 21
-127.0
 31
0.0
  0
LINE
  5
E8
330
17
100
AcDbEntity
  8
TABLE
100
AcDbLine
 10
0.0
 20
-107.0
 30
0.0
 11
0.0
 21
-127.0
 31
0.0
  0
LINE
  5
E9
330
17
100
AcDbEntity
  8
TABLE
100
AcDbLine
 10
21.0
 20
-107.0
 30
0.0
 11
21.0
 21
-127.0
 31
0.0
  0
LINE
  5
EA
330
17
100
AcDbEntity
  8
TABLE
100
AcDbLine
 10
38.5
 20
-107.0
 30
0.0
 11
38.5
 21
-127.0
 31
0.0
  0
LINE
  5
EB
330
17
100
AcDbEntity
  8
TABLE
100
AcDbLine
 10
56.0
 20
-107.0
 30
0.0
 11
56.0
 21
-127.0
 31
0.0
  0
LINE
  5
EC
330
17
100
AcDbEntity
  8
TABLE
100
AcDbLine
 10
73.5
 20
-107.0
 30
0.0
 11
73.5
 21
-127.0
 31
0.0
  0
LINE
  5
ED
330
17
100
AcDbEntity
  8
TABLE
100
AcDbLine
 10
93.8
 20
-107.0
 30
0.0
 11
93.8
 21
-127.0
 31
0.0
  0
LINE
  5
EE
330
17
100
AcDbEntity
  8
TABLE
100
AcDbLine
 10
107.8
 20
-107.0
 30
0.0
 11
107.8
 21
-127.0
 31
0.0
  0
LINE
  5
EF
330
17
100
AcDbEntity
  8
TABLE
100
AcDbLine
 10
120.39999999999999
 20
-107.0
 30
0.0
 11
120.39999999999999
 21
-127.0
 31
0.0
  0
LINE
  5
F0
330
17
100
AcDbEntity
  8
TABLE
100
AcDbLine
 10
136.5
 20
-107.0
 30
0.0
 11
136.5
 21
-127.0
 31
0.0
  0
LINE
  5
F1
330
17
100
AcDbEntity
  8
TABLE
100
AcDbLine
 10
156.1
 20
-107.0
 30
0.0
 11
156.1
 21
-127.0
 31
0.0
  0
LINE
  5
F2
330
17
100
AcDbEntity
  8
TABLE
100
AcDbLine
 10
174.29999999999998
 20
-107.0
 30
0.0
 11
174.29999999999998
 21
-127.0
 31
0.0
  0
LINE
  5
F3
330
17
100
AcDbEntity
  8
TABLE
100
AcDbLine
 10
197.39999999999998
 20
-107.0
 30
0.0
 11
197.39999999999998
 21
-127.0
 31
0.0
  0
LINE
  5
F4
330
17
100
AcDbEntity
  8
TABLE
100
AcDbLine
 10
219.09999999999997
 20
-107.0
 30
0.0
 11
219.09999999999997
 21
-127.0
 31
0.0
  0
LINE
  5
F5
330
17
100
AcDbEntity
  8
TABLE
100
AcDbLine
 10
240.79999999999995
 20
-107.0
 30
0.0
 11
240.79999999999995
 21
-127.0
 31
0.0
  0
LINE
  5
F6
330
17
100
AcDbEntity
  8
TABLE
100
AcDbLine
 10
258.29999999999995
 20
-107.0
 30
0.0
 11
258.29999999999995
 21
-127.0
 31
0.0
  0
LINE
  5
F7
330
17
100
AcDbEntity
  8
TABLE
100
AcDbLine
 10
0.0
 20
-127.0
 30
0.0
 11
258.29999999999995
 21
-127.0
 31
0.0
  0
LINE
  5
F8
330
17
100
AcDbEntity
  8
TABLE
100
AcDbLine
 10
0.0
 20
-169.0
 30
0.0
 11
258.29999999999995
 21
-169.0
 31
0.0
  0
LINE
  5
F9
330
17
100
AcDbEntity
  8
TABLE
100
AcDbLine
 10
56.0
 20
-134.0
 30
0.0
 11
258.29999999999995
 21
-134.0
 31
0.0
  0
LINE
  5
FA
330
17
100
AcDbEntity
  8
TABLE
100
AcDbLine
 10
56.0
 20
-141.0
 30
0.0
 11
258.29999999999995
 21
-141.0
 31
0.0
  0
LINE
  5
FB
330
17
100
AcDbEntity
  8
TABLE
100
AcDbLine
 10
0.0
 20
-148.0
 30
0.0
 11
258.29999999999995
 21
-148.0
 31
0.0
  0
LINE
  5
FC
330
17
100
AcDbEntity
  8
TABLE
100
AcDbLine
 10
56.0
 20
-155.0
 30
0.0
 11
258.29999999999995
 21
-155.0
 31
0.0
  0
LINE
  5
FD
330
17
100
AcDbEntity
  8
TABLE
100
AcDbLine
 10
56.0
 20
-162.0
 30
0.0
 11
258.29999999999995
 21
-162.0
 31
0.0
  0
LINE
  5
FE
330
17
100
AcDbEntity
  8
TABLE
100
AcDbLine
 10
0.0
 20
-127.0
 30
0.0
 11
0.0
 21
-169.0
 31
0.0
  0
LINE
  5
FF
330
17
100
AcDbEntity
  8
TABLE
100
AcDbLine
 10
21.0
 20
-127.0
 30
0.0
 11
21.0
 21
-169.0
 31
0.0
  0
LINE
  5
100
330
17
100
AcDbEntity
  8
TABLE
100
AcDbLine
 10
38.5
 20
-127.0
 30
0.0
 11
38.5
 21
-169.0
 31
0.0
  0
LINE
  5
101
330
17
100
AcDbEntity
  8
TABLE
100
AcDbLine
 10
56.0
 20
-127.0
 30
0.0
 11
56.0
 21
-169.0
 31
0.0
  0
LINE
  5
102
330
17
100
AcDbEntity
  8
TABLE
100
AcDbLine
 10
73.5
 20
-127.0
 30
0.0
 11
73.5
 21
-169.0
 31
0.0
  0
LINE
  5
103
330
17
100
AcDbEntity
  8
TABLE
100
AcDbLine
 10
93.8
 20
-127.0
 30
0.0
 11
93.8
 21
-169.0
 31
0.0
  0
LINE
  5
104
330
17
100
AcDbEntity
  8
TABLE
100
AcDbLine
 10
107.8
 20
-127.0
 30
0.0
 11
107.8
 21
-169.0
 31
0.0
  0
LINE
  5
105
330
17
100
AcDbEntity
  8
TABLE
100
AcDbLine
 10
120.39999999999999
 20
-127.0
 30
0.0
 11
120.39999999999999
 21
-169.0
 31
0.0
  0
LINE
  5
106
330
17
100
AcDbEntity
  8
TABLE
100
AcDbLine
 10
136.5
 20
-127.0
 30
0.0
 11
136.5
 21
-169.0
 31
0.0
  0
LINE
  5
107
330
17
100
AcDbEntity
  8
TABLE
100
AcDbLine
 10
156.1
 20
-127.0
 30
0.0
 11
156.1
 21
-169.0
 31
0.0
  0
LINE
  5
108
330
17
100
AcDbEntity
  8
TABLE
100
AcDbLine
 10
174.29999999999998
 20
-127.0
 30
0.0
 11
174.29999999999998
 21
-169.0
 31
0.0
  0
LINE
  5
109
330
17
100
AcDbEntity
  8
TABLE
100
AcDbLine
 10
197.39999999999998
 20
-127.0
 30
0.0
 11
197.39999999999998
 21
-169.0
 31
0.0
  0
LINE
  5
10A
330
17
100
AcDbEntity
  8
TABLE
100
AcDbLine
 10
219.09999999999997
 20
-127.0
 30
0.0
 11
219.09999999999997
 21
-169.0
 31
0.0
  0
LINE
  5
10B
330
17
100
AcDbEntity
  8
TABLE
100
AcDbLine
 10
240.79999999999995
 20
-127.0
 30
0.0
 11
240.79999999999995
 21
-169.0
 31
0.0
  0
LINE
  5
10C
330
17
100
AcDbEntity
  8
TABLE
100
AcDbLine
 10
258.29999999999995
 20
-127.0
 30
0.0
 11
258.29999999999995
 21
-169.0
 31
0.0
  0
TEXT
  5
10D
330
17
100
AcDbEntity
  8
TABLE
100
AcDbText
 10
129.14999999999998
 20
-102.0
 30
0.0
 40
5.0
  1
隧洞断面尺寸及水力要素表
 41
0.7
 72
1
 11
129.14999999999998
 21
-102.0
 31
0.0
100
AcDbText
 73
2
  0
TEXT
  5
10E
330
17
100
AcDbEntity
  8
TABLE
100
AcDbText
 10
10.5
 20
-117.0
 30
0.0
 40
3.5
  1
流量段
 41
0.7
 72
1
 11
10.5
 21
-117.0
 31
0.0
100
AcDbText
 73
2
  0
TEXT
  5
10F
330
17
100
AcDbEntity
  8
TABLE
100
AcDbText
 10
29.75
 20
-112.0
 30
0.0
 40
3.5
  1
设计流量
 41
0.7
 72
1
 11
29.75
 21
-112.0
 31
0.0
100
AcDbText
 73
2
  0
MTEXT
  5
110
330
17
100
AcDbEntity
  8
TABLE
100
AcDbMText
 10
29.75
 20
-122.0
 30
0.0
 40
3.5
 71
5
  1
m{\H0.7x;\S3^ ;}/s
  0
TEXT
  5
111
330
17
100
AcDbEntity
  8
TABLE
100
AcDbText
 10
47.25
 20
-112.0
 30
0.0
 40
3.5
  1
加大流量
 41
0.7
 72
1
 11
47.25
 21
-112.0
 31
0.0
100
AcDbText
 73
2
  0
MTEXT
  5
112
330
17
100
AcDbEntity
  8
TABLE
100
AcDbMText
 10
47.25
 20
-122.0
 30
0.0
 40
3.5
 71
5
  1
m{\H0.7x;\S3^ ;}/s
  0
TEXT
  5
113
330
17
100
AcDbEntity
  8
TABLE
100
AcDbText
 10
64.75
 20
-117.0
 30
0.0
 40
3.5
  1
围岩类型
 41
0.7
 72
1
 11
64.75
 21
-117.0
 31
0.0
100
AcDbText
 73
2
  0
TEXT
  5
114
330
17
100
AcDbEntity
  8
TABLE
100
AcDbText
 10
83.65
 20
-117.0
 30
0.0
 40
3.5
  1
1/底坡
 41
0.7
 72
1
 11
83.65
 21
-117.0
 31
0.0
100
AcDbText
 73
2
  0
TEXT
  5
115
330
17
100
AcDbEntity
  8
TABLE
100
AcDbText
 10
100.8
 20
-117.0
 30
0.0
 40
3.5
  1
糙率
 41
0.7
 72
1
 11
100.8
 21
-117.0
 31
0.0
100
AcDbText
 73
2
  0
TEXT
  5
116
330
17
100
AcDbEntity
  8
TABLE
100
AcDbText
 10
114.1
 20
-112.0
 30
0.0
 40
3.5
  1
底宽B
 41
0.7
 72
1
 11
114.1
 21
-112.0
 31
0.0
100
AcDbText
 73
2
  0
TEXT
  5
117
330
17
100
AcDbEntity
  8
TABLE
100
AcDbText
 10
114.1
 20
-122.0
 30
0.0
 40
3.5
  1
m
 41
0.7
 72
1
 11
114.1
 21
-122.0
 31
0.0
100
AcDbText
 73
2
  0
TEXT
  5
118
330
17
100
AcDbEntity
  8
TABLE
100
AcDbText
 10
128.45
 20
-112.0
 30
0.0
 40
3.5
  1
直墙高H
 41
0.7
 72
1
 11
128.45
 21
-112.0
 31
0.0
100
AcDbText
 73
2
  0
TEXT
  5
119
330
17
100
AcDbEntity
  8
TABLE
100
AcDbText
 10
128.45
 20
-122.0
 30
0.0
 40
3.5
  1
m
 41
0.7
 72
1
 11
128.45
 21
-122.0
 31
0.0
100
AcDbText
 73
2
  0
TEXT
  5
11A
330
17
100
AcDbEntity
  8
TABLE
100
AcDbText
 10
146.3
 20
-112.0
 30
0.0
 40
3.5
  1
顶拱半径R
 41
0.7
 72
1
 11
146.3
 21
-112.0
 31
0.0
100
AcDbText
 73
2
  0
TEXT
  5
11B
330
17
100
AcDbEntity
  8
TABLE
100
AcDbText
 10
146.3
 20
-122.0
 30
0.0
 40
3.5
  1
m
 41
0.7
 72
1
 11
146.3
 21
-122.0
 31
0.0
100
AcDbText
 73
2
  0
MTEXT
  5
11C
330
17
100
AcDbEntity
  8
TABLE
100
AcDbMText
 10
165.2
 20
-112.0
 30
0.0
 40
3.5
 71
5
  1
底板厚t{\H0.7x;\S^ 0;}
  0
TEXT
  5
11D
330
17
100
AcDbEntity
  8
TABLE
100
AcDbText
 10
165.2
 20
-122.0
 30
0.0
 40
3.5
  1
m
 41
0.7
 72
1
 11
165.2
 21
-122.0
 31
0.0
100
AcDbText
 73
2
  0
TEXT
  5
11E
330
17
100
AcDbEntity
  8
TABLE
100
AcDbText
 10
185.84999999999997
 20
-112.0
 30
0.0
 40
3.5
  1
边墙顶拱厚t
 41
0.7
 72
1
 11
185.84999999999997
 21
-112.0
 31
0.0
100
AcDbText
 73
2
  0
TEXT
  5
11F
330
17
100
AcDbEntity
  8
TABLE
100
AcDbText
 10
185.84999999999997
 20
-122.0
 30
0.0
 40
3.5
  1
m
 41
0.7
 72
1
 11
185.84999999999997
 21
-122.0
 31
0.0
100
AcDbText
 73
2
  0
MTEXT
  5
120
330
17
100
AcDbEntity
  8
TABLE
100
AcDbMText
 10
208.24999999999997
 20
-112.0
 30
0.0
 40
3.5
 71
5
  1
设计水深H{\H0.7x;\S^ 1;}
  0
TEXT
  5
121
330
17
100
AcDbEntity
  8
TABLE
100
AcDbText
 10
208.24999999999997
 20
-122.0
 30
0.0
 40
3.5
  1
m
 41
0.7
 72
1
 11
208.24999999999997
 21
-122.0
 31
0.0
100
AcDbText
 73
2
  0
MTEXT
  5
122
330
17
100
AcDbEntity
  8
TABLE
100
AcDbMText
 10
229.94999999999996
 20
-112.0
 30
0.0
 40
3.5
 71
5
  1
加大水深H{\H0.7x;\S^ 2;}
  0
TEXT
  5
123
330
17
100
AcDbEntity
  8
TABLE
100
AcDbText
 10
229.94999999999996
 20
-122.0
 30
0.0
 40
3.5
  1
m
 41
0.7
 72
1
 11
229.94999999999996
 21
-122.0
 31
0.0
100
AcDbText
 73
2
  0
TEXT
  5
124
330
17
100
AcDbEntity
  8
TABLE
100
AcDbText
 10
249.54999999999995
 20
-112.0
 30
0.0
 40
3.5
  1
设计流速
 41
0.7
 72
1
 11
249.54999999999995
 21
-112.0
 31
0.0
100
AcDbText
 73
2
  0
TEXT
  5
125
330
17
100
AcDbEntity
  8
TABLE
100
AcDbText
 10
249.54999999999995
 20
-122.0
 30
0.0
 40
3.5
  1
m/s
 41
0.7
 72
1
 11
249.54999999999995
 21
-122.0
 31
0.0
100
AcDbText
 73
2
  0
TEXT
  5
126
330
17
100
AcDbEntity
  8
TABLE
100
AcDbText
 10
10.5
 20
-137.5
 30
0.0
 40
3.5
  1
第二流量段
 41
0.7
 72
1
 11
10.5
 21
-137.5
 31
0.0
100
AcDbText
 73
2
  0
TEXT
  5
127
330
17
100
AcDbEntity
  8
TABLE
100
AcDbText
 10
29.75
 20
-137.5
 30
0.0
 40
3.5
  1
4.0
 41
0.7
 72
1
 11
29.75
 21
-137.5
 31
0.0
100
AcDbText
 73
2
  0
TEXT
  5
128
330
17
100
AcDbEntity
  8
TABLE
100
AcDbText
 10
47.25
 20
-137.5
 30
0.0
 40
3.5
  1
5.0
 41
0.7
 72
1
 11
47.25
 21
-137.5
 31
0.0
100
AcDbText
 73
2
  0
TEXT
  5
129
330
17
100
AcDbEntity
  8
TABLE
100
AcDbText
 10
64.75
 20
-130.5
 30
0.0
 40
3.5
  1
III类
 41
0.7
 72
1
 11
64.75
 21
-130.5
 31
0.0
100
AcDbText
 73
2
  0
TEXT
  5
12A
330
17
100
AcDbEntity
  8
TABLE
100
AcDbText
 10
83.65
 20
-130.5
 30
0.0
 40
3.5
  1
1/2000.0
 41
0.7
 72
1
 11
83.65
 21
-130.5
 31
0.0
100
AcDbText
 73
2
  0
TEXT
  5
12B
330
17
100
AcDbEntity
  8
TABLE
100
AcDbText
 10
100.8
 20
-130.5
 30
0.0
 40
3.5
  1
0.014
 41
0.7
 72
1
 11
100.8
 21
-130.5
 31
0.0
100
AcDbText
 73
2
  0
TEXT
  5
12C
330
17
100
AcDbEntity
  8
TABLE
100
AcDbText
 10
114.1
 20
-130.5
 30
0.0
 40
3.5
  1
2.5
 41
0.7
 72
1
 11
114.1
 21
-130.5
 31
0.0
100
AcDbText
 73
2
  0
TEXT
  5
12D
330
17
100
AcDbEntity
  8
TABLE
100
AcDbText
 10
128.45
 20
-130.5
 30
0.0
 40
3.5
  1
1.15
 41
0.7
 72
1
 11
128.45
 21
-130.5
 31
0.0
100
AcDbText
 73
2
  0
TEXT
  5
12E
330
17
100
AcDbEntity
  8
TABLE
100
AcDbText
 10
146.3
 20
-130.5
 30
0.0
 40
3.5
  1
1.155
 41
0.7
 72
1
 11
146.3
 21
-130.5
 31
0.0
100
AcDbText
 73
2
  0
TEXT
  5
12F
330
17
100
AcDbEntity
  8
TABLE
100
AcDbText
 10
165.2
 20
-130.5
 30
0.0
 40
3.5
  1
0.35
 41
0.7
 72
1
 11
165.2
 21
-130.5
 31
0.0
100
AcDbText
 73
2
  0
TEXT
  5
130
330
17
100
AcDbEntity
  8
TABLE
100
AcDbText
 10
185.84999999999997
 20
-130.5
 30
0.0
 40
3.5
  1
0.3
 41
0.7
 72
1
 11
185.84999999999997
 21
-130.5
 31
0.0
100
AcDbText
 73
2
  0
TEXT
  5
131
330
17
100
AcDbEntity
  8
TABLE
100
AcDbText
 10
208.24999999999997
 20
-130.5
 30
0.0
 40
3.5
  1
1.34
 41
0.7
 72
1
 11
208.24999999999997
 21
-130.5
 31
0.0
100
AcDbText
 73
2
  0
TEXT
  5
132
330
17
100
AcDbEntity
  8
TABLE
100
AcDbText
 10
229.94999999999996
 20
-130.5
 30
0.0
 40
3.5
  1
1.79
 41
0.7
 72
1
 11
229.94999999999996
 21
-130.5
 31
0.0
100
AcDbText
 73
2
  0
TEXT
  5
133
330
17
100
AcDbEntity
  8
TABLE
100
AcDbText
 10
249.54999999999995
 20
-130.5
 30
0.0
 40
3.5
  1
1.194
 41
0.7
 72
1
 11
249.54999999999995
 21
-130.5
 31
0.0
100
AcDbText
 73
2
  0
TEXT
  5
134
330
17
100
AcDbEntity
  8
TABLE
100
AcDbText
 10
64.75
 20
-137.5
 30
0.0
 40
3.5
  1
IV类
 41
0.7
 72
1
 11
64.75
 21
-137.5
 31
0.0
100
AcDbText
 73
2
  0
TEXT
  5
135
330
17
100
AcDbEntity
  8
TABLE
100
AcDbText
 10
83.65
 20
-137.5
 30
0.0
 40
3.5
  1
1/2000.0
 41
0.7
 72
1
 11
83.65
 21
-137.5
 31
0.0
100
AcDbText
 73
2
  0
TEXT
  5
136
330
17
100
AcDbEntity
  8
TABLE
100
AcDbText
 10
100.8
 20
-137.5
 30
0.0
 40
3.5
  1
0.014
 41
0.7
 72
1
 11
100.8
 21
-137.5
 31
0.0
100
AcDbText
 73
2
  0
TEXT
  5
137
330
17
100
AcDbEntity
  8
TABLE
100
AcDbText
 10
114.1
 20
-137.5
 30
0.0
 40
3.5
  1
2.5
 41
0.7
 72
1
 11
114.1
 21
-137.5
 31
0.0
100
AcDbText
 73
2
  0
TEXT
  5
138
330
17
100
AcDbEntity
  8
TABLE
100
AcDbText
 10
128.45
 20
-137.5
 30
0.0
 40
3.5
  1
1.15
 41
0.7
 72
1
 11
128.45
 21
-137.5
 31
0.0
100
AcDbText
 73
2
  0
TEXT
  5
139
330
17
100
AcDbEntity
  8
TABLE
100
AcDbText
 10
146.3
 20
-137.5
 30
0.0
 40
3.5
  1
1.155
 41
0.7
 72
1
 11
146.3
 21
-137.5
 31
0.0
100
AcDbText
 73
2
  0
TEXT
  5
13A
330
17
100
AcDbEntity
  8
TABLE
100
AcDbText
 10
165.2
 20
-137.5
 30
0.0
 40
3.5
  1
0.4
 41
0.7
 72
1
 11
165.2
 21
-137.5
 31
0.0
100
AcDbText
 73
2
  0
TEXT
  5
13B
330
17
100
AcDbEntity
  8
TABLE
100
AcDbText
 10
185.84999999999997
 20
-137.5
 30
0.0
 40
3.5
  1
0.4
 41
0.7
 72
1
 11
185.84999999999997
 21
-137.5
 31
0.0
100
AcDbText
 73
2
  0
TEXT
  5
13C
330
17
100
AcDbEntity
  8
TABLE
100
AcDbText
 10
208.24999999999997
 20
-137.5
 30
0.0
 40
3.5
  1
1.34
 41
0.7
 72
1
 11
208.24999999999997
 21
-137.5
 31
0.0
100
AcDbText
 73
2
  0
TEXT
  5
13D
330
17
100
AcDbEntity
  8
TABLE
100
AcDbText
 10
229.94999999999996
 20
-137.5
 30
0.0
 40
3.5
  1
1.79
 41
0.7
 72
1
 11
229.94999999999996
 21
-137.5
 31
0.0
100
AcDbText
 73
2
  0
TEXT
  5
13E
330
17
100
AcDbEntity
  8
TABLE
100
AcDbText
 10
249.54999999999995
 20
-137.5
 30
0.0
 40
3.5
  1
1.194
 41
0.7
 72
1
 11
249.54999999999995
 21
-137.5
 31
0.0
100
AcDbText
 73
2
  0
TEXT
  5
13F
330
17
100
AcDbEntity
  8
TABLE
100
AcDbText
 10
64.75
 20
-144.5
 30
0.0
 40
3.5
  1
V类
 41
0.7
 72
1
 11
64.75
 21
-144.5
 31
0.0
100
AcDbText
 73
2
  0
TEXT
  5
140
330
17
100
AcDbEntity
  8
TABLE
100
AcDbText
 10
83.65
 20
-144.5
 30
0.0
 40
3.5
  1
1/2000.0
 41
0.7
 72
1
 11
83.65
 21
-144.5
 31
0.0
100
AcDbText
 73
2
  0
TEXT
  5
141
330
17
100
AcDbEntity
  8
TABLE
100
AcDbText
 10
100.8
 20
-144.5
 30
0.0
 40
3.5
  1
0.014
 41
0.7
 72
1
 11
100.8
 21
-144.5
 31
0.0
100
AcDbText
 73
2
  0
TEXT
  5
142
330
17
100
AcDbEntity
  8
TABLE
100
AcDbText
 10
114.1
 20
-144.5
 30
0.0
 40
3.5
  1
2.5
 41
0.7
 72
1
 11
114.1
 21
-144.5
 31
0.0
100
AcDbText
 73
2
  0
TEXT
  5
143
330
17
100
AcDbEntity
  8
TABLE
100
AcDbText
 10
128.45
 20
-144.5
 30
0.0
 40
3.5
  1
1.15
 41
0.7
 72
1
 11
128.45
 21
-144.5
 31
0.0
100
AcDbText
 73
2
  0
TEXT
  5
144
330
17
100
AcDbEntity
  8
TABLE
100
AcDbText
 10
146.3
 20
-144.5
 30
0.0
 40
3.5
  1
1.155
 41
0.7
 72
1
 11
146.3
 21
-144.5
 31
0.0
100
AcDbText
 73
2
  0
TEXT
  5
145
330
17
100
AcDbEntity
  8
TABLE
100
AcDbText
 10
165.2
 20
-144.5
 30
0.0
 40
3.5
  1
0.5
 41
0.7
 72
1
 11
165.2
 21
-144.5
 31
0.0
100
AcDbText
 73
2
  0
TEXT
  5
146
330
17
100
AcDbEntity
  8
TABLE
100
AcDbText
 10
185.84999999999997
 20
-144.5
 30
0.0
 40
3.5
  1
0.5
 41
0.7
 72
1
 11
185.84999999999997
 21
-144.5
 31
0.0
100
AcDbText
 73
2
  0
TEXT
  5
147
330
17
100
AcDbEntity
  8
TABLE
100
AcDbText
 10
208.24999999999997
 20
-144.5
 30
0.0
 40
3.5
  1
1.34
 41
0.7
 72
1
 11
208.24999999999997
 21
-144.5
 31
0.0
100
AcDbText
 73
2
  0
TEXT
  5
148
330
17
100
AcDbEntity
  8
TABLE
100
AcDbText
 10
229.94999999999996
 20
-144.5
 30
0.0
 40
3.5
  1
1.79
 41
0.7
 72
1
 11
229.94999999999996
 21
-144.5
 31
0.0
100
AcDbText
 73
2
  0
TEXT
  5
149
330
17
100
AcDbEntity
  8
TABLE
100
AcDbText
 10
249.54999999999995
 20
-144.5
 30
0.0
 40
3.5
  1
1.194
 41
0.7
 72
1
 11
249.54999999999995
 21
-144.5
 31
0.0
100
AcDbText
 73
2
  0
TEXT
  5
14A
330
17
100
AcDbEntity
  8
TABLE
100
AcDbText
 10
10.5
 20
-158.5
 30
0.0
 40
3.5
  1
第三流量段
 41
0.7
 72
1
 11
10.5
 21
-158.5
 31
0.0
100
AcDbText
 73
2
  0
TEXT
  5
14B
330
17
100
AcDbEntity
  8
TABLE
100
AcDbText
 10
29.75
 20
-158.5
 30
0.0
 40
3.5
  1
3.0
 41
0.7
 72
1
 11
29.75
 21
-158.5
 31
0.0
100
AcDbText
 73
2
  0
TEXT
  5
14C
330
17
100
AcDbEntity
  8
TABLE
100
AcDbText
 10
47.25
 20
-158.5
 30
0.0
 40
3.5
  1
3.75
 41
0.7
 72
1
 11
47.25
 21
-158.5
 31
0.0
100
AcDbText
 73
2
  0
TEXT
  5
14D
330
17
100
AcDbEntity
  8
TABLE
100
AcDbText
 10
64.75
 20
-151.5
 30
0.0
 40
3.5
  1
III类
 41
0.7
 72
1
 11
64.75
 21
-151.5
 31
0.0
100
AcDbText
 73
2
  0
TEXT
  5
14E
330
17
100
AcDbEntity
  8
TABLE
100
AcDbText
 10
83.65
 20
-151.5
 30
0.0
 40
3.5
  1
1/2000.0
 41
0.7
 72
1
 11
83.65
 21
-151.5
 31
0.0
100
AcDbText
 73
2
  0
TEXT
  5
14F
330
17
100
AcDbEntity
  8
TABLE
100
AcDbText
 10
100.8
 20
-151.5
 30
0.0
 40
3.5
  1
0.014
 41
0.7
 72
1
 11
100.8
 21
-151.5
 31
0.0
100
AcDbText
 73
2
  0
TEXT
  5
150
330
17
100
AcDbEntity
  8
TABLE
100
AcDbText
 10
114.1
 20
-151.5
 30
0.0
 40
3.5
  1
2.5
 41
0.7
 72
1
 11
114.1
 21
-151.5
 31
0.0
100
AcDbText
 73
2
  0
TEXT
  5
151
330
17
100
AcDbEntity
  8
TABLE
100
AcDbText
 10
128.45
 20
-151.5
 30
0.0
 40
3.5
  1
1.15
 41
0.7
 72
1
 11
128.45
 21
-151.5
 31
0.0
100
AcDbText
 73
2
  0
TEXT
  5
152
330
17
100
AcDbEntity
  8
TABLE
100
AcDbText
 10
146.3
 20
-151.5
 30
0.0
 40
3.5
  1
1.155
 41
0.7
 72
1
 11
146.3
 21
-151.5
 31
0.0
100
AcDbText
 73
2
  0
TEXT
  5
153
330
17
100
AcDbEntity
  8
TABLE
100
AcDbText
 10
165.2
 20
-151.5
 30
0.0
 40
3.5
  1
0.35
 41
0.7
 72
1
 11
165.2
 21
-151.5
 31
0.0
100
AcDbText
 73
2
  0
TEXT
  5
154
330
17
100
AcDbEntity
  8
TABLE
100
AcDbText
 10
185.84999999999997
 20
-151.5
 30
0.0
 40
3.5
  1
0.3
 41
0.7
 72
1
 11
185.84999999999997
 21
-151.5
 31
0.0
100
AcDbText
 73
2
  0
TEXT
  5
155
330
17
100
AcDbEntity
  8
TABLE
100
AcDbText
 10
208.24999999999997
 20
-151.5
 30
0.0
 40
3.5
  1
1.081
 41
0.7
 72
1
 11
208.24999999999997
 21
-151.5
 31
0.0
100
AcDbText
 73
2
  0
TEXT
  5
156
330
17
100
AcDbEntity
  8
TABLE
100
AcDbText
 10
229.94999999999996
 20
-151.5
 30
0.0
 40
3.5
  1
1.39
 41
0.7
 72
1
 11
229.94999999999996
 21
-151.5
 31
0.0
100
AcDbText
 73
2
  0
TEXT
  5
157
330
17
100
AcDbEntity
  8
TABLE
100
AcDbText
 10
249.54999999999995
 20
-151.5
 30
0.0
 40
3.5
  1
1.11
 41
0.7
 72
1
 11
249.54999999999995
 21
-151.5
 31
0.0
100
AcDbText
 73
2
  0
TEXT
  5
158
330
17
100
AcDbEntity
  8
TABLE
100
AcDbText
 10
64.75
 20
-158.5
 30
0.0
 40
3.5
  1
IV类
 41
0.7
 72
1
 11
64.75
 21
-158.5
 31
0.0
100
AcDbText
 73
2
  0
TEXT
  5
159
330
17
100
AcDbEntity
  8
TABLE
100
AcDbText
 10
83.65
 20
-158.5
 30
0.0
 40
3.5
  1
1/2000.0
 41
0.7
 72
1
 11
83.65
 21
-158.5
 31
0.0
100
AcDbText
 73
2
  0
TEXT
  5
15A
330
17
100
AcDbEntity
  8
TABLE
100
AcDbText
 10
100.8
 20
-158.5
 30
0.0
 40
3.5
  1
0.014
 41
0.7
 72
1
 11
100.8
 21
-158.5
 31
0.0
100
AcDbText
 73
2
  0
TEXT
  5
15B
330
17
100
AcDbEntity
  8
TABLE
100
AcDbText
 10
114.1
 20
-158.5
 30
0.0
 40
3.5
  1
2.5
 41
0.7
 72
1
 11
114.1
 21
-158.5
 31
0.0
100
AcDbText
 73
2
  0
TEXT
  5
15C
330
17
100
AcDbEntity
  8
TABLE
100
AcDbText
 10
128.45
 20
-158.5
 30
0.0
 40
3.5
  1
1.15
 41
0.7
 72
1
 11
128.45
 21
-158.5
 31
0.0
100
AcDbText
 73
2
  0
TEXT
  5
15D
330
17
100
AcDbEntity
  8
TABLE
100
AcDbText
 10
146.3
 20
-158.5
 30
0.0
 40
3.5
  1
1.155
 41
0.7
 72
1
 11
146.3
 21
-158.5
 31
0.0
100
AcDbText
 73
2
  0
TEXT
  5
15E
330
17
100
AcDbEntity
  8
TABLE
100
AcDbText
 10
165.2
 20
-158.5
 30
0.0
 40
3.5
  1
0.4
 41
0.7
 72
1
 11
165.2
 21
-158.5
 31
0.0
100
AcDbText
 73
2
  0
TEXT
  5
15F
330
17
100
AcDbEntity
  8
TABLE
100
AcDbText
 10
185.84999999999997
 20
-158.5
 30
0.0
 40
3.5
  1
0.4
 41
0.7
 72
1
 11
185.84999999999997
 21
-158.5
 31
0.0
100
AcDbText
 73
2
  0
TEXT
  5
160
330
17
100
AcDbEntity
  8
TABLE
100
AcDbText
 10
208.24999999999997
 20
-158.5
 30
0.0
 40
3.5
  1
1.081
 41
0.7
 72
1
 11
208.24999999999997
 21
-158.5
 31
0.0
100
AcDbText
 73
2
  0
TEXT
  5
161
330
17
100
AcDbEntity
  8
TABLE
100
AcDbText
 10
229.94999999999996
 20
-158.5
 30
0.0
 40
3.5
  1
1.39
 41
0.7
 72
1
 11
229.94999999999996
 21
-158.5
 31
0.0
100
AcDbText
 73
2
  0
TEXT
  5
162
330
17
100
AcDbEntity
  8
TABLE
100
AcDbText
 10
249.54999999999995
 20
-158.5
 30
0.0
 40
3.5
  1
1.11
 41
0.7
 72
1
 11
249.54999999999995
 21
-158.5
 31
0.0
100
AcDbText
 73
2
  0
TEXT
  5
163
330
17
100
AcDbEntity
  8
TABLE
100
AcDbText
 10
64.75
 20
-165.5
 30
0.0
 40
3.5
  1
V类
 41
0.7
 72
1
 11
64.75
 21
-165.5
 31
0.0
100
AcDbText
 73
2
  0
TEXT
  5
164
330
17
100
AcDbEntity
  8
TABLE
100
AcDbText
 10
83.65
 20
-165.5
 30
0.0
 40
3.5
  1
1/2000.0
 41
0.7
 72
1
 11
83.65
 21
-165.5
 31
0.0
100
AcDbText
 73
2
  0
TEXT
  5
165
330
17
100
AcDbEntity
  8
TABLE
100
AcDbText
 10
100.8
 20
-165.5
 30
0.0
 40
3.5
  1
0.014
 41
0.7
 72
1
 11
100.8
 21
-165.5
 31
0.0
100
AcDbText
 73
2
  0
TEXT
  5
166
330
17
100
AcDbEntity
  8
TABLE
100
AcDbText
 10
114.1
 20
-165.5
 30
0.0
 40
3.5
  1
2.5
 41
0.7
 72
1
 11
114.1
 21
-165.5
 31
0.0
100
AcDbText
 73
2
  0
TEXT
  5
167
330
17
100
AcDbEntity
  8
TABLE
100
AcDbText
 10
128.45
 20
-165.5
 30
0.0
 40
3.5
  1
1.15
 41
0.7
 72
1
 11
128.45
 21
-165.5
 31
0.0
100
AcDbText
 73
2
  0
TEXT
  5
168
330
17
100
AcDbEntity
  8
TABLE
100
AcDbText
 10
146.3
 20
-165.5
 30
0.0
 40
3.5
  1
1.155
 41
0.7
 72
1
 11
146.3
 21
-165.5
 31
0.0
100
AcDbText
 73
2
  0
TEXT
  5
169
330
17
100
AcDbEntity
  8
TABLE
100
AcDbText
 10
165.2
 20
-165.5
 30
0.0
 40
3.5
  1
0.5
 41
0.7
 72
1
 11
165.2
 21
-165.5
 31
0.0
100
AcDbText
 73
2
  0
TEXT
  5
16A
330
17
100
AcDbEntity
  8
TABLE
100
AcDbText
 10
185.84999999999997
 20
-165.5
 30
0.0
 40
3.5
  1
0.5
 41
0.7
 72
1
 11
185.84999999999997
 21
-165.5
 31
0.0
100
AcDbText
 73
2
  0
TEXT
  5
16B
330
17
100
AcDbEntity
  8
TABLE
100
AcDbText
 10
208.24999999999997
 20
-165.5
 30
0.0
 40
3.5
  1
1.081
 41
0.7
 72
1
 11
208.24999999999997
 21
-165.5
 31
0.0
100
AcDbText
 73
2
  0
TEXT
  5
16C
330
17
100
AcDbEntity
  8
TABLE
100
AcDbText
 10
229.94999999999996
 20
-165.5
 30
0.0
 40
3.5
  1
1.39
 41
0.7
 72
1
 11
229.94999999999996
 21
-165.5
 31
0.0
100
AcDbText
 73
2
  0
TEXT
  5
16D
330
17
100
AcDbEntity
  8
TABLE
100
AcDbText
 10
249.54999999999995
 20
-165.5
 30
0.0
 40
3.5
  1
1.11
 41
0.7
 72
1
 11
249.54999999999995
 21
-165.5
 31
0.0
100
AcDbText
 73
2
  0
LINE
  5
16E
330
17
100
AcDbEntity
  8
TABLE
100
AcDbLine
 10
0.0
 20
-177.0
 30
0.0
 11
215.59999999999997
 21
-177.0
 31
0.0
  0
LINE
  5
16F
330
17
100
AcDbEntity
  8
TABLE
100
AcDbLine
 10
0.0
 20
-187.0
 30
0.0
 11
215.59999999999997
 21
-187.0
 31
0.0
  0
LINE
  5
170
330
17
100
AcDbEntity
  8
TABLE
100
AcDbLine
 10
0.0
 20
-177.0
 30
0.0
 11
0.0
 21
-187.0
 31
0.0
  0
LINE
  5
171
330
17
100
AcDbEntity
  8
TABLE
100
AcDbLine
 10
215.59999999999997
 20
-177.0
 30
0.0
 11
215.59999999999997
 21
-187.0
 31
0.0
  0
LINE
  5
172
330
17
100
AcDbEntity
  8
TABLE
100
AcDbLine
 10
21.0
 20
-197.0
 30
0.0
 11
38.5
 21
-197.0
 31
0.0
  0
LINE
  5
173
330
17
100
AcDbEntity
  8
TABLE
100
AcDbLine
 10
38.5
 20
-197.0
 30
0.0
 11
56.0
 21
-197.0
 31
0.0
  0
LINE
  5
174
330
17
100
AcDbEntity
  8
TABLE
100
AcDbLine
 10
107.8
 20
-197.0
 30
0.0
 11
120.39999999999999
 21
-197.0
 31
0.0
  0
LINE
  5
175
330
17
100
AcDbEntity
  8
TABLE
100
AcDbLine
 10
120.39999999999999
 20
-197.0
 30
0.0
 11
138.6
 21
-197.0
 31
0.0
  0
LINE
  5
176
330
17
100
AcDbEntity
  8
TABLE
100
AcDbLine
 10
138.6
 20
-197.0
 30
0.0
 11
154.7
 21
-197.0
 31
0.0
  0
LINE
  5
177
330
17
100
AcDbEntity
  8
TABLE
100
AcDbLine
 10
154.7
 20
-197.0
 30
0.0
 11
176.39999999999998
 21
-197.0
 31
0.0
  0
LINE
  5
178
330
17
100
AcDbEntity
  8
TABLE
100
AcDbLine
 10
176.39999999999998
 20
-197.0
 30
0.0
 11
198.09999999999997
 21
-197.0
 31
0.0
  0
LINE
  5
179
330
17
100
AcDbEntity
  8
TABLE
100
AcDbLine
 10
198.09999999999997
 20
-197.0
 30
0.0
 11
215.59999999999997
 21
-197.0
 31
0.0
  0
LINE
  5
17A
330
17
100
AcDbEntity
  8
TABLE
100
AcDbLine
 10
0.0
 20
-207.0
 30
0.0
 11
215.59999999999997
 21
-207.0
 31
0.0
  0
LINE
  5
17B
330
17
100
AcDbEntity
  8
TABLE
100
AcDbLine
 10
0.0
 20
-187.0
 30
0.0
 11
0.0
 21
-207.0
 31
0.0
  0
LINE
  5
17C
330
17
100
AcDbEntity
  8
TABLE
100
AcDbLine
 10
21.0
 20
-187.0
 30
0.0
 11
21.0
 21
-207.0
 31
0.0
  0
LINE
  5
17D
330
17
100
AcDbEntity
  8
TABLE
100
AcDbLine
 10
38.5
 20
-187.0
 30
0.0
 11
38.5
 21
-207.0
 31
0.0
  0
LINE
  5
17E
330
17
100
AcDbEntity
  8
TABLE
100
AcDbLine
 10
56.0
 20
-187.0
 30
0.0
 11
56.0
 21
-207.0
 31
0.0
  0
LINE
  5
17F
330
17
100
AcDbEntity
  8
TABLE
100
AcDbLine
 10
73.5
 20
-187.0
 30
0.0
 11
73.5
 21
-207.0
 31
0.0
  0
LINE
  5
180
330
17
100
AcDbEntity
  8
TABLE
100
AcDbLine
 10
93.8
 20
-187.0
 30
0.0
 11
93.8
 21
-207.0
 31
0.0
  0
LINE
  5
181
330
17
100
AcDbEntity
  8
TABLE
100
AcDbLine
 10
107.8
 20
-187.0
 30
0.0
 11
107.8
 21
-207.0
 31
0.0
  0
LINE
  5
182
330
17
100
AcDbEntity
  8
TABLE
100
AcDbLine
 10
120.39999999999999
 20
-187.0
 30
0.0
 11
120.39999999999999
 21
-207.0
 31
0.0
  0
LINE
  5
183
330
17
100
AcDbEntity
  8
TABLE
100
AcDbLine
 10
138.6
 20
-187.0
 30
0.0
 11
138.6
 21
-207.0
 31
0.0
  0
LINE
  5
184
330
17
100
AcDbEntity
  8
TABLE
100
AcDbLine
 10
154.7
 20
-187.0
 30
0.0
 11
154.7
 21
-207.0
 31
0.0
  0
LINE
  5
185
330
17
100
AcDbEntity
  8
TABLE
100
AcDbLine
 10
176.39999999999998
 20
-187.0
 30
0.0
 11
176.39999999999998
 21
-207.0
 31
0.0
  0
LINE
  5
186
330
17
100
AcDbEntity
  8
TABLE
100
AcDbLine
 10
198.09999999999997
 20
-187.0
 30
0.0
 11
198.09999999999997
 21
-207.0
 31
0.0
  0
LINE
  5
187
330
17
100
AcDbEntity
  8
TABLE
100
AcDbLine
 10
215.59999999999997
 20
-187.0
 30
0.0
 11
215.59999999999997
 21
-207.0
 31
0.0
  0
LINE
  5
188
330
17
100
AcDbEntity
  8
TABLE
100
AcDbLine
 10
0.0
 20
-207.0
 30
0.0
 11
215.59999999999997
 21
-207.0
 31
0.0
  0
LINE
  5
189
330
17
100
AcDbEntity
  8
TABLE
100
AcDbLine
 10
0.0
 20
-249.0
 30
0.0
 11
215.59999999999997
 21
-249.0
 31
0.0
  0
LINE
  5
18A
330
17
100
AcDbEntity
  8
TABLE
100
AcDbLine
 10
56.0
 20
-214.0
 30
0.0
 11
215.59999999999997
 21
-214.0
 31
0.0
  0
LINE
  5
18B
330
17
100
AcDbEntity
  8
TABLE
100
AcDbLine
 10
56.0
 20
-221.0
 30
0.0
 11
215.59999999999997
 21
-221.0
 31
0.0
  0
LINE
  5
18C
330
17
100
AcDbEntity
  8
TABLE
100
AcDbLine
 10
0.0
 20
-228.0
 30
0.0
 11
215.59999999999997
 21
-228.0
 31
0.0
  0
LINE
  5
18D
330
17
100
AcDbEntity
  8
TABLE
100
AcDbLine
 10
56.0
 20
-235.0
 30
0.0
 11
215.59999999999997
 21
-235.0
 31
0.0
  0
LINE
  5
18E
330
17
100
AcDbEntity
  8
TABLE
100
AcDbLine
 10
56.0
 20
-242.0
 30
0.0
 11
215.59999999999997
 21
-242.0
 31
0.0
  0
LINE
  5
18F
330
17
100
AcDbEntity
  8
TABLE
100
AcDbLine
 10
0.0
 20
-207.0
 30
0.0
 11
0.0
 21
-249.0
 31
0.0
  0
LINE
  5
190
330
17
100
AcDbEntity
  8
TABLE
100
AcDbLine
 10
21.0
 20
-207.0
 30
0.0
 11
21.0
 21
-249.0
 31
0.0
  0
LINE
  5
191
330
17
100
AcDbEntity
  8
TABLE
100
AcDbLine
 10
38.5
 20
-207.0
 30
0.0
 11
38.5
 21
-249.0
 31
0.0
  0
LINE
  5
192
330
17
100
AcDbEntity
  8
TABLE
100
AcDbLine
 10
56.0
 20
-207.0
 30
0.0
 11
56.0
 21
-249.0
 31
0.0
  0
LINE
  5
193
330
17
100
AcDbEntity
  8
TABLE
100
AcDbLine
 10
73.5
 20
-207.0
 30
0.0
 11
73.5
 21
-249.0
 31
0.0
  0
LINE
  5
194
330
17
100
AcDbEntity
  8
TABLE
100
AcDbLine
 10
93.8
 20
-207.0
 30
0.0
 11
93.8
 21
-249.0
 31
0.0
  0
LINE
  5
195
330
17
100
AcDbEntity
  8
TABLE
100
AcDbLine
 10
107.8
 20
-207.0
 30
0.0
 11
107.8
 21
-249.0
 31
0.0
  0
LINE
  5
196
330
17
100
AcDbEntity
  8
TABLE
100
AcDbLine
 10
120.39999999999999
 20
-207.0
 30
0.0
 11
120.39999999999999
 21
-249.0
 31
0.0
  0
LINE
  5
197
330
17
100
AcDbEntity
  8
TABLE
100
AcDbLine
 10
138.6
 20
-207.0
 30
0.0
 11
138.6
 21
-249.0
 31
0.0
  0
LINE
  5
198
330
17
100
AcDbEntity
  8
TABLE
100
AcDbLine
 10
154.7
 20
-207.0
 30
0.0
 11
154.7
 21
-249.0
 31
0.0
  0
LINE
  5
199
330
17
100
AcDbEntity
  8
TABLE
100
AcDbLine
 10
176.39999999999998
 20
-207.0
 30
0.0
 11
176.39999999999998
 21
-249.0
 31
0.0
  0
LINE
  5
19A
330
17
100
AcDbEntity
  8
TABLE
100
AcDbLine
 10
198.09999999999997
 20
-207.0
 30
0.0
 11
198.09999999999997
 21
-249.0
 31
0.0
  0
LINE
  5
19B
330
17
100
AcDbEntity
  8
TABLE
100
AcDbLine
 10
215.59999999999997
 20
-207.0
 30
0.0
 11
215.59999999999997
 21
-249.0
 31
0.0
  0
TEXT
  5
19C
330
17
100
AcDbEntity
  8
TABLE
100
AcDbText
 10
107.79999999999998
 20
-182.0
 30
0.0
 40
5.0
  1
圆形隧洞断面尺寸及水力要素表
 41
0.7
 72
1
 11
107.79999999999998
 21
-182.0
 31
0.0
100
AcDbText
 73
2
  0
TEXT
  5
19D
330
17
100
AcDbEntity
  8
TABLE
100
AcDbText
 10
10.5
 20
-197.0
 30
0.0
 40
3.5
  1
流量段
 41
0.7
 72
1
 11
10.5
 21
-197.0
 31
0.0
100
AcDbText
 73
2
  0
TEXT
  5
19E
330
17
100
AcDbEntity
  8
TABLE
100
AcDbText
 10
29.75
 20
-192.0
 30
0.0
 40
3.5
  1
设计流量
 41
0.7
 72
1
 11
29.75
 21
-192.0
 31
0.0
100
AcDbText
 73
2
  0
MTEXT
  5
19F
330
17
100
AcDbEntity
  8
TABLE
100
AcDbMText
 10
29.75
 20
-202.0
 30
0.0
 40
3.5
 71
5
  1
m{\H0.7x;\S3^ ;}/s
  0
TEXT
  5
1A0
330
17
100
AcDbEntity
  8
TABLE
100
AcDbText
 10
47.25
 20
-192.0
 30
0.0
 40
3.5
  1
加大流量
 41
0.7
 72
1
 11
47.25
 21
-192.0
 31
0.0
100
AcDbText
 73
2
  0
MTEXT
  5
1A1
330
17
100
AcDbEntity
  8
TABLE
100
AcDbMText
 10
47.25
 20
-202.0
 30
0.0
 40
3.5
 71
5
  1
m{\H0.7x;\S3^ ;}/s
  0
TEXT
  5
1A2
330
17
100
AcDbEntity
  8
TABLE
100
AcDbText
 10
64.75
 20
-197.0
 30
0.0
 40
3.5
  1
围岩类型
 41
0.7
 72
1
 11
64.75
 21
-197.0
 31
0.0
100
AcDbText
 73
2
  0
TEXT
  5
1A3
330
17
100
AcDbEntity
  8
TABLE
100
AcDbText
 10
83.65
 20
-197.0
 30
0.0
 40
3.5
  1
1/底坡
 41
0.7
 72
1
 11
83.65
 21
-197.0
 31
0.0
100
AcDbText
 73
2
  0
TEXT
  5
1A4
330
17
100
AcDbEntity
  8
TABLE
100
AcDbText
 10
100.8
 20
-197.0
 30
0.0
 40
3.5
  1
糙率
 41
0.7
 72
1
 11
100.8
 21
-197.0
 31
0.0
100
AcDbText
 73
2
  0
TEXT
  5
1A5
330
17
100
AcDbEntity
  8
TABLE
100
AcDbText
 10
114.1
 20
-192.0
 30
0.0
 40
3.5
  1
直径D
 41
0.7
 72
1
 11
114.1
 21
-192.0
 31
0.0
100
AcDbText
 73
2
  0
TEXT
  5
1A6
330
17
100
AcDbEntity
  8
TABLE
100
AcDbText
 10
114.1
 20
-202.0
 30
0.0
 40
3.5
  1
m
 41
0.7
 72
1
 11
114.1
 21
-202.0
 31
0.0
100
AcDbText
 73
2
  0
MTEXT
  5
1A7
330
17
100
AcDbEntity
  8
TABLE
100
AcDbMText
 10
129.5
 20
-192.0
 30
0.0
 40
3.5
 71
5
  1
底板厚t{\H0.7x;\S^ 0;}
  0
TEXT
  5
1A8
330
17
100
AcDbEntity
  8
TABLE
100
AcDbText
 10
129.5
 20
-202.0
 30
0.0
 40
3.5
  1
m
 41
0.7
 72
1
 11
129.5
 21
-202.0
 31
0.0
100
AcDbText
 73
2
  0
TEXT
  5
1A9
330
17
100
AcDbEntity
  8
TABLE
100
AcDbText
 10
146.64999999999998
 20
-192.0
 30
0.0
 40
3.5
  1
衬砌厚t
 41
0.7
 72
1
 11
146.64999999999998
 21
-192.0
 31
0.0
100
AcDbText
 73
2
  0
TEXT
  5
1AA
330
17
100
AcDbEntity
  8
TABLE
100
AcDbText
 10
146.64999999999998
 20
-202.0
 30
0.0
 40
3.5
  1
m
 41
0.7
 72
1
 11
146.64999999999998
 21
-202.0
 31
0.0
100
AcDbText
 73
2
  0
MTEXT
  5
1AB
330
17
100
AcDbEntity
  8
TABLE
100
AcDbMText
 10
165.54999999999998
 20
-192.0
 30
0.0
 40
3.5
 71
5
  1
设计水深H{\H0.7x;\S^ 1;}
  0
TEXT
  5
1AC
330
17
100
AcDbEntity
  8
TABLE
100
AcDbText
 10
165.54999999999998
 20
-202.0
 30
0.0
 40
3.5
  1
m
 41
0.7
 72
1
 11
165.54999999999998
 21
-202.0
 31
0.0
100
AcDbText
 73
2
  0
MTEXT
  5
1AD
330
17
100
AcDbEntity
  8
TABLE
100
AcDbMText
 10
187.24999999999997
 20
-192.0
 30
0.0
 40
3.5
 71
5
  1
加大水深H{\H0.7x;\S^ 2;}
  0
TEXT
  5
1AE
330
17
100
AcDbEntity
  8
TABLE
100
AcDbText
 10
187.24999999999997
 20
-202.0
 30
0.0
 40
3.5
  1
m
 41
0.7
 72
1
 11
187.24999999999997
 21
-202.0
 31
0.0
100
AcDbText
 73
2
  0
TEXT
  5
1AF
330
17
100
AcDbEntity
  8
TABLE
100
AcDbText
 10
206.84999999999997
 20
-192.0
 30
0.0
 40
3.5
  1
设计流速
 41
0.7
 72
1
 11
206.84999999999997
 21
-192.0
 31
0.0
100
AcDbText
 73
2
  0
TEXT
  5
1B0
330
17
100
AcDbEntity
  8
TABLE
100
AcDbText
 10
206.84999999999997
 20
-202.0
 30
0.0
 40
3.5
  1
m/s
 41
0.7
 72
1
 11
206.84999999999997
 21
-202.0
 31
0.0
100
AcDbText
 73
2
  0
TEXT
  5
1B1
330
17
100
AcDbEntity
  8
TABLE
100
AcDbText
 10
10.5
 20
-217.5
 30
0.0
 40
3.5
  1
第二流量段
 41
0.7
 72
1
 11
10.5
 21
-217.5
 31
0.0
100
AcDbText
 73
2
  0
TEXT
  5
1B2
330
17
100
AcDbEntity
  8
TABLE
100
AcDbText
 10
29.75
 20
-217.5
 30
0.0
 40
3.5
  1
4.0
 41
0.7
 72
1
 11
29.75
 21
-217.5
 31
0.0
100
AcDbText
 73
2
  0
TEXT
  5
1B3
330
17
100
AcDbEntity
  8
TABLE
100
AcDbText
 10
47.25
 20
-217.5
 30
0.0
 40
3.5
  1
5.0
 41
0.7
 72
1
 11
47.25
 21
-217.5
 31
0.0
100
AcDbText
 73
2
  0
TEXT
  5
1B4
330
17
100
AcDbEntity
  8
TABLE
100
AcDbText
 10
64.75
 20
-210.5
 30
0.0
 40
3.5
  1
III类
 41
0.7
 72
1
 11
64.75
 21
-210.5
 31
0.0
100
AcDbText
 73
2
  0
TEXT
  5
1B5
330
17
100
AcDbEntity
  8
TABLE
100
AcDbText
 10
83.65
 20
-210.5
 30
0.0
 40
3.5
  1
1/2000.0
 41
0.7
 72
1
 11
83.65
 21
-210.5
 31
0.0
100
AcDbText
 73
2
  0
TEXT
  5
1B6
330
17
100
AcDbEntity
  8
TABLE
100
AcDbText
 10
100.8
 20
-210.5
 30
0.0
 40
3.5
  1
0.014
 41
0.7
 72
1
 11
100.8
 21
-210.5
 31
0.0
100
AcDbText
 73
2
  0
TEXT
  5
1B7
330
17
100
AcDbEntity
  8
TABLE
100
AcDbText
 10
114.1
 20
-210.5
 30
0.0
 40
3.5
  1
2.6
 41
0.7
 72
1
 11
114.1
 21
-210.5
 31
0.0
100
AcDbText
 73
2
  0
TEXT
  5
1B8
330
17
100
AcDbEntity
  8
TABLE
100
AcDbText
 10
129.5
 20
-210.5
 30
0.0
 40
3.5
  1
0.35
 41
0.7
 72
1
 11
129.5
 21
-210.5
 31
0.0
100
AcDbText
 73
2
  0
TEXT
  5
1B9
330
17
100
AcDbEntity
  8
TABLE
100
AcDbText
 10
146.64999999999998
 20
-210.5
 30
0.0
 40
3.5
  1
0.3
 41
0.7
 72
1
 11
146.64999999999998
 21
-210.5
 31
0.0
100
AcDbText
 73
2
  0
TEXT
  5
1BA
330
17
100
AcDbEntity
  8
TABLE
100
AcDbText
 10
165.54999999999998
 20
-210.5
 30
0.0
 40
3.5
  1
1.495
 41
0.7
 72
1
 11
165.54999999999998
 21
-210.5
 31
0.0
100
AcDbText
 73
2
  0
TEXT
  5
1BB
330
17
100
AcDbEntity
  8
TABLE
100
AcDbText
 10
187.24999999999997
 20
-210.5
 30
0.0
 40
3.5
  1
1.74
 41
0.7
 72
1
 11
187.24999999999997
 21
-210.5
 31
0.0
100
AcDbText
 73
2
  0
TEXT
  5
1BC
330
17
100
AcDbEntity
  8
TABLE
100
AcDbText
 10
206.84999999999997
 20
-210.5
 30
0.0
 40
3.5
  1
1.266
 41
0.7
 72
1
 11
206.84999999999997
 21
-210.5
 31
0.0
100
AcDbText
 73
2
  0
TEXT
  5
1BD
330
17
100
AcDbEntity
  8
TABLE
100
AcDbText
 10
64.75
 20
-217.5
 30
0.0
 40
3.5
  1
IV类
 41
0.7
 72
1
 11
64.75
 21
-217.5
 31
0.0
100
AcDbText
 73
2
  0
TEXT
  5
1BE
330
17
100
AcDbEntity
  8
TABLE
100
AcDbText
 10
83.65
 20
-217.5
 30
0.0
 40
3.5
  1
1/2000.0
 41
0.7
 72
1
 11
83.65
 21
-217.5
 31
0.0
100
AcDbText
 73
2
  0
TEXT
  5
1BF
330
17
100
AcDbEntity
  8
TABLE
100
AcDbText
 10
100.8
 20
-217.5
 30
0.0
 40
3.5
  1
0.014
 41
0.7
 72
1
 11
100.8
 21
-217.5
 31
0.0
100
AcDbText
 73
2
  0
TEXT
  5
1C0
330
17
100
AcDbEntity
  8
TABLE
100
AcDbText
 10
114.1
 20
-217.5
 30
0.0
 40
3.5
  1
2.6
 41
0.7
 72
1
 11
114.1
 21
-217.5
 31
0.0
100
AcDbText
 73
2
  0
TEXT
  5
1C1
330
17
100
AcDbEntity
  8
TABLE
100
AcDbText
 10
129.5
 20
-217.5
 30
0.0
 40
3.5
  1
0.4
 41
0.7
 72
1
 11
129.5
 21
-217.5
 31
0.0
100
AcDbText
 73
2
  0
TEXT
  5
1C2
330
17
100
AcDbEntity
  8
TABLE
100
AcDbText
 10
146.64999999999998
 20
-217.5
 30
0.0
 40
3.5
  1
0.4
 41
0.7
 72
1
 11
146.64999999999998
 21
-217.5
 31
0.0
100
AcDbText
 73
2
  0
TEXT
  5
1C3
330
17
100
AcDbEntity
  8
TABLE
100
AcDbText
 10
165.54999999999998
 20
-217.5
 30
0.0
 40
3.5
  1
1.495
 41
0.7
 72
1
 11
165.54999999999998
 21
-217.5
 31
0.0
100
AcDbText
 73
2
  0
TEXT
  5
1C4
330
17
100
AcDbEntity
  8
TABLE
100
AcDbText
 10
187.24999999999997
 20
-217.5
 30
0.0
 40
3.5
  1
1.74
 41
0.7
 72
1
 11
187.24999999999997
 21
-217.5
 31
0.0
100
AcDbText
 73
2
  0
TEXT
  5
1C5
330
17
100
AcDbEntity
  8
TABLE
100
AcDbText
 10
206.84999999999997
 20
-217.5
 30
0.0
 40
3.5
  1
1.266
 41
0.7
 72
1
 11
206.84999999999997
 21
-217.5
 31
0.0
100
AcDbText
 73
2
  0
TEXT
  5
1C6
330
17
100
AcDbEntity
  8
TABLE
100
AcDbText
 10
64.75
 20
-224.5
 30
0.0
 40
3.5
  1
V类
 41
0.7
 72
1
 11
64.75
 21
-224.5
 31
0.0
100
AcDbText
 73
2
  0
TEXT
  5
1C7
330
17
100
AcDbEntity
  8
TABLE
100
AcDbText
 10
83.65
 20
-224.5
 30
0.0
 40
3.5
  1
1/2000.0
 41
0.7
 72
1
 11
83.65
 21
-224.5
 31
0.0
100
AcDbText
 73
2
  0
TEXT
  5
1C8
330
17
100
AcDbEntity
  8
TABLE
100
AcDbText
 10
100.8
 20
-224.5
 30
0.0
 40
3.5
  1
0.014
 41
0.7
 72
1
 11
100.8
 21
-224.5
 31
0.0
100
AcDbText
 73
2
  0
TEXT
  5
1C9
330
17
100
AcDbEntity
  8
TABLE
100
AcDbText
 10
114.1
 20
-224.5
 30
0.0
 40
3.5
  1
2.6
 41
0.7
 72
1
 11
114.1
 21
-224.5
 31
0.0
100
AcDbText
 73
2
  0
TEXT
  5
1CA
330
17
100
AcDbEntity
  8
TABLE
100
AcDbText
 10
129.5
 20
-224.5
 30
0.0
 40
3.5
  1
0.5
 41
0.7
 72
1
 11
129.5
 21
-224.5
 31
0.0
100
AcDbText
 73
2
  0
TEXT
  5
1CB
330
17
100
AcDbEntity
  8
TABLE
100
AcDbText
 10
146.64999999999998
 20
-224.5
 30
0.0
 40
3.5
  1
0.5
 41
0.7
 72
1
 11
146.64999999999998
 21
-224.5
 31
0.0
100
AcDbText
 73
2
  0
TEXT
  5
1CC
330
17
100
AcDbEntity
  8
TABLE
100
AcDbText
 10
165.54999999999998
 20
-224.5
 30
0.0
 40
3.5
  1
1.495
 41
0.7
 72
1
 11
165.54999999999998
 21
-224.5
 31
0.0
100
AcDbText
 73
2
  0
TEXT
  5
1CD
330
17
100
AcDbEntity
  8
TABLE
100
AcDbText
 10
187.24999999999997
 20
-224.5
 30
0.0
 40
3.5
  1
1.74
 41
0.7
 72
1
 11
187.24999999999997
 21
-224.5
 31
0.0
100
AcDbText
 73
2
  0
TEXT
  5
1CE
330
17
100
AcDbEntity
  8
TABLE
100
AcDbText
 10
206.84999999999997
 20
-224.5
 30
0.0
 40
3.5
  1
1.266
 41
0.7
 72
1
 11
206.84999999999997
 21
-224.5
 31
0.0
100
AcDbText
 73
2
  0
TEXT
  5
1CF
330
17
100
AcDbEntity
  8
TABLE
100
AcDbText
 10
10.5
 20
-238.5
 30
0.0
 40
3.5
  1
第三流量段
 41
0.7
 72
1
 11
10.5
 21
-238.5
 31
0.0
100
AcDbText
 73
2
  0
TEXT
  5
1D0
330
17
100
AcDbEntity
  8
TABLE
100
AcDbText
 10
29.75
 20
-238.5
 30
0.0
 40
3.5
  1
3.0
 41
0.7
 72
1
 11
29.75
 21
-238.5
 31
0.0
100
AcDbText
 73
2
  0
TEXT
  5
1D1
330
17
100
AcDbEntity
  8
TABLE
100
AcDbText
 10
47.25
 20
-238.5
 30
0.0
 40
3.5
  1
3.75
 41
0.7
 72
1
 11
47.25
 21
-238.5
 31
0.0
100
AcDbText
 73
2
  0
TEXT
  5
1D2
330
17
100
AcDbEntity
  8
TABLE
100
AcDbText
 10
64.75
 20
-231.5
 30
0.0
 40
3.5
  1
III类
 41
0.7
 72
1
 11
64.75
 21
-231.5
 31
0.0
100
AcDbText
 73
2
  0
TEXT
  5
1D3
330
17
100
AcDbEntity
  8
TABLE
100
AcDbText
 10
83.65
 20
-231.5
 30
0.0
 40
3.5
  1
1/2000.0
 41
0.7
 72
1
 11
83.65
 21
-231.5
 31
0.0
100
AcDbText
 73
2
  0
TEXT
  5
1D4
330
17
100
AcDbEntity
  8
TABLE
100
AcDbText
 10
100.8
 20
-231.5
 30
0.0
 40
3.5
  1
0.014
 41
0.7
 72
1
 11
100.8
 21
-231.5
 31
0.0
100
AcDbText
 73
2
  0
TEXT
  5
1D5
330
17
100
AcDbEntity
  8
TABLE
100
AcDbText
 10
114.1
 20
-231.5
 30
0.0
 40
3.5
  1
2.6
 41
0.7
 72
1
 11
114.1
 21
-231.5
 31
0.0
100
AcDbText
 73
2
  0
TEXT
  5
1D6
330
17
100
AcDbEntity
  8
TABLE
100
AcDbText
 10
129.5
 20
-231.5
 30
0.0
 40
3.5
  1
0.35
 41
0.7
 72
1
 11
129.5
 21
-231.5
 31
0.0
100
AcDbText
 73
2
  0
TEXT
  5
1D7
330
17
100
AcDbEntity
  8
TABLE
100
AcDbText
 10
146.64999999999998
 20
-231.5
 30
0.0
 40
3.5
  1
0.3
 41
0.7
 72
1
 11
146.64999999999998
 21
-231.5
 31
0.0
100
AcDbText
 73
2
  0
TEXT
  5
1D8
330
17
100
AcDbEntity
  8
TABLE
100
AcDbText
 10
165.54999999999998
 20
-231.5
 30
0.0
 40
3.5
  1
1.256
 41
0.7
 72
1
 11
165.54999999999998
 21
-231.5
 31
0.0
100
AcDbText
 73
2
  0
TEXT
  5
1D9
330
17
100
AcDbEntity
  8
TABLE
100
AcDbText
 10
187.24999999999997
 20
-231.5
 30
0.0
 40
3.5
  1
1.44
 41
0.7
 72
1
 11
187.24999999999997
 21
-231.5
 31
0.0
100
AcDbText
 73
2
  0
TEXT
  5
1DA
330
17
100
AcDbEntity
  8
TABLE
100
AcDbText
 10
206.84999999999997
 20
-231.5
 30
0.0
 40
3.5
  1
1.181
 41
0.7
 72
1
 11
206.84999999999997
 21
-231.5
 31
0.0
100
AcDbText
 73
2
  0
TEXT
  5
1DB
330
17
100
AcDbEntity
  8
TABLE
100
AcDbText
 10
64.75
 20
-238.5
 30
0.0
 40
3.5
  1
IV类
 41
0.7
 72
1
 11
64.75
 21
-238.5
 31
0.0
100
AcDbText
 73
2
  0
TEXT
  5
1DC
330
17
100
AcDbEntity
  8
TABLE
100
AcDbText
 10
83.65
 20
-238.5
 30
0.0
 40
3.5
  1
1/2000.0
 41
0.7
 72
1
 11
83.65
 21
-238.5
 31
0.0
100
AcDbText
 73
2
  0
TEXT
  5
1DD
330
17
100
AcDbEntity
  8
TABLE
100
AcDbText
 10
100.8
 20
-238.5
 30
0.0
 40
3.5
  1
0.014
 41
0.7
 72
1
 11
100.8
 21
-238.5
 31
0.0
100
AcDbText
 73
2
  0
TEXT
  5
1DE
330
17
100
AcDbEntity
  8
TABLE
100
AcDbText
 10
114.1
 20
-238.5
 30
0.0
 40
3.5
  1
2.6
 41
0.7
 72
1
 11
114.1
 21
-238.5
 31
0.0
100
AcDbText
 73
2
  0
TEXT
  5
1DF
330
17
100
AcDbEntity
  8
TABLE
100
AcDbText
 10
129.5
 20
-238.5
 30
0.0
 40
3.5
  1
0.4
 41
0.7
 72
1
 11
129.5
 21
-238.5
 31
0.0
100
AcDbText
 73
2
  0
TEXT
  5
1E0
330
17
100
AcDbEntity
  8
TABLE
100
AcDbText
 10
146.64999999999998
 20
-238.5
 30
0.0
 40
3.5
  1
0.4
 41
0.7
 72
1
 11
146.64999999999998
 21
-238.5
 31
0.0
100
AcDbText
 73
2
  0
TEXT
  5
1E1
330
17
100
AcDbEntity
  8
TABLE
100
AcDbText
 10
165.54999999999998
 20
-238.5
 30
0.0
 40
3.5
  1
1.256
 41
0.7
 72
1
 11
165.54999999999998
 21
-238.5
 31
0.0
100
AcDbText
 73
2
  0
TEXT
  5
1E2
330
17
100
AcDbEntity
  8
TABLE
100
AcDbText
 10
187.24999999999997
 20
-238.5
 30
0.0
 40
3.5
  1
1.44
 41
0.7
 72
1
 11
187.24999999999997
 21
-238.5
 31
0.0
100
AcDbText
 73
2
  0
TEXT
  5
1E3
330
17
100
AcDbEntity
  8
TABLE
100
AcDbText
 10
206.84999999999997
 20
-238.5
 30
0.0
 40
3.5
  1
1.181
 41
0.7
 72
1
 11
206.84999999999997
 21
-238.5
 31
0.0
100
AcDbText
 73
2
  0
TEXT
  5
1E4
330
17
100
AcDbEntity
  8
TABLE
100
AcDbText
 10
64.75
 20
-245.5
 30
0.0
 40
3.5
  1
V类
 41
0.7
 72
1
 11
64.75
 21
-245.5
 31
0.0
100
AcDbText
 73
2
  0
TEXT
  5
1E5
330
17
100
AcDbEntity
  8
TABLE
100
AcDbText
 10
83.65
 20
-245.5
 30
0.0
 40
3.5
  1
1/2000.0
 41
0.7
 72
1
 11
83.65
 21
-245.5
 31
0.0
100
AcDbText
 73
2
  0
TEXT
  5
1E6
330
17
100
AcDbEntity
  8
TABLE
100
AcDbText
 10
100.8
 20
-245.5
 30
0.0
 40
3.5
  1
0.014
 41
0.7
 72
1
 11
100.8
 21
-245.5
 31
0.0
100
AcDbText
 73
2
  0
TEXT
  5
1E7
330
17
100
AcDbEntity
  8
TABLE
100
AcDbText
 10
114.1
 20
-245.5
 30
0.0
 40
3.5
  1
2.6
 41
0.7
 72
1
 11
114.1
 21
-245.5
 31
0.0
100
AcDbText
 73
2
  0
TEXT
  5
1E8
330
17
100
AcDbEntity
  8
TABLE
100
AcDbText
 10
129.5
 20
-245.5
 30
0.0
 40
3.5
  1
0.5
 41
0.7
 72
1
 11
129.5
 21
-245.5
 31
0.0
100
AcDbText
 73
2
  0
TEXT
  5
1E9
330
17
100
AcDbEntity
  8
TABLE
100
AcDbText
 10
146.64999999999998
 20
-245.5
 30
0.0
 40
3.5
  1
0.5
 41
0.7
 72
1
 11
146.64999999999998
 21
-245.5
 31
0.0
100
AcDbText
 73
2
  0
TEXT
  5
1EA
330
17
100
AcDbEntity
  8
TABLE
100
AcDbText
 10
165.54999999999998
 20
-245.5
 30
0.0
 40
3.5
  1
1.256
 41
0.7
 72
1
 11
165.54999999999998
 21
-245.5
 31
0.0
100
AcDbText
 73
2
  0
TEXT
  5
1EB
330
17
100
AcDbEntity
  8
TABLE
100
AcDbText
 10
187.24999999999997
 20
-245.5
 30
0.0
 40
3.5
  1
1.44
 41
0.7
 72
1
 11
187.24999999999997
 21
-245.5
 31
0.0
100
AcDbText
 73
2
  0
TEXT
  5
1EC
330
17
100
AcDbEntity
  8
TABLE
100
AcDbText
 10
206.84999999999997
 20
-245.5
 30
0.0
 40
3.5
  1
1.181
 41
0.7
 72
1
 11
206.84999999999997
 21
-245.5
 31
0.0
100
AcDbText
 73
2
  0
LINE
  5
1ED
330
17
100
AcDbEntity
  8
TABLE
100
AcDbLine
 10
0.0
 20
-257.0
 30
0.0
 11
215.59999999999997
 21
-257.0
 31
0.0
  0
LINE
  5
1EE
330
17
100
AcDbEntity
  8
TABLE
100
AcDbLine
 10
0.0
 20
-267.0
 30
0.0
 11
215.59999999999997
 21
-267.0
 31
0.0
  0
LINE
  5
1EF
330
17
100
AcDbEntity
  8
TABLE
100
AcDbLine
 10
0.0
 20
-257.0
 30
0.0
 11
0.0
 21
-267.0
 31
0.0
  0
LINE
  5
1F0
330
17
100
AcDbEntity
  8
TABLE
100
AcDbLine
 10
215.59999999999997
 20
-257.0
 30
0.0
 11
215.59999999999997
 21
-267.0
 31
0.0
  0
LINE
  5
1F1
330
17
100
AcDbEntity
  8
TABLE
100
AcDbLine
 10
21.0
 20
-277.0
 30
0.0
 11
38.5
 21
-277.0
 31
0.0
  0
LINE
  5
1F2
330
17
100
AcDbEntity
  8
TABLE
100
AcDbLine
 10
38.5
 20
-277.0
 30
0.0
 11
56.0
 21
-277.0
 31
0.0
  0
LINE
  5
1F3
330
17
100
AcDbEntity
  8
TABLE
100
AcDbLine
 10
107.8
 20
-277.0
 30
0.0
 11
120.39999999999999
 21
-277.0
 31
0.0
  0
LINE
  5
1F4
330
17
100
AcDbEntity
  8
TABLE
100
AcDbLine
 10
120.39999999999999
 20
-277.0
 30
0.0
 11
138.6
 21
-277.0
 31
0.0
  0
LINE
  5
1F5
330
17
100
AcDbEntity
  8
TABLE
100
AcDbLine
 10
138.6
 20
-277.0
 30
0.0
 11
154.7
 21
-277.0
 31
0.0
  0
LINE
  5
1F6
330
17
100
AcDbEntity
  8
TABLE
100
AcDbLine
 10
154.7
 20
-277.0
 30
0.0
 11
176.39999999999998
 21
-277.0
 31
0.0
  0
LINE
  5
1F7
330
17
100
AcDbEntity
  8
TABLE
100
AcDbLine
 10
176.39999999999998
 20
-277.0
 30
0.0
 11
198.09999999999997
 21
-277.0
 31
0.0
  0
LINE
  5
1F8
330
17
100
AcDbEntity
  8
TABLE
100
AcDbLine
 10
198.09999999999997
 20
-277.0
 30
0.0
 11
215.59999999999997
 21
-277.0
 31
0.0
  0
LINE
  5
1F9
330
17
100
AcDbEntity
  8
TABLE
100
AcDbLine
 10
0.0
 20
-287.0
 30
0.0
 11
215.59999999999997
 21
-287.0
 31
0.0
  0
LINE
  5
1FA
330
17
100
AcDbEntity
  8
TABLE
100
AcDbLine
 10
0.0
 20
-267.0
 30
0.0
 11
0.0
 21
-287.0
 31
0.0
  0
LINE
  5
1FB
330
17
100
AcDbEntity
  8
TABLE
100
AcDbLine
 10
21.0
 20
-267.0
 30
0.0
 11
21.0
 21
-287.0
 31
0.0
  0
LINE
  5
1FC
330
17
100
AcDbEntity
  8
TABLE
100
AcDbLine
 10
38.5
 20
-267.0
 30
0.0
 11
38.5
 21
-287.0
 31
0.0
  0
LINE
  5
1FD
330
17
100
AcDbEntity
  8
TABLE
100
AcDbLine
 10
56.0
 20
-267.0
 30
0.0
 11
56.0
 21
-287.0
 31
0.0
  0
LINE
  5
1FE
330
17
100
AcDbEntity
  8
TABLE
100
AcDbLine
 10
73.5
 20
-267.0
 30
0.0
 11
73.5
 21
-287.0
 31
0.0
  0
LINE
  5
1FF
330
17
100
AcDbEntity
  8
TABLE
100
AcDbLine
 10
93.8
 20
-267.0
 30
0.0
 11
93.8
 21
-287.0
 31
0.0
  0
LINE
  5
200
330
17
100
AcDbEntity
  8
TABLE
100
AcDbLine
 10
107.8
 20
-267.0
 30
0.0
 11
107.8
 21
-287.0
 31
0.0
  0
LINE
  5
201
330
17
100
AcDbEntity
  8
TABLE
100
AcDbLine
 10
120.39999999999999
 20
-267.0
 30
0.0
 11
120.39999999999999
 21
-287.0
 31
0.0
  0
LINE
  5
202
330
17
100
AcDbEntity
  8
TABLE
100
AcDbLine
 10
138.6
 20
-267.0
 30
0.0
 11
138.6
 21
-287.0
 31
0.0
  0
LINE
  5
203
330
17
100
AcDbEntity
  8
TABLE
100
AcDbLine
 10
154.7
 20
-267.0
 30
0.0
 11
154.7
 21
-287.0
 31
0.0
  0
LINE
  5
204
330
17
100
AcDbEntity
  8
TABLE
100
AcDbLine
 10
176.39999999999998
 20
-267.0
 30
0.0
 11
176.39999999999998
 21
-287.0
 31
0.0
  0
LINE
  5
205
330
17
100
AcDbEntity
  8
TABLE
100
AcDbLine
 10
198.09999999999997
 20
-267.0
 30
0.0
 11
198.09999999999997
 21
-287.0
 31
0.0
  0
LINE
  5
206
330
17
100
AcDbEntity
  8
TABLE
100
AcDbLine
 10
215.59999999999997
 20
-267.0
 30
0.0
 11
215.59999999999997
 21
-287.0
 31
0.0
  0
LINE
  5
207
330
17
100
AcDbEntity
  8
TABLE
100
AcDbLine
 10
0.0
 20
-287.0
 30
0.0
 11
215.59999999999997
 21
-287.0
 31
0.0
  0
LINE
  5
208
330
17
100
AcDbEntity
  8
TABLE
100
AcDbLine
 10
0.0
 20
-308.0
 30
0.0
 11
215.59999999999997
 21
-308.0
 31
0.0
  0
LINE
  5
209
330
17
100
AcDbEntity
  8
TABLE
100
AcDbLine
 10
56.0
 20
-294.0
 30
0.0
 11
215.59999999999997
 21
-294.0
 31
0.0
  0
LINE
  5
20A
330
17
100
AcDbEntity
  8
TABLE
100
AcDbLine
 10
56.0
 20
-301.0
 30
0.0
 11
215.59999999999997
 21
-301.0
 31
0.0
  0
LINE
  5
20B
330
17
100
AcDbEntity
  8
TABLE
100
AcDbLine
 10
0.0
 20
-287.0
 30
0.0
 11
0.0
 21
-308.0
 31
0.0
  0
LINE
  5
20C
330
17
100
AcDbEntity
  8
TABLE
100
AcDbLine
 10
21.0
 20
-287.0
 30
0.0
 11
21.0
 21
-308.0
 31
0.0
  0
LINE
  5
20D
330
17
100
AcDbEntity
  8
TABLE
100
AcDbLine
 10
38.5
 20
-287.0
 30
0.0
 11
38.5
 21
-308.0
 31
0.0
  0
LINE
  5
20E
330
17
100
AcDbEntity
  8
TABLE
100
AcDbLine
 10
56.0
 20
-287.0
 30
0.0
 11
56.0
 21
-308.0
 31
0.0
  0
LINE
  5
20F
330
17
100
AcDbEntity
  8
TABLE
100
AcDbLine
 10
73.5
 20
-287.0
 30
0.0
 11
73.5
 21
-308.0
 31
0.0
  0
LINE
  5
210
330
17
100
AcDbEntity
  8
TABLE
100
AcDbLine
 10
93.8
 20
-287.0
 30
0.0
 11
93.8
 21
-308.0
 31
0.0
  0
LINE
  5
211
330
17
100
AcDbEntity
  8
TABLE
100
AcDbLine
 10
107.8
 20
-287.0
 30
0.0
 11
107.8
 21
-308.0
 31
0.0
  0
LINE
  5
212
330
17
100
AcDbEntity
  8
TABLE
100
AcDbLine
 10
120.39999999999999
 20
-287.0
 30
0.0
 11
120.39999999999999
 21
-308.0
 31
0.0
  0
LINE
  5
213
330
17
100
AcDbEntity
  8
TABLE
100
AcDbLine
 10
138.6
 20
-287.0
 30
0.0
 11
138.6
 21
-308.0
 31
0.0
  0
LINE
  5
214
330
17
100
AcDbEntity
  8
TABLE
100
AcDbLine
 10
154.7
 20
-287.0
 30
0.0
 11
154.7
 21
-308.0
 31
0.0
  0
LINE
  5
215
330
17
100
AcDbEntity
  8
TABLE
100
AcDbLine
 10
176.39999999999998
 20
-287.0
 30
0.0
 11
176.39999999999998
 21
-308.0
 31
0.0
  0
LINE
  5
216
330
17
100
AcDbEntity
  8
TABLE
100
AcDbLine
 10
198.09999999999997
 20
-287.0
 30
0.0
 11
198.09999999999997
 21
-308.0
 31
0.0
  0
LINE
  5
217
330
17
100
AcDbEntity
  8
TABLE
100
AcDbLine
 10
215.59999999999997
 20
-287.0
 30
0.0
 11
215.59999999999997
 21
-308.0
 31
0.0
  0
TEXT
  5
218
330
17
100
AcDbEntity
  8
TABLE
100
AcDbText
 10
107.79999999999998
 20
-262.0
 30
0.0
 40
5.0
  1
马蹄形标准Ⅰ型隧洞断面尺寸及水力要素表
 41
0.7
 72
1
 11
107.79999999999998
 21
-262.0
 31
0.0
100
AcDbText
 73
2
  0
TEXT
  5
219
330
17
100
AcDbEntity
  8
TABLE
100
AcDbText
 10
10.5
 20
-277.0
 30
0.0
 40
3.5
  1
流量段
 41
0.7
 72
1
 11
10.5
 21
-277.0
 31
0.0
100
AcDbText
 73
2
  0
TEXT
  5
21A
330
17
100
AcDbEntity
  8
TABLE
100
AcDbText
 10
29.75
 20
-272.0
 30
0.0
 40
3.5
  1
设计流量
 41
0.7
 72
1
 11
29.75
 21
-272.0
 31
0.0
100
AcDbText
 73
2
  0
MTEXT
  5
21B
330
17
100
AcDbEntity
  8
TABLE
100
AcDbMText
 10
29.75
 20
-282.0
 30
0.0
 40
3.5
 71
5
  1
m{\H0.7x;\S3^ ;}/s
  0
TEXT
  5
21C
330
17
100
AcDbEntity
  8
TABLE
100
AcDbText
 10
47.25
 20
-272.0
 30
0.0
 40
3.5
  1
加大流量
 41
0.7
 72
1
 11
47.25
 21
-272.0
 31
0.0
100
AcDbText
 73
2
  0
MTEXT
  5
21D
330
17
100
AcDbEntity
  8
TABLE
100
AcDbMText
 10
47.25
 20
-282.0
 30
0.0
 40
3.5
 71
5
  1
m{\H0.7x;\S3^ ;}/s
  0
TEXT
  5
21E
330
17
100
AcDbEntity
  8
TABLE
100
AcDbText
 10
64.75
 20
-277.0
 30
0.0
 40
3.5
  1
围岩类型
 41
0.7
 72
1
 11
64.75
 21
-277.0
 31
0.0
100
AcDbText
 73
2
  0
TEXT
  5
21F
330
17
100
AcDbEntity
  8
TABLE
100
AcDbText
 10
83.65
 20
-277.0
 30
0.0
 40
3.5
  1
1/底坡
 41
0.7
 72
1
 11
83.65
 21
-277.0
 31
0.0
100
AcDbText
 73
2
  0
TEXT
  5
220
330
17
100
AcDbEntity
  8
TABLE
100
AcDbText
 10
100.8
 20
-277.0
 30
0.0
 40
3.5
  1
糙率
 41
0.7
 72
1
 11
100.8
 21
-277.0
 31
0.0
100
AcDbText
 73
2
  0
TEXT
  5
221
330
17
100
AcDbEntity
  8
TABLE
100
AcDbText
 10
114.1
 20
-272.0
 30
0.0
 40
3.5
  1
半径R
 41
0.7
 72
1
 11
114.1
 21
-272.0
 31
0.0
100
AcDbText
 73
2
  0
TEXT
  5
222
330
17
100
AcDbEntity
  8
TABLE
100
AcDbText
 10
114.1
 20
-282.0
 30
0.0
 40
3.5
  1
m
 41
0.7
 72
1
 11
114.1
 21
-282.0
 31
0.0
100
AcDbText
 73
2
  0
MTEXT
  5
223
330
17
100
AcDbEntity
  8
TABLE
100
AcDbMText
 10
129.5
 20
-272.0
 30
0.0
 40
3.5
 71
5
  1
底板厚t{\H0.7x;\S^ 0;}
  0
TEXT
  5
224
330
17
100
AcDbEntity
  8
TABLE
100
AcDbText
 10
129.5
 20
-282.0
 30
0.0
 40
3.5
  1
m
 41
0.7
 72
1
 11
129.5
 21
-282.0
 31
0.0
100
AcDbText
 73
2
  0
TEXT
  5
225
330
17
100
AcDbEntity
  8
TABLE
100
AcDbText
 10
146.64999999999998
 20
-272.0
 30
0.0
 40
3.5
  1
衬砌厚t
 41
0.7
 72
1
 11
146.64999999999998
 21
-272.0
 31
0.0
100
AcDbText
 73
2
  0
TEXT
  5
226
330
17
100
AcDbEntity
  8
TABLE
100
AcDbText
 10
146.64999999999998
 20
-282.0
 30
0.0
 40
3.5
  1
m
 41
0.7
 72
1
 11
146.64999999999998
 21
-282.0
 31
0.0
100
AcDbText
 73
2
  0
MTEXT
  5
227
330
17
100
AcDbEntity
  8
TABLE
100
AcDbMText
 10
165.54999999999998
 20
-272.0
 30
0.0
 40
3.5
 71
5
  1
设计水深H{\H0.7x;\S^ 1;}
  0
TEXT
  5
228
330
17
100
AcDbEntity
  8
TABLE
100
AcDbText
 10
165.54999999999998
 20
-282.0
 30
0.0
 40
3.5
  1
m
 41
0.7
 72
1
 11
165.54999999999998
 21
-282.0
 31
0.0
100
AcDbText
 73
2
  0
MTEXT
  5
229
330
17
100
AcDbEntity
  8
TABLE
100
AcDbMText
 10
187.24999999999997
 20
-272.0
 30
0.0
 40
3.5
 71
5
  1
加大水深H{\H0.7x;\S^ 2;}
  0
TEXT
  5
22A
330
17
100
AcDbEntity
  8
TABLE
100
AcDbText
 10
187.24999999999997
 20
-282.0
 30
0.0
 40
3.5
  1
m
 41
0.7
 72
1
 11
187.24999999999997
 21
-282.0
 31
0.0
100
AcDbText
 73
2
  0
TEXT
  5
22B
330
17
100
AcDbEntity
  8
TABLE
100
AcDbText
 10
206.84999999999997
 20
-272.0
 30
0.0
 40
3.5
  1
设计流速
 41
0.7
 72
1
 11
206.84999999999997
 21
-272.0
 31
0.0
100
AcDbText
 73
2
  0
TEXT
  5
22C
330
17
100
AcDbEntity
  8
TABLE
100
AcDbText
 10
206.84999999999997
 20
-282.0
 30
0.0
 40
3.5
  1
m/s
 41
0.7
 72
1
 11
206.84999999999997
 21
-282.0
 31
0.0
100
AcDbText
 73
2
  0
TEXT
  5
22D
330
17
100
AcDbEntity
  8
TABLE
100
AcDbText
 10
10.5
 20
-297.5
 30
0.0
 40
3.5
  1
第一流量段
 41
0.7
 72
1
 11
10.5
 21
-297.5
 31
0.0
100
AcDbText
 73
2
  0
TEXT
  5
22E
330
17
100
AcDbEntity
  8
TABLE
100
AcDbText
 10
29.75
 20
-297.5
 30
0.0
 40
3.5
  1
5.0
 41
0.7
 72
1
 11
29.75
 21
-297.5
 31
0.0
100
AcDbText
 73
2
  0
TEXT
  5
22F
330
17
100
AcDbEntity
  8
TABLE
100
AcDbText
 10
47.25
 20
-297.5
 30
0.0
 40
3.5
  1
6.0
 41
0.7
 72
1
 11
47.25
 21
-297.5
 31
0.0
100
AcDbText
 73
2
  0
TEXT
  5
230
330
17
100
AcDbEntity
  8
TABLE
100
AcDbText
 10
64.75
 20
-290.5
 30
0.0
 40
3.5
  1
III类
 41
0.7
 72
1
 11
64.75
 21
-290.5
 31
0.0
100
AcDbText
 73
2
  0
TEXT
  5
231
330
17
100
AcDbEntity
  8
TABLE
100
AcDbText
 10
83.65
 20
-290.5
 30
0.0
 40
3.5
  1
1/2000.0
 41
0.7
 72
1
 11
83.65
 21
-290.5
 31
0.0
100
AcDbText
 73
2
  0
TEXT
  5
232
330
17
100
AcDbEntity
  8
TABLE
100
AcDbText
 10
100.8
 20
-290.5
 30
0.0
 40
3.5
  1
0.014
 41
0.7
 72
1
 11
100.8
 21
-290.5
 31
0.0
100
AcDbText
 73
2
  0
TEXT
  5
233
330
17
100
AcDbEntity
  8
TABLE
100
AcDbText
 10
114.1
 20
-290.5
 30
0.0
 40
3.5
  1
1.5
 41
0.7
 72
1
 11
114.1
 21
-290.5
 31
0.0
100
AcDbText
 73
2
  0
TEXT
  5
234
330
17
100
AcDbEntity
  8
TABLE
100
AcDbText
 10
129.5
 20
-290.5
 30
0.0
 40
3.5
  1
0.35
 41
0.7
 72
1
 11
129.5
 21
-290.5
 31
0.0
100
AcDbText
 73
2
  0
TEXT
  5
235
330
17
100
AcDbEntity
  8
TABLE
100
AcDbText
 10
146.64999999999998
 20
-290.5
 30
0.0
 40
3.5
  1
0.3
 41
0.7
 72
1
 11
146.64999999999998
 21
-290.5
 31
0.0
100
AcDbText
 73
2
  0
TEXT
  5
236
330
17
100
AcDbEntity
  8
TABLE
100
AcDbText
 10
165.54999999999998
 20
-290.5
 30
0.0
 40
3.5
  1
1.406
 41
0.7
 72
1
 11
165.54999999999998
 21
-290.5
 31
0.0
100
AcDbText
 73
2
  0
TEXT
  5
237
330
17
100
AcDbEntity
  8
TABLE
100
AcDbText
 10
187.24999999999997
 20
-290.5
 30
0.0
 40
3.5
  1
1.59
 41
0.7
 72
1
 11
187.24999999999997
 21
-290.5
 31
0.0
100
AcDbText
 73
2
  0
TEXT
  5
238
330
17
100
AcDbEntity
  8
TABLE
100
AcDbText
 10
206.84999999999997
 20
-290.5
 30
0.0
 40
3.5
  1
1.313
 41
0.7
 72
1
 11
206.84999999999997
 21
-290.5
 31
0.0
100
AcDbText
 73
2
  0
TEXT
  5
239
330
17
100
AcDbEntity
  8
TABLE
100
AcDbText
 10
64.75
 20
-297.5
 30
0.0
 40
3.5
  1
IV类
 41
0.7
 72
1
 11
64.75
 21
-297.5
 31
0.0
100
AcDbText
 73
2
  0
TEXT
  5
23A
330
17
100
AcDbEntity
  8
TABLE
100
AcDbText
 10
83.65
 20
-297.5
 30
0.0
 40
3.5
  1
1/2000.0
 41
0.7
 72
1
 11
83.65
 21
-297.5
 31
0.0
100
AcDbText
 73
2
  0
TEXT
  5
23B
330
17
100
AcDbEntity
  8
TABLE
100
AcDbText
 10
100.8
 20
-297.5
 30
0.0
 40
3.5
  1
0.014
 41
0.7
 72
1
 11
100.8
 21
-297.5
 31
0.0
100
AcDbText
 73
2
  0
TEXT
  5
23C
330
17
100
AcDbEntity
  8
TABLE
100
AcDbText
 10
114.1
 20
-297.5
 30
0.0
 40
3.5
  1
1.5
 41
0.7
 72
1
 11
114.1
 21
-297.5
 31
0.0
100
AcDbText
 73
2
  0
TEXT
  5
23D
330
17
100
AcDbEntity
  8
TABLE
100
AcDbText
 10
129.5
 20
-297.5
 30
0.0
 40
3.5
  1
0.4
 41
0.7
 72
1
 11
129.5
 21
-297.5
 31
0.0
100
AcDbText
 73
2
  0
TEXT
  5
23E
330
17
100
AcDbEntity
  8
TABLE
100
AcDbText
 10
146.64999999999998
 20
-297.5
 30
0.0
 40
3.5
  1
0.4
 41
0.7
 72
1
 11
146.64999999999998
 21
-297.5
 31
0.0
100
AcDbText
 73
2
  0
TEXT
  5
23F
330
17
100
AcDbEntity
  8
TABLE
100
AcDbText
 10
165.54999999999998
 20
-297.5
 30
0.0
 40
3.5
  1
1.406
 41
0.7
 72
1
 11
165.54999999999998
 21
-297.5
 31
0.0
100
AcDbText
 73
2
  0
TEXT
  5
240
330
17
100
AcDbEntity
  8
TABLE
100
AcDbText
 10
187.24999999999997
 20
-297.5
 30
0.0
 40
3.5
  1
1.59
 41
0.7
 72
1
 11
187.24999999999997
 21
-297.5
 31
0.0
100
AcDbText
 73
2
  0
TEXT
  5
241
330
17
100
AcDbEntity
  8
TABLE
100
AcDbText
 10
206.84999999999997
 20
-297.5
 30
0.0
 40
3.5
  1
1.313
 41
0.7
 72
1
 11
206.84999999999997
 21
-297.5
 31
0.0
100
AcDbText
 73
2
  0
TEXT
  5
242
330
17
100
AcDbEntity
  8
TABLE
100
AcDbText
 10
64.75
 20
-304.5
 30
0.0
 40
3.5
  1
V类
 41
0.7
 72
1
 11
64.75
 21
-304.5
 31
0.0
100
AcDbText
 73
2
  0
TEXT
  5
243
330
17
100
AcDbEntity
  8
TABLE
100
AcDbText
 10
83.65
 20
-304.5
 30
0.0
 40
3.5
  1
1/2000.0
 41
0.7
 72
1
 11
83.65
 21
-304.5
 31
0.0
100
AcDbText
 73
2
  0
TEXT
  5
244
330
17
100
AcDbEntity
  8
TABLE
100
AcDbText
 10
100.8
 20
-304.5
 30
0.0
 40
3.5
  1
0.014
 41
0.7
 72
1
 11
100.8
 21
-304.5
 31
0.0
100
AcDbText
 73
2
  0
TEXT
  5
245
330
17
100
AcDbEntity
  8
TABLE
100
AcDbText
 10
114.1
 20
-304.5
 30
0.0
 40
3.5
  1
1.5
 41
0.7
 72
1
 11
114.1
 21
-304.5
 31
0.0
100
AcDbText
 73
2
  0
TEXT
  5
246
330
17
100
AcDbEntity
  8
TABLE
100
AcDbText
 10
129.5
 20
-304.5
 30
0.0
 40
3.5
  1
0.5
 41
0.7
 72
1
 11
129.5
 21
-304.5
 31
0.0
100
AcDbText
 73
2
  0
TEXT
  5
247
330
17
100
AcDbEntity
  8
TABLE
100
AcDbText
 10
146.64999999999998
 20
-304.5
 30
0.0
 40
3.5
  1
0.5
 41
0.7
 72
1
 11
146.64999999999998
 21
-304.5
 31
0.0
100
AcDbText
 73
2
  0
TEXT
  5
248
330
17
100
AcDbEntity
  8
TABLE
100
AcDbText
 10
165.54999999999998
 20
-304.5
 30
0.0
 40
3.5
  1
1.406
 41
0.7
 72
1
 11
165.54999999999998
 21
-304.5
 31
0.0
100
AcDbText
 73
2
  0
TEXT
  5
249
330
17
100
AcDbEntity
  8
TABLE
100
AcDbText
 10
187.24999999999997
 20
-304.5
 30
0.0
 40
3.5
  1
1.59
 41
0.7
 72
1
 11
187.24999999999997
 21
-304.5
 31
0.0
100
AcDbText
 73
2
  0
TEXT
  5
24A
330
17
100
AcDbEntity
  8
TABLE
100
AcDbText
 10
206.84999999999997
 20
-304.5
 30
0.0
 40
3.5
  1
1.313
 41
0.7
 72
1
 11
206.84999999999997
 21
-304.5
 31
0.0
100
AcDbText
 73
2
  0
LINE
  5
24B
330
17
100
AcDbEntity
  8
TABLE
100
AcDbLine
 10
0.0
 20
-316.0
 30
0.0
 11
203.0
 21
-316.0
 31
0.0
  0
LINE
  5
24C
330
17
100
AcDbEntity
  8
TABLE
100
AcDbLine
 10
0.0
 20
-326.0
 30
0.0
 11
203.0
 21
-326.0
 31
0.0
  0
LINE
  5
24D
330
17
100
AcDbEntity
  8
TABLE
100
AcDbLine
 10
0.0
 20
-316.0
 30
0.0
 11
0.0
 21
-326.0
 31
0.0
  0
LINE
  5
24E
330
17
100
AcDbEntity
  8
TABLE
100
AcDbLine
 10
203.0
 20
-316.0
 30
0.0
 11
203.0
 21
-326.0
 31
0.0
  0
LINE
  5
24F
330
17
100
AcDbEntity
  8
TABLE
100
AcDbLine
 10
21.0
 20
-336.0
 30
0.0
 11
38.5
 21
-336.0
 31
0.0
  0
LINE
  5
250
330
17
100
AcDbEntity
  8
TABLE
100
AcDbLine
 10
38.5
 20
-336.0
 30
0.0
 11
56.0
 21
-336.0
 31
0.0
  0
LINE
  5
251
330
17
100
AcDbEntity
  8
TABLE
100
AcDbLine
 10
102.89999999999999
 20
-336.0
 30
0.0
 11
115.49999999999999
 21
-336.0
 31
0.0
  0
LINE
  5
252
330
17
100
AcDbEntity
  8
TABLE
100
AcDbLine
 10
115.49999999999999
 20
-336.0
 30
0.0
 11
128.1
 21
-336.0
 31
0.0
  0
LINE
  5
253
330
17
100
AcDbEntity
  8
TABLE
100
AcDbLine
 10
128.1
 20
-336.0
 30
0.0
 11
149.8
 21
-336.0
 31
0.0
  0
LINE
  5
254
330
17
100
AcDbEntity
  8
TABLE
100
AcDbLine
 10
149.8
 20
-336.0
 30
0.0
 11
171.5
 21
-336.0
 31
0.0
  0
LINE
  5
255
330
17
100
AcDbEntity
  8
TABLE
100
AcDbLine
 10
171.5
 20
-336.0
 30
0.0
 11
189.0
 21
-336.0
 31
0.0
  0
LINE
  5
256
330
17
100
AcDbEntity
  8
TABLE
100
AcDbLine
 10
0.0
 20
-346.0
 30
0.0
 11
203.0
 21
-346.0
 31
0.0
  0
LINE
  5
257
330
17
100
AcDbEntity
  8
TABLE
100
AcDbLine
 10
0.0
 20
-326.0
 30
0.0
 11
0.0
 21
-346.0
 31
0.0
  0
LINE
  5
258
330
17
100
AcDbEntity
  8
TABLE
100
AcDbLine
 10
21.0
 20
-326.0
 30
0.0
 11
21.0
 21
-346.0
 31
0.0
  0
LINE
  5
259
330
17
100
AcDbEntity
  8
TABLE
100
AcDbLine
 10
38.5
 20
-326.0
 30
0.0
 11
38.5
 21
-346.0
 31
0.0
  0
LINE
  5
25A
330
17
100
AcDbEntity
  8
TABLE
100
AcDbLine
 10
56.0
 20
-326.0
 30
0.0
 11
56.0
 21
-346.0
 31
0.0
  0
LINE
  5
25B
330
17
100
AcDbEntity
  8
TABLE
100
AcDbLine
 10
76.3
 20
-326.0
 30
0.0
 11
76.3
 21
-346.0
 31
0.0
  0
LINE
  5
25C
330
17
100
AcDbEntity
  8
TABLE
100
AcDbLine
 10
90.3
 20
-326.0
 30
0.0
 11
90.3
 21
-346.0
 31
0.0
  0
LINE
  5
25D
330
17
100
AcDbEntity
  8
TABLE
100
AcDbLine
 10
102.89999999999999
 20
-326.0
 30
0.0
 11
102.89999999999999
 21
-346.0
 31
0.0
  0
LINE
  5
25E
330
17
100
AcDbEntity
  8
TABLE
100
AcDbLine
 10
115.49999999999999
 20
-326.0
 30
0.0
 11
115.49999999999999
 21
-346.0
 31
0.0
  0
LINE
  5
25F
330
17
100
AcDbEntity
  8
TABLE
100
AcDbLine
 10
128.1
 20
-326.0
 30
0.0
 11
128.1
 21
-346.0
 31
0.0
  0
LINE
  5
260
330
17
100
AcDbEntity
  8
TABLE
100
AcDbLine
 10
149.8
 20
-326.0
 30
0.0
 11
149.8
 21
-346.0
 31
0.0
  0
LINE
  5
261
330
17
100
AcDbEntity
  8
TABLE
100
AcDbLine
 10
171.5
 20
-326.0
 30
0.0
 11
171.5
 21
-346.0
 31
0.0
  0
LINE
  5
262
330
17
100
AcDbEntity
  8
TABLE
100
AcDbLine
 10
189.0
 20
-326.0
 30
0.0
 11
189.0
 21
-346.0
 31
0.0
  0
LINE
  5
263
330
17
100
AcDbEntity
  8
TABLE
100
AcDbLine
 10
203.0
 20
-326.0
 30
0.0
 11
203.0
 21
-346.0
 31
0.0
  0
LINE
  5
264
330
17
100
AcDbEntity
  8
TABLE
100
AcDbLine
 10
0.0
 20
-346.0
 30
0.0
 11
203.0
 21
-346.0
 31
0.0
  0
LINE
  5
265
330
17
100
AcDbEntity
  8
TABLE
100
AcDbLine
 10
0.0
 20
-353.0
 30
0.0
 11
203.0
 21
-353.0
 31
0.0
  0
LINE
  5
266
330
17
100
AcDbEntity
  8
TABLE
100
AcDbLine
 10
0.0
 20
-346.0
 30
0.0
 11
0.0
 21
-353.0
 31
0.0
  0
LINE
  5
267
330
17
100
AcDbEntity
  8
TABLE
100
AcDbLine
 10
21.0
 20
-346.0
 30
0.0
 11
21.0
 21
-353.0
 31
0.0
  0
LINE
  5
268
330
17
100
AcDbEntity
  8
TABLE
100
AcDbLine
 10
38.5
 20
-346.0
 30
0.0
 11
38.5
 21
-353.0
 31
0.0
  0
LINE
  5
269
330
17
100
AcDbEntity
  8
TABLE
100
AcDbLine
 10
56.0
 20
-346.0
 30
0.0
 11
56.0
 21
-353.0
 31
0.0
  0
LINE
  5
26A
330
17
100
AcDbEntity
  8
TABLE
100
AcDbLine
 10
76.3
 20
-346.0
 30
0.0
 11
76.3
 21
-353.0
 31
0.0
  0
LINE
  5
26B
330
17
100
AcDbEntity
  8
TABLE
100
AcDbLine
 10
90.3
 20
-346.0
 30
0.0
 11
90.3
 21
-353.0
 31
0.0
  0
LINE
  5
26C
330
17
100
AcDbEntity
  8
TABLE
100
AcDbLine
 10
102.89999999999999
 20
-346.0
 30
0.0
 11
102.89999999999999
 21
-353.0
 31
0.0
  0
LINE
  5
26D
330
17
100
AcDbEntity
  8
TABLE
100
AcDbLine
 10
115.49999999999999
 20
-346.0
 30
0.0
 11
115.49999999999999
 21
-353.0
 31
0.0
  0
LINE
  5
26E
330
17
100
AcDbEntity
  8
TABLE
100
AcDbLine
 10
128.1
 20
-346.0
 30
0.0
 11
128.1
 21
-353.0
 31
0.0
  0
LINE
  5
26F
330
17
100
AcDbEntity
  8
TABLE
100
AcDbLine
 10
149.8
 20
-346.0
 30
0.0
 11
149.8
 21
-353.0
 31
0.0
  0
LINE
  5
270
330
17
100
AcDbEntity
  8
TABLE
100
AcDbLine
 10
171.5
 20
-346.0
 30
0.0
 11
171.5
 21
-353.0
 31
0.0
  0
LINE
  5
271
330
17
100
AcDbEntity
  8
TABLE
100
AcDbLine
 10
189.0
 20
-346.0
 30
0.0
 11
189.0
 21
-353.0
 31
0.0
  0
LINE
  5
272
330
17
100
AcDbEntity
  8
TABLE
100
AcDbLine
 10
203.0
 20
-346.0
 30
0.0
 11
203.0
 21
-353.0
 31
0.0
  0
TEXT
  5
273
330
17
100
AcDbEntity
  8
TABLE
100
AcDbText
 10
101.5
 20
-321.0
 30
0.0
 40
5.0
  1
渡槽断面尺寸及水力要素表
 41
0.7
 72
1
 11
101.5
 21
-321.0
 31
0.0
100
AcDbText
 73
2
  0
TEXT
  5
274
330
17
100
AcDbEntity
  8
TABLE
100
AcDbText
 10
10.5
 20
-336.0
 30
0.0
 40
3.5
  1
流量段
 41
0.7
 72
1
 11
10.5
 21
-336.0
 31
0.0
100
AcDbText
 73
2
  0
TEXT
  5
275
330
17
100
AcDbEntity
  8
TABLE
100
AcDbText
 10
29.75
 20
-331.0
 30
0.0
 40
3.5
  1
设计流量
 41
0.7
 72
1
 11
29.75
 21
-331.0
 31
0.0
100
AcDbText
 73
2
  0
MTEXT
  5
276
330
17
100
AcDbEntity
  8
TABLE
100
AcDbMText
 10
29.75
 20
-341.0
 30
0.0
 40
3.5
 71
5
  1
m{\H0.7x;\S3^ ;}/s
  0
TEXT
  5
277
330
17
100
AcDbEntity
  8
TABLE
100
AcDbText
 10
47.25
 20
-331.0
 30
0.0
 40
3.5
  1
加大流量
 41
0.7
 72
1
 11
47.25
 21
-331.0
 31
0.0
100
AcDbText
 73
2
  0
MTEXT
  5
278
330
17
100
AcDbEntity
  8
TABLE
100
AcDbMText
 10
47.25
 20
-341.0
 30
0.0
 40
3.5
 71
5
  1
m{\H0.7x;\S3^ ;}/s
  0
TEXT
  5
279
330
17
100
AcDbEntity
  8
TABLE
100
AcDbText
 10
66.15
 20
-336.0
 30
0.0
 40
3.5
  1
1/底坡
 41
0.7
 72
1
 11
66.15
 21
-336.0
 31
0.0
100
AcDbText
 73
2
  0
TEXT
  5
27A
330
17
100
AcDbEntity
  8
TABLE
100
AcDbText
 10
83.3
 20
-336.0
 30
0.0
 40
3.5
  1
糙率
 41
0.7
 72
1
 11
83.3
 21
-336.0
 31
0.0
100
AcDbText
 73
2
  0
TEXT
  5
27B
330
17
100
AcDbEntity
  8
TABLE
100
AcDbText
 10
96.6
 20
-336.0
 30
0.0
 40
3.5
  1
半径R
 41
0.7
 72
1
 11
96.6
 21
-336.0
 31
0.0
100
AcDbText
 73
2
  0
TEXT
  5
27C
330
17
100
AcDbEntity
  8
TABLE
100
AcDbText
 10
109.19999999999999
 20
-331.0
 30
0.0
 40
3.5
  1
槽深H
 41
0.7
 72
1
 11
109.19999999999999
 21
-331.0
 31
0.0
100
AcDbText
 73
2
  0
TEXT
  5
27D
330
17
100
AcDbEntity
  8
TABLE
100
AcDbText
 10
109.19999999999999
 20
-341.0
 30
0.0
 40
3.5
  1
m
 41
0.7
 72
1
 11
109.19999999999999
 21
-341.0
 31
0.0
100
AcDbText
 73
2
  0
TEXT
  5
27E
330
17
100
AcDbEntity
  8
TABLE
100
AcDbText
 10
121.79999999999998
 20
-331.0
 30
0.0
 40
3.5
  1
壁厚t
 41
0.7
 72
1
 11
121.79999999999998
 21
-331.0
 31
0.0
100
AcDbText
 73
2
  0
TEXT
  5
27F
330
17
100
AcDbEntity
  8
TABLE
100
AcDbText
 10
121.79999999999998
 20
-341.0
 30
0.0
 40
3.5
  1
m
 41
0.7
 72
1
 11
121.79999999999998
 21
-341.0
 31
0.0
100
AcDbText
 73
2
  0
MTEXT
  5
280
330
17
100
AcDbEntity
  8
TABLE
100
AcDbMText
 10
138.95
 20
-331.0
 30
0.0
 40
3.5
 71
5
  1
设计水深H{\H0.7x;\S^ 1;}
  0
TEXT
  5
281
330
17
100
AcDbEntity
  8
TABLE
100
AcDbText
 10
138.95
 20
-341.0
 30
0.0
 40
3.5
  1
m
 41
0.7
 72
1
 11
138.95
 21
-341.0
 31
0.0
100
AcDbText
 73
2
  0
MTEXT
  5
282
330
17
100
AcDbEntity
  8
TABLE
100
AcDbMText
 10
160.65
 20
-331.0
 30
0.0
 40
3.5
 71
5
  1
加大水深H{\H0.7x;\S^ 2;}
  0
TEXT
  5
283
330
17
100
AcDbEntity
  8
TABLE
100
AcDbText
 10
160.65
 20
-341.0
 30
0.0
 40
3.5
  1
m
 41
0.7
 72
1
 11
160.65
 21
-341.0
 31
0.0
100
AcDbText
 73
2
  0
TEXT
  5
284
330
17
100
AcDbEntity
  8
TABLE
100
AcDbText
 10
180.25
 20
-331.0
 30
0.0
 40
3.5
  1
设计流速
 41
0.7
 72
1
 11
180.25
 21
-331.0
 31
0.0
100
AcDbText
 73
2
  0
TEXT
  5
285
330
17
100
AcDbEntity
  8
TABLE
100
AcDbText
 10
180.25
 20
-341.0
 30
0.0
 40
3.5
  1
m/s
 41
0.7
 72
1
 11
180.25
 21
-341.0
 31
0.0
100
AcDbText
 73
2
  0
TEXT
  5
286
330
17
100
AcDbEntity
  8
TABLE
100
AcDbText
 10
196.0
 20
-336.0
 30
0.0
 40
3.5
  1
高宽比
 41
0.7
 72
1
 11
196.0
 21
-336.0
 31
0.0
100
AcDbText
 73
2
  0
TEXT
  5
287
330
17
100
AcDbEntity
  8
TABLE
100
AcDbText
 10
10.5
 20
-349.5
 30
0.0
 40
3.5
  1
第三流量段
 41
0.7
 72
1
 11
10.5
 21
-349.5
 31
0.0
100
AcDbText
 73
2
  0
TEXT
  5
288
330
17
100
AcDbEntity
  8
TABLE
100
AcDbText
 10
29.75
 20
-349.5
 30
0.0
 40
3.5
  1
3.0
 41
0.7
 72
1
 11
29.75
 21
-349.5
 31
0.0
100
AcDbText
 73
2
  0
TEXT
  5
289
330
17
100
AcDbEntity
  8
TABLE
100
AcDbText
 10
47.25
 20
-349.5
 30
0.0
 40
3.5
  1
3.75
 41
0.7
 72
1
 11
47.25
 21
-349.5
 31
0.0
100
AcDbText
 73
2
  0
TEXT
  5
28A
330
17
100
AcDbEntity
  8
TABLE
100
AcDbText
 10
66.15
 20
-349.5
 30
0.0
 40
3.5
  1
1/1500.0
 41
0.7
 72
1
 11
66.15
 21
-349.5
 31
0.0
100
AcDbText
 73
2
  0
TEXT
  5
28B
330
17
100
AcDbEntity
  8
TABLE
100
AcDbText
 10
83.3
 20
-349.5
 30
0.0
 40
3.5
  1
0.014
 41
0.7
 72
1
 11
83.3
 21
-349.5
 31
0.0
100
AcDbText
 73
2
  0
TEXT
  5
28C
330
17
100
AcDbEntity
  8
TABLE
100
AcDbText
 10
96.6
 20
-349.5
 30
0.0
 40
3.5
  1
1.6
 41
0.7
 72
1
 11
96.6
 21
-349.5
 31
0.0
100
AcDbText
 73
2
  0
TEXT
  5
28D
330
17
100
AcDbEntity
  8
TABLE
100
AcDbText
 10
109.19999999999999
 20
-349.5
 30
0.0
 40
3.5
  1
2.25
 41
0.7
 72
1
 11
109.19999999999999
 21
-349.5
 31
0.0
100
AcDbText
 73
2
  0
TEXT
  5
28E
330
17
100
AcDbEntity
  8
TABLE
100
AcDbText
 10
121.79999999999998
 20
-349.5
 30
0.0
 40
3.5
  1
0.35
 41
0.7
 72
1
 11
121.79999999999998
 21
-349.5
 31
0.0
100
AcDbText
 73
2
  0
TEXT
  5
28F
330
17
100
AcDbEntity
  8
TABLE
100
AcDbText
 10
138.95
 20
-349.5
 30
0.0
 40
3.5
  1
1.055
 41
0.7
 72
1
 11
138.95
 21
-349.5
 31
0.0
100
AcDbText
 73
2
  0
TEXT
  5
290
330
17
100
AcDbEntity
  8
TABLE
100
AcDbText
 10
160.65
 20
-349.5
 30
0.0
 40
3.5
  1
1.5
 41
0.7
 72
1
 11
160.65
 21
-349.5
 31
0.0
100
AcDbText
 73
2
  0
TEXT
  5
291
330
17
100
AcDbEntity
  8
TABLE
100
AcDbText
 10
180.25
 20
-349.5
 30
0.0
 40
3.5
  1
1.298
 41
0.7
 72
1
 11
180.25
 21
-349.5
 31
0.0
100
AcDbText
 73
2
  0
TEXT
  5
292
330
17
100
AcDbEntity
  8
TABLE
100
AcDbText
 10
196.0
 20
-349.5
 30
0.0
 40
3.5
  1
0.804
 41
0.7
 72
1
 11
196.0
 21
-349.5
 31
0.0
100
AcDbText
 73
2
  0
LINE
  5
293
330
17
100
AcDbEntity
  8
TABLE
100
AcDbLine
 10
0.0
 20
-361.0
 30
0.0
 11
189.0
 21
-361.0
 31
0.0
  0
LINE
  5
294
330
17
100
AcDbEntity
  8
TABLE
100
AcDbLine
 10
0.0
 20
-371.0
 30
0.0
 11
189.0
 21
-371.0
 31
0.0
  0
LINE
  5
295
330
17
100
AcDbEntity
  8
TABLE
100
AcDbLine
 10
0.0
 20
-361.0
 30
0.0
 11
0.0
 21
-371.0
 31
0.0
  0
LINE
  5
296
330
17
100
AcDbEntity
  8
TABLE
100
AcDbLine
 10
189.0
 20
-361.0
 30
0.0
 11
189.0
 21
-371.0
 31
0.0
  0
LINE
  5
297
330
17
100
AcDbEntity
  8
TABLE
100
AcDbLine
 10
21.0
 20
-381.0
 30
0.0
 11
38.5
 21
-381.0
 31
0.0
  0
LINE
  5
298
330
17
100
AcDbEntity
  8
TABLE
100
AcDbLine
 10
38.5
 20
-381.0
 30
0.0
 11
56.0
 21
-381.0
 31
0.0
  0
LINE
  5
299
330
17
100
AcDbEntity
  8
TABLE
100
AcDbLine
 10
90.3
 20
-381.0
 30
0.0
 11
102.89999999999999
 21
-381.0
 31
0.0
  0
LINE
  5
29A
330
17
100
AcDbEntity
  8
TABLE
100
AcDbLine
 10
102.89999999999999
 20
-381.0
 30
0.0
 11
115.49999999999999
 21
-381.0
 31
0.0
  0
LINE
  5
29B
330
17
100
AcDbEntity
  8
TABLE
100
AcDbLine
 10
115.49999999999999
 20
-381.0
 30
0.0
 11
128.1
 21
-381.0
 31
0.0
  0
LINE
  5
29C
330
17
100
AcDbEntity
  8
TABLE
100
AcDbLine
 10
128.1
 20
-381.0
 30
0.0
 11
149.8
 21
-381.0
 31
0.0
  0
LINE
  5
29D
330
17
100
AcDbEntity
  8
TABLE
100
AcDbLine
 10
149.8
 20
-381.0
 30
0.0
 11
171.5
 21
-381.0
 31
0.0
  0
LINE
  5
29E
330
17
100
AcDbEntity
  8
TABLE
100
AcDbLine
 10
171.5
 20
-381.0
 30
0.0
 11
189.0
 21
-381.0
 31
0.0
  0
LINE
  5
29F
330
17
100
AcDbEntity
  8
TABLE
100
AcDbLine
 10
0.0
 20
-391.0
 30
0.0
 11
189.0
 21
-391.0
 31
0.0
  0
LINE
  5
2A0
330
17
100
AcDbEntity
  8
TABLE
100
AcDbLine
 10
0.0
 20
-371.0
 30
0.0
 11
0.0
 21
-391.0
 31
0.0
  0
LINE
  5
2A1
330
17
100
AcDbEntity
  8
TABLE
100
AcDbLine
 10
21.0
 20
-371.0
 30
0.0
 11
21.0
 21
-391.0
 31
0.0
  0
LINE
  5
2A2
330
17
100
AcDbEntity
  8
TABLE
100
AcDbLine
 10
38.5
 20
-371.0
 30
0.0
 11
38.5
 21
-391.0
 31
0.0
  0
LINE
  5
2A3
330
17
100
AcDbEntity
  8
TABLE
100
AcDbLine
 10
56.0
 20
-371.0
 30
0.0
 11
56.0
 21
-391.0
 31
0.0
  0
LINE
  5
2A4
330
17
100
AcDbEntity
  8
TABLE
100
AcDbLine
 10
76.3
 20
-371.0
 30
0.0
 11
76.3
 21
-391.0
 31
0.0
  0
LINE
  5
2A5
330
17
100
AcDbEntity
  8
TABLE
100
AcDbLine
 10
90.3
 20
-371.0
 30
0.0
 11
90.3
 21
-391.0
 31
0.0
  0
LINE
  5
2A6
330
17
100
AcDbEntity
  8
TABLE
100
AcDbLine
 10
102.89999999999999
 20
-371.0
 30
0.0
 11
102.89999999999999
 21
-391.0
 31
0.0
  0
LINE
  5
2A7
330
17
100
AcDbEntity
  8
TABLE
100
AcDbLine
 10
115.49999999999999
 20
-371.0
 30
0.0
 11
115.49999999999999
 21
-391.0
 31
0.0
  0
LINE
  5
2A8
330
17
100
AcDbEntity
  8
TABLE
100
AcDbLine
 10
128.1
 20
-371.0
 30
0.0
 11
128.1
 21
-391.0
 31
0.0
  0
LINE
  5
2A9
330
17
100
AcDbEntity
  8
TABLE
100
AcDbLine
 10
149.8
 20
-371.0
 30
0.0
 11
149.8
 21
-391.0
 31
0.0
  0
LINE
  5
2AA
330
17
100
AcDbEntity
  8
TABLE
100
AcDbLine
 10
171.5
 20
-371.0
 30
0.0
 11
171.5
 21
-391.0
 31
0.0
  0
LINE
  5
2AB
330
17
100
AcDbEntity
  8
TABLE
100
AcDbLine
 10
189.0
 20
-371.0
 30
0.0
 11
189.0
 21
-391.0
 31
0.0
  0
LINE
  5
2AC
330
17
100
AcDbEntity
  8
TABLE
100
AcDbLine
 10
0.0
 20
-391.0
 30
0.0
 11
189.0
 21
-391.0
 31
0.0
  0
LINE
  5
2AD
330
17
100
AcDbEntity
  8
TABLE
100
AcDbLine
 10
0.0
 20
-398.0
 30
0.0
 11
189.0
 21
-398.0
 31
0.0
  0
LINE
  5
2AE
330
17
100
AcDbEntity
  8
TABLE
100
AcDbLine
 10
0.0
 20
-391.0
 30
0.0
 11
0.0
 21
-398.0
 31
0.0
  0
LINE
  5
2AF
330
17
100
AcDbEntity
  8
TABLE
100
AcDbLine
 10
21.0
 20
-391.0
 30
0.0
 11
21.0
 21
-398.0
 31
0.0
  0
LINE
  5
2B0
330
17
100
AcDbEntity
  8
TABLE
100
AcDbLine
 10
38.5
 20
-391.0
 30
0.0
 11
38.5
 21
-398.0
 31
0.0
  0
LINE
  5
2B1
330
17
100
AcDbEntity
  8
TABLE
100
AcDbLine
 10
56.0
 20
-391.0
 30
0.0
 11
56.0
 21
-398.0
 31
0.0
  0
LINE
  5
2B2
330
17
100
AcDbEntity
  8
TABLE
100
AcDbLine
 10
76.3
 20
-391.0
 30
0.0
 11
76.3
 21
-398.0
 31
0.0
  0
LINE
  5
2B3
330
17
100
AcDbEntity
  8
TABLE
100
AcDbLine
 10
90.3
 20
-391.0
 30
0.0
 11
90.3
 21
-398.0
 31
0.0
  0
LINE
  5
2B4
330
17
100
AcDbEntity
  8
TABLE
100
AcDbLine
 10
102.89999999999999
 20
-391.0
 30
0.0
 11
102.89999999999999
 21
-398.0
 31
0.0
  0
LINE
  5
2B5
330
17
100
AcDbEntity
  8
TABLE
100
AcDbLine
 10
115.49999999999999
 20
-391.0
 30
0.0
 11
115.49999999999999
 21
-398.0
 31
0.0
  0
LINE
  5
2B6
330
17
100
AcDbEntity
  8
TABLE
100
AcDbLine
 10
128.1
 20
-391.0
 30
0.0
 11
128.1
 21
-398.0
 31
0.0
  0
LINE
  5
2B7
330
17
100
AcDbEntity
  8
TABLE
100
AcDbLine
 10
149.8
 20
-391.0
 30
0.0
 11
149.8
 21
-398.0
 31
0.0
  0
LINE
  5
2B8
330
17
100
AcDbEntity
  8
TABLE
100
AcDbLine
 10
171.5
 20
-391.0
 30
0.0
 11
171.5
 21
-398.0
 31
0.0
  0
LINE
  5
2B9
330
17
100
AcDbEntity
  8
TABLE
100
AcDbLine
 10
189.0
 20
-391.0
 30
0.0
 11
189.0
 21
-398.0
 31
0.0
  0
TEXT
  5
2BA
330
17
100
AcDbEntity
  8
TABLE
100
AcDbText
 10
94.5
 20
-366.0
 30
0.0
 40
5.0
  1
矩形渡槽断面尺寸及水力要素表
 41
0.7
 72
1
 11
94.5
 21
-366.0
 31
0.0
100
AcDbText
 73
2
  0
TEXT
  5
2BB
330
17
100
AcDbEntity
  8
TABLE
100
AcDbText
 10
10.5
 20
-381.0
 30
0.0
 40
3.5
  1
流量段
 41
0.7
 72
1
 11
10.5
 21
-381.0
 31
0.0
100
AcDbText
 73
2
  0
TEXT
  5
2BC
330
17
100
AcDbEntity
  8
TABLE
100
AcDbText
 10
29.75
 20
-376.0
 30
0.0
 40
3.5
  1
设计流量
 41
0.7
 72
1
 11
29.75
 21
-376.0
 31
0.0
100
AcDbText
 73
2
  0
MTEXT
  5
2BD
330
17
100
AcDbEntity
  8
TABLE
100
AcDbMText
 10
29.75
 20
-386.0
 30
0.0
 40
3.5
 71
5
  1
m{\H0.7x;\S3^ ;}/s
  0
TEXT
  5
2BE
330
17
100
AcDbEntity
  8
TABLE
100
AcDbText
 10
47.25
 20
-376.0
 30
0.0
 40
3.5
  1
加大流量
 41
0.7
 72
1
 11
47.25
 21
-376.0
 31
0.0
100
AcDbText
 73
2
  0
MTEXT
  5
2BF
330
17
100
AcDbEntity
  8
TABLE
100
AcDbMText
 10
47.25
 20
-386.0
 30
0.0
 40
3.5
 71
5
  1
m{\H0.7x;\S3^ ;}/s
  0
TEXT
  5
2C0
330
17
100
AcDbEntity
  8
TABLE
100
AcDbText
 10
66.15
 20
-381.0
 30
0.0
 40
3.5
  1
1/底坡
 41
0.7
 72
1
 11
66.15
 21
-381.0
 31
0.0
100
AcDbText
 73
2
  0
TEXT
  5
2C1
330
17
100
AcDbEntity
  8
TABLE
100
AcDbText
 10
83.3
 20
-381.0
 30
0.0
 40
3.5
  1
糙率
 41
0.7
 72
1
 11
83.3
 21
-381.0
 31
0.0
100
AcDbText
 73
2
  0
TEXT
  5
2C2
330
17
100
AcDbEntity
  8
TABLE
100
AcDbText
 10
96.6
 20
-376.0
 30
0.0
 40
3.5
  1
底宽B
 41
0.7
 72
1
 11
96.6
 21
-376.0
 31
0.0
100
AcDbText
 73
2
  0
TEXT
  5
2C3
330
17
100
AcDbEntity
  8
TABLE
100
AcDbText
 10
96.6
 20
-386.0
 30
0.0
 40
3.5
  1
m
 41
0.7
 72
1
 11
96.6
 21
-386.0
 31
0.0
100
AcDbText
 73
2
  0
TEXT
  5
2C4
330
17
100
AcDbEntity
  8
TABLE
100
AcDbText
 10
109.19999999999999
 20
-376.0
 30
0.0
 40
3.5
  1
槽深H
 41
0.7
 72
1
 11
109.19999999999999
 21
-376.0
 31
0.0
100
AcDbText
 73
2
  0
TEXT
  5
2C5
330
17
100
AcDbEntity
  8
TABLE
100
AcDbText
 10
109.19999999999999
 20
-386.0
 30
0.0
 40
3.5
  1
m
 41
0.7
 72
1
 11
109.19999999999999
 21
-386.0
 31
0.0
100
AcDbText
 73
2
  0
TEXT
  5
2C6
330
17
100
AcDbEntity
  8
TABLE
100
AcDbText
 10
121.79999999999998
 20
-376.0
 30
0.0
 40
3.5
  1
壁厚t
 41
0.7
 72
1
 11
121.79999999999998
 21
-376.0
 31
0.0
100
AcDbText
 73
2
  0
TEXT
  5
2C7
330
17
100
AcDbEntity
  8
TABLE
100
AcDbText
 10
121.79999999999998
 20
-386.0
 30
0.0
 40
3.5
  1
m
 41
0.7
 72
1
 11
121.79999999999998
 21
-386.0
 31
0.0
100
AcDbText
 73
2
  0
MTEXT
  5
2C8
330
17
100
AcDbEntity
  8
TABLE
100
AcDbMText
 10
138.95
 20
-376.0
 30
0.0
 40
3.5
 71
5
  1
设计水深H{\H0.7x;\S^ 1;}
  0
TEXT
  5
2C9
330
17
100
AcDbEntity
  8
TABLE
100
AcDbText
 10
138.95
 20
-386.0
 30
0.0
 40
3.5
  1
m
 41
0.7
 72
1
 11
138.95
 21
-386.0
 31
0.0
100
AcDbText
 73
2
  0
MTEXT
  5
2CA
330
17
100
AcDbEntity
  8
TABLE
100
AcDbMText
 10
160.65
 20
-376.0
 30
0.0
 40
3.5
 71
5
  1
加大水深H{\H0.7x;\S^ 2;}
  0
TEXT
  5
2CB
330
17
100
AcDbEntity
  8
TABLE
100
AcDbText
 10
160.65
 20
-386.0
 30
0.0
 40
3.5
  1
m
 41
0.7
 72
1
 11
160.65
 21
-386.0
 31
0.0
100
AcDbText
 73
2
  0
TEXT
  5
2CC
330
17
100
AcDbEntity
  8
TABLE
100
AcDbText
 10
180.25
 20
-376.0
 30
0.0
 40
3.5
  1
设计流速
 41
0.7
 72
1
 11
180.25
 21
-376.0
 31
0.0
100
AcDbText
 73
2
  0
TEXT
  5
2CD
330
17
100
AcDbEntity
  8
TABLE
100
AcDbText
 10
180.25
 20
-386.0
 30
0.0
 40
3.5
  1
m/s
 41
0.7
 72
1
 11
180.25
 21
-386.0
 31
0.0
100
AcDbText
 73
2
  0
TEXT
  5
2CE
330
17
100
AcDbEntity
  8
TABLE
100
AcDbText
 10
10.5
 20
-394.5
 30
0.0
 40
3.5
  1
第二流量段
 41
0.7
 72
1
 11
10.5
 21
-394.5
 31
0.0
100
AcDbText
 73
2
  0
TEXT
  5
2CF
330
17
100
AcDbEntity
  8
TABLE
100
AcDbText
 10
29.75
 20
-394.5
 30
0.0
 40
3.5
  1
4.0
 41
0.7
 72
1
 11
29.75
 21
-394.5
 31
0.0
100
AcDbText
 73
2
  0
TEXT
  5
2D0
330
17
100
AcDbEntity
  8
TABLE
100
AcDbText
 10
47.25
 20
-394.5
 30
0.0
 40
3.5
  1
5.0
 41
0.7
 72
1
 11
47.25
 21
-394.5
 31
0.0
100
AcDbText
 73
2
  0
TEXT
  5
2D1
330
17
100
AcDbEntity
  8
TABLE
100
AcDbText
 10
66.15
 20
-394.5
 30
0.0
 40
3.5
  1
1/2000.0
 41
0.7
 72
1
 11
66.15
 21
-394.5
 31
0.0
100
AcDbText
 73
2
  0
TEXT
  5
2D2
330
17
100
AcDbEntity
  8
TABLE
100
AcDbText
 10
83.3
 20
-394.5
 30
0.0
 40
3.5
  1
0.014
 41
0.7
 72
1
 11
83.3
 21
-394.5
 31
0.0
100
AcDbText
 73
2
  0
TEXT
  5
2D3
330
17
100
AcDbEntity
  8
TABLE
100
AcDbText
 10
96.6
 20
-394.5
 30
0.0
 40
3.5
  1
2.3
 41
0.7
 72
1
 11
96.6
 21
-394.5
 31
0.0
100
AcDbText
 73
2
  0
TEXT
  5
2D4
330
17
100
AcDbEntity
  8
TABLE
100
AcDbText
 10
109.19999999999999
 20
-394.5
 30
0.0
 40
3.5
  1
1.83
 41
0.7
 72
1
 11
109.19999999999999
 21
-394.5
 31
0.0
100
AcDbText
 73
2
  0
TEXT
  5
2D5
330
17
100
AcDbEntity
  8
TABLE
100
AcDbText
 10
121.79999999999998
 20
-394.5
 30
0.0
 40
3.5
  1
0.35
 41
0.7
 72
1
 11
121.79999999999998
 21
-394.5
 31
0.0
100
AcDbText
 73
2
  0
TEXT
  5
2D6
330
17
100
AcDbEntity
  8
TABLE
100
AcDbText
 10
138.95
 20
-394.5
 30
0.0
 40
3.5
  1
1.453
 41
0.7
 72
1
 11
138.95
 21
-394.5
 31
0.0
100
AcDbText
 73
2
  0
TEXT
  5
2D7
330
17
100
AcDbEntity
  8
TABLE
100
AcDbText
 10
160.65
 20
-394.5
 30
0.0
 40
3.5
  1
1.74
 41
0.7
 72
1
 11
160.65
 21
-394.5
 31
0.0
100
AcDbText
 73
2
  0
TEXT
  5
2D8
330
17
100
AcDbEntity
  8
TABLE
100
AcDbText
 10
180.25
 20
-394.5
 30
0.0
 40
3.5
  1
1.216
 41
0.7
 72
1
 11
180.25
 21
-394.5
 31
0.0
100
AcDbText
 73
2
  0
LINE
  5
2D9
330
17
100
AcDbEntity
  8
TABLE
100
AcDbLine
 10
0.0
 20
-406.0
 30
0.0
 11
230.99999999999994
 21
-406.0
 31
0.0
  0
LINE
  5
2DA
330
17
100
AcDbEntity
  8
TABLE
100
AcDbLine
 10
0.0
 20
-416.0
 30
0.0
 11
230.99999999999994
 21
-416.0
 31
0.0
  0
LINE
  5
2DB
330
17
100
AcDbEntity
  8
TABLE
100
AcDbLine
 10
0.0
 20
-406.0
 30
0.0
 11
0.0
 21
-416.0
 31
0.0
  0
LINE
  5
2DC
330
17
100
AcDbEntity
  8
TABLE
100
AcDbLine
 10
230.99999999999994
 20
-406.0
 30
0.0
 11
230.99999999999994
 21
-416.0
 31
0.0
  0
LINE
  5
2DD
330
17
100
AcDbEntity
  8
TABLE
100
AcDbLine
 10
21.0
 20
-426.0
 30
0.0
 11
38.5
 21
-426.0
 31
0.0
  0
LINE
  5
2DE
330
17
100
AcDbEntity
  8
TABLE
100
AcDbLine
 10
38.5
 20
-426.0
 30
0.0
 11
56.0
 21
-426.0
 31
0.0
  0
LINE
  5
2DF
330
17
100
AcDbEntity
  8
TABLE
100
AcDbLine
 10
90.3
 20
-426.0
 30
0.0
 11
102.89999999999999
 21
-426.0
 31
0.0
  0
LINE
  5
2E0
330
17
100
AcDbEntity
  8
TABLE
100
AcDbLine
 10
102.89999999999999
 20
-426.0
 30
0.0
 11
115.49999999999999
 21
-426.0
 31
0.0
  0
LINE
  5
2E1
330
17
100
AcDbEntity
  8
TABLE
100
AcDbLine
 10
115.49999999999999
 20
-426.0
 30
0.0
 11
133.7
 21
-426.0
 31
0.0
  0
LINE
  5
2E2
330
17
100
AcDbEntity
  8
TABLE
100
AcDbLine
 10
133.7
 20
-426.0
 30
0.0
 11
151.89999999999998
 21
-426.0
 31
0.0
  0
LINE
  5
2E3
330
17
100
AcDbEntity
  8
TABLE
100
AcDbLine
 10
151.89999999999998
 20
-426.0
 30
0.0
 11
170.09999999999997
 21
-426.0
 31
0.0
  0
LINE
  5
2E4
330
17
100
AcDbEntity
  8
TABLE
100
AcDbLine
 10
170.09999999999997
 20
-426.0
 30
0.0
 11
191.79999999999995
 21
-426.0
 31
0.0
  0
LINE
  5
2E5
330
17
100
AcDbEntity
  8
TABLE
100
AcDbLine
 10
191.79999999999995
 20
-426.0
 30
0.0
 11
213.49999999999994
 21
-426.0
 31
0.0
  0
LINE
  5
2E6
330
17
100
AcDbEntity
  8
TABLE
100
AcDbLine
 10
213.49999999999994
 20
-426.0
 30
0.0
 11
230.99999999999994
 21
-426.0
 31
0.0
  0
LINE
  5
2E7
330
17
100
AcDbEntity
  8
TABLE
100
AcDbLine
 10
0.0
 20
-436.0
 30
0.0
 11
230.99999999999994
 21
-436.0
 31
0.0
  0
LINE
  5
2E8
330
17
100
AcDbEntity
  8
TABLE
100
AcDbLine
 10
0.0
 20
-416.0
 30
0.0
 11
0.0
 21
-436.0
 31
0.0
  0
LINE
  5
2E9
330
17
100
AcDbEntity
  8
TABLE
100
AcDbLine
 10
21.0
 20
-416.0
 30
0.0
 11
21.0
 21
-436.0
 31
0.0
  0
LINE
  5
2EA
330
17
100
AcDbEntity
  8
TABLE
100
AcDbLine
 10
38.5
 20
-416.0
 30
0.0
 11
38.5
 21
-436.0
 31
0.0
  0
LINE
  5
2EB
330
17
100
AcDbEntity
  8
TABLE
100
AcDbLine
 10
56.0
 20
-416.0
 30
0.0
 11
56.0
 21
-436.0
 31
0.0
  0
LINE
  5
2EC
330
17
100
AcDbEntity
  8
TABLE
100
AcDbLine
 10
76.3
 20
-416.0
 30
0.0
 11
76.3
 21
-436.0
 31
0.0
  0
LINE
  5
2ED
330
17
100
AcDbEntity
  8
TABLE
100
AcDbLine
 10
90.3
 20
-416.0
 30
0.0
 11
90.3
 21
-436.0
 31
0.0
  0
LINE
  5
2EE
330
17
100
AcDbEntity
  8
TABLE
100
AcDbLine
 10
102.89999999999999
 20
-416.0
 30
0.0
 11
102.89999999999999
 21
-436.0
 31
0.0
  0
LINE
  5
2EF
330
17
100
AcDbEntity
  8
TABLE
100
AcDbLine
 10
115.49999999999999
 20
-416.0
 30
0.0
 11
115.49999999999999
 21
-436.0
 31
0.0
  0
LINE
  5
2F0
330
17
100
AcDbEntity
  8
TABLE
100
AcDbLine
 10
133.7
 20
-416.0
 30
0.0
 11
133.7
 21
-436.0
 31
0.0
  0
LINE
  5
2F1
330
17
100
AcDbEntity
  8
TABLE
100
AcDbLine
 10
151.89999999999998
 20
-416.0
 30
0.0
 11
151.89999999999998
 21
-436.0
 31
0.0
  0
LINE
  5
2F2
330
17
100
AcDbEntity
  8
TABLE
100
AcDbLine
 10
170.09999999999997
 20
-416.0
 30
0.0
 11
170.09999999999997
 21
-436.0
 31
0.0
  0
LINE
  5
2F3
330
17
100
AcDbEntity
  8
TABLE
100
AcDbLine
 10
191.79999999999995
 20
-416.0
 30
0.0
 11
191.79999999999995
 21
-436.0
 31
0.0
  0
LINE
  5
2F4
330
17
100
AcDbEntity
  8
TABLE
100
AcDbLine
 10
213.49999999999994
 20
-416.0
 30
0.0
 11
213.49999999999994
 21
-436.0
 31
0.0
  0
LINE
  5
2F5
330
17
100
AcDbEntity
  8
TABLE
100
AcDbLine
 10
230.99999999999994
 20
-416.0
 30
0.0
 11
230.99999999999994
 21
-436.0
 31
0.0
  0
LINE
  5
2F6
330
17
100
AcDbEntity
  8
TABLE
100
AcDbLine
 10
0.0
 20
-436.0
 30
0.0
 11
230.99999999999994
 21
-436.0
 31
0.0
  0
LINE
  5
2F7
330
17
100
AcDbEntity
  8
TABLE
100
AcDbLine
 10
0.0
 20
-443.0
 30
0.0
 11
230.99999999999994
 21
-443.0
 31
0.0
  0
LINE
  5
2F8
330
17
100
AcDbEntity
  8
TABLE
100
AcDbLine
 10
0.0
 20
-436.0
 30
0.0
 11
0.0
 21
-443.0
 31
0.0
  0
LINE
  5
2F9
330
17
100
AcDbEntity
  8
TABLE
100
AcDbLine
 10
21.0
 20
-436.0
 30
0.0
 11
21.0
 21
-443.0
 31
0.0
  0
LINE
  5
2FA
330
17
100
AcDbEntity
  8
TABLE
100
AcDbLine
 10
38.5
 20
-436.0
 30
0.0
 11
38.5
 21
-443.0
 31
0.0
  0
LINE
  5
2FB
330
17
100
AcDbEntity
  8
TABLE
100
AcDbLine
 10
56.0
 20
-436.0
 30
0.0
 11
56.0
 21
-443.0
 31
0.0
  0
LINE
  5
2FC
330
17
100
AcDbEntity
  8
TABLE
100
AcDbLine
 10
76.3
 20
-436.0
 30
0.0
 11
76.3
 21
-443.0
 31
0.0
  0
LINE
  5
2FD
330
17
100
AcDbEntity
  8
TABLE
100
AcDbLine
 10
90.3
 20
-436.0
 30
0.0
 11
90.3
 21
-443.0
 31
0.0
  0
LINE
  5
2FE
330
17
100
AcDbEntity
  8
TABLE
100
AcDbLine
 10
102.89999999999999
 20
-436.0
 30
0.0
 11
102.89999999999999
 21
-443.0
 31
0.0
  0
LINE
  5
2FF
330
17
100
AcDbEntity
  8
TABLE
100
AcDbLine
 10
115.49999999999999
 20
-436.0
 30
0.0
 11
115.49999999999999
 21
-443.0
 31
0.0
  0
LINE
  5
300
330
17
100
AcDbEntity
  8
TABLE
100
AcDbLine
 10
133.7
 20
-436.0
 30
0.0
 11
133.7
 21
-443.0
 31
0.0
  0
LINE
  5
301
330
17
100
AcDbEntity
  8
TABLE
100
AcDbLine
 10
151.89999999999998
 20
-436.0
 30
0.0
 11
151.89999999999998
 21
-443.0
 31
0.0
  0
LINE
  5
302
330
17
100
AcDbEntity
  8
TABLE
100
AcDbLine
 10
170.09999999999997
 20
-436.0
 30
0.0
 11
170.09999999999997
 21
-443.0
 31
0.0
  0
LINE
  5
303
330
17
100
AcDbEntity
  8
TABLE
100
AcDbLine
 10
191.79999999999995
 20
-436.0
 30
0.0
 11
191.79999999999995
 21
-443.0
 31
0.0
  0
LINE
  5
304
330
17
100
AcDbEntity
  8
TABLE
100
AcDbLine
 10
213.49999999999994
 20
-436.0
 30
0.0
 11
213.49999999999994
 21
-443.0
 31
0.0
  0
LINE
  5
305
330
17
100
AcDbEntity
  8
TABLE
100
AcDbLine
 10
230.99999999999994
 20
-436.0
 30
0.0
 11
230.99999999999994
 21
-443.0
 31
0.0
  0
TEXT
  5
306
330
17
100
AcDbEntity
  8
TABLE
100
AcDbText
 10
115.49999999999997
 20
-411.0
 30
0.0
 40
5.0
  1
矩形暗涵断面尺寸及水力要素表
 41
0.7
 72
1
 11
115.49999999999997
 21
-411.0
 31
0.0
100
AcDbText
 73
2
  0
TEXT
  5
307
330
17
100
AcDbEntity
  8
TABLE
100
AcDbText
 10
10.5
 20
-426.0
 30
0.0
 40
3.5
  1
流量段
 41
0.7
 72
1
 11
10.5
 21
-426.0
 31
0.0
100
AcDbText
 73
2
  0
TEXT
  5
308
330
17
100
AcDbEntity
  8
TABLE
100
AcDbText
 10
29.75
 20
-421.0
 30
0.0
 40
3.5
  1
设计流量
 41
0.7
 72
1
 11
29.75
 21
-421.0
 31
0.0
100
AcDbText
 73
2
  0
MTEXT
  5
309
330
17
100
AcDbEntity
  8
TABLE
100
AcDbMText
 10
29.75
 20
-431.0
 30
0.0
 40
3.5
 71
5
  1
m{\H0.7x;\S3^ ;}/s
  0
TEXT
  5
30A
330
17
100
AcDbEntity
  8
TABLE
100
AcDbText
 10
47.25
 20
-421.0
 30
0.0
 40
3.5
  1
加大流量
 41
0.7
 72
1
 11
47.25
 21
-421.0
 31
0.0
100
AcDbText
 73
2
  0
MTEXT
  5
30B
330
17
100
AcDbEntity
  8
TABLE
100
AcDbMText
 10
47.25
 20
-431.0
 30
0.0
 40
3.5
 71
5
  1
m{\H0.7x;\S3^ ;}/s
  0
TEXT
  5
30C
330
17
100
AcDbEntity
  8
TABLE
100
AcDbText
 10
66.15
 20
-426.0
 30
0.0
 40
3.5
  1
1/底坡
 41
0.7
 72
1
 11
66.15
 21
-426.0
 31
0.0
100
AcDbText
 73
2
  0
TEXT
  5
30D
330
17
100
AcDbEntity
  8
TABLE
100
AcDbText
 10
83.3
 20
-426.0
 30
0.0
 40
3.5
  1
糙率
 41
0.7
 72
1
 11
83.3
 21
-426.0
 31
0.0
100
AcDbText
 73
2
  0
TEXT
  5
30E
330
17
100
AcDbEntity
  8
TABLE
100
AcDbText
 10
96.6
 20
-421.0
 30
0.0
 40
3.5
  1
底宽B
 41
0.7
 72
1
 11
96.6
 21
-421.0
 31
0.0
100
AcDbText
 73
2
  0
TEXT
  5
30F
330
17
100
AcDbEntity
  8
TABLE
100
AcDbText
 10
96.6
 20
-431.0
 30
0.0
 40
3.5
  1
m
 41
0.7
 72
1
 11
96.6
 21
-431.0
 31
0.0
100
AcDbText
 73
2
  0
TEXT
  5
310
330
17
100
AcDbEntity
  8
TABLE
100
AcDbText
 10
109.19999999999999
 20
-421.0
 30
0.0
 40
3.5
  1
高度H
 41
0.7
 72
1
 11
109.19999999999999
 21
-421.0
 31
0.0
100
AcDbText
 73
2
  0
TEXT
  5
311
330
17
100
AcDbEntity
  8
TABLE
100
AcDbText
 10
109.19999999999999
 20
-431.0
 30
0.0
 40
3.5
  1
m
 41
0.7
 72
1
 11
109.19999999999999
 21
-431.0
 31
0.0
100
AcDbText
 73
2
  0
MTEXT
  5
312
330
17
100
AcDbEntity
  8
TABLE
100
AcDbMText
 10
124.6
 20
-421.0
 30
0.0
 40
3.5
 71
5
  1
底板厚t{\H0.7x;\S^ 0;}
  0
TEXT
  5
313
330
17
100
AcDbEntity
  8
TABLE
100
AcDbText
 10
124.6
 20
-431.0
 30
0.0
 40
3.5
  1
m
 41
0.7
 72
1
 11
124.6
 21
-431.0
 31
0.0
100
AcDbText
 73
2
  0
MTEXT
  5
314
330
17
100
AcDbEntity
  8
TABLE
100
AcDbMText
 10
142.79999999999998
 20
-421.0
 30
0.0
 40
3.5
 71
5
  1
边墙厚t{\H0.7x;\S^ 1;}
  0
TEXT
  5
315
330
17
100
AcDbEntity
  8
TABLE
100
AcDbText
 10
142.79999999999998
 20
-431.0
 30
0.0
 40
3.5
  1
m
 41
0.7
 72
1
 11
142.79999999999998
 21
-431.0
 31
0.0
100
AcDbText
 73
2
  0
MTEXT
  5
316
330
17
100
AcDbEntity
  8
TABLE
100
AcDbMText
 10
160.99999999999997
 20
-421.0
 30
0.0
 40
3.5
 71
5
  1
顶板厚t{\H0.7x;\S^ 2;}
  0
TEXT
  5
317
330
17
100
AcDbEntity
  8
TABLE
100
AcDbText
 10
160.99999999999997
 20
-431.0
 30
0.0
 40
3.5
  1
m
 41
0.7
 72
1
 11
160.99999999999997
 21
-431.0
 31
0.0
100
AcDbText
 73
2
  0
MTEXT
  5
318
330
17
100
AcDbEntity
  8
TABLE
100
AcDbMText
 10
180.94999999999996
 20
-421.0
 30
0.0
 40
3.5
 71
5
  1
设计水深H{\H0.7x;\S^ 1;}
  0
TEXT
  5
319
330
17
100
AcDbEntity
  8
TABLE
100
AcDbText
 10
180.94999999999996
 20
-431.0
 30
0.0
 40
3.5
  1
m
 41
0.7
 72
1
 11
180.94999999999996
 21
-431.0
 31
0.0
100
AcDbText
 73
2
  0
MTEXT
  5
31A
330
17
100
AcDbEntity
  8
TABLE
100
AcDbMText
 10
202.64999999999995
 20
-421.0
 30
0.0
 40
3.5
 71
5
  1
加大水深H{\H0.7x;\S^ 2;}
  0
TEXT
  5
31B
330
17
100
AcDbEntity
  8
TABLE
100
AcDbText
 10
202.64999999999995
 20
-431.0
 30
0.0
 40
3.5
  1
m
 41
0.7
 72
1
 11
202.64999999999995
 21
-431.0
 31
0.0
100
AcDbText
 73
2
  0
TEXT
  5
31C
330
17
100
AcDbEntity
  8
TABLE
100
AcDbText
 10
222.24999999999994
 20
-421.0
 30
0.0
 40
3.5
  1
设计流速
 41
0.7
 72
1
 11
222.24999999999994
 21
-421.0
 31
0.0
100
AcDbText
 73
2
  0
TEXT
  5
31D
330
17
100
AcDbEntity
  8
TABLE
100
AcDbText
 10
222.24999999999994
 20
-431.0
 30
0.0
 40
3.5
  1
m/s
 41
0.7
 72
1
 11
222.24999999999994
 21
-431.0
 31
0.0
100
AcDbText
 73
2
  0
TEXT
  5
31E
330
17
100
AcDbEntity
  8
TABLE
100
AcDbText
 10
10.5
 20
-439.5
 30
0.0
 40
3.5
  1
第三流量段
 41
0.7
 72
1
 11
10.5
 21
-439.5
 31
0.0
100
AcDbText
 73
2
  0
TEXT
  5
31F
330
17
100
AcDbEntity
  8
TABLE
100
AcDbText
 10
29.75
 20
-439.5
 30
0.0
 40
3.5
  1
3.0
 41
0.7
 72
1
 11
29.75
 21
-439.5
 31
0.0
100
AcDbText
 73
2
  0
TEXT
  5
320
330
17
100
AcDbEntity
  8
TABLE
100
AcDbText
 10
47.25
 20
-439.5
 30
0.0
 40
3.5
  1
3.75
 41
0.7
 72
1
 11
47.25
 21
-439.5
 31
0.0
100
AcDbText
 73
2
  0
TEXT
  5
321
330
17
100
AcDbEntity
  8
TABLE
100
AcDbText
 10
66.15
 20
-439.5
 30
0.0
 40
3.5
  1
1/3000.0
 41
0.7
 72
1
 11
66.15
 21
-439.5
 31
0.0
100
AcDbText
 73
2
  0
TEXT
  5
322
330
17
100
AcDbEntity
  8
TABLE
100
AcDbText
 10
83.3
 20
-439.5
 30
0.0
 40
3.5
  1
0.014
 41
0.7
 72
1
 11
83.3
 21
-439.5
 31
0.0
100
AcDbText
 73
2
  0
TEXT
  5
323
330
17
100
AcDbEntity
  8
TABLE
100
AcDbText
 10
96.6
 20
-439.5
 30
0.0
 40
3.5
  1
2.4
 41
0.7
 72
1
 11
96.6
 21
-439.5
 31
0.0
100
AcDbText
 73
2
  0
TEXT
  5
324
330
17
100
AcDbEntity
  8
TABLE
100
AcDbText
 10
109.19999999999999
 20
-439.5
 30
0.0
 40
3.5
  1
1.96
 41
0.7
 72
1
 11
109.19999999999999
 21
-439.5
 31
0.0
100
AcDbText
 73
2
  0
TEXT
  5
325
330
17
100
AcDbEntity
  8
TABLE
100
AcDbText
 10
124.6
 20
-439.5
 30
0.0
 40
3.5
  1
0.4
 41
0.7
 72
1
 11
124.6
 21
-439.5
 31
0.0
100
AcDbText
 73
2
  0
TEXT
  5
326
330
17
100
AcDbEntity
  8
TABLE
100
AcDbText
 10
142.79999999999998
 20
-439.5
 30
0.0
 40
3.5
  1
0.4
 41
0.7
 72
1
 11
142.79999999999998
 21
-439.5
 31
0.0
100
AcDbText
 73
2
  0
TEXT
  5
327
330
17
100
AcDbEntity
  8
TABLE
100
AcDbText
 10
160.99999999999997
 20
-439.5
 30
0.0
 40
3.5
  1
0.4
 41
0.7
 72
1
 11
160.99999999999997
 21
-439.5
 31
0.0
100
AcDbText
 73
2
  0
TEXT
  5
328
330
17
100
AcDbEntity
  8
TABLE
100
AcDbText
 10
180.94999999999996
 20
-439.5
 30
0.0
 40
3.5
  1
1.31
 41
0.7
 72
1
 11
180.94999999999996
 21
-439.5
 31
0.0
100
AcDbText
 73
2
  0
TEXT
  5
329
330
17
100
AcDbEntity
  8
TABLE
100
AcDbText
 10
202.64999999999995
 20
-439.5
 30
0.0
 40
3.5
  1
1.46
 41
0.7
 72
1
 11
202.64999999999995
 21
-439.5
 31
0.0
100
AcDbText
 73
2
  0
TEXT
  5
32A
330
17
100
AcDbEntity
  8
TABLE
100
AcDbText
 10
222.24999999999994
 20
-439.5
 30
0.0
 40
3.5
  1
0.955
 41
0.7
 72
1
 11
222.24999999999994
 21
-439.5
 31
0.0
100
AcDbText
 73
2
  0
LINE
  5
32B
330
17
100
AcDbEntity
  8
TABLE
100
AcDbLine
 10
0.0
 20
-451.0
 30
0.0
 11
186.9
 21
-451.0
 31
0.0
  0
LINE
  5
32C
330
17
100
AcDbEntity
  8
TABLE
100
AcDbLine
 10
0.0
 20
-461.0
 30
0.0
 11
186.9
 21
-461.0
 31
0.0
  0
LINE
  5
32D
330
17
100
AcDbEntity
  8
TABLE
100
AcDbLine
 10
0.0
 20
-451.0
 30
0.0
 11
0.0
 21
-461.0
 31
0.0
  0
LINE
  5
32E
330
17
100
AcDbEntity
  8
TABLE
100
AcDbLine
 10
186.9
 20
-451.0
 30
0.0
 11
186.9
 21
-461.0
 31
0.0
  0
LINE
  5
32F
330
17
100
AcDbEntity
  8
TABLE
100
AcDbLine
 10
21.0
 20
-471.0
 30
0.0
 11
38.5
 21
-471.0
 31
0.0
  0
LINE
  5
330
330
17
100
AcDbEntity
  8
TABLE
100
AcDbLine
 10
38.5
 20
-471.0
 30
0.0
 11
56.0
 21
-471.0
 31
0.0
  0
LINE
  5
331
330
17
100
AcDbEntity
  8
TABLE
100
AcDbLine
 10
90.3
 20
-471.0
 30
0.0
 11
102.89999999999999
 21
-471.0
 31
0.0
  0
LINE
  5
332
330
17
100
AcDbEntity
  8
TABLE
100
AcDbLine
 10
123.89999999999999
 20
-471.0
 30
0.0
 11
145.6
 21
-471.0
 31
0.0
  0
LINE
  5
333
330
17
100
AcDbEntity
  8
TABLE
100
AcDbLine
 10
145.6
 20
-471.0
 30
0.0
 11
167.3
 21
-471.0
 31
0.0
  0
LINE
  5
334
330
17
100
AcDbEntity
  8
TABLE
100
AcDbLine
 10
167.3
 20
-471.0
 30
0.0
 11
186.9
 21
-471.0
 31
0.0
  0
LINE
  5
335
330
17
100
AcDbEntity
  8
TABLE
100
AcDbLine
 10
0.0
 20
-481.0
 30
0.0
 11
186.9
 21
-481.0
 31
0.0
  0
LINE
  5
336
330
17
100
AcDbEntity
  8
TABLE
100
AcDbLine
 10
0.0
 20
-461.0
 30
0.0
 11
0.0
 21
-481.0
 31
0.0
  0
LINE
  5
337
330
17
100
AcDbEntity
  8
TABLE
100
AcDbLine
 10
21.0
 20
-461.0
 30
0.0
 11
21.0
 21
-481.0
 31
0.0
  0
LINE
  5
338
330
17
100
AcDbEntity
  8
TABLE
100
AcDbLine
 10
38.5
 20
-461.0
 30
0.0
 11
38.5
 21
-481.0
 31
0.0
  0
LINE
  5
339
330
17
100
AcDbEntity
  8
TABLE
100
AcDbLine
 10
56.0
 20
-461.0
 30
0.0
 11
56.0
 21
-481.0
 31
0.0
  0
LINE
  5
33A
330
17
100
AcDbEntity
  8
TABLE
100
AcDbLine
 10
76.3
 20
-461.0
 30
0.0
 11
76.3
 21
-481.0
 31
0.0
  0
LINE
  5
33B
330
17
100
AcDbEntity
  8
TABLE
100
AcDbLine
 10
90.3
 20
-461.0
 30
0.0
 11
90.3
 21
-481.0
 31
0.0
  0
LINE
  5
33C
330
17
100
AcDbEntity
  8
TABLE
100
AcDbLine
 10
102.89999999999999
 20
-461.0
 30
0.0
 11
102.89999999999999
 21
-481.0
 31
0.0
  0
LINE
  5
33D
330
17
100
AcDbEntity
  8
TABLE
100
AcDbLine
 10
123.89999999999999
 20
-461.0
 30
0.0
 11
123.89999999999999
 21
-481.0
 31
0.0
  0
LINE
  5
33E
330
17
100
AcDbEntity
  8
TABLE
100
AcDbLine
 10
145.6
 20
-461.0
 30
0.0
 11
145.6
 21
-481.0
 31
0.0
  0
LINE
  5
33F
330
17
100
AcDbEntity
  8
TABLE
100
AcDbLine
 10
167.3
 20
-461.0
 30
0.0
 11
167.3
 21
-481.0
 31
0.0
  0
LINE
  5
340
330
17
100
AcDbEntity
  8
TABLE
100
AcDbLine
 10
186.9
 20
-461.0
 30
0.0
 11
186.9
 21
-481.0
 31
0.0
  0
LINE
  5
341
330
17
100
AcDbEntity
  8
TABLE
100
AcDbLine
 10
0.0
 20
-481.0
 30
0.0
 11
186.9
 21
-481.0
 31
0.0
  0
LINE
  5
342
330
17
100
AcDbEntity
  8
TABLE
100
AcDbLine
 10
0.0
 20
-488.0
 30
0.0
 11
186.9
 21
-488.0
 31
0.0
  0
LINE
  5
343
330
17
100
AcDbEntity
  8
TABLE
100
AcDbLine
 10
0.0
 20
-481.0
 30
0.0
 11
0.0
 21
-488.0
 31
0.0
  0
LINE
  5
344
330
17
100
AcDbEntity
  8
TABLE
100
AcDbLine
 10
21.0
 20
-481.0
 30
0.0
 11
21.0
 21
-488.0
 31
0.0
  0
LINE
  5
345
330
17
100
AcDbEntity
  8
TABLE
100
AcDbLine
 10
38.5
 20
-481.0
 30
0.0
 11
38.5
 21
-488.0
 31
0.0
  0
LINE
  5
346
330
17
100
AcDbEntity
  8
TABLE
100
AcDbLine
 10
56.0
 20
-481.0
 30
0.0
 11
56.0
 21
-488.0
 31
0.0
  0
LINE
  5
347
330
17
100
AcDbEntity
  8
TABLE
100
AcDbLine
 10
76.3
 20
-481.0
 30
0.0
 11
76.3
 21
-488.0
 31
0.0
  0
LINE
  5
348
330
17
100
AcDbEntity
  8
TABLE
100
AcDbLine
 10
90.3
 20
-481.0
 30
0.0
 11
90.3
 21
-488.0
 31
0.0
  0
LINE
  5
349
330
17
100
AcDbEntity
  8
TABLE
100
AcDbLine
 10
102.89999999999999
 20
-481.0
 30
0.0
 11
102.89999999999999
 21
-488.0
 31
0.0
  0
LINE
  5
34A
330
17
100
AcDbEntity
  8
TABLE
100
AcDbLine
 10
123.89999999999999
 20
-481.0
 30
0.0
 11
123.89999999999999
 21
-488.0
 31
0.0
  0
LINE
  5
34B
330
17
100
AcDbEntity
  8
TABLE
100
AcDbLine
 10
145.6
 20
-481.0
 30
0.0
 11
145.6
 21
-488.0
 31
0.0
  0
LINE
  5
34C
330
17
100
AcDbEntity
  8
TABLE
100
AcDbLine
 10
167.3
 20
-481.0
 30
0.0
 11
167.3
 21
-488.0
 31
0.0
  0
LINE
  5
34D
330
17
100
AcDbEntity
  8
TABLE
100
AcDbLine
 10
186.9
 20
-481.0
 30
0.0
 11
186.9
 21
-488.0
 31
0.0
  0
TEXT
  5
34E
330
17
100
AcDbEntity
  8
TABLE
100
AcDbText
 10
93.45
 20
-456.0
 30
0.0
 40
5.0
  1
圆形明渠(圆管涵)断面尺寸及水力要素表
 41
0.7
 72
1
 11
93.45
 21
-456.0
 31
0.0
100
AcDbText
 73
2
  0
TEXT
  5
34F
330
17
100
AcDbEntity
  8
TABLE
100
AcDbText
 10
10.5
 20
-471.0
 30
0.0
 40
3.5
  1
流量段
 41
0.7
 72
1
 11
10.5
 21
-471.0
 31
0.0
100
AcDbText
 73
2
  0
TEXT
  5
350
330
17
100
AcDbEntity
  8
TABLE
100
AcDbText
 10
29.75
 20
-466.0
 30
0.0
 40
3.5
  1
设计流量
 41
0.7
 72
1
 11
29.75
 21
-466.0
 31
0.0
100
AcDbText
 73
2
  0
MTEXT
  5
351
330
17
100
AcDbEntity
  8
TABLE
100
AcDbMText
 10
29.75
 20
-476.0
 30
0.0
 40
3.5
 71
5
  1
m{\H0.7x;\S3^ ;}/s
  0
TEXT
  5
352
330
17
100
AcDbEntity
  8
TABLE
100
AcDbText
 10
47.25
 20
-466.0
 30
0.0
 40
3.5
  1
加大流量
 41
0.7
 72
1
 11
47.25
 21
-466.0
 31
0.0
100
AcDbText
 73
2
  0
MTEXT
  5
353
330
17
100
AcDbEntity
  8
TABLE
100
AcDbMText
 10
47.25
 20
-476.0
 30
0.0
 40
3.5
 71
5
  1
m{\H0.7x;\S3^ ;}/s
  0
TEXT
  5
354
330
17
100
AcDbEntity
  8
TABLE
100
AcDbText
 10
66.15
 20
-471.0
 30
0.0
 40
3.5
  1
1/底坡
 41
0.7
 72
1
 11
66.15
 21
-471.0
 31
0.0
100
AcDbText
 73
2
  0
TEXT
  5
355
330
17
100
AcDbEntity
  8
TABLE
100
AcDbText
 10
83.3
 20
-471.0
 30
0.0
 40
3.5
  1
糙率
 41
0.7
 72
1
 11
83.3
 21
-471.0
 31
0.0
100
AcDbText
 73
2
  0
TEXT
  5
356
330
17
100
AcDbEntity
  8
TABLE
100
AcDbText
 10
96.6
 20
-466.0
 30
0.0
 40
3.5
  1
直径D
 41
0.7
 72
1
 11
96.6
 21
-466.0
 31
0.0
100
AcDbText
 73
2
  0
TEXT
  5
357
330
17
100
AcDbEntity
  8
TABLE
100
AcDbText
 10
96.6
 20
-476.0
 30
0.0
 40
3.5
  1
m
 41
0.7
 72
1
 11
96.6
 21
-476.0
 31
0.0
100
AcDbText
 73
2
  0
TEXT
  5
358
330
17
100
AcDbEntity
  8
TABLE
100
AcDbText
 10
113.39999999999999
 20
-471.0
 30
0.0
 40
3.5
  1
管道材质
 41
0.7
 72
1
 11
113.39999999999999
 21
-471.0
 31
0.0
100
AcDbText
 73
2
  0
MTEXT
  5
359
330
17
100
AcDbEntity
  8
TABLE
100
AcDbMText
 10
134.75
 20
-466.0
 30
0.0
 40
3.5
 71
5
  1
设计水深H{\H0.7x;\S^ 1;}
  0
TEXT
  5
35A
330
17
100
AcDbEntity
  8
TABLE
100
AcDbText
 10
134.75
 20
-476.0
 30
0.0
 40
3.5
  1
m
 41
0.7
 72
1
 11
134.75
 21
-476.0
 31
0.0
100
AcDbText
 73
2
  0
MTEXT
  5
35B
330
17
100
AcDbEntity
  8
TABLE
100
AcDbMText
 10
156.45
 20
-466.0
 30
0.0
 40
3.5
 71
5
  1
加大水深H{\H0.7x;\S^ 2;}
  0
TEXT
  5
35C
330
17
100
AcDbEntity
  8
TABLE
100
AcDbText
 10
156.45
 20
-476.0
 30
0.0
 40
3.5
  1
m
 41
0.7
 72
1
 11
156.45
 21
-476.0
 31
0.0
100
AcDbText
 73
2
  0
TEXT
  5
35D
330
17
100
AcDbEntity
  8
TABLE
100
AcDbText
 10
177.10000000000002
 20
-466.0
 30
0.0
 40
3.5
  1
设计流速v
 41
0.7
 72
1
 11
177.10000000000002
 21
-466.0
 31
0.0
100
AcDbText
 73
2
  0
TEXT
  5
35E
330
17
100
AcDbEntity
  8
TABLE
100
AcDbText
 10
177.10000000000002
 20
-476.0
 30
0.0
 40
3.5
  1
m/s
 41
0.7
 72
1
 11
177.10000000000002
 21
-476.0
 31
0.0
100
AcDbText
 73
2
  0
TEXT
  5
35F
330
17
100
AcDbEntity
  8
TABLE
100
AcDbText
 10
10.5
 20
-484.5
 30
0.0
 40
3.5
  1
第二流量段
 41
0.7
 72
1
 11
10.5
 21
-484.5
 31
0.0
100
AcDbText
 73
2
  0
TEXT
  5
360
330
17
100
AcDbEntity
  8
TABLE
100
AcDbText
 10
29.75
 20
-484.5
 30
0.0
 40
3.5
  1
4.0
 41
0.7
 72
1
 11
29.75
 21
-484.5
 31
0.0
100
AcDbText
 73
2
  0
TEXT
  5
361
330
17
100
AcDbEntity
  8
TABLE
100
AcDbText
 10
47.25
 20
-484.5
 30
0.0
 40
3.5
  1
5.0
 41
0.7
 72
1
 11
47.25
 21
-484.5
 31
0.0
100
AcDbText
 73
2
  0
TEXT
  5
362
330
17
100
AcDbEntity
  8
TABLE
100
AcDbText
 10
66.15
 20
-484.5
 30
0.0
 40
3.5
  1
1/3000.0
 41
0.7
 72
1
 11
66.15
 21
-484.5
 31
0.0
100
AcDbText
 73
2
  0
TEXT
  5
363
330
17
100
AcDbEntity
  8
TABLE
100
AcDbText
 10
83.3
 20
-484.5
 30
0.0
 40
3.5
  1
0.014
 41
0.7
 72
1
 11
83.3
 21
-484.5
 31
0.0
100
AcDbText
 73
2
  0
TEXT
  5
364
330
17
100
AcDbEntity
  8
TABLE
100
AcDbText
 10
96.6
 20
-484.5
 30
0.0
 40
3.5
  1
2.8
 41
0.7
 72
1
 11
96.6
 21
-484.5
 31
0.0
100
AcDbText
 73
2
  0
TEXT
  5
365
330
17
100
AcDbEntity
  8
TABLE
100
AcDbText
 10
113.39999999999999
 20
-484.5
 30
0.0
 40
3.5
  1
钢筋混凝土
 41
0.7
 72
1
 11
113.39999999999999
 21
-484.5
 31
0.0
100
AcDbText
 73
2
  0
TEXT
  5
366
330
17
100
AcDbEntity
  8
TABLE
100
AcDbText
 10
134.75
 20
-484.5
 30
0.0
 40
3.5
  1
1.615
 41
0.7
 72
1
 11
134.75
 21
-484.5
 31
0.0
100
AcDbText
 73
2
  0
TEXT
  5
367
330
17
100
AcDbEntity
  8
TABLE
100
AcDbText
 10
156.45
 20
-484.5
 30
0.0
 40
3.5
  1
1.877
 41
0.7
 72
1
 11
156.45
 21
-484.5
 31
0.0
100
AcDbText
 73
2
  0
TEXT
  5
368
330
17
100
AcDbEntity
  8
TABLE
100
AcDbText
 10
177.10000000000002
 20
-484.5
 30
0.0
 40
3.5
  1
1.087
 41
0.7
 72
1
 11
177.10000000000002
 21
-484.5
 31
0.0
100
AcDbText
 73
2
  0
LINE
  5
369
330
17
100
AcDbEntity
  8
TABLE
100
AcDbLine
 10
0.0
 20
-496.0
 30
0.0
 11
128.8
 21
-496.0
 31
0.0
  0
LINE
  5
36A
330
17
100
AcDbEntity
  8
TABLE
100
AcDbLine
 10
0.0
 20
-506.0
 30
0.0
 11
128.8
 21
-506.0
 31
0.0
  0
LINE
  5
36B
330
17
100
AcDbEntity
  8
TABLE
100
AcDbLine
 10
0.0
 20
-496.0
 30
0.0
 11
0.0
 21
-506.0
 31
0.0
  0
LINE
  5
36C
330
17
100
AcDbEntity
  8
TABLE
100
AcDbLine
 10
128.8
 20
-496.0
 30
0.0
 11
128.8
 21
-506.0
 31
0.0
  0
LINE
  5
36D
330
17
100
AcDbEntity
  8
TABLE
100
AcDbLine
 10
21.0
 20
-516.0
 30
0.0
 11
38.5
 21
-516.0
 31
0.0
  0
LINE
  5
36E
330
17
100
AcDbEntity
  8
TABLE
100
AcDbLine
 10
38.5
 20
-516.0
 30
0.0
 11
56.0
 21
-516.0
 31
0.0
  0
LINE
  5
36F
330
17
100
AcDbEntity
  8
TABLE
100
AcDbLine
 10
70.0
 20
-516.0
 30
0.0
 11
84.7
 21
-516.0
 31
0.0
  0
LINE
  5
370
330
17
100
AcDbEntity
  8
TABLE
100
AcDbLine
 10
109.2
 20
-516.0
 30
0.0
 11
128.8
 21
-516.0
 31
0.0
  0
LINE
  5
371
330
17
100
AcDbEntity
  8
TABLE
100
AcDbLine
 10
0.0
 20
-526.0
 30
0.0
 11
128.8
 21
-526.0
 31
0.0
  0
LINE
  5
372
330
17
100
AcDbEntity
  8
TABLE
100
AcDbLine
 10
0.0
 20
-506.0
 30
0.0
 11
0.0
 21
-526.0
 31
0.0
  0
LINE
  5
373
330
17
100
AcDbEntity
  8
TABLE
100
AcDbLine
 10
21.0
 20
-506.0
 30
0.0
 11
21.0
 21
-526.0
 31
0.0
  0
LINE
  5
374
330
17
100
AcDbEntity
  8
TABLE
100
AcDbLine
 10
38.5
 20
-506.0
 30
0.0
 11
38.5
 21
-526.0
 31
0.0
  0
LINE
  5
375
330
17
100
AcDbEntity
  8
TABLE
100
AcDbLine
 10
56.0
 20
-506.0
 30
0.0
 11
56.0
 21
-526.0
 31
0.0
  0
LINE
  5
376
330
17
100
AcDbEntity
  8
TABLE
100
AcDbLine
 10
70.0
 20
-506.0
 30
0.0
 11
70.0
 21
-526.0
 31
0.0
  0
LINE
  5
377
330
17
100
AcDbEntity
  8
TABLE
100
AcDbLine
 10
84.7
 20
-506.0
 30
0.0
 11
84.7
 21
-526.0
 31
0.0
  0
LINE
  5
378
330
17
100
AcDbEntity
  8
TABLE
100
AcDbLine
 10
109.2
 20
-506.0
 30
0.0
 11
109.2
 21
-526.0
 31
0.0
  0
LINE
  5
379
330
17
100
AcDbEntity
  8
TABLE
100
AcDbLine
 10
128.8
 20
-506.0
 30
0.0
 11
128.8
 21
-526.0
 31
0.0
  0
LINE
  5
37A
330
17
100
AcDbEntity
  8
TABLE
100
AcDbLine
 10
0.0
 20
-526.0
 30
0.0
 11
128.8
 21
-526.0
 31
0.0
  0
LINE
  5
37B
330
17
100
AcDbEntity
  8
TABLE
100
AcDbLine
 10
0.0
 20
-547.0
 30
0.0
 11
128.8
 21
-547.0
 31
0.0
  0
LINE
  5
37C
330
17
100
AcDbEntity
  8
TABLE
100
AcDbLine
 10
0.0
 20
-533.0
 30
0.0
 11
128.8
 21
-533.0
 31
0.0
  0
LINE
  5
37D
330
17
100
AcDbEntity
  8
TABLE
100
AcDbLine
 10
0.0
 20
-540.0
 30
0.0
 11
128.8
 21
-540.0
 31
0.0
  0
LINE
  5
37E
330
17
100
AcDbEntity
  8
TABLE
100
AcDbLine
 10
0.0
 20
-526.0
 30
0.0
 11
0.0
 21
-547.0
 31
0.0
  0
LINE
  5
37F
330
17
100
AcDbEntity
  8
TABLE
100
AcDbLine
 10
21.0
 20
-526.0
 30
0.0
 11
21.0
 21
-547.0
 31
0.0
  0
LINE
  5
380
330
17
100
AcDbEntity
  8
TABLE
100
AcDbLine
 10
38.5
 20
-526.0
 30
0.0
 11
38.5
 21
-547.0
 31
0.0
  0
LINE
  5
381
330
17
100
AcDbEntity
  8
TABLE
100
AcDbLine
 10
56.0
 20
-526.0
 30
0.0
 11
56.0
 21
-547.0
 31
0.0
  0
LINE
  5
382
330
17
100
AcDbEntity
  8
TABLE
100
AcDbLine
 10
70.0
 20
-526.0
 30
0.0
 11
70.0
 21
-547.0
 31
0.0
  0
LINE
  5
383
330
17
100
AcDbEntity
  8
TABLE
100
AcDbLine
 10
84.7
 20
-526.0
 30
0.0
 11
84.7
 21
-547.0
 31
0.0
  0
LINE
  5
384
330
17
100
AcDbEntity
  8
TABLE
100
AcDbLine
 10
109.2
 20
-526.0
 30
0.0
 11
109.2
 21
-547.0
 31
0.0
  0
LINE
  5
385
330
17
100
AcDbEntity
  8
TABLE
100
AcDbLine
 10
128.8
 20
-526.0
 30
0.0
 11
128.8
 21
-547.0
 31
0.0
  0
TEXT
  5
386
330
17
100
AcDbEntity
  8
TABLE
100
AcDbText
 10
64.4
 20
-501.0
 30
0.0
 40
5.0
  1
倒虹吸断面尺寸及水力要素表
 41
0.7
 72
1
 11
64.4
 21
-501.0
 31
0.0
100
AcDbText
 73
2
  0
TEXT
  5
387
330
17
100
AcDbEntity
  8
TABLE
100
AcDbText
 10
10.5
 20
-516.0
 30
0.0
 40
3.5
  1
流量段
 41
0.7
 72
1
 11
10.5
 21
-516.0
 31
0.0
100
AcDbText
 73
2
  0
TEXT
  5
388
330
17
100
AcDbEntity
  8
TABLE
100
AcDbText
 10
29.75
 20
-511.0
 30
0.0
 40
3.5
  1
设计流量
 41
0.7
 72
1
 11
29.75
 21
-511.0
 31
0.0
100
AcDbText
 73
2
  0
MTEXT
  5
389
330
17
100
AcDbEntity
  8
TABLE
100
AcDbMText
 10
29.75
 20
-521.0
 30
0.0
 40
3.5
 71
5
  1
m{\H0.7x;\S3^ ;}/s
  0
TEXT
  5
38A
330
17
100
AcDbEntity
  8
TABLE
100
AcDbText
 10
47.25
 20
-511.0
 30
0.0
 40
3.5
  1
加大流量
 41
0.7
 72
1
 11
47.25
 21
-511.0
 31
0.0
100
AcDbText
 73
2
  0
MTEXT
  5
38B
330
17
100
AcDbEntity
  8
TABLE
100
AcDbMText
 10
47.25
 20
-521.0
 30
0.0
 40
3.5
 71
5
  1
m{\H0.7x;\S3^ ;}/s
  0
TEXT
  5
38C
330
17
100
AcDbEntity
  8
TABLE
100
AcDbText
 10
63.0
 20
-516.0
 30
0.0
 40
3.5
  1
糙率
 41
0.7
 72
1
 11
63.0
 21
-516.0
 31
0.0
100
AcDbText
 73
2
  0
TEXT
  5
38D
330
17
100
AcDbEntity
  8
TABLE
100
AcDbText
 10
77.35
 20
-511.0
 30
0.0
 40
3.5
  1
直径DN
 41
0.7
 72
1
 11
77.35
 21
-511.0
 31
0.0
100
AcDbText
 73
2
  0
TEXT
  5
38E
330
17
100
AcDbEntity
  8
TABLE
100
AcDbText
 10
77.35
 20
-521.0
 30
0.0
 40
3.5
  1
mm
 41
0.7
 72
1
 11
77.35
 21
-521.0
 31
0.0
100
AcDbText
 73
2
  0
TEXT
  5
38F
330
17
100
AcDbEntity
  8
TABLE
100
AcDbText
 10
96.95
 20
-516.0
 30
0.0
 40
3.5
  1
管道材质
 41
0.7
 72
1
 11
96.95
 21
-516.0
 31
0.0
100
AcDbText
 73
2
  0
TEXT
  5
390
330
17
100
AcDbEntity
  8
TABLE
100
AcDbText
 10
119.0
 20
-511.0
 30
0.0
 40
3.5
  1
设计流速v
 41
0.7
 72
1
 11
119.0
 21
-511.0
 31
0.0
100
AcDbText
 73
2
  0
TEXT
  5
391
330
17
100
AcDbEntity
  8
TABLE
100
AcDbText
 10
119.0
 20
-521.0
 30
0.0
 40
3.5
  1
m/s
 41
0.7
 72
1
 11
119.0
 21
-521.0
 31
0.0
100
AcDbText
 73
2
  0
TEXT
  5
392
330
17
100
AcDbEntity
  8
TABLE
100
AcDbText
 10
10.5
 20
-529.5
 30
0.0
 40
3.5
  1
第二流量段
 41
0.7
 72
1
 11
10.5
 21
-529.5
 31
0.0
100
AcDbText
 73
2
  0
TEXT
  5
393
330
17
100
AcDbEntity
  8
TABLE
100
AcDbText
 10
29.75
 20
-529.5
 30
0.0
 40
3.5
  1
4.0
 41
0.7
 72
1
 11
29.75
 21
-529.5
 31
0.0
100
AcDbText
 73
2
  0
TEXT
  5
394
330
17
100
AcDbEntity
  8
TABLE
100
AcDbText
 10
47.25
 20
-529.5
 30
0.0
 40
3.5
  1
5.0
 41
0.7
 72
1
 11
47.25
 21
-529.5
 31
0.0
100
AcDbText
 73
2
  0
TEXT
  5
395
330
17
100
AcDbEntity
  8
TABLE
100
AcDbText
 10
63.0
 20
-529.5
 30
0.0
 40
3.5
  1
0.014
 41
0.7
 72
1
 11
63.0
 21
-529.5
 31
0.0
100
AcDbText
 73
2
  0
TEXT
  5
396
330
17
100
AcDbEntity
  8
TABLE
100
AcDbText
 10
77.35
 20
-529.5
 30
0.0
 40
3.5
  1
1600
 41
0.7
 72
1
 11
77.35
 21
-529.5
 31
0.0
100
AcDbText
 73
2
  0
TEXT
  5
397
330
17
100
AcDbEntity
  8
TABLE
100
AcDbText
 10
96.95
 20
-529.5
 30
0.0
 40
3.5
  1
球墨铸铁管
 41
0.7
 72
1
 11
96.95
 21
-529.5
 31
0.0
100
AcDbText
 73
2
  0
TEXT
  5
398
330
17
100
AcDbEntity
  8
TABLE
100
AcDbText
 10
119.0
 20
-529.5
 30
0.0
 40
3.5
  1
1.99
 41
0.7
 72
1
 11
119.0
 21
-529.5
 31
0.0
100
AcDbText
 73
2
  0
TEXT
  5
399
330
17
100
AcDbEntity
  8
TABLE
100
AcDbText
 10
10.5
 20
-536.5
 30
0.0
 40
3.5
  1
第二流量段
 41
0.7
 72
1
 11
10.5
 21
-536.5
 31
0.0
100
AcDbText
 73
2
  0
TEXT
  5
39A
330
17
100
AcDbEntity
  8
TABLE
100
AcDbText
 10
29.75
 20
-536.5
 30
0.0
 40
3.5
  1
4.0
 41
0.7
 72
1
 11
29.75
 21
-536.5
 31
0.0
100
AcDbText
 73
2
  0
TEXT
  5
39B
330
17
100
AcDbEntity
  8
TABLE
100
AcDbText
 10
47.25
 20
-536.5
 30
0.0
 40
3.5
  1
5.0
 41
0.7
 72
1
 11
47.25
 21
-536.5
 31
0.0
100
AcDbText
 73
2
  0
TEXT
  5
39C
330
17
100
AcDbEntity
  8
TABLE
100
AcDbText
 10
63.0
 20
-536.5
 30
0.0
 40
3.5
  1
0.014
 41
0.7
 72
1
 11
63.0
 21
-536.5
 31
0.0
100
AcDbText
 73
2
  0
TEXT
  5
39D
330
17
100
AcDbEntity
  8
TABLE
100
AcDbText
 10
77.35
 20
-536.5
 30
0.0
 40
3.5
  1
1600
 41
0.7
 72
1
 11
77.35
 21
-536.5
 31
0.0
100
AcDbText
 73
2
  0
TEXT
  5
39E
330
17
100
AcDbEntity
  8
TABLE
100
AcDbText
 10
96.95
 20
-536.5
 30
0.0
 40
3.5
  1
玻璃钢夹砂管
 41
0.7
 72
1
 11
96.95
 21
-536.5
 31
0.0
100
AcDbText
 73
2
  0
TEXT
  5
39F
330
17
100
AcDbEntity
  8
TABLE
100
AcDbText
 10
119.0
 20
-536.5
 30
0.0
 40
3.5
  1
1.99
 41
0.7
 72
1
 11
119.0
 21
-536.5
 31
0.0
100
AcDbText
 73
2
  0
TEXT
  5
3A0
330
17
100
AcDbEntity
  8
TABLE
100
AcDbText
 10
10.5
 20
-543.5
 30
0.0
 40
3.5
  1
第二流量段
 41
0.7
 72
1
 11
10.5
 21
-543.5
 31
0.0
100
AcDbText
 73
2
  0
TEXT
  5
3A1
330
17
100
AcDbEntity
  8
TABLE
100
AcDbText
 10
29.75
 20
-543.5
 30
0.0
 40
3.5
  1
4.0
 41
0.7
 72
1
 11
29.75
 21
-543.5
 31
0.0
100
AcDbText
 73
2
  0
TEXT
  5
3A2
330
17
100
AcDbEntity
  8
TABLE
100
AcDbText
 10
47.25
 20
-543.5
 30
0.0
 40
3.5
  1
5.0
 41
0.7
 72
1
 11
47.25
 21
-543.5
 31
0.0
100
AcDbText
 73
2
  0
TEXT
  5
3A3
330
17
100
AcDbEntity
  8
TABLE
100
AcDbText
 10
63.0
 20
-543.5
 30
0.0
 40
3.5
  1
0.014
 41
0.7
 72
1
 11
63.0
 21
-543.5
 31
0.0
100
AcDbText
 73
2
  0
TEXT
  5
3A4
330
17
100
AcDbEntity
  8
TABLE
100
AcDbText
 10
77.35
 20
-543.5
 30
0.0
 40
3.5
  1
1600
 41
0.7
 72
1
 11
77.35
 21
-543.5
 31
0.0
100
AcDbText
 73
2
  0
TEXT
  5
3A5
330
17
100
AcDbEntity
  8
TABLE
100
AcDbText
 10
96.95
 20
-543.5
 30
0.0
 40
3.5
  1
PCCP管
 41
0.7
 72
1
 11
96.95
 21
-543.5
 31
0.0
100
AcDbText
 73
2
  0
TEXT
  5
3A6
330
17
100
AcDbEntity
  8
TABLE
100
AcDbText
 10
119.0
 20
-543.5
 30
0.0
 40
3.5
  1
1.99
 41
0.7
 72
1
 11
119.0
 21
-543.5
 31
0.0
100
AcDbText
 73
2
  0
ENDSEC
  0
SECTION
  2
OBJECTS
  0
DICTIONARY
  5
A
330
0
100
AcDbDictionary
281
1
  3
ACAD_COLOR
350
B
  3
ACAD_GROUP
350
C
  3
ACAD_LAYOUT
350
D
  3
ACAD_MATERIAL
350
E
  3
ACAD_MLEADERSTYLE
350
F
  3
ACAD_MLINESTYLE
350
10
  3
ACAD_PLOTSETTINGS
350
11
  3
ACAD_PLOTSTYLENAME
350
12
  3
ACAD_SCALELIST
350
14
  3
ACAD_TABLESTYLE
350
15
  3
ACAD_VISUALSTYLE
350
16
  3
EZDXF_META
350
2D
  0
DICTIONARY
  5
B
330
A
100
AcDbDictionary
281
1
  0
DICTIONARY
  5
C
330
A
100
AcDbDictionary
281
1
  0
DICTIONARY
  5
D
330
A
100
AcDbDictionary
281
1
  3
Model
350
1A
  3
Layout1
350
1E
  0
DICTIONARY
  5
E
330
A
100
AcDbDictionary
281
1
  3
ByBlock
350
1F
  3
ByLayer
350
20
  3
Global
350
21
  0
DICTIONARY
  5
F
330
A
100
AcDbDictionary
281
1
  3
Standard
350
2C
  0
DICTIONARY
  5
10
330
A
100
AcDbDictionary
281
1
  3
Standard
350
22
  0
DICTIONARY
  5
11
330
A
100
AcDbDictionary
281
1
  0
ACDBDICTIONARYWDFLT
  5
12
330
A
100
AcDbDictionary
281
1
  3
Normal
350
13
100
AcDbDictionaryWithDefault
340
13
  0
ACDBPLACEHOLDER
  5
13
330
12
  0
DICTIONARY
  5
14
330
A
100
AcDbDictionary
281
1
  0
DICTIONARY
  5
15
330
A
100
AcDbDictionary
281
1
  0
DICTIONARY
  5
16
330
A
100
AcDbDictionary
281
1
  0
LAYOUT
  5
1A
330
D
100
AcDbPlotSettings
  1

  4
A3
  6

 40
7.5
 41
20.0
 42
7.5
 43
20.0
 44
420.0
 45
297.0
 46
0.0
 47
0.0
 48
0.0
 49
0.0
140
0.0
141
0.0
142
1.0
143
1.0
 70
1024
 72
1
 73
0
 74
5
  7

 75
16
 76
0
 77
2
 78
300
147
1.0
148
0.0
149
0.0
100
AcDbLayout
  1
Model
 70
1
 71
0
 10
0.0
 20
0.0
 11
420.0
 21
297.0
 12
0.0
 22
0.0
 32
0.0
 14
1e+20
 24
1e+20
 34
1e+20
 15
-1e+20
 25
-1e+20
 35
-1e+20
146
0.0
 13
0.0
 23
0.0
 33
0.0
 16
1.0
 26
0.0
 36
0.0
 17
0.0
 27
1.0
 37
0.0
 76
1
330
17
  0
LAYOUT
  5
1E
330
D
100
AcDbPlotSettings
  1

  4
A3
  6

 40
7.5
 41
20.0
 42
7.5
 43
20.0
 44
420.0
 45
297.0
 46
0.0
 47
0.0
 48
0.0
 49
0.0
140
0.0
141
0.0
142
1.0
143
1.0
 70
0
 72
1
 73
0
 74
5
  7

 75
16
 76
0
 77
2
 78
300
147
1.0
148
0.0
149
0.0
100
AcDbLayout
  1
Layout1
 70
1
 71
1
 10
0.0
 20
0.0
 11
420.0
 21
297.0
 12
0.0
 22
0.0
 32
0.0
 14
1e+20
 24
1e+20
 34
1e+20
 15
-1e+20
 25
-1e+20
 35
-1e+20
146
0.0
 13
0.0
 23
0.0
 33
0.0
 16
1.0
 26
0.0
 36
0.0
 17
0.0
 27
1.0
 37
0.0
 76
1
330
1B
  0
MATERIAL
  5
1F
102
{ACAD_REACTORS
330
E
102
}
330
E
100
AcDbMaterial
  1
ByBlock
  2

 70
0
 40
1.0
 71
1
 41
1.0
 91
-1023410177
 42
1.0
 72
1
  3

 73
1
 74
1
 75
1
 44
0.5
 73
0
 45
1.0
 46
1.0
 77
1
  4

 78
1
 79
1
170
1
 48
1.0
171
1
  6

172
1
173
1
174
1
140
1.0
141
1.0
175
1
  7

176
1
177
1
178
1
143
1.0
179
1
  8

270
1
271
1
272
1
145
1.0
146
1.0
273
1
  9

274
1
275
1
276
1
 42
1.0
 72
1
  3

 73
1
 74
1
 75
1
 94
63
  0
MATERIAL
  5
20
102
{ACAD_REACTORS
330
E
102
}
330
E
100
AcDbMaterial
  1
ByLayer
  2

 70
0
 40
1.0
 71
1
 41
1.0
 91
-1023410177
 42
1.0
 72
1
  3

 73
1
 74
1
 75
1
 44
0.5
 73
0
 45
1.0
 46
1.0
 77
1
  4

 78
1
 79
1
170
1
 48
1.0
171
1
  6

172
1
173
1
174
1
140
1.0
141
1.0
175
1
  7

176
1
177
1
178
1
143
1.0
179
1
  8

270
1
271
1
272
1
145
1.0
146
1.0
273
1
  9

274
1
275
1
276
1
 42
1.0
 72
1
  3

 73
1
 74
1
 75
1
 94
63
  0
MATERIAL
  5
21
102
{ACAD_REACTORS
330
E
102
}
330
E
100
AcDbMaterial
  1
Global
  2

 70
0
 40
1.0
 71
1
 41
1.0
 91
-1023410177
 42
1.0
 72
1
  3

 73
1
 74
1
 75
1
 44
0.5
 73
0
 45
1.0
 46
1.0
 77
1
  4

 78
1
 79
1
170
1
 48
1.0
171
1
  6

172
1
173
1
174
1
140
1.0
141
1.0
175
1
  7

176
1
177
1
178
1
143
1.0
179
1
  8

270
1
271
1
272
1
145
1.0
146
1.0
273
1
  9

274
1
275
1
276
1
 42
1.0
 72
1
  3

 73
1
 74
1
 75
1
 94
63
  0
MLINESTYLE
  5
22
102
{ACAD_REACTORS
330
10
102
}
330
10
100
AcDbMlineStyle
  2
Standard
 70
0
  3

 62
256
 51
90.0
 52
90.0
 71
2
 49
0.5
 62
256
  6
BYLAYER
 49
-0.5
 62
256
  6
BYLAYER
  0
MLEADERSTYLE
  5
2C
102
{ACAD_REACTORS
330
F
102
}
330
F
100
AcDbMLeaderStyle
179
2
170
2
171
1
172
0
 90
2
 40
0.0
 41
0.0
173
1
 91
-1056964608
 92
-2
290
1
 42
2.0
291
1
 43
8.0
  3
Standard
 44
4.0
300

342
29
174
1
175
1
176
0
178
1
 93
-1056964608
 45
4.0
292
0
297
0
 46
4.0
 94
-1056964608
 47
1.0
 49
1.0
140
1.0
294
1
141
0.0
177
0
142
1.0
295
0
296
0
143
3.75
271
0
272
9
273
9
  0
DICTIONARY
  5
2D
330
A
100
AcDbDictionary
280
1
281
1
  3
CREATED_BY_EZDXF
350
2E
  3
WRITTEN_BY_EZDXF
350
3A9
  0
DICTIONARYVAR
  5
2E
330
2D
100
DictionaryVariables
280
0
  1
1.4.3 @ 2026-02-14T14:14:55.428401+00:00
  0
DICTIONARYVAR
  5
3A9
330
2D
100
DictionaryVariables
280
0
  1
1.4.3 @ 2026-02-14T14:14:55.442265+00:00
  0
ENDSEC
  0
EOF
