  0
SECTION
  2
HEADER
  9
$ACADVER
  1
AC1024
  9
$ACADMAINTVER
 70
6
  9
$DWGCODEPAGE
  3
ANSI_1252
  9
$LASTSAVEDBY
  1
ezdxf
  9
$INSBASE
 10
0.0
 20
0.0
 30
0.0
  9
$EXTMIN
 10
1e+20
 20
1e+20
 30
1e+20
  9
$EXTMAX
 10
-1e+20
 20
-1e+20
 30
-1e+20
  9
$LIMMIN
 10
0.0
 20
0.0
  9
$LIMMAX
 10
420.0
 20
297.0
  9
$ORTHOMODE
 70
0
  9
$REGENMODE
 70
1
  9
$FILLMODE
 70
1
  9
$QTEXTMODE
 70
0
  9
$MIRRTEXT
 70
1
  9
$LTSCALE
 40
1.0
  9
$ATTMODE
 70
1
  9
$TEXTSIZE
 40
2.5
  9
$TRACEWID
 40
1.0
  9
$TEXTSTYLE
  7
Standard
  9
$CLAYER
  8
0
  9
$CELTYPE
  6
ByLayer
  9
$CECOLOR
 62
256
  9
$CELTSCALE
 40
1.0
  9
$DISPSILH
 70
0
  9
$DIMSCALE
 40
1.0
  9
$DIMASZ
 40
2.5
  9
$DIMEXO
 40
0.625
  9
$DIMDLI
 40
3.75
  9
$DIMRND
 40
0.0
  9
$DIMDLE
 40
0.0
  9
$DIMEXE
 40
1.25
  9
$DIMTP
 40
0.0
  9
$DIMTM
 40
0.0
  9
$DIMTXT
 40
2.5
  9
$DIMCEN
 40
2.5
  9
$DIMTSZ
 40
0.0
  9
$DIMTOL
 70
0
  9
$DIMLIM
 70
0
  9
$DIMTIH
 70
0
  9
$DIMTOH
 70
0
  9
$DIMSE1
 70
0
  9
$DIMSE2
 70
0
  9
$DIMTAD
 70
1
  9
$DIMZIN
 70
8
  9
$DIMBLK
  1

  9
$DIMASO
 70
1
  9
$DIMSHO
 70
1
  9
$DIMPOST
  1

  9
$DIMAPOST
  1

  9
$DIMALT
 70
0
  9
$DIMALTD
 70
3
  9
$DIMALTF
 40
0.03937007874
  9
$DIMLFAC
 40
1.0
  9
$DIMTOFL
 70
1
  9
$DIMTVP
 40
0.0
  9
$DIMTIX
 70
0
  9
$DIMSOXD
 70
0
  9
$DIMSAH
 70
0
  9
$DIMBLK1
  1

  9
$DIMBLK2
  1

  9
$DIMSTYLE
  2
ISO-25
  9
$DIMCLRD
 70
0
  9
$DIMCLRE
 70
0
  9
$DIMCLRT
 70
0
  9
$DIMTFAC
 40
1.0
  9
$DIMGAP
 40
0.625
  9
$DIMJUST
 70
0
  9
$DIMSD1
 70
0
  9
$DIMSD2
 70
0
  9
$DIMTOLJ
 70
0
  9
$DIMTZIN
 70
8
  9
$DIMALTZ
 70
0
  9
$DIMALTTZ
 70
0
  9
$DIMUPT
 70
0
  9
$DIMDEC
 70
2
  9
$DIMTDEC
 70
2
  9
$DIMALTU
 70
2
  9
$DIMALTTD
 70
3
  9
$DIMTXSTY
  7
Standard
  9
$DIMAUNIT
 70
0
  9
$DIMADEC
 70
0
  9
$DIMALTRND
 40
0.0
  9
$DIMAZIN
 70
0
  9
$DIMDSEP
 70
44
  9
$DIMATFIT
 70
3
  9
$DIMFRAC
 70
0
  9
$DIMLDRBLK
  1

  9
$DIMLUNIT
 70
2
  9
$DIMLWD
 70
-2
  9
$DIMLWE
 70
-2
  9
$DIMTMOVE
 70
0
  9
$DIMFXL
 40
1.0
  9
$DIMFXLON
 70
0
  9
$DIMJOGANG
 40
0.785398163397
  9
$DIMTFILL
 70
0
  9
$DIMTFILLCLR
 70
0
  9
$DIMARCSYM
 70
0
  9
$DIMLTYPE
  6

  9
$DIMLTEX1
  6

  9
$DIMLTEX2
  6

  9
$DIMTXTDIRECTION
 70
0
  9
$LUNITS
 70
2
  9
$LUPREC
 70
4
  9
$SKETCHINC
 40
1.0
  9
$FILLETRAD
 40
10.0
  9
$AUNITS
 70
0
  9
$AUPREC
 70
2
  9
$MENU
  1
.
  9
$ELEVATION
 40
0.0
  9
$PELEVATION
 40
0.0
  9
$THICKNESS
 40
0.0
  9
$LIMCHECK
 70
0
  9
$CHAMFERA
 40
0.0
  9
$CHAMFERB
 40
0.0
  9
$CHAMFERC
 40
0.0
  9
$CHAMFERD
 40
0.0
  9
$SKPOLY
 70
0
  9
$TDCREATE
 40
2461086.919976852
  9
$TDUCREATE
 40
2458532.153996898
  9
$TDUPDATE
 40
2461086.919976852
  9
$TDUUPDATE
 40
2458532.1544311
  9
$TDINDWG
 40
0.0
  9
$TDUSRTIMER
 40
0.0
  9
$USRTIMER
 70
1
  9
$ANGBASE
 50
0.0
  9
$ANGDIR
 70
0
  9
$PDMODE
 70
0
  9
$PDSIZE
 40
0.0
  9
$PLINEWID
 40
0.0
  9
$SPLFRAME
 70
0
  9
$SPLINETYPE
 70
6
  9
$SPLINESEGS
 70
8
  9
$HANDSEED
  5
206
  9
$SURFTAB1
 70
6
  9
$SURFTAB2
 70
6
  9
$SURFTYPE
 70
6
  9
$SURFU
 70
6
  9
$SURFV
 70
6
  9
$UCSBASE
  2

  9
$UCSNAME
  2

  9
$UCSORG
 10
0.0
 20
0.0
 30
0.0
  9
$UCSXDIR
 10
1.0
 20
0.0
 30
0.0
  9
$UCSYDIR
 10
0.0
 20
1.0
 30
0.0
  9
$UCSORTHOREF
  2

  9
$UCSORTHOVIEW
 70
0
  9
$UCSORGTOP
 10
0.0
 20
0.0
 30
0.0
  9
$UCSORGBOTTOM
 10
0.0
 20
0.0
 30
0.0
  9
$UCSORGLEFT
 10
0.0
 20
0.0
 30
0.0
  9
$UCSORGRIGHT
 10
0.0
 20
0.0
 30
0.0
  9
$UCSORGFRONT
 10
0.0
 20
0.0
 30
0.0
  9
$UCSORGBACK
 10
0.0
 20
0.0
 30
0.0
  9
$PUCSBASE
  2

  9
$PUCSNAME
  2

  9
$PUCSORG
 10
0.0
 20
0.0
 30
0.0
  9
$PUCSXDIR
 10
1.0
 20
0.0
 30
0.0
  9
$PUCSYDIR
 10
0.0
 20
1.0
 30
0.0
  9
$PUCSORTHOREF
  2

  9
$PUCSORTHOVIEW
 70
0
  9
$PUCSORGTOP
 10
0.0
 20
0.0
 30
0.0
  9
$PUCSORGBOTTOM
 10
0.0
 20
0.0
 30
0.0
  9
$PUCSORGLEFT
 10
0.0
 20
0.0
 30
0.0
  9
$PUCSORGRIGHT
 10
0.0
 20
0.0
 30
0.0
  9
$PUCSORGFRONT
 10
0.0
 20
0.0
 30
0.0
  9
$PUCSORGBACK
 10
0.0
 20
0.0
 30
0.0
  9
$USERI1
 70
0
  9
$USERI2
 70
0
  9
$USERI3
 70
0
  9
$USERI4
 70
0
  9
$USERI5
 70
0
  9
$USERR1
 40
0.0
  9
$USERR2
 40
0.0
  9
$USERR3
 40
0.0
  9
$USERR4
 40
0.0
  9
$USERR5
 40
0.0
  9
$WORLDVIEW
 70
1
  9
$SHADEDGE
 70
3
  9
$SHADEDIF
 70
70
  9
$TILEMODE
 70
1
  9
$MAXACTVP
 70
64
  9
$PINSBASE
 10
0.0
 20
0.0
 30
0.0
  9
$PLIMCHECK
 70
0
  9
$PEXTMIN
 10
1e+20
 20
1e+20
 30
1e+20
  9
$PEXTMAX
 10
-1e+20
 20
-1e+20
 30
-1e+20
  9
$PLIMMIN
 10
0.0
 20
0.0
  9
$PLIMMAX
 10
420.0
 20
297.0
  9
$UNITMODE
 70
0
  9
$VISRETAIN
 70
1
  9
$PLINEGEN
 70
0
  9
$PSLTSCALE
 70
1
  9
$TREEDEPTH
 70
3020
  9
$CMLSTYLE
  2
Standard
  9
$CMLJUST
 70
0
  9
$CMLSCALE
 40
20.0
  9
$PROXYGRAPHICS
 70
1
  9
$MEASUREMENT
 70
1
  9
$CELWEIGHT
370
-1
  9
$ENDCAPS
280
0
  9
$JOINSTYLE
280
0
  9
$LWDISPLAY
290
0
  9
$INSUNITS
 70
6
  9
$HYPERLINKBASE
  1

  9
$STYLESHEET
  1

  9
$XEDIT
290
1
  9
$CEPSNTYPE
380
0
  9
$PSTYLEMODE
290
1
  9
$FINGERPRINTGUID
  2
{EA5D5970-B929-43F0-849A-A705C4538E30}
  9
$VERSIONGUID
  2
{A45B8613-1DC5-46EC-A9F1-065F5F452548}
  9
$EXTNAMES
290
1
  9
$PSVPSCALE
 40
0.0
  9
$OLESTARTUP
290
0
  9
$SORTENTS
280
127
  9
$INDEXCTL
280
0
  9
$HIDETEXT
280
1
  9
$XCLIPFRAME
280
1
  9
$HALOGAP
280
0
  9
$OBSCOLOR
 70
257
  9
$OBSLTYPE
280
0
  9
$INTERSECTIONDISPLAY
280
0
  9
$INTERSECTIONCOLOR
 70
257
  9
$DIMASSOC
280
2
  9
$PROJECTNAME
  1

  9
$CAMERADISPLAY
290
0
  9
$LENSLENGTH
 40
50.0
  9
$CAMERAHEIGHT
 40
0.0
  9
$STEPSPERSEC
 40
24.0
  9
$STEPSIZE
 40
100.0
  9
$3DDWFPREC
 40
2.0
  9
$PSOLWIDTH
 40
0.005
  9
$PSOLHEIGHT
 40
0.08
  9
$LOFTANG1
 40
1.570796326795
  9
$LOFTANG2
 40
1.570796326795
  9
$LOFTMAG1
 40
0.0
  9
$LOFTMAG2
 40
0.0
  9
$LOFTPARAM
 70
7
  9
$LOFTNORMALS
280
1
  9
$LATITUDE
 40
37.795
  9
$LONGITUDE
 40
-122.394
  9
$NORTHDIRECTION
 40
0.0
  9
$TIMEZONE
 70
-8000
  9
$LIGHTGLYPHDISPLAY
280
1
  9
$TILEMODELIGHTSYNCH
280
1
  9
$CMATERIAL
347
20
  9
$SOLIDHIST
280
0
  9
$SHOWHIST
280
1
  9
$DWFFRAME
280
2
  9
$DGNFRAME
280
2
  9
$REALWORLDSCALE
290
1
  9
$INTERFERECOLOR
 62
256
  9
$CSHADOW
280
0
  9
$SHADOWPLANELOCATION
 40
0.0
  0
ENDSEC
  0
SECTION
  2
CLASSES
  0
CLASS
  1
ACDBDICTIONARYWDFLT
  2
AcDbDictionaryWithDefault
  3
ObjectDBX Classes
 90
0
 91
0
280
0
281
0
  0
CLASS
  1
SUN
  2
AcDbSun
  3
SCENEOE
 90
1153
 91
0
280
0
281
0
  0
CLASS
  1
VISUALSTYLE
  2
AcDbVisualStyle
  3
ObjectDBX Classes
 90
4095
 91
0
280
0
281
0
  0
CLASS
  1
MATERIAL
  2
AcDbMaterial
  3
ObjectDBX Classes
 90
1153
 91
0
280
0
281
0
  0
CLASS
  1
SCALE
  2
AcDbScale
  3
ObjectDBX Classes
 90
1153
 91
0
280
0
281
0
  0
CLASS
  1
TABLESTYLE
  2
AcDbTableStyle
  3
ObjectDBX Classes
 90
4095
 91
0
280
0
281
0
  0
CLASS
  1
MLEADERSTYLE
  2
AcDbMLeaderStyle
  3
ACDB_MLEADERSTYLE_CLASS
 90
4095
 91
0
280
0
281
0
  0
CLASS
  1
DICTIONARYVAR
  2
AcDbDictionaryVar
  3
ObjectDBX Classes
 90
0
 91
0
280
0
281
0
  0
CLASS
  1
CELLSTYLEMAP
  2
AcDbCellStyleMap
  3
ObjectDBX Classes
 90
1152
 91
0
280
0
281
0
  0
CLASS
  1
MENTALRAYRENDERSETTINGS
  2
AcDbMentalRayRenderSettings
  3
SCENEOE
 90
1024
 91
0
280
0
281
0
  0
CLASS
  1
ACDBDETAILVIEWSTYLE
  2
AcDbDetailViewStyle
  3
ObjectDBX Classes
 90
1025
 91
0
280
0
281
0
  0
CLASS
  1
ACDBSECTIONVIEWSTYLE
  2
AcDbSectionViewStyle
  3
ObjectDBX Classes
 90
1025
 91
0
280
0
281
0
  0
CLASS
  1
RASTERVARIABLES
  2
AcDbRasterVariables
  3
ISM
 90
0
 91
0
280
0
281
0
  0
CLASS
  1
LAYOUT
  2
AcDbLayout
  3
ObjectDBX Classes
 90
0
 91
0
280
0
281
0
  0
CLASS
  1
ACDBPLACEHOLDER
  2
AcDbPlaceHolder
  3
ObjectDBX Classes
 90
0
 91
0
280
0
281
0
  0
ENDSEC
  0
SECTION
  2
TABLES
  0
TABLE
  2
VPORT
  5
8
330
0
100
AcDbSymbolTable
 70
1
  0
VPORT
  5
23
330
8
100
AcDbSymbolTableRecord
100
AcDbViewportTableRecord
  2
*Active
 70
0
 10
0.0
 20
0.0
 11
1.0
 21
1.0
 12
0.0
 22
0.0
 13
0.0
 23
0.0
 14
0.5
 24
0.5
 15
0.5
 25
0.5
 16
0.0
 26
0.0
 36
1.0
 17
0.0
 27
0.0
 37
0.0
 40
1000.0
 41
1.34
 42
50.0
 43
0.0
 44
0.0
 50
0.0
 51
0.0
 71
0
 72
1000
 73
1
 74
3
 75
0
 76
0
 77
0
 78
0
281
0
 65
0
146
0.0
  0
ENDTAB
  0
TABLE
  2
LTYPE
  5
2
330
0
100
AcDbSymbolTable
 70
3
  0
LTYPE
  5
24
330
2
100
AcDbSymbolTableRecord
100
AcDbLinetypeTableRecord
  2
ByBlock
 70
0
  3

 72
65
 73
0
 40
0.0
  0
LTYPE
  5
25
330
2
100
AcDbSymbolTableRecord
100
AcDbLinetypeTableRecord
  2
ByLayer
 70
0
  3

 72
65
 73
0
 40
0.0
  0
LTYPE
  5
26
330
2
100
AcDbSymbolTableRecord
100
AcDbLinetypeTableRecord
  2
Continuous
 70
0
  3

 72
65
 73
0
 40
0.0
  0
ENDTAB
  0
TABLE
  2
LAYER
  5
1
330
0
100
AcDbSymbolTable
 70
7
  0
LAYER
  5
27
330
1
100
AcDbSymbolTableRecord
100
AcDbLayerTableRecord
  2
0
 70
0
 62
7
  6
Continuous
370
-3
390
13
347
21
  0
LAYER
  5
28
330
1
100
AcDbSymbolTableRecord
100
AcDbLayerTableRecord
  2
Defpoints
 70
0
 62
7
  6
Continuous
290
0
370
-3
390
13
347
21
  0
LAYER
  5
2F
330
1
100
AcDbSymbolTableRecord
100
AcDbLayerTableRecord
  2
表格线框
 70
0
 62
7
  6
Continuous
370
-3
390
13
347
21
  0
LAYER
  5
30
330
1
100
AcDbSymbolTableRecord
100
AcDbLayerTableRecord
  2
渠底高程线
 70
0
 62
3
  6
Continuous
370
-3
390
13
347
21
  0
LAYER
  5
31
330
1
100
AcDbSymbolTableRecord
100
AcDbLayerTableRecord
  2
渠顶高程线
 70
0
 62
1
  6
Continuous
370
-3
390
13
347
21
  0
LAYER
  5
32
330
1
100
AcDbSymbolTableRecord
100
AcDbLayerTableRecord
  2
设计水位线
 70
0
 62
5
  6
Continuous
370
-3
390
13
347
21
  0
LAYER
  5
33
330
1
100
AcDbSymbolTableRecord
100
AcDbLayerTableRecord
  2
文字标注
 70
0
 62
7
  6
Continuous
370
-3
390
13
347
21
  0
ENDTAB
  0
TABLE
  2
STYLE
  5
5
330
0
100
AcDbSymbolTable
 70
1
  0
STYLE
  5
29
330
5
100
AcDbSymbolTableRecord
100
AcDbTextStyleTableRecord
  2
Standard
 70
0
 40
0.0
 41
0.7
 50
0.0
 71
0
 42
2.5
  3

  4

1001
ACAD
1000
仿宋
1071
0
  0
ENDTAB
  0
TABLE
  2
VIEW
  5
7
330
0
100
AcDbSymbolTable
 70
0
  0
ENDTAB
  0
TABLE
  2
UCS
  5
6
330
0
100
AcDbSymbolTable
 70
0
  0
ENDTAB
  0
TABLE
  2
APPID
  5
3
330
0
100
AcDbSymbolTable
 70
3
  0
APPID
  5
2A
330
3
100
AcDbSymbolTableRecord
100
AcDbRegAppTableRecord
  2
ACAD
 70
0
  0
APPID
  5
203
330
3
100
AcDbSymbolTableRecord
100
AcDbRegAppTableRecord
  2
HATCHBACKGROUNDCOLOR
 70
0
  0
APPID
  5
204
330
3
100
AcDbSymbolTableRecord
100
AcDbRegAppTableRecord
  2
EZDXF
 70
0
  0
ENDTAB
  0
TABLE
  2
DIMSTYLE
  5
4
330
0
100
AcDbSymbolTable
 70
1
100
AcDbDimStyleTable
  0
DIMSTYLE
105
2B
330
4
100
AcDbSymbolTableRecord
100
AcDbDimStyleTableRecord
  2
Standard
 70
0
 40
1.0
 41
2.5
 42
0.625
 43
3.75
 44
1.25
 45
0.0
 46
0.0
 47
0.0
 48
0.0
 49
2.5
140
2.5
141
2.5
142
0.0
143
0.03937007874
144
1.0
145
0.0
146
1.0
147
0.625
148
0.0
 69
0
 70
0
 71
0
 72
0
 73
0
 74
0
 75
0
 76
0
 77
1
 78
8
 79
3
170
0
171
3
172
1
173
0
174
0
175
0
176
0
177
0
178
0
179
2
271
2
272
2
273
2
274
3
275
0
276
0
277
2
278
44
279
0
280
0
281
0
282
0
283
0
284
8
285
0
286
0
288
0
289
3
290
0
371
-2
372
-2
  0
ENDTAB
  0
TABLE
  2
BLOCK_RECORD
  5
9
330
0
100
AcDbSymbolTable
 70
2
  0
BLOCK_RECORD
  5
17
330
9
100
AcDbSymbolTableRecord
100
AcDbBlockTableRecord
  2
*Model_Space
340
1A
 70
0
280
1
281
0
  0
BLOCK_RECORD
  5
1B
330
9
100
AcDbSymbolTableRecord
100
AcDbBlockTableRecord
  2
*Paper_Space
340
1E
 70
0
280
1
281
0
  0
ENDTAB
  0
ENDSEC
  0
SECTION
  2
BLOCKS
  0
BLOCK
  5
18
330
17
100
AcDbEntity
  8
0
100
AcDbBlockBegin
  2
*Model_Space
 70
0
 10
0.0
 20
0.0
 30
0.0
  3
*Model_Space
  1

  0
ENDBLK
  5
19
330
17
100
AcDbEntity
  8
0
100
AcDbBlockEnd
  0
BLOCK
  5
1C
330
1B
100
AcDbEntity
  8
0
100
AcDbBlockBegin
  2
*Paper_Space
 70
0
 10
0.0
 20
0.0
 30
0.0
  3
*Paper_Space
  1

  0
ENDBLK
  5
1D
330
1B
100
AcDbEntity
  8
0
100
AcDbBlockEnd
  0
ENDSEC
  0
SECTION
  2
ENTITIES
  0
LINE
  5
34
330
17
100
AcDbEntity
  8
表格线框
100
AcDbLine
 10
-40.0
 20
0.0
 30
0.0
 11
0.0
 21
0.0
 31
0.0
  0
LINE
  5
35
330
17
100
AcDbEntity
  8
表格线框
100
AcDbLine
 10
-40.0
 20
15.0
 30
0.0
 11
0.0
 21
15.0
 31
0.0
  0
LINE
  5
36
330
17
100
AcDbEntity
  8
表格线框
100
AcDbLine
 10
-40.0
 20
30.0
 30
0.0
 11
0.0
 21
30.0
 31
0.0
  0
LINE
  5
37
330
17
100
AcDbEntity
  8
表格线框
100
AcDbLine
 10
-40.0
 20
45.0
 30
0.0
 11
0.0
 21
45.0
 31
0.0
  0
LINE
  5
38
330
17
100
AcDbEntity
  8
表格线框
100
AcDbLine
 10
-40.0
 20
75.0
 30
0.0
 11
0.0
 21
75.0
 31
0.0
  0
LINE
  5
39
330
17
100
AcDbEntity
  8
表格线框
100
AcDbLine
 10
-40.0
 20
100.0
 30
0.0
 11
0.0
 21
100.0
 31
0.0
  0
LINE
  5
3A
330
17
100
AcDbEntity
  8
表格线框
100
AcDbLine
 10
-40.0
 20
110.0
 30
0.0
 11
0.0
 21
110.0
 31
0.0
  0
LINE
  5
3B
330
17
100
AcDbEntity
  8
表格线框
100
AcDbLine
 10
-40.0
 20
120.0
 30
0.0
 11
0.0
 21
120.0
 31
0.0
  0
LINE
  5
3C
330
17
100
AcDbEntity
  8
表格线框
100
AcDbLine
 10
-40.0
 20
0.0
 30
0.0
 11
-40.0
 21
120.0
 31
0.0
  0
LINE
  5
3D
330
17
100
AcDbEntity
  8
表格线框
100
AcDbLine
 10
0.0
 20
0.0
 30
0.0
 11
0.0
 21
120.0
 31
0.0
  0
LINE
  5
3E
330
17
100
AcDbEntity
  8
表格线框
100
AcDbLine
 10
108.44443332096523
 20
0.0
 30
0.0
 11
108.44443332096523
 21
100.0
 31
0.0
  0
LINE
  5
3F
330
17
100
AcDbEntity
  8
表格线框
100
AcDbLine
 10
169.56113070436587
 20
0.0
 30
0.0
 11
169.56113070436587
 21
100.0
 31
0.0
  0
LINE
  5
40
330
17
100
AcDbEntity
  8
表格线框
100
AcDbLine
 10
169.56113070436587
 20
0.0
 30
0.0
 11
169.56113070436587
 21
100.0
 31
0.0
  0
LINE
  5
41
330
17
100
AcDbEntity
  8
表格线框
100
AcDbLine
 10
193.1293203034888
 20
0.0
 30
0.0
 11
193.1293203034888
 21
120.0
 31
0.0
  0
LINE
  5
42
330
17
100
AcDbEntity
  8
表格线框
100
AcDbLine
 10
258.66916599329306
 20
0.0
 30
0.0
 11
258.66916599329306
 21
120.0
 31
0.0
  0
LINE
  5
43
330
17
100
AcDbEntity
  8
表格线框
100
AcDbLine
 10
258.66916599329306
 20
0.0
 30
0.0
 11
258.66916599329306
 21
100.0
 31
0.0
  0
LINE
  5
44
330
17
100
AcDbEntity
  8
表格线框
100
AcDbLine
 10
284.6785097240433
 20
0.0
 30
0.0
 11
284.6785097240433
 21
100.0
 31
0.0
  0
LINE
  5
45
330
17
100
AcDbEntity
  8
表格线框
100
AcDbLine
 10
303.9442141024815
 20
0.0
 30
0.0
 11
303.9442141024815
 21
100.0
 31
0.0
  0
LINE
  5
46
330
17
100
AcDbEntity
  8
表格线框
100
AcDbLine
 10
327.1639545718192
 20
0.0
 30
0.0
 11
327.1639545718192
 21
100.0
 31
0.0
  0
LINE
  5
47
330
17
100
AcDbEntity
  8
表格线框
100
AcDbLine
 10
418.55074158583886
 20
0.0
 30
0.0
 11
418.55074158583886
 21
100.0
 31
0.0
  0
LINE
  5
48
330
17
100
AcDbEntity
  8
表格线框
100
AcDbLine
 10
418.55074158583886
 20
0.0
 30
0.0
 11
418.55074158583886
 21
100.0
 31
0.0
  0
LINE
  5
49
330
17
100
AcDbEntity
  8
表格线框
100
AcDbLine
 10
464.79635424267383
 20
0.0
 30
0.0
 11
464.79635424267383
 21
120.0
 31
0.0
  0
LINE
  5
4A
330
17
100
AcDbEntity
  8
表格线框
100
AcDbLine
 10
484.92455600013443
 20
0.0
 30
0.0
 11
484.92455600013443
 21
100.0
 31
0.0
  0
LINE
  5
4B
330
17
100
AcDbEntity
  8
表格线框
100
AcDbLine
 10
511.82826313621086
 20
0.0
 30
0.0
 11
511.82826313621086
 21
100.0
 31
0.0
  0
LINE
  5
4C
330
17
100
AcDbEntity
  8
表格线框
100
AcDbLine
 10
547.9346598555645
 20
0.0
 30
0.0
 11
547.9346598555645
 21
100.0
 31
0.0
  0
LINE
  5
4D
330
17
100
AcDbEntity
  8
表格线框
100
AcDbLine
 10
597.223072593722
 20
0.0
 30
0.0
 11
597.223072593722
 21
120.0
 31
0.0
  0
LINE
  5
4E
330
17
100
AcDbEntity
  8
表格线框
100
AcDbLine
 10
597.223072593722
 20
0.0
 30
0.0
 11
597.223072593722
 21
100.0
 31
0.0
  0
LINE
  5
4F
330
17
100
AcDbEntity
  8
表格线框
100
AcDbLine
 10
621.8257841719274
 20
0.0
 30
0.0
 11
621.8257841719274
 21
100.0
 31
0.0
  0
LINE
  5
50
330
17
100
AcDbEntity
  8
表格线框
100
AcDbLine
 10
621.8257841719274
 20
0.0
 30
0.0
 11
621.8257841719274
 21
100.0
 31
0.0
  0
LINE
  5
51
330
17
100
AcDbEntity
  8
表格线框
100
AcDbLine
 10
646.4284957501327
 20
0.0
 30
0.0
 11
646.4284957501327
 21
120.0
 31
0.0
  0
LINE
  5
52
330
17
100
AcDbEntity
  8
表格线框
100
AcDbLine
 10
666.0130415960462
 20
0.0
 30
0.0
 11
666.0130415960462
 21
120.0
 31
0.0
  0
LINE
  5
53
330
17
100
AcDbEntity
  8
表格线框
100
AcDbLine
 10
666.0130415960462
 20
0.0
 30
0.0
 11
666.0130415960462
 21
100.0
 31
0.0
  0
LINE
  5
54
330
17
100
AcDbEntity
  8
表格线框
100
AcDbLine
 10
675.1637714168826
 20
0.0
 30
0.0
 11
675.1637714168826
 21
100.0
 31
0.0
  0
LINE
  5
55
330
17
100
AcDbEntity
  8
表格线框
100
AcDbLine
 10
675.1637714168826
 20
0.0
 30
0.0
 11
675.1637714168826
 21
100.0
 31
0.0
  0
LINE
  5
56
330
17
100
AcDbEntity
  8
表格线框
100
AcDbLine
 10
684.314501237301
 20
0.0
 30
0.0
 11
684.314501237301
 21
120.0
 31
0.0
  0
LINE
  5
57
330
17
100
AcDbEntity
  8
表格线框
100
AcDbLine
 10
704.1148706963471
 20
0.0
 30
0.0
 11
704.1148706963471
 21
100.0
 31
0.0
  0
LINE
  5
58
330
17
100
AcDbEntity
  8
表格线框
100
AcDbLine
 10
759.3062350687568
 20
0.0
 30
0.0
 11
759.3062350687568
 21
100.0
 31
0.0
  0
LINE
  5
59
330
17
100
AcDbEntity
  8
表格线框
100
AcDbLine
 10
812.014835476225
 20
0.0
 30
0.0
 11
812.014835476225
 21
120.0
 31
0.0
  0
LINE
  5
5A
330
17
100
AcDbEntity
  8
表格线框
100
AcDbLine
 10
812.014835476225
 20
0.0
 30
0.0
 11
812.014835476225
 21
100.0
 31
0.0
  0
LINE
  5
5B
330
17
100
AcDbEntity
  8
表格线框
100
AcDbLine
 10
831.8735003420427
 20
0.0
 30
0.0
 11
831.8735003420427
 21
100.0
 31
0.0
  0
LINE
  5
5C
330
17
100
AcDbEntity
  8
表格线框
100
AcDbLine
 10
831.8735003420427
 20
0.0
 30
0.0
 11
831.8735003420427
 21
100.0
 31
0.0
  0
LINE
  5
5D
330
17
100
AcDbEntity
  8
表格线框
100
AcDbLine
 10
851.7321652078604
 20
0.0
 30
0.0
 11
851.7321652078604
 21
120.0
 31
0.0
  0
LINE
  5
5E
330
17
100
AcDbEntity
  8
表格线框
100
AcDbLine
 10
876.1571576306853
 20
0.0
 30
0.0
 11
876.1571576306853
 21
100.0
 31
0.0
  0
LINE
  5
5F
330
17
100
AcDbEntity
  8
表格线框
100
AcDbLine
 10
927.0781738657408
 20
0.0
 30
0.0
 11
927.0781738657408
 21
120.0
 31
0.0
  0
LINE
  5
60
330
17
100
AcDbEntity
  8
表格线框
100
AcDbLine
 10
927.0781738657408
 20
0.0
 30
0.0
 11
927.0781738657408
 21
100.0
 31
0.0
  0
LINE
  5
61
330
17
100
AcDbEntity
  8
表格线框
100
AcDbLine
 10
949.5227142263551
 20
0.0
 30
0.0
 11
949.5227142263551
 21
100.0
 31
0.0
  0
LINE
  5
62
330
17
100
AcDbEntity
  8
表格线框
100
AcDbLine
 10
949.5227142263551
 20
0.0
 30
0.0
 11
949.5227142263551
 21
100.0
 31
0.0
  0
LINE
  5
63
330
17
100
AcDbEntity
  8
表格线框
100
AcDbLine
 10
971.9672545870687
 20
0.0
 30
0.0
 11
971.9672545870687
 21
120.0
 31
0.0
  0
LINE
  5
64
330
17
100
AcDbEntity
  8
表格线框
100
AcDbLine
 10
1007.7723942322685
 20
0.0
 30
0.0
 11
1007.7723942322685
 21
120.0
 31
0.0
  0
LINE
  5
65
330
17
100
AcDbEntity
  8
表格线框
100
AcDbLine
 10
1007.7723942322685
 20
0.0
 30
0.0
 11
1007.7723942322685
 21
100.0
 31
0.0
  0
LINE
  5
66
330
17
100
AcDbEntity
  8
表格线框
100
AcDbLine
 10
1027.6731005828324
 20
0.0
 30
0.0
 11
1027.6731005828324
 21
100.0
 31
0.0
  0
LINE
  5
67
330
17
100
AcDbEntity
  8
表格线框
100
AcDbLine
 10
1027.6731005828324
 20
0.0
 30
0.0
 11
1027.6731005828324
 21
100.0
 31
0.0
  0
LINE
  5
68
330
17
100
AcDbEntity
  8
表格线框
100
AcDbLine
 10
1047.5738069333963
 20
0.0
 30
0.0
 11
1047.5738069333963
 21
120.0
 31
0.0
  0
LINE
  5
69
330
17
100
AcDbEntity
  8
表格线框
100
AcDbLine
 10
1075.418019354573
 20
0.0
 30
0.0
 11
1075.418019354573
 21
100.0
 31
0.0
  0
LINE
  5
6A
330
17
100
AcDbEntity
  8
表格线框
100
AcDbLine
 10
1110.6644315453464
 20
0.0
 30
0.0
 11
1110.6644315453464
 21
100.0
 31
0.0
  0
LINE
  5
6B
330
17
100
AcDbEntity
  8
表格线框
100
AcDbLine
 10
1160.6473134682296
 20
0.0
 30
0.0
 11
1160.6473134682296
 21
100.0
 31
0.0
  0
LINE
  5
6C
330
17
100
AcDbEntity
  8
表格线框
100
AcDbLine
 10
1204.9670442818162
 20
0.0
 30
0.0
 11
1204.9670442818162
 21
100.0
 31
0.0
  0
LINE
  5
6D
330
17
100
AcDbEntity
  8
表格线框
100
AcDbLine
 10
1220.2687674143538
 20
0.0
 30
0.0
 11
1220.2687674143538
 21
100.0
 31
0.0
  0
LINE
  5
6E
330
17
100
AcDbEntity
  8
表格线框
100
AcDbLine
 10
1255.694497727741
 20
0.0
 30
0.0
 11
1255.694497727741
 21
120.0
 31
0.0
  0
LINE
  5
6F
330
17
100
AcDbEntity
  8
表格线框
100
AcDbLine
 10
1255.694497727741
 20
0.0
 30
0.0
 11
1255.694497727741
 21
100.0
 31
0.0
  0
LINE
  5
70
330
17
100
AcDbEntity
  8
表格线框
100
AcDbLine
 10
1283.5171426895954
 20
0.0
 30
0.0
 11
1283.5171426895954
 21
100.0
 31
0.0
  0
LINE
  5
71
330
17
100
AcDbEntity
  8
表格线框
100
AcDbLine
 10
1294.0171025680065
 20
0.0
 30
0.0
 11
1294.0171025680065
 21
100.0
 31
0.0
  0
LINE
  5
72
330
17
100
AcDbEntity
  8
表格线框
100
AcDbLine
 10
1294.0171025680065
 20
0.0
 30
0.0
 11
1294.0171025680065
 21
100.0
 31
0.0
  0
LINE
  5
73
330
17
100
AcDbEntity
  8
表格线框
100
AcDbLine
 10
1365.436722904469
 20
0.0
 30
0.0
 11
1365.436722904469
 21
120.0
 31
0.0
  0
LINE
  5
74
330
17
100
AcDbEntity
  8
表格线框
100
AcDbLine
 10
1396.9625811641822
 20
0.0
 30
0.0
 11
1396.9625811641822
 21
100.0
 31
0.0
  0
LINE
  5
75
330
17
100
AcDbEntity
  8
表格线框
100
AcDbLine
 10
1637.7892366105016
 20
0.0
 30
0.0
 11
1637.7892366105016
 21
100.0
 31
0.0
  0
LINE
  5
76
330
17
100
AcDbEntity
  8
表格线框
100
AcDbLine
 10
1809.1876628616087
 20
0.0
 30
0.0
 11
1809.1876628616087
 21
120.0
 31
0.0
  0
LINE
  5
77
330
17
100
AcDbEntity
  8
表格线框
100
AcDbLine
 10
1809.1876628616087
 20
0.0
 30
0.0
 11
1809.1876628616087
 21
100.0
 31
0.0
  0
LINE
  5
78
330
17
100
AcDbEntity
  8
表格线框
100
AcDbLine
 10
1960.6475944647943
 20
0.0
 30
0.0
 11
1960.6475944647943
 21
100.0
 31
0.0
  0
LINE
  5
79
330
17
100
AcDbEntity
  8
表格线框
100
AcDbLine
 10
1960.6475944647943
 20
0.0
 30
0.0
 11
1960.6475944647943
 21
100.0
 31
0.0
  0
LINE
  5
7A
330
17
100
AcDbEntity
  8
表格线框
100
AcDbLine
 10
2112.1075260680946
 20
0.0
 30
0.0
 11
2112.1075260680946
 21
120.0
 31
0.0
  0
LINE
  5
7B
330
17
100
AcDbEntity
  8
表格线框
100
AcDbLine
 10
2558.8908983033793
 20
0.0
 30
0.0
 11
2558.8908983033793
 21
120.0
 31
0.0
  0
LINE
  5
7C
330
17
100
AcDbEntity
  8
表格线框
100
AcDbLine
 10
2558.8908983033793
 20
0.0
 30
0.0
 11
2558.8908983033793
 21
100.0
 31
0.0
  0
LINE
  5
7D
330
17
100
AcDbEntity
  8
表格线框
100
AcDbLine
 10
2577.058533111016
 20
0.0
 30
0.0
 11
2577.058533111016
 21
100.0
 31
0.0
  0
LINE
  5
7E
330
17
100
AcDbEntity
  8
表格线框
100
AcDbLine
 10
2577.058533111016
 20
0.0
 30
0.0
 11
2577.058533111016
 21
100.0
 31
0.0
  0
LINE
  5
7F
330
17
100
AcDbEntity
  8
表格线框
100
AcDbLine
 10
2595.226167918642
 20
0.0
 30
0.0
 11
2595.226167918642
 21
120.0
 31
0.0
  0
LINE
  5
80
330
17
100
AcDbEntity
  8
表格线框
100
AcDbLine
 10
2644.0857040809183
 20
0.0
 30
0.0
 11
2644.0857040809183
 21
120.0
 31
0.0
  0
LINE
  5
81
330
17
100
AcDbEntity
  8
表格线框
100
AcDbLine
 10
2644.0857040809183
 20
0.0
 30
0.0
 11
2644.0857040809183
 21
100.0
 31
0.0
  0
LINE
  5
82
330
17
100
AcDbEntity
  8
表格线框
100
AcDbLine
 10
2737.962919665265
 20
0.0
 30
0.0
 11
2737.962919665265
 21
100.0
 31
0.0
  0
LINE
  5
83
330
17
100
AcDbEntity
  8
表格线框
100
AcDbLine
 10
2899.537170360158
 20
0.0
 30
0.0
 11
2899.537170360158
 21
120.0
 31
0.0
  0
LINE
  5
84
330
17
100
AcDbEntity
  8
表格线框
100
AcDbLine
 10
0.0
 20
0.0
 30
0.0
 11
2899.537170360158
 21
0.0
 31
0.0
  0
LINE
  5
85
330
17
100
AcDbEntity
  8
表格线框
100
AcDbLine
 10
0.0
 20
15.0
 30
0.0
 11
2899.537170360158
 21
15.0
 31
0.0
  0
LINE
  5
86
330
17
100
AcDbEntity
  8
表格线框
100
AcDbLine
 10
0.0
 20
30.0
 30
0.0
 11
2899.537170360158
 21
30.0
 31
0.0
  0
LINE
  5
87
330
17
100
AcDbEntity
  8
表格线框
100
AcDbLine
 10
0.0
 20
45.0
 30
0.0
 11
2899.537170360158
 21
45.0
 31
0.0
  0
LINE
  5
88
330
17
100
AcDbEntity
  8
表格线框
100
AcDbLine
 10
0.0
 20
75.0
 30
0.0
 11
2899.537170360158
 21
75.0
 31
0.0
  0
LINE
  5
89
330
17
100
AcDbEntity
  8
表格线框
100
AcDbLine
 10
0.0
 20
100.0
 30
0.0
 11
2899.537170360158
 21
100.0
 31
0.0
  0
LINE
  5
8A
330
17
100
AcDbEntity
  8
表格线框
100
AcDbLine
 10
0.0
 20
110.0
 30
0.0
 11
2899.537170360158
 21
110.0
 31
0.0
  0
LINE
  5
8B
330
17
100
AcDbEntity
  8
表格线框
100
AcDbLine
 10
0.0
 20
120.0
 30
0.0
 11
2899.537170360158
 21
120.0
 31
0.0
  0
LWPOLYLINE
  5
8C
330
17
100
AcDbEntity
  8
渠底高程线
100
AcDbPolyline
 90
39
 70
0
 10
0.0
 20
397.585
 10
108.44443332096523
 20
397.55
 10
169.56113070436587
 20
397.532
 10
193.1293203034888
 20
398.525
 10
258.66916599329306
 20
398.492
 10
284.6785097240433
 20
398.471
 10
303.9442141024815
 20
398.469
 10
418.55074158583886
 20
398.495
 10
464.79635424267383
 20
398.495
 10
597.223072593722
 20
396.849
 10
621.8257841719274
 20
396.849
 10
646.4284957501327
 20
397.772
 10
666.0130415960462
 20
397.762
 10
675.1637714168826
 20
396.807
 10
684.314501237301
 20
396.807
 10
812.014835476225
 20
396.271
 10
831.8735003420427
 20
396.271
 10
851.7321652078604
 20
397.196
 10
876.1571576306853
 20
397.185
 10
927.0781738657408
 20
397.161
 10
949.5227142263551
 20
396.202
 10
971.9672545870687
 20
397.011
 10
1007.7723942322685
 20
396.993
 10
1027.6731005828324
 20
396.144
 10
1047.5738069333963
 20
396.144
 10
1255.694497727741
 20
395.876
 10
1283.5171426895954
 20
395.876
 10
1294.0171025680065
 20
395.874
 10
1365.436722904469
 20
395.953
 10
1637.7892366105016
 20
395.974
 10
1809.1876628616087
 20
395.891
 10
1960.6475944647943
 20
395.733
 10
2112.1075260680946
 20
395.927
 10
2558.8908983033793
 20
395.629
 10
2577.058533111016
 20
395.309
 10
2595.226167918642
 20
395.572
 10
2644.0857040809183
 20
395.548
 10
2737.962919665265
 20
395.282
 10
2899.537170360158
 20
395.229
  0
LWPOLYLINE
  5
8D
330
17
100
AcDbEntity
  8
渠顶高程线
100
AcDbPolyline
 90
33
 70
0
 10
0.0
 20
401.305
 10
108.44443332096523
 20
401.27
 10
169.56113070436587
 20
401.252
 10
193.1293203034888
 20
401.525
 10
258.66916599329306
 20
401.492
 10
284.6785097240433
 20
400.604
 10
303.9442141024815
 20
400.602
 10
418.55074158583886
 20
400.455
 10
621.8257841719274
 20
398.809
 10
646.4284957501327
 20
400.272
 10
666.0130415960462
 20
400.262
 10
675.1637714168826
 20
398.767
 10
831.8735003420427
 20
398.231
 10
851.7321652078604
 20
399.696
 10
876.1571576306853
 20
399.685
 10
927.0781738657408
 20
399.661
 10
949.5227142263551
 20
398.162
 10
971.9672545870687
 20
398.841
 10
1007.7723942322685
 20
398.823
 10
1027.6731005828324
 20
398.104
 10
1283.5171426895954
 20
398.676
 10
1294.0171025680065
 20
398.674
 10
1365.436722904469
 20
398.553
 10
1637.7892366105016
 20
398.574
 10
1809.1876628616087
 20
398.491
 10
1960.6475944647943
 20
398.533
 10
2112.1075260680946
 20
398.177
 10
2558.8908983033793
 20
397.879
 10
2577.058533111016
 20
398.109
 10
2595.226167918642
 20
398.072
 10
2644.0857040809183
 20
398.048
 10
2737.962919665265
 20
397.237
 10
2899.537170360158
 20
397.184
  0
LWPOLYLINE
  5
8E
330
17
100
AcDbEntity
  8
设计水位线
100
AcDbPolyline
 90
51
 70
0
 10
0.0
 20
400.0
 10
108.44443332096523
 20
399.965
 10
169.56113070436587
 20
399.947
 10
193.1293203034888
 20
399.931
 10
258.66916599329306
 20
399.898
 10
284.6785097240433
 20
399.88
 10
303.9442141024815
 20
399.878
 10
327.1639545718192
 20
399.778
 10
418.55074158583886
 20
399.749
 10
464.79635424267383
 20
399.725
 10
484.92455600013443
 20
399.725
 10
511.82826313621086
 20
399.725
 10
547.9346598555645
 20
399.725
 10
597.223072593722
 20
399.154
 10
621.8257841719274
 20
399.131
 10
646.4284957501327
 20
399.112
 10
666.0130415960462
 20
399.102
 10
675.1637714168826
 20
399.089
 10
684.314501237301
 20
399.077
 10
704.1148706963471
 20
399.077
 10
759.3062350687568
 20
399.077
 10
812.014835476225
 20
398.575
 10
831.8735003420427
 20
398.553
 10
851.7321652078604
 20
398.536
 10
876.1571576306853
 20
398.525
 10
927.0781738657408
 20
398.501
 10
949.5227142263551
 20
398.484
 10
971.9672545870687
 20
398.464
 10
1007.7723942322685
 20
398.446
 10
1027.6731005828324
 20
398.426
 10
1047.5738069333963
 20
398.41
 10
1075.418019354573
 20
398.41
 10
1110.6644315453464
 20
398.41
 10
1160.6473134682296
 20
398.41
 10
1204.9670442818162
 20
398.41
 10
1220.2687674143538
 20
398.41
 10
1255.694497727741
 20
397.515
 10
1283.5171426895954
 20
397.491
 10
1294.0171025680065
 20
397.489
 10
1365.436722904469
 20
397.448
 10
1396.9625811641822
 20
397.348
 10
1637.7892366105016
 20
397.23
 10
1809.1876628616087
 20
397.147
 10
1960.6475944647943
 20
397.09
 10
2112.1075260680946
 20
396.982
 10
2558.8908983033793
 20
396.684
 10
2577.058533111016
 20
396.666
 10
2595.226167918642
 20
396.653
 10
2644.0857040809183
 20
396.629
 10
2737.962919665265
 20
396.592
 10
2899.537170360158
 20
396.539
  0
TEXT
  5
8F
330
17
100
AcDbEntity
  8
文字标注
100
AcDbText
 10
4.8
 20
1.0
 30
0.0
 40
3.5
  1
397.585
 50
90.0
 41
0.7
 11
4.8
 21
1.0
 31
0.0
100
AcDbText
  0
TEXT
  5
90
330
17
100
AcDbEntity
  8
文字标注
100
AcDbText
 10
4.8
 20
31.0
 30
0.0
 40
3.5
  1
401.305
 50
90.0
 41
0.7
 11
4.8
 21
31.0
 31
0.0
100
AcDbText
  0
TEXT
  5
91
330
17
100
AcDbEntity
  8
文字标注
100
AcDbText
 10
4.8
 20
16.0
 30
0.0
 40
3.5
  1
400.000
 50
90.0
 41
0.7
 11
4.8
 21
16.0
 31
0.0
100
AcDbText
  0
TEXT
  5
92
330
17
100
AcDbEntity
  8
文字标注
100
AcDbText
 10
107.44443332096523
 20
1.0
 30
0.0
 40
3.5
  1
397.550
 50
90.0
 41
0.7
 11
107.44443332096523
 21
1.0
 31
0.0
100
AcDbText
  0
TEXT
  5
93
330
17
100
AcDbEntity
  8
文字标注
100
AcDbText
 10
107.44443332096523
 20
31.0
 30
0.0
 40
3.5
  1
401.270
 50
90.0
 41
0.7
 11
107.44443332096523
 21
31.0
 31
0.0
100
AcDbText
  0
TEXT
  5
94
330
17
100
AcDbEntity
  8
文字标注
100
AcDbText
 10
107.44443332096523
 20
16.0
 30
0.0
 40
3.5
  1
399.965
 50
90.0
 41
0.7
 11
107.44443332096523
 21
16.0
 31
0.0
100
AcDbText
  0
TEXT
  5
95
330
17
100
AcDbEntity
  8
文字标注
100
AcDbText
 10
168.56113070436587
 20
1.0
 30
0.0
 40
3.5
  1
397.532
 50
90.0
 41
0.7
 11
168.56113070436587
 21
1.0
 31
0.0
100
AcDbText
  0
TEXT
  5
96
330
17
100
AcDbEntity
  8
文字标注
100
AcDbText
 10
168.56113070436587
 20
31.0
 30
0.0
 40
3.5
  1
401.252
 50
90.0
 41
0.7
 11
168.56113070436587
 21
31.0
 31
0.0
100
AcDbText
  0
TEXT
  5
97
330
17
100
AcDbEntity
  8
文字标注
100
AcDbText
 10
168.56113070436587
 20
16.0
 30
0.0
 40
3.5
  1
399.947
 50
90.0
 41
0.7
 11
168.56113070436587
 21
16.0
 31
0.0
100
AcDbText
  0
TEXT
  5
98
330
17
100
AcDbEntity
  8
文字标注
100
AcDbText
 10
168.56113070436587
 20
1.0
 30
0.0
 40
3.5
  1
0.000
 50
90.0
 41
0.7
 11
168.56113070436587
 21
1.0
 31
0.0
100
AcDbText
  0
TEXT
  5
99
330
17
100
AcDbEntity
  8
文字标注
100
AcDbText
 10
168.56113070436587
 20
31.0
 30
0.0
 40
3.5
  1
0.000
 50
90.0
 41
0.7
 11
168.56113070436587
 21
31.0
 31
0.0
100
AcDbText
  0
TEXT
  5
9A
330
17
100
AcDbEntity
  8
文字标注
100
AcDbText
 10
168.56113070436587
 20
16.0
 30
0.0
 40
3.5
  1
0.000
 50
90.0
 41
0.7
 11
168.56113070436587
 21
16.0
 31
0.0
100
AcDbText
  0
TEXT
  5
9B
330
17
100
AcDbEntity
  8
文字标注
100
AcDbText
 10
192.1293203034888
 20
1.0
 30
0.0
 40
3.5
  1
398.525
 50
90.0
 41
0.7
 11
192.1293203034888
 21
1.0
 31
0.0
100
AcDbText
  0
TEXT
  5
9C
330
17
100
AcDbEntity
  8
文字标注
100
AcDbText
 10
192.1293203034888
 20
31.0
 30
0.0
 40
3.5
  1
401.525
 50
90.0
 41
0.7
 11
192.1293203034888
 21
31.0
 31
0.0
100
AcDbText
  0
TEXT
  5
9D
330
17
100
AcDbEntity
  8
文字标注
100
AcDbText
 10
192.1293203034888
 20
16.0
 30
0.0
 40
3.5
  1
399.931
 50
90.0
 41
0.7
 11
192.1293203034888
 21
16.0
 31
0.0
100
AcDbText
  0
TEXT
  5
9E
330
17
100
AcDbEntity
  8
文字标注
100
AcDbText
 10
257.66916599329306
 20
1.0
 30
0.0
 40
3.5
  1
398.492
 50
90.0
 41
0.7
 11
257.66916599329306
 21
1.0
 31
0.0
100
AcDbText
  0
TEXT
  5
9F
330
17
100
AcDbEntity
  8
文字标注
100
AcDbText
 10
257.66916599329306
 20
31.0
 30
0.0
 40
3.5
  1
401.492
 50
90.0
 41
0.7
 11
257.66916599329306
 21
31.0
 31
0.0
100
AcDbText
  0
TEXT
  5
A0
330
17
100
AcDbEntity
  8
文字标注
100
AcDbText
 10
257.66916599329306
 20
16.0
 30
0.0
 40
3.5
  1
399.898
 50
90.0
 41
0.7
 11
257.66916599329306
 21
16.0
 31
0.0
100
AcDbText
  0
TEXT
  5
A1
330
17
100
AcDbEntity
  8
文字标注
100
AcDbText
 10
257.66916599329306
 20
1.0
 30
0.0
 40
3.5
  1
0.000
 50
90.0
 41
0.7
 11
257.66916599329306
 21
1.0
 31
0.0
100
AcDbText
  0
TEXT
  5
A2
330
17
100
AcDbEntity
  8
文字标注
100
AcDbText
 10
257.66916599329306
 20
31.0
 30
0.0
 40
3.5
  1
0.000
 50
90.0
 41
0.7
 11
257.66916599329306
 21
31.0
 31
0.0
100
AcDbText
  0
TEXT
  5
A3
330
17
100
AcDbEntity
  8
文字标注
100
AcDbText
 10
257.66916599329306
 20
16.0
 30
0.0
 40
3.5
  1
0.000
 50
90.0
 41
0.7
 11
257.66916599329306
 21
16.0
 31
0.0
100
AcDbText
  0
TEXT
  5
A4
330
17
100
AcDbEntity
  8
文字标注
100
AcDbText
 10
283.6785097240433
 20
1.0
 30
0.0
 40
3.5
  1
398.471
 50
90.0
 41
0.7
 11
283.6785097240433
 21
1.0
 31
0.0
100
AcDbText
  0
TEXT
  5
A5
330
17
100
AcDbEntity
  8
文字标注
100
AcDbText
 10
283.6785097240433
 20
31.0
 30
0.0
 40
3.5
  1
400.604
 50
90.0
 41
0.7
 11
283.6785097240433
 21
31.0
 31
0.0
100
AcDbText
  0
TEXT
  5
A6
330
17
100
AcDbEntity
  8
文字标注
100
AcDbText
 10
283.6785097240433
 20
16.0
 30
0.0
 40
3.5
  1
399.880
 50
90.0
 41
0.7
 11
283.6785097240433
 21
16.0
 31
0.0
100
AcDbText
  0
TEXT
  5
A7
330
17
100
AcDbEntity
  8
文字标注
100
AcDbText
 10
302.9442141024815
 20
1.0
 30
0.0
 40
3.5
  1
398.469
 50
90.0
 41
0.7
 11
302.9442141024815
 21
1.0
 31
0.0
100
AcDbText
  0
TEXT
  5
A8
330
17
100
AcDbEntity
  8
文字标注
100
AcDbText
 10
302.9442141024815
 20
31.0
 30
0.0
 40
3.5
  1
400.602
 50
90.0
 41
0.7
 11
302.9442141024815
 21
31.0
 31
0.0
100
AcDbText
  0
TEXT
  5
A9
330
17
100
AcDbEntity
  8
文字标注
100
AcDbText
 10
302.9442141024815
 20
16.0
 30
0.0
 40
3.5
  1
399.878
 50
90.0
 41
0.7
 11
302.9442141024815
 21
16.0
 31
0.0
100
AcDbText
  0
TEXT
  5
AA
330
17
100
AcDbEntity
  8
文字标注
100
AcDbText
 10
326.1639545718192
 20
1.0
 30
0.0
 40
3.5
  1
0.000
 50
90.0
 41
0.7
 11
326.1639545718192
 21
1.0
 31
0.0
100
AcDbText
  0
TEXT
  5
AB
330
17
100
AcDbEntity
  8
文字标注
100
AcDbText
 10
326.1639545718192
 20
31.0
 30
0.0
 40
3.5
  1
0.000
 50
90.0
 41
0.7
 11
326.1639545718192
 21
31.0
 31
0.0
100
AcDbText
  0
TEXT
  5
AC
330
17
100
AcDbEntity
  8
文字标注
100
AcDbText
 10
326.1639545718192
 20
16.0
 30
0.0
 40
3.5
  1
399.778
 50
90.0
 41
0.7
 11
326.1639545718192
 21
16.0
 31
0.0
100
AcDbText
  0
TEXT
  5
AD
330
17
100
AcDbEntity
  8
文字标注
100
AcDbText
 10
417.55074158583886
 20
1.0
 30
0.0
 40
3.5
  1
398.495
 50
90.0
 41
0.7
 11
417.55074158583886
 21
1.0
 31
0.0
100
AcDbText
  0
TEXT
  5
AE
330
17
100
AcDbEntity
  8
文字标注
100
AcDbText
 10
417.55074158583886
 20
31.0
 30
0.0
 40
3.5
  1
400.455
 50
90.0
 41
0.7
 11
417.55074158583886
 21
31.0
 31
0.0
100
AcDbText
  0
TEXT
  5
AF
330
17
100
AcDbEntity
  8
文字标注
100
AcDbText
 10
417.55074158583886
 20
16.0
 30
0.0
 40
3.5
  1
399.749
 50
90.0
 41
0.7
 11
417.55074158583886
 21
16.0
 31
0.0
100
AcDbText
  0
TEXT
  5
B0
330
17
100
AcDbEntity
  8
文字标注
100
AcDbText
 10
417.55074158583886
 20
1.0
 30
0.0
 40
3.5
  1
0.000
 50
90.0
 41
0.7
 11
417.55074158583886
 21
1.0
 31
0.0
100
AcDbText
  0
TEXT
  5
B1
330
17
100
AcDbEntity
  8
文字标注
100
AcDbText
 10
417.55074158583886
 20
31.0
 30
0.0
 40
3.5
  1
0.000
 50
90.0
 41
0.7
 11
417.55074158583886
 21
31.0
 31
0.0
100
AcDbText
  0
TEXT
  5
B2
330
17
100
AcDbEntity
  8
文字标注
100
AcDbText
 10
417.55074158583886
 20
16.0
 30
0.0
 40
3.5
  1
0.000
 50
90.0
 41
0.7
 11
417.55074158583886
 21
16.0
 31
0.0
100
AcDbText
  0
TEXT
  5
B3
330
17
100
AcDbEntity
  8
文字标注
100
AcDbText
 10
463.79635424267383
 20
1.0
 30
0.0
 40
3.5
  1
398.495
 50
90.0
 41
0.7
 11
463.79635424267383
 21
1.0
 31
0.0
100
AcDbText
  0
TEXT
  5
B4
330
17
100
AcDbEntity
  8
文字标注
100
AcDbText
 10
463.79635424267383
 20
31.0
 30
0.0
 40
3.5
  1
0.000
 50
90.0
 41
0.7
 11
463.79635424267383
 21
31.0
 31
0.0
100
AcDbText
  0
TEXT
  5
B5
330
17
100
AcDbEntity
  8
文字标注
100
AcDbText
 10
463.79635424267383
 20
16.0
 30
0.0
 40
3.5
  1
399.725
 50
90.0
 41
0.7
 11
463.79635424267383
 21
16.0
 31
0.0
100
AcDbText
  0
TEXT
  5
B6
330
17
100
AcDbEntity
  8
文字标注
100
AcDbText
 10
483.92455600013443
 20
1.0
 30
0.0
 40
3.5
  1
0.000
 50
90.0
 41
0.7
 11
483.92455600013443
 21
1.0
 31
0.0
100
AcDbText
  0
TEXT
  5
B7
330
17
100
AcDbEntity
  8
文字标注
100
AcDbText
 10
483.92455600013443
 20
31.0
 30
0.0
 40
3.5
  1
0.000
 50
90.0
 41
0.7
 11
483.92455600013443
 21
31.0
 31
0.0
100
AcDbText
  0
TEXT
  5
B8
330
17
100
AcDbEntity
  8
文字标注
100
AcDbText
 10
483.92455600013443
 20
16.0
 30
0.0
 40
3.5
  1
399.725
 50
90.0
 41
0.7
 11
483.92455600013443
 21
16.0
 31
0.0
100
AcDbText
  0
TEXT
  5
B9
330
17
100
AcDbEntity
  8
文字标注
100
AcDbText
 10
510.82826313621086
 20
1.0
 30
0.0
 40
3.5
  1
0.000
 50
90.0
 41
0.7
 11
510.82826313621086
 21
1.0
 31
0.0
100
AcDbText
  0
TEXT
  5
BA
330
17
100
AcDbEntity
  8
文字标注
100
AcDbText
 10
510.82826313621086
 20
31.0
 30
0.0
 40
3.5
  1
0.000
 50
90.0
 41
0.7
 11
510.82826313621086
 21
31.0
 31
0.0
100
AcDbText
  0
TEXT
  5
BB
330
17
100
AcDbEntity
  8
文字标注
100
AcDbText
 10
510.82826313621086
 20
16.0
 30
0.0
 40
3.5
  1
399.725
 50
90.0
 41
0.7
 11
510.82826313621086
 21
16.0
 31
0.0
100
AcDbText
  0
TEXT
  5
BC
330
17
100
AcDbEntity
  8
文字标注
100
AcDbText
 10
546.9346598555645
 20
1.0
 30
0.0
 40
3.5
  1
0.000
 50
90.0
 41
0.7
 11
546.9346598555645
 21
1.0
 31
0.0
100
AcDbText
  0
TEXT
  5
BD
330
17
100
AcDbEntity
  8
文字标注
100
AcDbText
 10
546.9346598555645
 20
31.0
 30
0.0
 40
3.5
  1
0.000
 50
90.0
 41
0.7
 11
546.9346598555645
 21
31.0
 31
0.0
100
AcDbText
  0
TEXT
  5
BE
330
17
100
AcDbEntity
  8
文字标注
100
AcDbText
 10
546.9346598555645
 20
16.0
 30
0.0
 40
3.5
  1
399.725
 50
90.0
 41
0.7
 11
546.9346598555645
 21
16.0
 31
0.0
100
AcDbText
  0
TEXT
  5
BF
330
17
100
AcDbEntity
  8
文字标注
100
AcDbText
 10
596.223072593722
 20
1.0
 30
0.0
 40
3.5
  1
396.849
 50
90.0
 41
0.7
 11
596.223072593722
 21
1.0
 31
0.0
100
AcDbText
  0
TEXT
  5
C0
330
17
100
AcDbEntity
  8
文字标注
100
AcDbText
 10
596.223072593722
 20
31.0
 30
0.0
 40
3.5
  1
0.000
 50
90.0
 41
0.7
 11
596.223072593722
 21
31.0
 31
0.0
100
AcDbText
  0
TEXT
  5
C1
330
17
100
AcDbEntity
  8
文字标注
100
AcDbText
 10
596.223072593722
 20
16.0
 30
0.0
 40
3.5
  1
399.154
 50
90.0
 41
0.7
 11
596.223072593722
 21
16.0
 31
0.0
100
AcDbText
  0
TEXT
  5
C2
330
17
100
AcDbEntity
  8
文字标注
100
AcDbText
 10
596.223072593722
 20
1.0
 30
0.0
 40
3.5
  1
0.000
 50
90.0
 41
0.7
 11
596.223072593722
 21
1.0
 31
0.0
100
AcDbText
  0
TEXT
  5
C3
330
17
100
AcDbEntity
  8
文字标注
100
AcDbText
 10
596.223072593722
 20
31.0
 30
0.0
 40
3.5
  1
0.000
 50
90.0
 41
0.7
 11
596.223072593722
 21
31.0
 31
0.0
100
AcDbText
  0
TEXT
  5
C4
330
17
100
AcDbEntity
  8
文字标注
100
AcDbText
 10
596.223072593722
 20
16.0
 30
0.0
 40
3.5
  1
0.000
 50
90.0
 41
0.7
 11
596.223072593722
 21
16.0
 31
0.0
100
AcDbText
  0
TEXT
  5
C5
330
17
100
AcDbEntity
  8
文字标注
100
AcDbText
 10
620.8257841719274
 20
1.0
 30
0.0
 40
3.5
  1
396.849
 50
90.0
 41
0.7
 11
620.8257841719274
 21
1.0
 31
0.0
100
AcDbText
  0
TEXT
  5
C6
330
17
100
AcDbEntity
  8
文字标注
100
AcDbText
 10
620.8257841719274
 20
31.0
 30
0.0
 40
3.5
  1
398.809
 50
90.0
 41
0.7
 11
620.8257841719274
 21
31.0
 31
0.0
100
AcDbText
  0
TEXT
  5
C7
330
17
100
AcDbEntity
  8
文字标注
100
AcDbText
 10
620.8257841719274
 20
16.0
 30
0.0
 40
3.5
  1
399.131
 50
90.0
 41
0.7
 11
620.8257841719274
 21
16.0
 31
0.0
100
AcDbText
  0
TEXT
  5
C8
330
17
100
AcDbEntity
  8
文字标注
100
AcDbText
 10
620.8257841719274
 20
1.0
 30
0.0
 40
3.5
  1
0.000
 50
90.0
 41
0.7
 11
620.8257841719274
 21
1.0
 31
0.0
100
AcDbText
  0
TEXT
  5
C9
330
17
100
AcDbEntity
  8
文字标注
100
AcDbText
 10
620.8257841719274
 20
31.0
 30
0.0
 40
3.5
  1
0.000
 50
90.0
 41
0.7
 11
620.8257841719274
 21
31.0
 31
0.0
100
AcDbText
  0
TEXT
  5
CA
330
17
100
AcDbEntity
  8
文字标注
100
AcDbText
 10
620.8257841719274
 20
16.0
 30
0.0
 40
3.5
  1
0.000
 50
90.0
 41
0.7
 11
620.8257841719274
 21
16.0
 31
0.0
100
AcDbText
  0
TEXT
  5
CB
330
17
100
AcDbEntity
  8
文字标注
100
AcDbText
 10
645.4284957501327
 20
1.0
 30
0.0
 40
3.5
  1
397.772
 50
90.0
 41
0.7
 11
645.4284957501327
 21
1.0
 31
0.0
100
AcDbText
  0
TEXT
  5
CC
330
17
100
AcDbEntity
  8
文字标注
100
AcDbText
 10
645.4284957501327
 20
31.0
 30
0.0
 40
3.5
  1
400.272
 50
90.0
 41
0.7
 11
645.4284957501327
 21
31.0
 31
0.0
100
AcDbText
  0
TEXT
  5
CD
330
17
100
AcDbEntity
  8
文字标注
100
AcDbText
 10
645.4284957501327
 20
16.0
 30
0.0
 40
3.5
  1
399.112
 50
90.0
 41
0.7
 11
645.4284957501327
 21
16.0
 31
0.0
100
AcDbText
  0
TEXT
  5
CE
330
17
100
AcDbEntity
  8
文字标注
100
AcDbText
 10
665.0130415960462
 20
1.0
 30
0.0
 40
3.5
  1
397.762
 50
90.0
 41
0.7
 11
665.0130415960462
 21
1.0
 31
0.0
100
AcDbText
  0
TEXT
  5
CF
330
17
100
AcDbEntity
  8
文字标注
100
AcDbText
 10
665.0130415960462
 20
31.0
 30
0.0
 40
3.5
  1
400.262
 50
90.0
 41
0.7
 11
665.0130415960462
 21
31.0
 31
0.0
100
AcDbText
  0
TEXT
  5
D0
330
17
100
AcDbEntity
  8
文字标注
100
AcDbText
 10
665.0130415960462
 20
16.0
 30
0.0
 40
3.5
  1
399.102
 50
90.0
 41
0.7
 11
665.0130415960462
 21
16.0
 31
0.0
100
AcDbText
  0
TEXT
  5
D1
330
17
100
AcDbEntity
  8
文字标注
100
AcDbText
 10
665.0130415960462
 20
1.0
 30
0.0
 40
3.5
  1
0.000
 50
90.0
 41
0.7
 11
665.0130415960462
 21
1.0
 31
0.0
100
AcDbText
  0
TEXT
  5
D2
330
17
100
AcDbEntity
  8
文字标注
100
AcDbText
 10
665.0130415960462
 20
31.0
 30
0.0
 40
3.5
  1
0.000
 50
90.0
 41
0.7
 11
665.0130415960462
 21
31.0
 31
0.0
100
AcDbText
  0
TEXT
  5
D3
330
17
100
AcDbEntity
  8
文字标注
100
AcDbText
 10
665.0130415960462
 20
16.0
 30
0.0
 40
3.5
  1
0.000
 50
90.0
 41
0.7
 11
665.0130415960462
 21
16.0
 31
0.0
100
AcDbText
  0
TEXT
  5
D4
330
17
100
AcDbEntity
  8
文字标注
100
AcDbText
 10
674.1637714168826
 20
1.0
 30
0.0
 40
3.5
  1
396.807
 50
90.0
 41
0.7
 11
674.1637714168826
 21
1.0
 31
0.0
100
AcDbText
  0
TEXT
  5
D5
330
17
100
AcDbEntity
  8
文字标注
100
AcDbText
 10
674.1637714168826
 20
31.0
 30
0.0
 40
3.5
  1
398.767
 50
90.0
 41
0.7
 11
674.1637714168826
 21
31.0
 31
0.0
100
AcDbText
  0
TEXT
  5
D6
330
17
100
AcDbEntity
  8
文字标注
100
AcDbText
 10
674.1637714168826
 20
16.0
 30
0.0
 40
3.5
  1
399.089
 50
90.0
 41
0.7
 11
674.1637714168826
 21
16.0
 31
0.0
100
AcDbText
  0
TEXT
  5
D7
330
17
100
AcDbEntity
  8
文字标注
100
AcDbText
 10
674.1637714168826
 20
1.0
 30
0.0
 40
3.5
  1
0.000
 50
90.0
 41
0.7
 11
674.1637714168826
 21
1.0
 31
0.0
100
AcDbText
  0
TEXT
  5
D8
330
17
100
AcDbEntity
  8
文字标注
100
AcDbText
 10
674.1637714168826
 20
31.0
 30
0.0
 40
3.5
  1
0.000
 50
90.0
 41
0.7
 11
674.1637714168826
 21
31.0
 31
0.0
100
AcDbText
  0
TEXT
  5
D9
330
17
100
AcDbEntity
  8
文字标注
100
AcDbText
 10
674.1637714168826
 20
16.0
 30
0.0
 40
3.5
  1
0.000
 50
90.0
 41
0.7
 11
674.1637714168826
 21
16.0
 31
0.0
100
AcDbText
  0
TEXT
  5
DA
330
17
100
AcDbEntity
  8
文字标注
100
AcDbText
 10
683.314501237301
 20
1.0
 30
0.0
 40
3.5
  1
396.807
 50
90.0
 41
0.7
 11
683.314501237301
 21
1.0
 31
0.0
100
AcDbText
  0
TEXT
  5
DB
330
17
100
AcDbEntity
  8
文字标注
100
AcDbText
 10
683.314501237301
 20
31.0
 30
0.0
 40
3.5
  1
0.000
 50
90.0
 41
0.7
 11
683.314501237301
 21
31.0
 31
0.0
100
AcDbText
  0
TEXT
  5
DC
330
17
100
AcDbEntity
  8
文字标注
100
AcDbText
 10
683.314501237301
 20
16.0
 30
0.0
 40
3.5
  1
399.077
 50
90.0
 41
0.7
 11
683.314501237301
 21
16.0
 31
0.0
100
AcDbText
  0
TEXT
  5
DD
330
17
100
AcDbEntity
  8
文字标注
100
AcDbText
 10
703.1148706963471
 20
1.0
 30
0.0
 40
3.5
  1
0.000
 50
90.0
 41
0.7
 11
703.1148706963471
 21
1.0
 31
0.0
100
AcDbText
  0
TEXT
  5
DE
330
17
100
AcDbEntity
  8
文字标注
100
AcDbText
 10
703.1148706963471
 20
31.0
 30
0.0
 40
3.5
  1
0.000
 50
90.0
 41
0.7
 11
703.1148706963471
 21
31.0
 31
0.0
100
AcDbText
  0
TEXT
  5
DF
330
17
100
AcDbEntity
  8
文字标注
100
AcDbText
 10
703.1148706963471
 20
16.0
 30
0.0
 40
3.5
  1
399.077
 50
90.0
 41
0.7
 11
703.1148706963471
 21
16.0
 31
0.0
100
AcDbText
  0
TEXT
  5
E0
330
17
100
AcDbEntity
  8
文字标注
100
AcDbText
 10
758.3062350687568
 20
1.0
 30
0.0
 40
3.5
  1
0.000
 50
90.0
 41
0.7
 11
758.3062350687568
 21
1.0
 31
0.0
100
AcDbText
  0
TEXT
  5
E1
330
17
100
AcDbEntity
  8
文字标注
100
AcDbText
 10
758.3062350687568
 20
31.0
 30
0.0
 40
3.5
  1
0.000
 50
90.0
 41
0.7
 11
758.3062350687568
 21
31.0
 31
0.0
100
AcDbText
  0
TEXT
  5
E2
330
17
100
AcDbEntity
  8
文字标注
100
AcDbText
 10
758.3062350687568
 20
16.0
 30
0.0
 40
3.5
  1
399.077
 50
90.0
 41
0.7
 11
758.3062350687568
 21
16.0
 31
0.0
100
AcDbText
  0
TEXT
  5
E3
330
17
100
AcDbEntity
  8
文字标注
100
AcDbText
 10
811.014835476225
 20
1.0
 30
0.0
 40
3.5
  1
396.271
 50
90.0
 41
0.7
 11
811.014835476225
 21
1.0
 31
0.0
100
AcDbText
  0
TEXT
  5
E4
330
17
100
AcDbEntity
  8
文字标注
100
AcDbText
 10
811.014835476225
 20
31.0
 30
0.0
 40
3.5
  1
0.000
 50
90.0
 41
0.7
 11
811.014835476225
 21
31.0
 31
0.0
100
AcDbText
  0
TEXT
  5
E5
330
17
100
AcDbEntity
  8
文字标注
100
AcDbText
 10
811.014835476225
 20
16.0
 30
0.0
 40
3.5
  1
398.575
 50
90.0
 41
0.7
 11
811.014835476225
 21
16.0
 31
0.0
100
AcDbText
  0
TEXT
  5
E6
330
17
100
AcDbEntity
  8
文字标注
100
AcDbText
 10
811.014835476225
 20
1.0
 30
0.0
 40
3.5
  1
0.000
 50
90.0
 41
0.7
 11
811.014835476225
 21
1.0
 31
0.0
100
AcDbText
  0
TEXT
  5
E7
330
17
100
AcDbEntity
  8
文字标注
100
AcDbText
 10
811.014835476225
 20
31.0
 30
0.0
 40
3.5
  1
0.000
 50
90.0
 41
0.7
 11
811.014835476225
 21
31.0
 31
0.0
100
AcDbText
  0
TEXT
  5
E8
330
17
100
AcDbEntity
  8
文字标注
100
AcDbText
 10
811.014835476225
 20
16.0
 30
0.0
 40
3.5
  1
0.000
 50
90.0
 41
0.7
 11
811.014835476225
 21
16.0
 31
0.0
100
AcDbText
  0
TEXT
  5
E9
330
17
100
AcDbEntity
  8
文字标注
100
AcDbText
 10
830.8735003420427
 20
1.0
 30
0.0
 40
3.5
  1
396.271
 50
90.0
 41
0.7
 11
830.8735003420427
 21
1.0
 31
0.0
100
AcDbText
  0
TEXT
  5
EA
330
17
100
AcDbEntity
  8
文字标注
100
AcDbText
 10
830.8735003420427
 20
31.0
 30
0.0
 40
3.5
  1
398.231
 50
90.0
 41
0.7
 11
830.8735003420427
 21
31.0
 31
0.0
100
AcDbText
  0
TEXT
  5
EB
330
17
100
AcDbEntity
  8
文字标注
100
AcDbText
 10
830.8735003420427
 20
16.0
 30
0.0
 40
3.5
  1
398.553
 50
90.0
 41
0.7
 11
830.8735003420427
 21
16.0
 31
0.0
100
AcDbText
  0
TEXT
  5
EC
330
17
100
AcDbEntity
  8
文字标注
100
AcDbText
 10
830.8735003420427
 20
1.0
 30
0.0
 40
3.5
  1
0.000
 50
90.0
 41
0.7
 11
830.8735003420427
 21
1.0
 31
0.0
100
AcDbText
  0
TEXT
  5
ED
330
17
100
AcDbEntity
  8
文字标注
100
AcDbText
 10
830.8735003420427
 20
31.0
 30
0.0
 40
3.5
  1
0.000
 50
90.0
 41
0.7
 11
830.8735003420427
 21
31.0
 31
0.0
100
AcDbText
  0
TEXT
  5
EE
330
17
100
AcDbEntity
  8
文字标注
100
AcDbText
 10
830.8735003420427
 20
16.0
 30
0.0
 40
3.5
  1
0.000
 50
90.0
 41
0.7
 11
830.8735003420427
 21
16.0
 31
0.0
100
AcDbText
  0
TEXT
  5
EF
330
17
100
AcDbEntity
  8
文字标注
100
AcDbText
 10
850.7321652078604
 20
1.0
 30
0.0
 40
3.5
  1
397.196
 50
90.0
 41
0.7
 11
850.7321652078604
 21
1.0
 31
0.0
100
AcDbText
  0
TEXT
  5
F0
330
17
100
AcDbEntity
  8
文字标注
100
AcDbText
 10
850.7321652078604
 20
31.0
 30
0.0
 40
3.5
  1
399.696
 50
90.0
 41
0.7
 11
850.7321652078604
 21
31.0
 31
0.0
100
AcDbText
  0
TEXT
  5
F1
330
17
100
AcDbEntity
  8
文字标注
100
AcDbText
 10
850.7321652078604
 20
16.0
 30
0.0
 40
3.5
  1
398.536
 50
90.0
 41
0.7
 11
850.7321652078604
 21
16.0
 31
0.0
100
AcDbText
  0
TEXT
  5
F2
330
17
100
AcDbEntity
  8
文字标注
100
AcDbText
 10
875.1571576306853
 20
1.0
 30
0.0
 40
3.5
  1
397.185
 50
90.0
 41
0.7
 11
875.1571576306853
 21
1.0
 31
0.0
100
AcDbText
  0
TEXT
  5
F3
330
17
100
AcDbEntity
  8
文字标注
100
AcDbText
 10
875.1571576306853
 20
31.0
 30
0.0
 40
3.5
  1
399.685
 50
90.0
 41
0.7
 11
875.1571576306853
 21
31.0
 31
0.0
100
AcDbText
  0
TEXT
  5
F4
330
17
100
AcDbEntity
  8
文字标注
100
AcDbText
 10
875.1571576306853
 20
16.0
 30
0.0
 40
3.5
  1
398.525
 50
90.0
 41
0.7
 11
875.1571576306853
 21
16.0
 31
0.0
100
AcDbText
  0
TEXT
  5
F5
330
17
100
AcDbEntity
  8
文字标注
100
AcDbText
 10
926.0781738657408
 20
1.0
 30
0.0
 40
3.5
  1
397.161
 50
90.0
 41
0.7
 11
926.0781738657408
 21
1.0
 31
0.0
100
AcDbText
  0
TEXT
  5
F6
330
17
100
AcDbEntity
  8
文字标注
100
AcDbText
 10
926.0781738657408
 20
31.0
 30
0.0
 40
3.5
  1
399.661
 50
90.0
 41
0.7
 11
926.0781738657408
 21
31.0
 31
0.0
100
AcDbText
  0
TEXT
  5
F7
330
17
100
AcDbEntity
  8
文字标注
100
AcDbText
 10
926.0781738657408
 20
16.0
 30
0.0
 40
3.5
  1
398.501
 50
90.0
 41
0.7
 11
926.0781738657408
 21
16.0
 31
0.0
100
AcDbText
  0
TEXT
  5
F8
330
17
100
AcDbEntity
  8
文字标注
100
AcDbText
 10
926.0781738657408
 20
1.0
 30
0.0
 40
3.5
  1
0.000
 50
90.0
 41
0.7
 11
926.0781738657408
 21
1.0
 31
0.0
100
AcDbText
  0
TEXT
  5
F9
330
17
100
AcDbEntity
  8
文字标注
100
AcDbText
 10
926.0781738657408
 20
31.0
 30
0.0
 40
3.5
  1
0.000
 50
90.0
 41
0.7
 11
926.0781738657408
 21
31.0
 31
0.0
100
AcDbText
  0
TEXT
  5
FA
330
17
100
AcDbEntity
  8
文字标注
100
AcDbText
 10
926.0781738657408
 20
16.0
 30
0.0
 40
3.5
  1
0.000
 50
90.0
 41
0.7
 11
926.0781738657408
 21
16.0
 31
0.0
100
AcDbText
  0
TEXT
  5
FB
330
17
100
AcDbEntity
  8
文字标注
100
AcDbText
 10
948.5227142263551
 20
1.0
 30
0.0
 40
3.5
  1
396.202
 50
90.0
 41
0.7
 11
948.5227142263551
 21
1.0
 31
0.0
100
AcDbText
  0
TEXT
  5
FC
330
17
100
AcDbEntity
  8
文字标注
100
AcDbText
 10
948.5227142263551
 20
31.0
 30
0.0
 40
3.5
  1
398.162
 50
90.0
 41
0.7
 11
948.5227142263551
 21
31.0
 31
0.0
100
AcDbText
  0
TEXT
  5
FD
330
17
100
AcDbEntity
  8
文字标注
100
AcDbText
 10
948.5227142263551
 20
16.0
 30
0.0
 40
3.5
  1
398.484
 50
90.0
 41
0.7
 11
948.5227142263551
 21
16.0
 31
0.0
100
AcDbText
  0
TEXT
  5
FE
330
17
100
AcDbEntity
  8
文字标注
100
AcDbText
 10
948.5227142263551
 20
1.0
 30
0.0
 40
3.5
  1
0.000
 50
90.0
 41
0.7
 11
948.5227142263551
 21
1.0
 31
0.0
100
AcDbText
  0
TEXT
  5
FF
330
17
100
AcDbEntity
  8
文字标注
100
AcDbText
 10
948.5227142263551
 20
31.0
 30
0.0
 40
3.5
  1
0.000
 50
90.0
 41
0.7
 11
948.5227142263551
 21
31.0
 31
0.0
100
AcDbText
  0
TEXT
  5
100
330
17
100
AcDbEntity
  8
文字标注
100
AcDbText
 10
948.5227142263551
 20
16.0
 30
0.0
 40
3.5
  1
0.000
 50
90.0
 41
0.7
 11
948.5227142263551
 21
16.0
 31
0.0
100
AcDbText
  0
TEXT
  5
101
330
17
100
AcDbEntity
  8
文字标注
100
AcDbText
 10
970.9672545870687
 20
1.0
 30
0.0
 40
3.5
  1
397.011
 50
90.0
 41
0.7
 11
970.9672545870687
 21
1.0
 31
0.0
100
AcDbText
  0
TEXT
  5
102
330
17
100
AcDbEntity
  8
文字标注
100
AcDbText
 10
970.9672545870687
 20
31.0
 30
0.0
 40
3.5
  1
398.841
 50
90.0
 41
0.7
 11
970.9672545870687
 21
31.0
 31
0.0
100
AcDbText
  0
TEXT
  5
103
330
17
100
AcDbEntity
  8
文字标注
100
AcDbText
 10
970.9672545870687
 20
16.0
 30
0.0
 40
3.5
  1
398.464
 50
90.0
 41
0.7
 11
970.9672545870687
 21
16.0
 31
0.0
100
AcDbText
  0
TEXT
  5
104
330
17
100
AcDbEntity
  8
文字标注
100
AcDbText
 10
1006.7723942322685
 20
1.0
 30
0.0
 40
3.5
  1
396.993
 50
90.0
 41
0.7
 11
1006.7723942322685
 21
1.0
 31
0.0
100
AcDbText
  0
TEXT
  5
105
330
17
100
AcDbEntity
  8
文字标注
100
AcDbText
 10
1006.7723942322685
 20
31.0
 30
0.0
 40
3.5
  1
398.823
 50
90.0
 41
0.7
 11
1006.7723942322685
 21
31.0
 31
0.0
100
AcDbText
  0
TEXT
  5
106
330
17
100
AcDbEntity
  8
文字标注
100
AcDbText
 10
1006.7723942322685
 20
16.0
 30
0.0
 40
3.5
  1
398.446
 50
90.0
 41
0.7
 11
1006.7723942322685
 21
16.0
 31
0.0
100
AcDbText
  0
TEXT
  5
107
330
17
100
AcDbEntity
  8
文字标注
100
AcDbText
 10
1006.7723942322685
 20
1.0
 30
0.0
 40
3.5
  1
0.000
 50
90.0
 41
0.7
 11
1006.7723942322685
 21
1.0
 31
0.0
100
AcDbText
  0
TEXT
  5
108
330
17
100
AcDbEntity
  8
文字标注
100
AcDbText
 10
1006.7723942322685
 20
31.0
 30
0.0
 40
3.5
  1
0.000
 50
90.0
 41
0.7
 11
1006.7723942322685
 21
31.0
 31
0.0
100
AcDbText
  0
TEXT
  5
109
330
17
100
AcDbEntity
  8
文字标注
100
AcDbText
 10
1006.7723942322685
 20
16.0
 30
0.0
 40
3.5
  1
0.000
 50
90.0
 41
0.7
 11
1006.7723942322685
 21
16.0
 31
0.0
100
AcDbText
  0
TEXT
  5
10A
330
17
100
AcDbEntity
  8
文字标注
100
AcDbText
 10
1026.6731005828324
 20
1.0
 30
0.0
 40
3.5
  1
396.144
 50
90.0
 41
0.7
 11
1026.6731005828324
 21
1.0
 31
0.0
100
AcDbText
  0
TEXT
  5
10B
330
17
100
AcDbEntity
  8
文字标注
100
AcDbText
 10
1026.6731005828324
 20
31.0
 30
0.0
 40
3.5
  1
398.104
 50
90.0
 41
0.7
 11
1026.6731005828324
 21
31.0
 31
0.0
100
AcDbText
  0
TEXT
  5
10C
330
17
100
AcDbEntity
  8
文字标注
100
AcDbText
 10
1026.6731005828324
 20
16.0
 30
0.0
 40
3.5
  1
398.426
 50
90.0
 41
0.7
 11
1026.6731005828324
 21
16.0
 31
0.0
100
AcDbText
  0
TEXT
  5
10D
330
17
100
AcDbEntity
  8
文字标注
100
AcDbText
 10
1026.6731005828324
 20
1.0
 30
0.0
 40
3.5
  1
0.000
 50
90.0
 41
0.7
 11
1026.6731005828324
 21
1.0
 31
0.0
100
AcDbText
  0
TEXT
  5
10E
330
17
100
AcDbEntity
  8
文字标注
100
AcDbText
 10
1026.6731005828324
 20
31.0
 30
0.0
 40
3.5
  1
0.000
 50
90.0
 41
0.7
 11
1026.6731005828324
 21
31.0
 31
0.0
100
AcDbText
  0
TEXT
  5
10F
330
17
100
AcDbEntity
  8
文字标注
100
AcDbText
 10
1026.6731005828324
 20
16.0
 30
0.0
 40
3.5
  1
0.000
 50
90.0
 41
0.7
 11
1026.6731005828324
 21
16.0
 31
0.0
100
AcDbText
  0
TEXT
  5
110
330
17
100
AcDbEntity
  8
文字标注
100
AcDbText
 10
1046.5738069333963
 20
1.0
 30
0.0
 40
3.5
  1
396.144
 50
90.0
 41
0.7
 11
1046.5738069333963
 21
1.0
 31
0.0
100
AcDbText
  0
TEXT
  5
111
330
17
100
AcDbEntity
  8
文字标注
100
AcDbText
 10
1046.5738069333963
 20
31.0
 30
0.0
 40
3.5
  1
0.000
 50
90.0
 41
0.7
 11
1046.5738069333963
 21
31.0
 31
0.0
100
AcDbText
  0
TEXT
  5
112
330
17
100
AcDbEntity
  8
文字标注
100
AcDbText
 10
1046.5738069333963
 20
16.0
 30
0.0
 40
3.5
  1
398.410
 50
90.0
 41
0.7
 11
1046.5738069333963
 21
16.0
 31
0.0
100
AcDbText
  0
TEXT
  5
113
330
17
100
AcDbEntity
  8
文字标注
100
AcDbText
 10
1074.418019354573
 20
1.0
 30
0.0
 40
3.5
  1
0.000
 50
90.0
 41
0.7
 11
1074.418019354573
 21
1.0
 31
0.0
100
AcDbText
  0
TEXT
  5
114
330
17
100
AcDbEntity
  8
文字标注
100
AcDbText
 10
1074.418019354573
 20
31.0
 30
0.0
 40
3.5
  1
0.000
 50
90.0
 41
0.7
 11
1074.418019354573
 21
31.0
 31
0.0
100
AcDbText
  0
TEXT
  5
115
330
17
100
AcDbEntity
  8
文字标注
100
AcDbText
 10
1074.418019354573
 20
16.0
 30
0.0
 40
3.5
  1
398.410
 50
90.0
 41
0.7
 11
1074.418019354573
 21
16.0
 31
0.0
100
AcDbText
  0
TEXT
  5
116
330
17
100
AcDbEntity
  8
文字标注
100
AcDbText
 10
1109.6644315453464
 20
1.0
 30
0.0
 40
3.5
  1
0.000
 50
90.0
 41
0.7
 11
1109.6644315453464
 21
1.0
 31
0.0
100
AcDbText
  0
TEXT
  5
117
330
17
100
AcDbEntity
  8
文字标注
100
AcDbText
 10
1109.6644315453464
 20
31.0
 30
0.0
 40
3.5
  1
0.000
 50
90.0
 41
0.7
 11
1109.6644315453464
 21
31.0
 31
0.0
100
AcDbText
  0
TEXT
  5
118
330
17
100
AcDbEntity
  8
文字标注
100
AcDbText
 10
1109.6644315453464
 20
16.0
 30
0.0
 40
3.5
  1
398.410
 50
90.0
 41
0.7
 11
1109.6644315453464
 21
16.0
 31
0.0
100
AcDbText
  0
TEXT
  5
119
330
17
100
AcDbEntity
  8
文字标注
100
AcDbText
 10
1159.6473134682296
 20
1.0
 30
0.0
 40
3.5
  1
0.000
 50
90.0
 41
0.7
 11
1159.6473134682296
 21
1.0
 31
0.0
100
AcDbText
  0
TEXT
  5
11A
330
17
100
AcDbEntity
  8
文字标注
100
AcDbText
 10
1159.6473134682296
 20
31.0
 30
0.0
 40
3.5
  1
0.000
 50
90.0
 41
0.7
 11
1159.6473134682296
 21
31.0
 31
0.0
100
AcDbText
  0
TEXT
  5
11B
330
17
100
AcDbEntity
  8
文字标注
100
AcDbText
 10
1159.6473134682296
 20
16.0
 30
0.0
 40
3.5
  1
398.410
 50
90.0
 41
0.7
 11
1159.6473134682296
 21
16.0
 31
0.0
100
AcDbText
  0
TEXT
  5
11C
330
17
100
AcDbEntity
  8
文字标注
100
AcDbText
 10
1203.9670442818162
 20
1.0
 30
0.0
 40
3.5
  1
0.000
 50
90.0
 41
0.7
 11
1203.9670442818162
 21
1.0
 31
0.0
100
AcDbText
  0
TEXT
  5
11D
330
17
100
AcDbEntity
  8
文字标注
100
AcDbText
 10
1203.9670442818162
 20
31.0
 30
0.0
 40
3.5
  1
0.000
 50
90.0
 41
0.7
 11
1203.9670442818162
 21
31.0
 31
0.0
100
AcDbText
  0
TEXT
  5
11E
330
17
100
AcDbEntity
  8
文字标注
100
AcDbText
 10
1203.9670442818162
 20
16.0
 30
0.0
 40
3.5
  1
398.410
 50
90.0
 41
0.7
 11
1203.9670442818162
 21
16.0
 31
0.0
100
AcDbText
  0
TEXT
  5
11F
330
17
100
AcDbEntity
  8
文字标注
100
AcDbText
 10
1219.2687674143538
 20
1.0
 30
0.0
 40
3.5
  1
0.000
 50
90.0
 41
0.7
 11
1219.2687674143538
 21
1.0
 31
0.0
100
AcDbText
  0
TEXT
  5
120
330
17
100
AcDbEntity
  8
文字标注
100
AcDbText
 10
1219.2687674143538
 20
31.0
 30
0.0
 40
3.5
  1
0.000
 50
90.0
 41
0.7
 11
1219.2687674143538
 21
31.0
 31
0.0
100
AcDbText
  0
TEXT
  5
121
330
17
100
AcDbEntity
  8
文字标注
100
AcDbText
 10
1219.2687674143538
 20
16.0
 30
0.0
 40
3.5
  1
398.410
 50
90.0
 41
0.7
 11
1219.2687674143538
 21
16.0
 31
0.0
100
AcDbText
  0
TEXT
  5
122
330
17
100
AcDbEntity
  8
文字标注
100
AcDbText
 10
1254.694497727741
 20
1.0
 30
0.0
 40
3.5
  1
395.876
 50
90.0
 41
0.7
 11
1254.694497727741
 21
1.0
 31
0.0
100
AcDbText
  0
TEXT
  5
123
330
17
100
AcDbEntity
  8
文字标注
100
AcDbText
 10
1254.694497727741
 20
31.0
 30
0.0
 40
3.5
  1
0.000
 50
90.0
 41
0.7
 11
1254.694497727741
 21
31.0
 31
0.0
100
AcDbText
  0
TEXT
  5
124
330
17
100
AcDbEntity
  8
文字标注
100
AcDbText
 10
1254.694497727741
 20
16.0
 30
0.0
 40
3.5
  1
397.515
 50
90.0
 41
0.7
 11
1254.694497727741
 21
16.0
 31
0.0
100
AcDbText
  0
TEXT
  5
125
330
17
100
AcDbEntity
  8
文字标注
100
AcDbText
 10
1254.694497727741
 20
1.0
 30
0.0
 40
3.5
  1
0.000
 50
90.0
 41
0.7
 11
1254.694497727741
 21
1.0
 31
0.0
100
AcDbText
  0
TEXT
  5
126
330
17
100
AcDbEntity
  8
文字标注
100
AcDbText
 10
1254.694497727741
 20
31.0
 30
0.0
 40
3.5
  1
0.000
 50
90.0
 41
0.7
 11
1254.694497727741
 21
31.0
 31
0.0
100
AcDbText
  0
TEXT
  5
127
330
17
100
AcDbEntity
  8
文字标注
100
AcDbText
 10
1254.694497727741
 20
16.0
 30
0.0
 40
3.5
  1
0.000
 50
90.0
 41
0.7
 11
1254.694497727741
 21
16.0
 31
0.0
100
AcDbText
  0
TEXT
  5
128
330
17
100
AcDbEntity
  8
文字标注
100
AcDbText
 10
1282.5171426895954
 20
1.0
 30
0.0
 40
3.5
  1
395.876
 50
90.0
 41
0.7
 11
1282.5171426895954
 21
1.0
 31
0.0
100
AcDbText
  0
TEXT
  5
129
330
17
100
AcDbEntity
  8
文字标注
100
AcDbText
 10
1282.5171426895954
 20
31.0
 30
0.0
 40
3.5
  1
398.676
 50
90.0
 41
0.7
 11
1282.5171426895954
 21
31.0
 31
0.0
100
AcDbText
  0
TEXT
  5
12A
330
17
100
AcDbEntity
  8
文字标注
100
AcDbText
 10
1282.5171426895954
 20
16.0
 30
0.0
 40
3.5
  1
397.491
 50
90.0
 41
0.7
 11
1282.5171426895954
 21
16.0
 31
0.0
100
AcDbText
  0
TEXT
  5
12B
330
17
100
AcDbEntity
  8
文字标注
100
AcDbText
 10
1293.0171025680065
 20
1.0
 30
0.0
 40
3.5
  1
395.874
 50
90.0
 41
0.7
 11
1293.0171025680065
 21
1.0
 31
0.0
100
AcDbText
  0
TEXT
  5
12C
330
17
100
AcDbEntity
  8
文字标注
100
AcDbText
 10
1293.0171025680065
 20
31.0
 30
0.0
 40
3.5
  1
398.674
 50
90.0
 41
0.7
 11
1293.0171025680065
 21
31.0
 31
0.0
100
AcDbText
  0
TEXT
  5
12D
330
17
100
AcDbEntity
  8
文字标注
100
AcDbText
 10
1293.0171025680065
 20
16.0
 30
0.0
 40
3.5
  1
397.489
 50
90.0
 41
0.7
 11
1293.0171025680065
 21
16.0
 31
0.0
100
AcDbText
  0
TEXT
  5
12E
330
17
100
AcDbEntity
  8
文字标注
100
AcDbText
 10
1293.0171025680065
 20
1.0
 30
0.0
 40
3.5
  1
0.000
 50
90.0
 41
0.7
 11
1293.0171025680065
 21
1.0
 31
0.0
100
AcDbText
  0
TEXT
  5
12F
330
17
100
AcDbEntity
  8
文字标注
100
AcDbText
 10
1293.0171025680065
 20
31.0
 30
0.0
 40
3.5
  1
0.000
 50
90.0
 41
0.7
 11
1293.0171025680065
 21
31.0
 31
0.0
100
AcDbText
  0
TEXT
  5
130
330
17
100
AcDbEntity
  8
文字标注
100
AcDbText
 10
1293.0171025680065
 20
16.0
 30
0.0
 40
3.5
  1
0.000
 50
90.0
 41
0.7
 11
1293.0171025680065
 21
16.0
 31
0.0
100
AcDbText
  0
TEXT
  5
131
330
17
100
AcDbEntity
  8
文字标注
100
AcDbText
 10
1364.436722904469
 20
1.0
 30
0.0
 40
3.5
  1
395.953
 50
90.0
 41
0.7
 11
1364.436722904469
 21
1.0
 31
0.0
100
AcDbText
  0
TEXT
  5
132
330
17
100
AcDbEntity
  8
文字标注
100
AcDbText
 10
1364.436722904469
 20
31.0
 30
0.0
 40
3.5
  1
398.553
 50
90.0
 41
0.7
 11
1364.436722904469
 21
31.0
 31
0.0
100
AcDbText
  0
TEXT
  5
133
330
17
100
AcDbEntity
  8
文字标注
100
AcDbText
 10
1364.436722904469
 20
16.0
 30
0.0
 40
3.5
  1
397.448
 50
90.0
 41
0.7
 11
1364.436722904469
 21
16.0
 31
0.0
100
AcDbText
  0
TEXT
  5
134
330
17
100
AcDbEntity
  8
文字标注
100
AcDbText
 10
1395.9625811641822
 20
1.0
 30
0.0
 40
3.5
  1
0.000
 50
90.0
 41
0.7
 11
1395.9625811641822
 21
1.0
 31
0.0
100
AcDbText
  0
TEXT
  5
135
330
17
100
AcDbEntity
  8
文字标注
100
AcDbText
 10
1395.9625811641822
 20
31.0
 30
0.0
 40
3.5
  1
0.000
 50
90.0
 41
0.7
 11
1395.9625811641822
 21
31.0
 31
0.0
100
AcDbText
  0
TEXT
  5
136
330
17
100
AcDbEntity
  8
文字标注
100
AcDbText
 10
1395.9625811641822
 20
16.0
 30
0.0
 40
3.5
  1
397.348
 50
90.0
 41
0.7
 11
1395.9625811641822
 21
16.0
 31
0.0
100
AcDbText
  0
TEXT
  5
137
330
17
100
AcDbEntity
  8
文字标注
100
AcDbText
 10
1636.7892366105016
 20
1.0
 30
0.0
 40
3.5
  1
395.974
 50
90.0
 41
0.7
 11
1636.7892366105016
 21
1.0
 31
0.0
100
AcDbText
  0
TEXT
  5
138
330
17
100
AcDbEntity
  8
文字标注
100
AcDbText
 10
1636.7892366105016
 20
31.0
 30
0.0
 40
3.5
  1
398.574
 50
90.0
 41
0.7
 11
1636.7892366105016
 21
31.0
 31
0.0
100
AcDbText
  0
TEXT
  5
139
330
17
100
AcDbEntity
  8
文字标注
100
AcDbText
 10
1636.7892366105016
 20
16.0
 30
0.0
 40
3.5
  1
397.230
 50
90.0
 41
0.7
 11
1636.7892366105016
 21
16.0
 31
0.0
100
AcDbText
  0
TEXT
  5
13A
330
17
100
AcDbEntity
  8
文字标注
100
AcDbText
 10
1808.1876628616087
 20
1.0
 30
0.0
 40
3.5
  1
395.891
 50
90.0
 41
0.7
 11
1808.1876628616087
 21
1.0
 31
0.0
100
AcDbText
  0
TEXT
  5
13B
330
17
100
AcDbEntity
  8
文字标注
100
AcDbText
 10
1808.1876628616087
 20
31.0
 30
0.0
 40
3.5
  1
398.491
 50
90.0
 41
0.7
 11
1808.1876628616087
 21
31.0
 31
0.0
100
AcDbText
  0
TEXT
  5
13C
330
17
100
AcDbEntity
  8
文字标注
100
AcDbText
 10
1808.1876628616087
 20
16.0
 30
0.0
 40
3.5
  1
397.147
 50
90.0
 41
0.7
 11
1808.1876628616087
 21
16.0
 31
0.0
100
AcDbText
  0
TEXT
  5
13D
330
17
100
AcDbEntity
  8
文字标注
100
AcDbText
 10
1808.1876628616087
 20
1.0
 30
0.0
 40
3.5
  1
0.000
 50
90.0
 41
0.7
 11
1808.1876628616087
 21
1.0
 31
0.0
100
AcDbText
  0
TEXT
  5
13E
330
17
100
AcDbEntity
  8
文字标注
100
AcDbText
 10
1808.1876628616087
 20
31.0
 30
0.0
 40
3.5
  1
0.000
 50
90.0
 41
0.7
 11
1808.1876628616087
 21
31.0
 31
0.0
100
AcDbText
  0
TEXT
  5
13F
330
17
100
AcDbEntity
  8
文字标注
100
AcDbText
 10
1808.1876628616087
 20
16.0
 30
0.0
 40
3.5
  1
0.000
 50
90.0
 41
0.7
 11
1808.1876628616087
 21
16.0
 31
0.0
100
AcDbText
  0
TEXT
  5
140
330
17
100
AcDbEntity
  8
文字标注
100
AcDbText
 10
1959.6475944647943
 20
1.0
 30
0.0
 40
3.5
  1
395.733
 50
90.0
 41
0.7
 11
1959.6475944647943
 21
1.0
 31
0.0
100
AcDbText
  0
TEXT
  5
141
330
17
100
AcDbEntity
  8
文字标注
100
AcDbText
 10
1959.6475944647943
 20
31.0
 30
0.0
 40
3.5
  1
398.533
 50
90.0
 41
0.7
 11
1959.6475944647943
 21
31.0
 31
0.0
100
AcDbText
  0
TEXT
  5
142
330
17
100
AcDbEntity
  8
文字标注
100
AcDbText
 10
1959.6475944647943
 20
16.0
 30
0.0
 40
3.5
  1
397.090
 50
90.0
 41
0.7
 11
1959.6475944647943
 21
16.0
 31
0.0
100
AcDbText
  0
TEXT
  5
143
330
17
100
AcDbEntity
  8
文字标注
100
AcDbText
 10
1959.6475944647943
 20
1.0
 30
0.0
 40
3.5
  1
0.000
 50
90.0
 41
0.7
 11
1959.6475944647943
 21
1.0
 31
0.0
100
AcDbText
  0
TEXT
  5
144
330
17
100
AcDbEntity
  8
文字标注
100
AcDbText
 10
1959.6475944647943
 20
31.0
 30
0.0
 40
3.5
  1
0.000
 50
90.0
 41
0.7
 11
1959.6475944647943
 21
31.0
 31
0.0
100
AcDbText
  0
TEXT
  5
145
330
17
100
AcDbEntity
  8
文字标注
100
AcDbText
 10
1959.6475944647943
 20
16.0
 30
0.0
 40
3.5
  1
0.000
 50
90.0
 41
0.7
 11
1959.6475944647943
 21
16.0
 31
0.0
100
AcDbText
  0
TEXT
  5
146
330
17
100
AcDbEntity
  8
文字标注
100
AcDbText
 10
2111.1075260680946
 20
1.0
 30
0.0
 40
3.5
  1
395.927
 50
90.0
 41
0.7
 11
2111.1075260680946
 21
1.0
 31
0.0
100
AcDbText
  0
TEXT
  5
147
330
17
100
AcDbEntity
  8
文字标注
100
AcDbText
 10
2111.1075260680946
 20
31.0
 30
0.0
 40
3.5
  1
398.177
 50
90.0
 41
0.7
 11
2111.1075260680946
 21
31.0
 31
0.0
100
AcDbText
  0
TEXT
  5
148
330
17
100
AcDbEntity
  8
文字标注
100
AcDbText
 10
2111.1075260680946
 20
16.0
 30
0.0
 40
3.5
  1
396.982
 50
90.0
 41
0.7
 11
2111.1075260680946
 21
16.0
 31
0.0
100
AcDbText
  0
TEXT
  5
149
330
17
100
AcDbEntity
  8
文字标注
100
AcDbText
 10
2557.8908983033793
 20
1.0
 30
0.0
 40
3.5
  1
395.629
 50
90.0
 41
0.7
 11
2557.8908983033793
 21
1.0
 31
0.0
100
AcDbText
  0
TEXT
  5
14A
330
17
100
AcDbEntity
  8
文字标注
100
AcDbText
 10
2557.8908983033793
 20
31.0
 30
0.0
 40
3.5
  1
397.879
 50
90.0
 41
0.7
 11
2557.8908983033793
 21
31.0
 31
0.0
100
AcDbText
  0
TEXT
  5
14B
330
17
100
AcDbEntity
  8
文字标注
100
AcDbText
 10
2557.8908983033793
 20
16.0
 30
0.0
 40
3.5
  1
396.684
 50
90.0
 41
0.7
 11
2557.8908983033793
 21
16.0
 31
0.0
100
AcDbText
  0
TEXT
  5
14C
330
17
100
AcDbEntity
  8
文字标注
100
AcDbText
 10
2557.8908983033793
 20
1.0
 30
0.0
 40
3.5
  1
0.000
 50
90.0
 41
0.7
 11
2557.8908983033793
 21
1.0
 31
0.0
100
AcDbText
  0
TEXT
  5
14D
330
17
100
AcDbEntity
  8
文字标注
100
AcDbText
 10
2557.8908983033793
 20
31.0
 30
0.0
 40
3.5
  1
0.000
 50
90.0
 41
0.7
 11
2557.8908983033793
 21
31.0
 31
0.0
100
AcDbText
  0
TEXT
  5
14E
330
17
100
AcDbEntity
  8
文字标注
100
AcDbText
 10
2557.8908983033793
 20
16.0
 30
0.0
 40
3.5
  1
0.000
 50
90.0
 41
0.7
 11
2557.8908983033793
 21
16.0
 31
0.0
100
AcDbText
  0
TEXT
  5
14F
330
17
100
AcDbEntity
  8
文字标注
100
AcDbText
 10
2576.058533111016
 20
1.0
 30
0.0
 40
3.5
  1
395.309
 50
90.0
 41
0.7
 11
2576.058533111016
 21
1.0
 31
0.0
100
AcDbText
  0
TEXT
  5
150
330
17
100
AcDbEntity
  8
文字标注
100
AcDbText
 10
2576.058533111016
 20
31.0
 30
0.0
 40
3.5
  1
398.109
 50
90.0
 41
0.7
 11
2576.058533111016
 21
31.0
 31
0.0
100
AcDbText
  0
TEXT
  5
151
330
17
100
AcDbEntity
  8
文字标注
100
AcDbText
 10
2576.058533111016
 20
16.0
 30
0.0
 40
3.5
  1
396.666
 50
90.0
 41
0.7
 11
2576.058533111016
 21
16.0
 31
0.0
100
AcDbText
  0
TEXT
  5
152
330
17
100
AcDbEntity
  8
文字标注
100
AcDbText
 10
2576.058533111016
 20
1.0
 30
0.0
 40
3.5
  1
0.000
 50
90.0
 41
0.7
 11
2576.058533111016
 21
1.0
 31
0.0
100
AcDbText
  0
TEXT
  5
153
330
17
100
AcDbEntity
  8
文字标注
100
AcDbText
 10
2576.058533111016
 20
31.0
 30
0.0
 40
3.5
  1
0.000
 50
90.0
 41
0.7
 11
2576.058533111016
 21
31.0
 31
0.0
100
AcDbText
  0
TEXT
  5
154
330
17
100
AcDbEntity
  8
文字标注
100
AcDbText
 10
2576.058533111016
 20
16.0
 30
0.0
 40
3.5
  1
0.000
 50
90.0
 41
0.7
 11
2576.058533111016
 21
16.0
 31
0.0
100
AcDbText
  0
TEXT
  5
155
330
17
100
AcDbEntity
  8
文字标注
100
AcDbText
 10
2594.226167918642
 20
1.0
 30
0.0
 40
3.5
  1
395.572
 50
90.0
 41
0.7
 11
2594.226167918642
 21
1.0
 31
0.0
100
AcDbText
  0
TEXT
  5
156
330
17
100
AcDbEntity
  8
文字标注
100
AcDbText
 10
2594.226167918642
 20
31.0
 30
0.0
 40
3.5
  1
398.072
 50
90.0
 41
0.7
 11
2594.226167918642
 21
31.0
 31
0.0
100
AcDbText
  0
TEXT
  5
157
330
17
100
AcDbEntity
  8
文字标注
100
AcDbText
 10
2594.226167918642
 20
16.0
 30
0.0
 40
3.5
  1
396.653
 50
90.0
 41
0.7
 11
2594.226167918642
 21
16.0
 31
0.0
100
AcDbText
  0
TEXT
  5
158
330
17
100
AcDbEntity
  8
文字标注
100
AcDbText
 10
2643.0857040809183
 20
1.0
 30
0.0
 40
3.5
  1
395.548
 50
90.0
 41
0.7
 11
2643.0857040809183
 21
1.0
 31
0.0
100
AcDbText
  0
TEXT
  5
159
330
17
100
AcDbEntity
  8
文字标注
100
AcDbText
 10
2643.0857040809183
 20
31.0
 30
0.0
 40
3.5
  1
398.048
 50
90.0
 41
0.7
 11
2643.0857040809183
 21
31.0
 31
0.0
100
AcDbText
  0
TEXT
  5
15A
330
17
100
AcDbEntity
  8
文字标注
100
AcDbText
 10
2643.0857040809183
 20
16.0
 30
0.0
 40
3.5
  1
396.629
 50
90.0
 41
0.7
 11
2643.0857040809183
 21
16.0
 31
0.0
100
AcDbText
  0
TEXT
  5
15B
330
17
100
AcDbEntity
  8
文字标注
100
AcDbText
 10
2643.0857040809183
 20
1.0
 30
0.0
 40
3.5
  1
0.000
 50
90.0
 41
0.7
 11
2643.0857040809183
 21
1.0
 31
0.0
100
AcDbText
  0
TEXT
  5
15C
330
17
100
AcDbEntity
  8
文字标注
100
AcDbText
 10
2643.0857040809183
 20
31.0
 30
0.0
 40
3.5
  1
0.000
 50
90.0
 41
0.7
 11
2643.0857040809183
 21
31.0
 31
0.0
100
AcDbText
  0
TEXT
  5
15D
330
17
100
AcDbEntity
  8
文字标注
100
AcDbText
 10
2643.0857040809183
 20
16.0
 30
0.0
 40
3.5
  1
0.000
 50
90.0
 41
0.7
 11
2643.0857040809183
 21
16.0
 31
0.0
100
AcDbText
  0
TEXT
  5
15E
330
17
100
AcDbEntity
  8
文字标注
100
AcDbText
 10
2736.962919665265
 20
1.0
 30
0.0
 40
3.5
  1
395.282
 50
90.0
 41
0.7
 11
2736.962919665265
 21
1.0
 31
0.0
100
AcDbText
  0
TEXT
  5
15F
330
17
100
AcDbEntity
  8
文字标注
100
AcDbText
 10
2736.962919665265
 20
31.0
 30
0.0
 40
3.5
  1
397.237
 50
90.0
 41
0.7
 11
2736.962919665265
 21
31.0
 31
0.0
100
AcDbText
  0
TEXT
  5
160
330
17
100
AcDbEntity
  8
文字标注
100
AcDbText
 10
2736.962919665265
 20
16.0
 30
0.0
 40
3.5
  1
396.592
 50
90.0
 41
0.7
 11
2736.962919665265
 21
16.0
 31
0.0
100
AcDbText
  0
TEXT
  5
161
330
17
100
AcDbEntity
  8
文字标注
100
AcDbText
 10
2898.537170360158
 20
1.0
 30
0.0
 40
3.5
  1
395.229
 50
90.0
 41
0.7
 11
2898.537170360158
 21
1.0
 31
0.0
100
AcDbText
  0
TEXT
  5
162
330
17
100
AcDbEntity
  8
文字标注
100
AcDbText
 10
2898.537170360158
 20
31.0
 30
0.0
 40
3.5
  1
397.184
 50
90.0
 41
0.7
 11
2898.537170360158
 21
31.0
 31
0.0
100
AcDbText
  0
TEXT
  5
163
330
17
100
AcDbEntity
  8
文字标注
100
AcDbText
 10
2898.537170360158
 20
16.0
 30
0.0
 40
3.5
  1
396.539
 50
90.0
 41
0.7
 11
2898.537170360158
 21
16.0
 31
0.0
100
AcDbText
  0
TEXT
  5
164
330
17
100
AcDbEntity
  8
文字标注
100
AcDbText
 10
4.8
 20
47.0
 30
0.0
 40
3.5
  1
南支0+000.000
 50
90.0
 41
0.7
 11
4.8
 21
47.0
 31
0.0
100
AcDbText
  0
TEXT
  5
165
330
17
100
AcDbEntity
  8
文字标注
100
AcDbText
 10
107.44443332096523
 20
47.0
 30
0.0
 40
3.5
  1
南支0+108.444
 50
90.0
 41
0.7
 11
107.44443332096523
 21
47.0
 31
0.0
100
AcDbText
  0
TEXT
  5
166
330
17
100
AcDbEntity
  8
文字标注
100
AcDbText
 10
168.56113070436587
 20
47.0
 30
0.0
 40
3.5
  1
南支0+169.561
 50
90.0
 41
0.7
 11
168.56113070436587
 21
47.0
 31
0.0
100
AcDbText
  0
TEXT
  5
167
330
17
100
AcDbEntity
  8
文字标注
100
AcDbText
 10
168.56113070436587
 20
47.0
 30
0.0
 40
3.5
  1
南支0+169.561
 50
90.0
 41
0.7
 11
168.56113070436587
 21
47.0
 31
0.0
100
AcDbText
  0
TEXT
  5
168
330
17
100
AcDbEntity
  8
文字标注
100
AcDbText
 10
192.1293203034888
 20
47.0
 30
0.0
 40
3.5
  1
南支0+193.129
 50
90.0
 41
0.7
 11
192.1293203034888
 21
47.0
 31
0.0
100
AcDbText
  0
TEXT
  5
169
330
17
100
AcDbEntity
  8
文字标注
100
AcDbText
 10
257.66916599329306
 20
47.0
 30
0.0
 40
3.5
  1
南支0+258.669
 50
90.0
 41
0.7
 11
257.66916599329306
 21
47.0
 31
0.0
100
AcDbText
  0
TEXT
  5
16A
330
17
100
AcDbEntity
  8
文字标注
100
AcDbText
 10
257.66916599329306
 20
47.0
 30
0.0
 40
3.5
  1
南支0+258.669
 50
90.0
 41
0.7
 11
257.66916599329306
 21
47.0
 31
0.0
100
AcDbText
  0
TEXT
  5
16B
330
17
100
AcDbEntity
  8
文字标注
100
AcDbText
 10
283.6785097240433
 20
47.0
 30
0.0
 40
3.5
  1
南支0+284.679
 50
90.0
 41
0.7
 11
283.6785097240433
 21
47.0
 31
0.0
100
AcDbText
  0
TEXT
  5
16C
330
17
100
AcDbEntity
  8
文字标注
100
AcDbText
 10
302.9442141024815
 20
47.0
 30
0.0
 40
3.5
  1
南支0+303.944
 50
90.0
 41
0.7
 11
302.9442141024815
 21
47.0
 31
0.0
100
AcDbText
  0
TEXT
  5
16D
330
17
100
AcDbEntity
  8
文字标注
100
AcDbText
 10
326.1639545718192
 20
47.0
 30
0.0
 40
3.5
  1
南支0+327.164
 50
90.0
 41
0.7
 11
326.1639545718192
 21
47.0
 31
0.0
100
AcDbText
  0
TEXT
  5
16E
330
17
100
AcDbEntity
  8
文字标注
100
AcDbText
 10
417.55074158583886
 20
47.0
 30
0.0
 40
3.5
  1
南支0+418.551
 50
90.0
 41
0.7
 11
417.55074158583886
 21
47.0
 31
0.0
100
AcDbText
  0
TEXT
  5
16F
330
17
100
AcDbEntity
  8
文字标注
100
AcDbText
 10
417.55074158583886
 20
47.0
 30
0.0
 40
3.5
  1
南支0+418.551
 50
90.0
 41
0.7
 11
417.55074158583886
 21
47.0
 31
0.0
100
AcDbText
  0
TEXT
  5
170
330
17
100
AcDbEntity
  8
文字标注
100
AcDbText
 10
463.79635424267383
 20
47.0
 30
0.0
 40
3.5
  1
南支0+464.796
 50
90.0
 41
0.7
 11
463.79635424267383
 21
47.0
 31
0.0
100
AcDbText
  0
TEXT
  5
171
330
17
100
AcDbEntity
  8
文字标注
100
AcDbText
 10
483.92455600013443
 20
47.0
 30
0.0
 40
3.5
  1
南支0+484.925
 50
90.0
 41
0.7
 11
483.92455600013443
 21
47.0
 31
0.0
100
AcDbText
  0
TEXT
  5
172
330
17
100
AcDbEntity
  8
文字标注
100
AcDbText
 10
510.82826313621086
 20
47.0
 30
0.0
 40
3.5
  1
南支0+511.828
 50
90.0
 41
0.7
 11
510.82826313621086
 21
47.0
 31
0.0
100
AcDbText
  0
TEXT
  5
173
330
17
100
AcDbEntity
  8
文字标注
100
AcDbText
 10
546.9346598555645
 20
47.0
 30
0.0
 40
3.5
  1
南支0+547.935
 50
90.0
 41
0.7
 11
546.9346598555645
 21
47.0
 31
0.0
100
AcDbText
  0
TEXT
  5
174
330
17
100
AcDbEntity
  8
文字标注
100
AcDbText
 10
596.223072593722
 20
47.0
 30
0.0
 40
3.5
  1
南支0+597.223
 50
90.0
 41
0.7
 11
596.223072593722
 21
47.0
 31
0.0
100
AcDbText
  0
TEXT
  5
175
330
17
100
AcDbEntity
  8
文字标注
100
AcDbText
 10
596.223072593722
 20
47.0
 30
0.0
 40
3.5
  1
南支0+597.223
 50
90.0
 41
0.7
 11
596.223072593722
 21
47.0
 31
0.0
100
AcDbText
  0
TEXT
  5
176
330
17
100
AcDbEntity
  8
文字标注
100
AcDbText
 10
620.8257841719274
 20
47.0
 30
0.0
 40
3.5
  1
南支0+621.826
 50
90.0
 41
0.7
 11
620.8257841719274
 21
47.0
 31
0.0
100
AcDbText
  0
TEXT
  5
177
330
17
100
AcDbEntity
  8
文字标注
100
AcDbText
 10
620.8257841719274
 20
47.0
 30
0.0
 40
3.5
  1
南支0+621.826
 50
90.0
 41
0.7
 11
620.8257841719274
 21
47.0
 31
0.0
100
AcDbText
  0
TEXT
  5
178
330
17
100
AcDbEntity
  8
文字标注
100
AcDbText
 10
645.4284957501327
 20
47.0
 30
0.0
 40
3.5
  1
南支0+646.428
 50
90.0
 41
0.7
 11
645.4284957501327
 21
47.0
 31
0.0
100
AcDbText
  0
TEXT
  5
179
330
17
100
AcDbEntity
  8
文字标注
100
AcDbText
 10
665.0130415960462
 20
47.0
 30
0.0
 40
3.5
  1
南支0+666.013
 50
90.0
 41
0.7
 11
665.0130415960462
 21
47.0
 31
0.0
100
AcDbText
  0
TEXT
  5
17A
330
17
100
AcDbEntity
  8
文字标注
100
AcDbText
 10
665.0130415960462
 20
47.0
 30
0.0
 40
3.5
  1
南支0+666.013
 50
90.0
 41
0.7
 11
665.0130415960462
 21
47.0
 31
0.0
100
AcDbText
  0
TEXT
  5
17B
330
17
100
AcDbEntity
  8
文字标注
100
AcDbText
 10
674.1637714168826
 20
47.0
 30
0.0
 40
3.5
  1
南支0+675.164
 50
90.0
 41
0.7
 11
674.1637714168826
 21
47.0
 31
0.0
100
AcDbText
  0
TEXT
  5
17C
330
17
100
AcDbEntity
  8
文字标注
100
AcDbText
 10
674.1637714168826
 20
47.0
 30
0.0
 40
3.5
  1
南支0+675.164
 50
90.0
 41
0.7
 11
674.1637714168826
 21
47.0
 31
0.0
100
AcDbText
  0
TEXT
  5
17D
330
17
100
AcDbEntity
  8
文字标注
100
AcDbText
 10
683.314501237301
 20
47.0
 30
0.0
 40
3.5
  1
南支0+684.315
 50
90.0
 41
0.7
 11
683.314501237301
 21
47.0
 31
0.0
100
AcDbText
  0
TEXT
  5
17E
330
17
100
AcDbEntity
  8
文字标注
100
AcDbText
 10
703.1148706963471
 20
47.0
 30
0.0
 40
3.5
  1
南支0+704.115
 50
90.0
 41
0.7
 11
703.1148706963471
 21
47.0
 31
0.0
100
AcDbText
  0
TEXT
  5
17F
330
17
100
AcDbEntity
  8
文字标注
100
AcDbText
 10
758.3062350687568
 20
47.0
 30
0.0
 40
3.5
  1
南支0+759.306
 50
90.0
 41
0.7
 11
758.3062350687568
 21
47.0
 31
0.0
100
AcDbText
  0
TEXT
  5
180
330
17
100
AcDbEntity
  8
文字标注
100
AcDbText
 10
811.014835476225
 20
47.0
 30
0.0
 40
3.5
  1
南支0+812.015
 50
90.0
 41
0.7
 11
811.014835476225
 21
47.0
 31
0.0
100
AcDbText
  0
TEXT
  5
181
330
17
100
AcDbEntity
  8
文字标注
100
AcDbText
 10
811.014835476225
 20
47.0
 30
0.0
 40
3.5
  1
南支0+812.015
 50
90.0
 41
0.7
 11
811.014835476225
 21
47.0
 31
0.0
100
AcDbText
  0
TEXT
  5
182
330
17
100
AcDbEntity
  8
文字标注
100
AcDbText
 10
830.8735003420427
 20
47.0
 30
0.0
 40
3.5
  1
南支0+831.874
 50
90.0
 41
0.7
 11
830.8735003420427
 21
47.0
 31
0.0
100
AcDbText
  0
TEXT
  5
183
330
17
100
AcDbEntity
  8
文字标注
100
AcDbText
 10
830.8735003420427
 20
47.0
 30
0.0
 40
3.5
  1
南支0+831.874
 50
90.0
 41
0.7
 11
830.8735003420427
 21
47.0
 31
0.0
100
AcDbText
  0
TEXT
  5
184
330
17
100
AcDbEntity
  8
文字标注
100
AcDbText
 10
850.7321652078604
 20
47.0
 30
0.0
 40
3.5
  1
南支0+851.732
 50
90.0
 41
0.7
 11
850.7321652078604
 21
47.0
 31
0.0
100
AcDbText
  0
TEXT
  5
185
330
17
100
AcDbEntity
  8
文字标注
100
AcDbText
 10
875.1571576306853
 20
47.0
 30
0.0
 40
3.5
  1
南支0+876.157
 50
90.0
 41
0.7
 11
875.1571576306853
 21
47.0
 31
0.0
100
AcDbText
  0
TEXT
  5
186
330
17
100
AcDbEntity
  8
文字标注
100
AcDbText
 10
926.0781738657408
 20
47.0
 30
0.0
 40
3.5
  1
南支0+927.078
 50
90.0
 41
0.7
 11
926.0781738657408
 21
47.0
 31
0.0
100
AcDbText
  0
TEXT
  5
187
330
17
100
AcDbEntity
  8
文字标注
100
AcDbText
 10
926.0781738657408
 20
47.0
 30
0.0
 40
3.5
  1
南支0+927.078
 50
90.0
 41
0.7
 11
926.0781738657408
 21
47.0
 31
0.0
100
AcDbText
  0
TEXT
  5
188
330
17
100
AcDbEntity
  8
文字标注
100
AcDbText
 10
948.5227142263551
 20
47.0
 30
0.0
 40
3.5
  1
南支0+949.523
 50
90.0
 41
0.7
 11
948.5227142263551
 21
47.0
 31
0.0
100
AcDbText
  0
TEXT
  5
189
330
17
100
AcDbEntity
  8
文字标注
100
AcDbText
 10
948.5227142263551
 20
47.0
 30
0.0
 40
3.5
  1
南支0+949.523
 50
90.0
 41
0.7
 11
948.5227142263551
 21
47.0
 31
0.0
100
AcDbText
  0
TEXT
  5
18A
330
17
100
AcDbEntity
  8
文字标注
100
AcDbText
 10
970.9672545870687
 20
47.0
 30
0.0
 40
3.5
  1
南支0+971.967
 50
90.0
 41
0.7
 11
970.9672545870687
 21
47.0
 31
0.0
100
AcDbText
  0
TEXT
  5
18B
330
17
100
AcDbEntity
  8
文字标注
100
AcDbText
 10
1006.7723942322685
 20
47.0
 30
0.0
 40
3.5
  1
南支1+007.772
 50
90.0
 41
0.7
 11
1006.7723942322685
 21
47.0
 31
0.0
100
AcDbText
  0
TEXT
  5
18C
330
17
100
AcDbEntity
  8
文字标注
100
AcDbText
 10
1006.7723942322685
 20
47.0
 30
0.0
 40
3.5
  1
南支1+007.772
 50
90.0
 41
0.7
 11
1006.7723942322685
 21
47.0
 31
0.0
100
AcDbText
  0
TEXT
  5
18D
330
17
100
AcDbEntity
  8
文字标注
100
AcDbText
 10
1026.6731005828324
 20
47.0
 30
0.0
 40
3.5
  1
南支1+027.673
 50
90.0
 41
0.7
 11
1026.6731005828324
 21
47.0
 31
0.0
100
AcDbText
  0
TEXT
  5
18E
330
17
100
AcDbEntity
  8
文字标注
100
AcDbText
 10
1026.6731005828324
 20
47.0
 30
0.0
 40
3.5
  1
南支1+027.673
 50
90.0
 41
0.7
 11
1026.6731005828324
 21
47.0
 31
0.0
100
AcDbText
  0
TEXT
  5
18F
330
17
100
AcDbEntity
  8
文字标注
100
AcDbText
 10
1046.5738069333963
 20
47.0
 30
0.0
 40
3.5
  1
南支1+047.574
 50
90.0
 41
0.7
 11
1046.5738069333963
 21
47.0
 31
0.0
100
AcDbText
  0
TEXT
  5
190
330
17
100
AcDbEntity
  8
文字标注
100
AcDbText
 10
1074.418019354573
 20
47.0
 30
0.0
 40
3.5
  1
南支1+075.418
 50
90.0
 41
0.7
 11
1074.418019354573
 21
47.0
 31
0.0
100
AcDbText
  0
TEXT
  5
191
330
17
100
AcDbEntity
  8
文字标注
100
AcDbText
 10
1109.6644315453464
 20
47.0
 30
0.0
 40
3.5
  1
南支1+110.664
 50
90.0
 41
0.7
 11
1109.6644315453464
 21
47.0
 31
0.0
100
AcDbText
  0
TEXT
  5
192
330
17
100
AcDbEntity
  8
文字标注
100
AcDbText
 10
1159.6473134682296
 20
47.0
 30
0.0
 40
3.5
  1
南支1+160.647
 50
90.0
 41
0.7
 11
1159.6473134682296
 21
47.0
 31
0.0
100
AcDbText
  0
TEXT
  5
193
330
17
100
AcDbEntity
  8
文字标注
100
AcDbText
 10
1203.9670442818162
 20
47.0
 30
0.0
 40
3.5
  1
南支1+204.967
 50
90.0
 41
0.7
 11
1203.9670442818162
 21
47.0
 31
0.0
100
AcDbText
  0
TEXT
  5
194
330
17
100
AcDbEntity
  8
文字标注
100
AcDbText
 10
1219.2687674143538
 20
47.0
 30
0.0
 40
3.5
  1
南支1+220.269
 50
90.0
 41
0.7
 11
1219.2687674143538
 21
47.0
 31
0.0
100
AcDbText
  0
TEXT
  5
195
330
17
100
AcDbEntity
  8
文字标注
100
AcDbText
 10
1254.694497727741
 20
47.0
 30
0.0
 40
3.5
  1
南支1+255.694
 50
90.0
 41
0.7
 11
1254.694497727741
 21
47.0
 31
0.0
100
AcDbText
  0
TEXT
  5
196
330
17
100
AcDbEntity
  8
文字标注
100
AcDbText
 10
1254.694497727741
 20
47.0
 30
0.0
 40
3.5
  1
南支1+255.694
 50
90.0
 41
0.7
 11
1254.694497727741
 21
47.0
 31
0.0
100
AcDbText
  0
TEXT
  5
197
330
17
100
AcDbEntity
  8
文字标注
100
AcDbText
 10
1282.5171426895954
 20
47.0
 30
0.0
 40
3.5
  1
南支1+283.517
 50
90.0
 41
0.7
 11
1282.5171426895954
 21
47.0
 31
0.0
100
AcDbText
  0
TEXT
  5
198
330
17
100
AcDbEntity
  8
文字标注
100
AcDbText
 10
1293.0171025680065
 20
47.0
 30
0.0
 40
3.5
  1
南支1+294.017
 50
90.0
 41
0.7
 11
1293.0171025680065
 21
47.0
 31
0.0
100
AcDbText
  0
TEXT
  5
199
330
17
100
AcDbEntity
  8
文字标注
100
AcDbText
 10
1293.0171025680065
 20
47.0
 30
0.0
 40
3.5
  1
南支1+294.017
 50
90.0
 41
0.7
 11
1293.0171025680065
 21
47.0
 31
0.0
100
AcDbText
  0
TEXT
  5
19A
330
17
100
AcDbEntity
  8
文字标注
100
AcDbText
 10
1364.436722904469
 20
47.0
 30
0.0
 40
3.5
  1
南支1+365.437
 50
90.0
 41
0.7
 11
1364.436722904469
 21
47.0
 31
0.0
100
AcDbText
  0
TEXT
  5
19B
330
17
100
AcDbEntity
  8
文字标注
100
AcDbText
 10
1395.9625811641822
 20
47.0
 30
0.0
 40
3.5
  1
南支1+396.963
 50
90.0
 41
0.7
 11
1395.9625811641822
 21
47.0
 31
0.0
100
AcDbText
  0
TEXT
  5
19C
330
17
100
AcDbEntity
  8
文字标注
100
AcDbText
 10
1636.7892366105016
 20
47.0
 30
0.0
 40
3.5
  1
南支1+637.789
 50
90.0
 41
0.7
 11
1636.7892366105016
 21
47.0
 31
0.0
100
AcDbText
  0
TEXT
  5
19D
330
17
100
AcDbEntity
  8
文字标注
100
AcDbText
 10
1808.1876628616087
 20
47.0
 30
0.0
 40
3.5
  1
南支1+809.188
 50
90.0
 41
0.7
 11
1808.1876628616087
 21
47.0
 31
0.0
100
AcDbText
  0
TEXT
  5
19E
330
17
100
AcDbEntity
  8
文字标注
100
AcDbText
 10
1808.1876628616087
 20
47.0
 30
0.0
 40
3.5
  1
南支1+809.188
 50
90.0
 41
0.7
 11
1808.1876628616087
 21
47.0
 31
0.0
100
AcDbText
  0
TEXT
  5
19F
330
17
100
AcDbEntity
  8
文字标注
100
AcDbText
 10
1959.6475944647943
 20
47.0
 30
0.0
 40
3.5
  1
南支1+960.648
 50
90.0
 41
0.7
 11
1959.6475944647943
 21
47.0
 31
0.0
100
AcDbText
  0
TEXT
  5
1A0
330
17
100
AcDbEntity
  8
文字标注
100
AcDbText
 10
1959.6475944647943
 20
47.0
 30
0.0
 40
3.5
  1
南支1+960.648
 50
90.0
 41
0.7
 11
1959.6475944647943
 21
47.0
 31
0.0
100
AcDbText
  0
TEXT
  5
1A1
330
17
100
AcDbEntity
  8
文字标注
100
AcDbText
 10
2111.1075260680946
 20
47.0
 30
0.0
 40
3.5
  1
南支2+112.108
 50
90.0
 41
0.7
 11
2111.1075260680946
 21
47.0
 31
0.0
100
AcDbText
  0
TEXT
  5
1A2
330
17
100
AcDbEntity
  8
文字标注
100
AcDbText
 10
2557.8908983033793
 20
47.0
 30
0.0
 40
3.5
  1
南支2+558.891
 50
90.0
 41
0.7
 11
2557.8908983033793
 21
47.0
 31
0.0
100
AcDbText
  0
TEXT
  5
1A3
330
17
100
AcDbEntity
  8
文字标注
100
AcDbText
 10
2557.8908983033793
 20
47.0
 30
0.0
 40
3.5
  1
南支2+558.891
 50
90.0
 41
0.7
 11
2557.8908983033793
 21
47.0
 31
0.0
100
AcDbText
  0
TEXT
  5
1A4
330
17
100
AcDbEntity
  8
文字标注
100
AcDbText
 10
2576.058533111016
 20
47.0
 30
0.0
 40
3.5
  1
南支2+577.059
 50
90.0
 41
0.7
 11
2576.058533111016
 21
47.0
 31
0.0
100
AcDbText
  0
TEXT
  5
1A5
330
17
100
AcDbEntity
  8
文字标注
100
AcDbText
 10
2576.058533111016
 20
47.0
 30
0.0
 40
3.5
  1
南支2+577.059
 50
90.0
 41
0.7
 11
2576.058533111016
 21
47.0
 31
0.0
100
AcDbText
  0
TEXT
  5
1A6
330
17
100
AcDbEntity
  8
文字标注
100
AcDbText
 10
2594.226167918642
 20
47.0
 30
0.0
 40
3.5
  1
南支2+595.226
 50
90.0
 41
0.7
 11
2594.226167918642
 21
47.0
 31
0.0
100
AcDbText
  0
TEXT
  5
1A7
330
17
100
AcDbEntity
  8
文字标注
100
AcDbText
 10
2643.0857040809183
 20
47.0
 30
0.0
 40
3.5
  1
南支2+644.086
 50
90.0
 41
0.7
 11
2643.0857040809183
 21
47.0
 31
0.0
100
AcDbText
  0
TEXT
  5
1A8
330
17
100
AcDbEntity
  8
文字标注
100
AcDbText
 10
2643.0857040809183
 20
47.0
 30
0.0
 40
3.5
  1
南支2+644.086
 50
90.0
 41
0.7
 11
2643.0857040809183
 21
47.0
 31
0.0
100
AcDbText
  0
TEXT
  5
1A9
330
17
100
AcDbEntity
  8
文字标注
100
AcDbText
 10
2736.962919665265
 20
47.0
 30
0.0
 40
3.5
  1
南支2+737.963
 50
90.0
 41
0.7
 11
2736.962919665265
 21
47.0
 31
0.0
100
AcDbText
  0
TEXT
  5
1AA
330
17
100
AcDbEntity
  8
文字标注
100
AcDbText
 10
2898.537170360158
 20
47.0
 30
0.0
 40
3.5
  1
南支2+899.537
 50
90.0
 41
0.7
 11
2898.537170360158
 21
47.0
 31
0.0
100
AcDbText
  0
TEXT
  5
1AB
330
17
100
AcDbEntity
  8
文字标注
100
AcDbText
 10
-20.0
 20
115.0
 30
0.0
 40
3.5
  1
建筑物名称
 41
0.7
 72
1
 11
-20.0
 21
115.0
 31
0.0
100
AcDbText
 73
2
  0
TEXT
  5
1AC
330
17
100
AcDbEntity
  8
文字标注
100
AcDbText
 10
-20.0
 20
105.0
 30
0.0
 40
3.5
  1
坡 降
 41
0.7
 72
1
 11
-20.0
 21
105.0
 31
0.0
100
AcDbText
 73
2
  0
TEXT
  5
1AD
330
17
100
AcDbEntity
  8
文字标注
100
AcDbText
 10
-20.0
 20
87.5
 30
0.0
 40
3.5
  1
IP点名称
 41
0.7
 72
1
 11
-20.0
 21
87.5
 31
0.0
100
AcDbText
 73
2
  0
TEXT
  5
1AE
330
17
100
AcDbEntity
  8
文字标注
100
AcDbText
 10
-20.0
 20
37.5
 30
0.0
 40
3.5
  1
渠顶高程(m)
 41
0.7
 72
1
 11
-20.0
 21
37.5
 31
0.0
100
AcDbText
 73
2
  0
TEXT
  5
1AF
330
17
100
AcDbEntity
  8
文字标注
100
AcDbText
 10
-20.0
 20
22.5
 30
0.0
 40
3.5
  1
设计水位(m)
 41
0.7
 72
1
 11
-20.0
 21
22.5
 31
0.0
100
AcDbText
 73
2
  0
TEXT
  5
1B0
330
17
100
AcDbEntity
  8
文字标注
100
AcDbText
 10
-20.0
 20
7.5
 30
0.0
 40
3.5
  1
渠底高程(m)
 41
0.7
 72
1
 11
-20.0
 21
7.5
 31
0.0
100
AcDbText
 73
2
  0
TEXT
  5
1B1
330
17
100
AcDbEntity
  8
文字标注
100
AcDbText
 10
-20.0
 20
64.375
 30
0.0
 40
3.5
  1
里程桩号
 41
0.7
 72
1
 11
-20.0
 21
64.375
 31
0.0
100
AcDbText
 73
2
  0
TEXT
  5
1B2
330
17
100
AcDbEntity
  8
文字标注
100
AcDbText
 10
-20.0
 20
55.625
 30
0.0
 40
3.5
  1
（千米+米）
 41
0.7
 72
1
 11
-20.0
 21
55.625
 31
0.0
100
AcDbText
 73
2
  0
TEXT
  5
1B3
330
17
100
AcDbEntity
  8
文字标注
100
AcDbText
 10
96.5646601517444
 20
115.0
 30
0.0
 40
3.5
  1
明渠-矩形
 41
0.7
 72
4
 11
96.5646601517444
 21
115.0
 31
0.0
100
AcDbText
  0
TEXT
  5
1B4
330
17
100
AcDbEntity
  8
文字标注
100
AcDbText
 10
225.89924314839095
 20
115.0
 30
0.0
 40
3.5
  1
土地垭隧洞
 41
0.7
 72
4
 11
225.89924314839095
 21
115.0
 31
0.0
100
AcDbText
  0
TEXT
  5
1B5
330
17
100
AcDbEntity
  8
文字标注
100
AcDbText
 10
327.1639545718192
 20
115.0
 30
0.0
 40
3.5
  1
磨尔滩分水闸
 41
0.7
 72
4
 11
327.1639545718192
 21
115.0
 31
0.0
100
AcDbText
  0
TEXT
  5
1B6
330
17
100
AcDbEntity
  8
文字标注
100
AcDbText
 10
361.73276011798345
 20
115.0
 30
0.0
 40
3.5
  1
明渠-梯形
 41
0.7
 72
4
 11
361.73276011798345
 21
115.0
 31
0.0
100
AcDbText
  0
TEXT
  5
1B7
330
17
100
AcDbEntity
  8
文字标注
100
AcDbText
 10
531.0097134181979
 20
115.0
 30
0.0
 40
3.5
  1
沪蓉倒虹吸
 41
0.7
 72
4
 11
531.0097134181979
 21
115.0
 31
0.0
100
AcDbText
  0
TEXT
  5
1B8
330
17
100
AcDbEntity
  8
文字标注
100
AcDbText
 10
621.8257841719274
 20
115.0
 30
0.0
 40
3.5
  1
明渠-梯形
 41
0.7
 72
4
 11
621.8257841719274
 21
115.0
 31
0.0
100
AcDbText
  0
TEXT
  5
1B9
330
17
100
AcDbEntity
  8
文字标注
100
AcDbText
 10
656.2207686730894
 20
115.0
 30
0.0
 40
3.5
  1
宋家沟隧洞
 41
0.7
 72
4
 11
656.2207686730894
 21
115.0
 31
0.0
100
AcDbText
  0
TEXT
  5
1BA
330
17
100
AcDbEntity
  8
文字标注
100
AcDbText
 10
675.1637714166736
 20
115.0
 30
0.0
 40
3.5
  1
明渠-梯形
 41
0.7
 72
4
 11
675.1637714166736
 21
115.0
 31
0.0
100
AcDbText
  0
TEXT
  5
1BB
330
17
100
AcDbEntity
  8
文字标注
100
AcDbText
 10
748.1646683567631
 20
115.0
 30
0.0
 40
3.5
  1
广岳倒虹吸
 41
0.7
 72
4
 11
748.1646683567631
 21
115.0
 31
0.0
100
AcDbText
  0
TEXT
  5
1BC
330
17
100
AcDbEntity
  8
文字标注
100
AcDbText
 10
831.8735003420427
 20
115.0
 30
0.0
 40
3.5
  1
明渠-梯形
 41
0.7
 72
4
 11
831.8735003420427
 21
115.0
 31
0.0
100
AcDbText
  0
TEXT
  5
1BD
330
17
100
AcDbEntity
  8
文字标注
100
AcDbText
 10
889.4051695368006
 20
115.0
 30
0.0
 40
3.5
  1
伍家沟隧洞
 41
0.7
 72
4
 11
889.4051695368006
 21
115.0
 31
0.0
100
AcDbText
  0
TEXT
  5
1BE
330
17
100
AcDbEntity
  8
文字标注
100
AcDbText
 10
949.5227142264048
 20
115.0
 30
0.0
 40
3.5
  1
明渠-梯形
 41
0.7
 72
4
 11
949.5227142264048
 21
115.0
 31
0.0
100
AcDbText
  0
TEXT
  5
1BF
330
17
100
AcDbEntity
  8
文字标注
100
AcDbText
 10
989.8698244096686
 20
115.0
 30
0.0
 40
3.5
  1
刘家沟渡槽
 41
0.7
 72
4
 11
989.8698244096686
 21
115.0
 31
0.0
100
AcDbText
  0
TEXT
  5
1C0
330
17
100
AcDbEntity
  8
文字标注
100
AcDbText
 10
1027.6731005828324
 20
115.0
 30
0.0
 40
3.5
  1
明渠-梯形
 41
0.7
 72
4
 11
1027.6731005828324
 21
115.0
 31
0.0
100
AcDbText
  0
TEXT
  5
1C1
330
17
100
AcDbEntity
  8
文字标注
100
AcDbText
 10
1151.6341523305687
 20
115.0
 30
0.0
 40
3.5
  1
广高路倒虹吸
 41
0.7
 72
4
 11
1151.6341523305687
 21
115.0
 31
0.0
100
AcDbText
  0
TEXT
  5
1C2
330
17
100
AcDbEntity
  8
文字标注
100
AcDbText
 10
1310.565610316105
 20
115.0
 30
0.0
 40
3.5
  1
明渠-圆形
 41
0.7
 72
4
 11
1310.565610316105
 21
115.0
 31
0.0
100
AcDbText
  0
TEXT
  5
1C3
330
17
100
AcDbEntity
  8
文字标注
100
AcDbText
 10
1396.9625811641822
 20
115.0
 30
0.0
 40
3.5
  1
美团沟分水闸
 41
0.7
 72
4
 11
1396.9625811641822
 21
115.0
 31
0.0
100
AcDbText
  0
TEXT
  5
1C4
330
17
100
AcDbEntity
  8
文字标注
100
AcDbText
 10
1587.3121928830387
 20
115.0
 30
0.0
 40
3.5
  1
台儿沟隧洞
 41
0.7
 72
4
 11
1587.3121928830387
 21
115.0
 31
0.0
100
AcDbText
  0
TEXT
  5
1C5
330
17
100
AcDbEntity
  8
文字标注
100
AcDbText
 10
1960.6475944648516
 20
115.0
 30
0.0
 40
3.5
  1
明渠-圆形
 41
0.7
 72
4
 11
1960.6475944648516
 21
115.0
 31
0.0
100
AcDbText
  0
TEXT
  5
1C6
330
17
100
AcDbEntity
  8
文字标注
100
AcDbText
 10
2335.4992121857367
 20
115.0
 30
0.0
 40
3.5
  1
梨子园渡槽
 41
0.7
 72
4
 11
2335.4992121857367
 21
115.0
 31
0.0
100
AcDbText
  0
TEXT
  5
1C7
330
17
100
AcDbEntity
  8
文字标注
100
AcDbText
 10
2577.0585331110105
 20
115.0
 30
0.0
 40
3.5
  1
明渠-圆形
 41
0.7
 72
4
 11
2577.0585331110105
 21
115.0
 31
0.0
100
AcDbText
  0
TEXT
  5
1C8
330
17
100
AcDbEntity
  8
文字标注
100
AcDbText
 10
2619.65593599978
 20
115.0
 30
0.0
 40
3.5
  1
油房垭隧洞
 41
0.7
 72
4
 11
2619.65593599978
 21
115.0
 31
0.0
100
AcDbText
  0
TEXT
  5
1C9
330
17
100
AcDbEntity
  8
文字标注
100
AcDbText
 10
2771.811437220538
 20
115.0
 30
0.0
 40
3.5
  1
矩形暗涵
 41
0.7
 72
4
 11
2771.811437220538
 21
115.0
 31
0.0
100
AcDbText
  0
TEXT
  5
1CA
330
17
100
AcDbEntity
  8
文字标注
100
AcDbText
 10
96.5646601517444
 20
105.0
 30
0.0
 40
3.5
  1
1/3000
 41
0.7
 72
4
 11
96.5646601517444
 21
105.0
 31
0.0
100
AcDbText
  0
TEXT
  5
1CB
330
17
100
AcDbEntity
  8
文字标注
100
AcDbText
 10
225.89924314839095
 20
105.0
 30
0.0
 40
3.5
  1
1/2000
 41
0.7
 72
4
 11
225.89924314839095
 21
105.0
 31
0.0
100
AcDbText
  0
TEXT
  5
1CC
330
17
100
AcDbEntity
  8
文字标注
100
AcDbText
 10
361.73276011798345
 20
105.0
 30
0.0
 40
3.5
  1
1/3000
 41
0.7
 72
4
 11
361.73276011798345
 21
105.0
 31
0.0
100
AcDbText
  0
TEXT
  5
1CD
330
17
100
AcDbEntity
  8
文字标注
100
AcDbText
 10
621.8257841719274
 20
105.0
 30
0.0
 40
3.5
  1
1/3000
 41
0.7
 72
4
 11
621.8257841719274
 21
105.0
 31
0.0
100
AcDbText
  0
TEXT
  5
1CE
330
17
100
AcDbEntity
  8
文字标注
100
AcDbText
 10
656.2207686730894
 20
105.0
 30
0.0
 40
3.5
  1
1/2000
 41
0.7
 72
4
 11
656.2207686730894
 21
105.0
 31
0.0
100
AcDbText
  0
TEXT
  5
1CF
330
17
100
AcDbEntity
  8
文字标注
100
AcDbText
 10
675.1637714166736
 20
105.0
 30
0.0
 40
3.5
  1
1/3000
 41
0.7
 72
4
 11
675.1637714166736
 21
105.0
 31
0.0
100
AcDbText
  0
TEXT
  5
1D0
330
17
100
AcDbEntity
  8
文字标注
100
AcDbText
 10
831.8735003420427
 20
105.0
 30
0.0
 40
3.5
  1
1/3000
 41
0.7
 72
4
 11
831.8735003420427
 21
105.0
 31
0.0
100
AcDbText
  0
TEXT
  5
1D1
330
17
100
AcDbEntity
  8
文字标注
100
AcDbText
 10
889.4051695368006
 20
105.0
 30
0.0
 40
3.5
  1
1/2000
 41
0.7
 72
4
 11
889.4051695368006
 21
105.0
 31
0.0
100
AcDbText
  0
TEXT
  5
1D2
330
17
100
AcDbEntity
  8
文字标注
100
AcDbText
 10
949.5227142264048
 20
105.0
 30
0.0
 40
3.5
  1
1/3000
 41
0.7
 72
4
 11
949.5227142264048
 21
105.0
 31
0.0
100
AcDbText
  0
TEXT
  5
1D3
330
17
100
AcDbEntity
  8
文字标注
100
AcDbText
 10
989.8698244096686
 20
105.0
 30
0.0
 40
3.5
  1
1/2000
 41
0.7
 72
4
 11
989.8698244096686
 21
105.0
 31
0.0
100
AcDbText
  0
TEXT
  5
1D4
330
17
100
AcDbEntity
  8
文字标注
100
AcDbText
 10
1027.6731005828324
 20
105.0
 30
0.0
 40
3.5
  1
1/3000
 41
0.7
 72
4
 11
1027.6731005828324
 21
105.0
 31
0.0
100
AcDbText
  0
TEXT
  5
1D5
330
17
100
AcDbEntity
  8
文字标注
100
AcDbText
 10
1310.565610316105
 20
105.0
 30
0.0
 40
3.5
  1
1/3000
 41
0.7
 72
4
 11
1310.565610316105
 21
105.0
 31
0.0
100
AcDbText
  0
TEXT
  5
1D6
330
17
100
AcDbEntity
  8
文字标注
100
AcDbText
 10
1587.3121928830387
 20
105.0
 30
0.0
 40
3.5
  1
1/2000
 41
0.7
 72
4
 11
1587.3121928830387
 21
105.0
 31
0.0
100
AcDbText
  0
TEXT
  5
1D7
330
17
100
AcDbEntity
  8
文字标注
100
AcDbText
 10
1960.6475944648516
 20
105.0
 30
0.0
 40
3.5
  1
1/3000
 41
0.7
 72
4
 11
1960.6475944648516
 21
105.0
 31
0.0
100
AcDbText
  0
TEXT
  5
1D8
330
17
100
AcDbEntity
  8
文字标注
100
AcDbText
 10
2335.4992121857367
 20
105.0
 30
0.0
 40
3.5
  1
1/1500
 41
0.7
 72
4
 11
2335.4992121857367
 21
105.0
 31
0.0
100
AcDbText
  0
TEXT
  5
1D9
330
17
100
AcDbEntity
  8
文字标注
100
AcDbText
 10
2577.0585331110105
 20
105.0
 30
0.0
 40
3.5
  1
1/3000
 41
0.7
 72
4
 11
2577.0585331110105
 21
105.0
 31
0.0
100
AcDbText
  0
TEXT
  5
1DA
330
17
100
AcDbEntity
  8
文字标注
100
AcDbText
 10
2619.65593599978
 20
105.0
 30
0.0
 40
3.5
  1
1/2000
 41
0.7
 72
4
 11
2619.65593599978
 21
105.0
 31
0.0
100
AcDbText
  0
TEXT
  5
1DB
330
17
100
AcDbEntity
  8
文字标注
100
AcDbText
 10
2771.811437220538
 20
105.0
 30
0.0
 40
3.5
  1
1/3000
 41
0.7
 72
4
 11
2771.811437220538
 21
105.0
 31
0.0
100
AcDbText
  0
TEXT
  5
1DC
330
17
100
AcDbEntity
  8
文字标注
100
AcDbText
 10
4.8
 20
77.0
 30
0.0
 40
3.5
  1
南支IP0
 50
90.0
 41
0.7
 11
4.8
 21
77.0
 31
0.0
100
AcDbText
  0
TEXT
  5
1DD
330
17
100
AcDbEntity
  8
文字标注
100
AcDbText
 10
107.44443332096523
 20
77.0
 30
0.0
 40
3.5
  1
南支IP1
 50
90.0
 41
0.7
 11
107.44443332096523
 21
77.0
 31
0.0
100
AcDbText
  0
TEXT
  5
1DE
330
17
100
AcDbEntity
  8
文字标注
100
AcDbText
 10
168.56113070436587
 20
77.0
 30
0.0
 40
3.5
  1
南支IP2
 50
90.0
 41
0.7
 11
168.56113070436587
 21
77.0
 31
0.0
100
AcDbText
  0
TEXT
  5
1DF
330
17
100
AcDbEntity
  8
文字标注
100
AcDbText
 10
192.1293203034888
 20
77.0
 30
0.0
 40
3.5
  1
土地垭隧进
 50
90.0
 41
0.7
 11
192.1293203034888
 21
77.0
 31
0.0
100
AcDbText
  0
TEXT
  5
1E0
330
17
100
AcDbEntity
  8
文字标注
100
AcDbText
 10
257.66916599329306
 20
77.0
 30
0.0
 40
3.5
  1
土地垭隧出
 50
90.0
 41
0.7
 11
257.66916599329306
 21
77.0
 31
0.0
100
AcDbText
  0
TEXT
  5
1E1
330
17
100
AcDbEntity
  8
文字标注
100
AcDbText
 10
283.6785097240433
 20
77.0
 30
0.0
 40
3.5
  1
南支IP5
 50
90.0
 41
0.7
 11
283.6785097240433
 21
77.0
 31
0.0
100
AcDbText
  0
TEXT
  5
1E2
330
17
100
AcDbEntity
  8
文字标注
100
AcDbText
 10
302.9442141024815
 20
77.0
 30
0.0
 40
3.5
  1
南支IP6
 50
90.0
 41
0.7
 11
302.9442141024815
 21
77.0
 31
0.0
100
AcDbText
  0
TEXT
  5
1E3
330
17
100
AcDbEntity
  8
文字标注
100
AcDbText
 10
326.1639545718192
 20
77.0
 30
0.0
 40
3.5
  1
南支IP7
 50
90.0
 41
0.7
 11
326.1639545718192
 21
77.0
 31
0.0
100
AcDbText
  0
TEXT
  5
1E4
330
17
100
AcDbEntity
  8
文字标注
100
AcDbText
 10
417.55074158583886
 20
77.0
 30
0.0
 40
3.5
  1
南支IP8
 50
90.0
 41
0.7
 11
417.55074158583886
 21
77.0
 31
0.0
100
AcDbText
  0
TEXT
  5
1E5
330
17
100
AcDbEntity
  8
文字标注
100
AcDbText
 10
463.79635424267383
 20
77.0
 30
0.0
 40
3.5
  1
沪蓉倒进
 50
90.0
 41
0.7
 11
463.79635424267383
 21
77.0
 31
0.0
100
AcDbText
  0
TEXT
  5
1E6
330
17
100
AcDbEntity
  8
文字标注
100
AcDbText
 10
596.223072593722
 20
77.0
 30
0.0
 40
3.5
  1
沪蓉倒出
 50
90.0
 41
0.7
 11
596.223072593722
 21
77.0
 31
0.0
100
AcDbText
  0
TEXT
  5
1E7
330
17
100
AcDbEntity
  8
文字标注
100
AcDbText
 10
620.8257841719274
 20
77.0
 30
0.0
 40
3.5
  1
南支IP0
 50
90.0
 41
0.7
 11
620.8257841719274
 21
77.0
 31
0.0
100
AcDbText
  0
TEXT
  5
1E8
330
17
100
AcDbEntity
  8
文字标注
100
AcDbText
 10
645.4284957501327
 20
77.0
 30
0.0
 40
3.5
  1
宋家沟隧进
 50
90.0
 41
0.7
 11
645.4284957501327
 21
77.0
 31
0.0
100
AcDbText
  0
TEXT
  5
1E9
330
17
100
AcDbEntity
  8
文字标注
100
AcDbText
 10
665.0130415960462
 20
77.0
 30
0.0
 40
3.5
  1
宋家沟隧出
 50
90.0
 41
0.7
 11
665.0130415960462
 21
77.0
 31
0.0
100
AcDbText
  0
TEXT
  5
1EA
330
17
100
AcDbEntity
  8
文字标注
100
AcDbText
 10
674.1637714168826
 20
77.0
 30
0.0
 40
3.5
  1
南支IP0
 50
90.0
 41
0.7
 11
674.1637714168826
 21
77.0
 31
0.0
100
AcDbText
  0
TEXT
  5
1EB
330
17
100
AcDbEntity
  8
文字标注
100
AcDbText
 10
683.314501237301
 20
77.0
 30
0.0
 40
3.5
  1
广岳倒进
 50
90.0
 41
0.7
 11
683.314501237301
 21
77.0
 31
0.0
100
AcDbText
  0
TEXT
  5
1EC
330
17
100
AcDbEntity
  8
文字标注
100
AcDbText
 10
811.014835476225
 20
77.0
 30
0.0
 40
3.5
  1
广岳倒出
 50
90.0
 41
0.7
 11
811.014835476225
 21
77.0
 31
0.0
100
AcDbText
  0
TEXT
  5
1ED
330
17
100
AcDbEntity
  8
文字标注
100
AcDbText
 10
830.8735003420427
 20
77.0
 30
0.0
 40
3.5
  1
南支IP0
 50
90.0
 41
0.7
 11
830.8735003420427
 21
77.0
 31
0.0
100
AcDbText
  0
TEXT
  5
1EE
330
17
100
AcDbEntity
  8
文字标注
100
AcDbText
 10
850.7321652078604
 20
77.0
 30
0.0
 40
3.5
  1
伍家沟隧进
 50
90.0
 41
0.7
 11
850.7321652078604
 21
77.0
 31
0.0
100
AcDbText
  0
TEXT
  5
1EF
330
17
100
AcDbEntity
  8
文字标注
100
AcDbText
 10
926.0781738657408
 20
77.0
 30
0.0
 40
3.5
  1
伍家沟隧出
 50
90.0
 41
0.7
 11
926.0781738657408
 21
77.0
 31
0.0
100
AcDbText
  0
TEXT
  5
1F0
330
17
100
AcDbEntity
  8
文字标注
100
AcDbText
 10
948.5227142263551
 20
77.0
 30
0.0
 40
3.5
  1
南支IP0
 50
90.0
 41
0.7
 11
948.5227142263551
 21
77.0
 31
0.0
100
AcDbText
  0
TEXT
  5
1F1
330
17
100
AcDbEntity
  8
文字标注
100
AcDbText
 10
970.9672545870687
 20
77.0
 30
0.0
 40
3.5
  1
刘家沟渡进
 50
90.0
 41
0.7
 11
970.9672545870687
 21
77.0
 31
0.0
100
AcDbText
  0
TEXT
  5
1F2
330
17
100
AcDbEntity
  8
文字标注
100
AcDbText
 10
1006.7723942322685
 20
77.0
 30
0.0
 40
3.5
  1
刘家沟渡出
 50
90.0
 41
0.7
 11
1006.7723942322685
 21
77.0
 31
0.0
100
AcDbText
  0
TEXT
  5
1F3
330
17
100
AcDbEntity
  8
文字标注
100
AcDbText
 10
1026.6731005828324
 20
77.0
 30
0.0
 40
3.5
  1
南支IP0
 50
90.0
 41
0.7
 11
1026.6731005828324
 21
77.0
 31
0.0
100
AcDbText
  0
TEXT
  5
1F4
330
17
100
AcDbEntity
  8
文字标注
100
AcDbText
 10
1046.5738069333963
 20
77.0
 30
0.0
 40
3.5
  1
广高路倒进
 50
90.0
 41
0.7
 11
1046.5738069333963
 21
77.0
 31
0.0
100
AcDbText
  0
TEXT
  5
1F5
330
17
100
AcDbEntity
  8
文字标注
100
AcDbText
 10
1254.694497727741
 20
77.0
 30
0.0
 40
3.5
  1
广高路倒出
 50
90.0
 41
0.7
 11
1254.694497727741
 21
77.0
 31
0.0
100
AcDbText
  0
TEXT
  5
1F6
330
17
100
AcDbEntity
  8
文字标注
100
AcDbText
 10
1282.5171426895954
 20
77.0
 30
0.0
 40
3.5
  1
南支IP32
 50
90.0
 41
0.7
 11
1282.5171426895954
 21
77.0
 31
0.0
100
AcDbText
  0
TEXT
  5
1F7
330
17
100
AcDbEntity
  8
文字标注
100
AcDbText
 10
1293.0171025680065
 20
77.0
 30
0.0
 40
3.5
  1
南支IP33
 50
90.0
 41
0.7
 11
1293.0171025680065
 21
77.0
 31
0.0
100
AcDbText
  0
TEXT
  5
1F8
330
17
100
AcDbEntity
  8
文字标注
100
AcDbText
 10
1364.436722904469
 20
77.0
 30
0.0
 40
3.5
  1
台儿沟隧进
 50
90.0
 41
0.7
 11
1364.436722904469
 21
77.0
 31
0.0
100
AcDbText
  0
TEXT
  5
1F9
330
17
100
AcDbEntity
  8
文字标注
100
AcDbText
 10
1395.9625811641822
 20
77.0
 30
0.0
 40
3.5
  1
南支IP35
 50
90.0
 41
0.7
 11
1395.9625811641822
 21
77.0
 31
0.0
100
AcDbText
  0
TEXT
  5
1FA
330
17
100
AcDbEntity
  8
文字标注
100
AcDbText
 10
1808.1876628616087
 20
77.0
 30
0.0
 40
3.5
  1
台儿沟隧出
 50
90.0
 41
0.7
 11
1808.1876628616087
 21
77.0
 31
0.0
100
AcDbText
  0
TEXT
  5
1FB
330
17
100
AcDbEntity
  8
文字标注
100
AcDbText
 10
1959.6475944647943
 20
77.0
 30
0.0
 40
3.5
  1
南支IP0
 50
90.0
 41
0.7
 11
1959.6475944647943
 21
77.0
 31
0.0
100
AcDbText
  0
TEXT
  5
1FC
330
17
100
AcDbEntity
  8
文字标注
100
AcDbText
 10
2111.1075260680946
 20
77.0
 30
0.0
 40
3.5
  1
梨子园渡进
 50
90.0
 41
0.7
 11
2111.1075260680946
 21
77.0
 31
0.0
100
AcDbText
  0
TEXT
  5
1FD
330
17
100
AcDbEntity
  8
文字标注
100
AcDbText
 10
2557.8908983033793
 20
77.0
 30
0.0
 40
3.5
  1
梨子园渡出
 50
90.0
 41
0.7
 11
2557.8908983033793
 21
77.0
 31
0.0
100
AcDbText
  0
TEXT
  5
1FE
330
17
100
AcDbEntity
  8
文字标注
100
AcDbText
 10
2576.058533111016
 20
77.0
 30
0.0
 40
3.5
  1
南支IP0
 50
90.0
 41
0.7
 11
2576.058533111016
 21
77.0
 31
0.0
100
AcDbText
  0
TEXT
  5
1FF
330
17
100
AcDbEntity
  8
文字标注
100
AcDbText
 10
2594.226167918642
 20
77.0
 30
0.0
 40
3.5
  1
油房垭隧进
 50
90.0
 41
0.7
 11
2594.226167918642
 21
77.0
 31
0.0
100
AcDbText
  0
TEXT
  5
200
330
17
100
AcDbEntity
  8
文字标注
100
AcDbText
 10
2643.0857040809183
 20
77.0
 30
0.0
 40
3.5
  1
油房垭隧出
 50
90.0
 41
0.7
 11
2643.0857040809183
 21
77.0
 31
0.0
100
AcDbText
  0
TEXT
  5
201
330
17
100
AcDbEntity
  8
文字标注
100
AcDbText
 10
2736.962919665265
 20
77.0
 30
0.0
 40
3.5
  1
南支IP42
 50
90.0
 41
0.7
 11
2736.962919665265
 21
77.0
 31
0.0
100
AcDbText
  0
TEXT
  5
202
330
17
100
AcDbEntity
  8
文字标注
100
AcDbText
 10
2898.537170360158
 20
77.0
 30
0.0
 40
3.5
  1
南支IP43
 50
90.0
 41
0.7
 11
2898.537170360158
 21
77.0
 31
0.0
100
AcDbText
  0
ENDSEC
  0
SECTION
  2
OBJECTS
  0
DICTIONARY
  5
A
330
0
100
AcDbDictionary
281
1
  3
ACAD_COLOR
350
B
  3
ACAD_GROUP
350
C
  3
ACAD_LAYOUT
350
D
  3
ACAD_MATERIAL
350
E
  3
ACAD_MLEADERSTYLE
350
F
  3
ACAD_MLINESTYLE
350
10
  3
ACAD_PLOTSETTINGS
350
11
  3
ACAD_PLOTSTYLENAME
350
12
  3
ACAD_SCALELIST
350
14
  3
ACAD_TABLESTYLE
350
15
  3
ACAD_VISUALSTYLE
350
16
  3
EZDXF_META
350
2D
  0
DICTIONARY
  5
B
330
A
100
AcDbDictionary
281
1
  0
DICTIONARY
  5
C
330
A
100
AcDbDictionary
281
1
  0
DICTIONARY
  5
D
330
A
100
AcDbDictionary
281
1
  3
Model
350
1A
  3
Layout1
350
1E
  0
DICTIONARY
  5
E
330
A
100
AcDbDictionary
281
1
  3
ByBlock
350
1F
  3
ByLayer
350
20
  3
Global
350
21
  0
DICTIONARY
  5
F
330
A
100
AcDbDictionary
281
1
  3
Standard
350
2C
  0
DICTIONARY
  5
10
330
A
100
AcDbDictionary
281
1
  3
Standard
350
22
  0
DICTIONARY
  5
11
330
A
100
AcDbDictionary
281
1
  0
ACDBDICTIONARYWDFLT
  5
12
330
A
100
AcDbDictionary
281
1
  3
Normal
350
13
100
AcDbDictionaryWithDefault
340
13
  0
ACDBPLACEHOLDER
  5
13
330
12
  0
DICTIONARY
  5
14
330
A
100
AcDbDictionary
281
1
  0
DICTIONARY
  5
15
330
A
100
AcDbDictionary
281
1
  0
DICTIONARY
  5
16
330
A
100
AcDbDictionary
281
1
  0
LAYOUT
  5
1A
330
D
100
AcDbPlotSettings
  1

  4
A3
  6

 40
7.5
 41
20.0
 42
7.5
 43
20.0
 44
420.0
 45
297.0
 46
0.0
 47
0.0
 48
0.0
 49
0.0
140
0.0
141
0.0
142
1.0
143
1.0
 70
1024
 72
1
 73
0
 74
5
  7

 75
16
 76
0
 77
2
 78
300
147
1.0
148
0.0
149
0.0
100
AcDbLayout
  1
Model
 70
1
 71
0
 10
0.0
 20
0.0
 11
420.0
 21
297.0
 12
0.0
 22
0.0
 32
0.0
 14
1e+20
 24
1e+20
 34
1e+20
 15
-1e+20
 25
-1e+20
 35
-1e+20
146
0.0
 13
0.0
 23
0.0
 33
0.0
 16
1.0
 26
0.0
 36
0.0
 17
0.0
 27
1.0
 37
0.0
 76
1
330
17
  0
LAYOUT
  5
1E
330
D
100
AcDbPlotSettings
  1

  4
A3
  6

 40
7.5
 41
20.0
 42
7.5
 43
20.0
 44
420.0
 45
297.0
 46
0.0
 47
0.0
 48
0.0
 49
0.0
140
0.0
141
0.0
142
1.0
143
1.0
 70
0
 72
1
 73
0
 74
5
  7

 75
16
 76
0
 77
2
 78
300
147
1.0
148
0.0
149
0.0
100
AcDbLayout
  1
Layout1
 70
1
 71
1
 10
0.0
 20
0.0
 11
420.0
 21
297.0
 12
0.0
 22
0.0
 32
0.0
 14
1e+20
 24
1e+20
 34
1e+20
 15
-1e+20
 25
-1e+20
 35
-1e+20
146
0.0
 13
0.0
 23
0.0
 33
0.0
 16
1.0
 26
0.0
 36
0.0
 17
0.0
 27
1.0
 37
0.0
 76
1
330
1B
  0
MATERIAL
  5
1F
102
{ACAD_REACTORS
330
E
102
}
330
E
100
AcDbMaterial
  1
ByBlock
  2

 70
0
 40
1.0
 71
1
 41
1.0
 91
-1023410177
 42
1.0
 72
1
  3

 73
1
 74
1
 75
1
 44
0.5
 73
0
 45
1.0
 46
1.0
 77
1
  4

 78
1
 79
1
170
1
 48
1.0
171
1
  6

172
1
173
1
174
1
140
1.0
141
1.0
175
1
  7

176
1
177
1
178
1
143
1.0
179
1
  8

270
1
271
1
272
1
145
1.0
146
1.0
273
1
  9

274
1
275
1
276
1
 42
1.0
 72
1
  3

 73
1
 74
1
 75
1
 94
63
  0
MATERIAL
  5
20
102
{ACAD_REACTORS
330
E
102
}
330
E
100
AcDbMaterial
  1
ByLayer
  2

 70
0
 40
1.0
 71
1
 41
1.0
 91
-1023410177
 42
1.0
 72
1
  3

 73
1
 74
1
 75
1
 44
0.5
 73
0
 45
1.0
 46
1.0
 77
1
  4

 78
1
 79
1
170
1
 48
1.0
171
1
  6

172
1
173
1
174
1
140
1.0
141
1.0
175
1
  7

176
1
177
1
178
1
143
1.0
179
1
  8

270
1
271
1
272
1
145
1.0
146
1.0
273
1
  9

274
1
275
1
276
1
 42
1.0
 72
1
  3

 73
1
 74
1
 75
1
 94
63
  0
MATERIAL
  5
21
102
{ACAD_REACTORS
330
E
102
}
330
E
100
AcDbMaterial
  1
Global
  2

 70
0
 40
1.0
 71
1
 41
1.0
 91
-1023410177
 42
1.0
 72
1
  3

 73
1
 74
1
 75
1
 44
0.5
 73
0
 45
1.0
 46
1.0
 77
1
  4

 78
1
 79
1
170
1
 48
1.0
171
1
  6

172
1
173
1
174
1
140
1.0
141
1.0
175
1
  7

176
1
177
1
178
1
143
1.0
179
1
  8

270
1
271
1
272
1
145
1.0
146
1.0
273
1
  9

274
1
275
1
276
1
 42
1.0
 72
1
  3

 73
1
 74
1
 75
1
 94
63
  0
MLINESTYLE
  5
22
102
{ACAD_REACTORS
330
10
102
}
330
10
100
AcDbMlineStyle
  2
Standard
 70
0
  3

 62
256
 51
90.0
 52
90.0
 71
2
 49
0.5
 62
256
  6
BYLAYER
 49
-0.5
 62
256
  6
BYLAYER
  0
MLEADERSTYLE
  5
2C
102
{ACAD_REACTORS
330
F
102
}
330
F
100
AcDbMLeaderStyle
179
2
170
2
171
1
172
0
 90
2
 40
0.0
 41
0.0
173
1
 91
-1056964608
 92
-2
290
1
 42
2.0
291
1
 43
8.0
  3
Standard
 44
4.0
300

342
29
174
1
175
1
176
0
178
1
 93
-1056964608
 45
4.0
292
0
297
0
 46
4.0
 94
-1056964608
 47
1.0
 49
1.0
140
1.0
294
1
141
0.0
177
0
142
1.0
295
0
296
0
143
3.75
271
0
272
9
273
9
  0
DICTIONARY
  5
2D
330
A
100
AcDbDictionary
280
1
281
1
  3
CREATED_BY_EZDXF
350
2E
  3
WRITTEN_BY_EZDXF
350
205
  0
DICTIONARYVAR
  5
2E
330
2D
100
DictionaryVariables
280
0
  1
1.4.3 @ 2026-02-14T14:04:46.791696+00:00
  0
DICTIONARYVAR
  5
205
330
2D
100
DictionaryVariables
280
0
  1
1.4.3 @ 2026-02-14T14:04:46.800839+00:00
  0
ENDSEC
  0
EOF
